<?xml version="1.0" encoding="utf-8"?>
<!-- Generator: Adobe Illustrator 22.0.1, SVG Export Plug-In . SVG Version: 6.00 Build 0)  -->
<svg version="1.1" id="Layer_1" xmlns="http://www.w3.org/2000/svg" xmlns:xlink="http://www.w3.org/1999/xlink" x="0px" y="0px"
	 viewBox="0 0 280 270" style="enable-background:new 0 0 280 270;" xml:space="preserve">
<style type="text/css">
	.st0{fill:#C6C3C1;}
	.st1{fill:#603B15;}
	.st2{fill:#FDD09C;}
	.st3{fill:#4E4533;}
	.st4{fill:#806339;}
	.st5{fill:#4B5484;}
	.st6{fill:#B47C2B;}
	.st7{fill:#715623;}
	.st8{fill:#86817E;}
	.st9{fill:#383530;}
	.st10{fill:#867E83;}
	.st11{fill:#1B0E21;}
	.st12{fill:#595257;}
	.st13{fill:#9B702A;}
	.st14{fill:#200E0A;}
	.st15{fill:#231F20;}
	.st16{fill:#FFE5AC;}
	.st17{fill:#C8822A;}
	.st18{fill:#4C4C41;}
	.st19{fill:none;stroke:#CAB42E;stroke-width:2;stroke-miterlimit:10;}
	.st20{fill:#CAB42E;}
	.st21{fill:#0C2315;}
	.st22{fill:#B6BFE1;}
	.st23{fill:#454B52;}
	.st24{fill:#E13E26;}
	.st25{fill:#C58E2B;}
	.st26{fill:#239B48;}
	.st27{fill:#364199;}
	.st28{fill:#575A64;}
	.st29{fill:#D7B681;}
	.st30{fill:#A79E90;}
	.st31{fill:#9BD8E0;}
	.st32{fill:#112112;}
	.st33{fill:#D44B27;}
	.st34{fill:#30A749;}
	.st35{fill:#575958;}
	.st36{fill:#040508;}
	.st37{fill:#68896F;}
	.st38{fill:#070707;}
	.st39{fill:#E62526;}
	.st40{fill:none;stroke:#1F803F;stroke-width:0.5;stroke-miterlimit:10;}
	.st41{fill:#76C380;}
</style>
<path class="st0" d="M269.8,228.7h-132c-2.8,0-5-2.3-5-5v-59c0-33,27-60,60-60h22c33,0,60,27,60,60v59
	C274.8,226.4,272.5,228.7,269.8,228.7z"/>
<path class="st1" d="M73.2,249.6h-3.7c-2.9,0-5.2-2.3-5.2-5.2v-20.3c0-2.9,2.3-5.2,5.2-5.2h3.7c2.9,0,5.2,2.3,5.2,5.2v20.3
	C78.3,247.3,76,249.6,73.2,249.6z"/>
<path class="st2" d="M65.9,107.8H51.3c-2,0-3.6-1.6-3.6-3.6V86.1c0-2,1.6-3.6,3.6-3.6h14.6c2,0,3.6,1.6,3.6,3.6v18.2
	C69.5,106.2,67.9,107.8,65.9,107.8z"/>
<path class="st2" d="M60.7,89.3h-4c-12.7,0-23-10.3-23-23v-38c0-10.5,8.5-19,19-19h12c10.5,0,19,8.5,19,19v38
	C83.7,79,73.4,89.3,60.7,89.3z"/>
<path class="st3" d="M53.4,36.2h-9c-1.1,0-2-0.9-2-2v0c0-1.1,0.9-2,2-2h9c1.1,0,2,0.9,2,2v0C55.4,35.3,54.5,36.2,53.4,36.2z"/>
<path class="st4" d="M86.9,49.7h-3.1V37.8h3.1c1.1,0,2,0.9,2,2v7.9C88.9,48.8,88,49.7,86.9,49.7z"/>
<circle class="st5" cx="48.9" cy="39.9" r="2.1"/>
<path class="st6" d="M59.6,53.3h-0.2c-1.1,0-2-0.9-2-2v-8.2c0-1.1,0.9-2,2-2h0.2c1.1,0,2,0.9,2,2v8.2C61.6,52.4,60.7,53.3,59.6,53.3
	z"/>
<path class="st3" d="M75.8,36.2h-9c-1.1,0-2-0.9-2-2v0c0-1.1,0.9-2,2-2h9c1.1,0,2,0.9,2,2v0C77.8,35.3,76.9,36.2,75.8,36.2z"/>
<circle class="st5" cx="71.3" cy="39.9" r="2.1"/>
<path class="st6" d="M61.9,53.3h-3.1v-2c0-1.1,0.9-2,2-2h1.1c1.1,0,2,0.9,2,2v0C63.9,52.4,63,53.3,61.9,53.3z"/>
<path class="st6" d="M59.7,53.3h-3.1c-1.1,0-2-0.9-2-2v0c0-1.1,0.9-2,2-2h1.1c1.1,0,2,0.9,2,2V53.3z"/>
<g>
	<g>
		<path class="st7" d="M48.6,64.2c0.9,4.9,3.2,10.1,8.8,10.8c5.1,0.7,8.7-3.3,10.7-7.5c0.5-1.2-1.2-2.2-1.7-1
			c-1.7,3.7-4.9,7.7-9.5,6.4c-4.2-1.1-5.6-5.4-6.3-9.2C50.3,62.5,48.4,63,48.6,64.2L48.6,64.2z"/>
	</g>
</g>
<path class="st4" d="M30.6,50.3h3.1V38.4h-3.1c-1.1,0-2,0.9-2,2v7.9C28.6,49.4,29.5,50.3,30.6,50.3z"/>
<path class="st8" d="M64.8,9.3h-12c-10.5,0-19,8.5-19,19v19.6c1.9-0.2,3.8-0.3,5.7-0.2v-7.2c0-10.5,8.5-19,19-19h12
	c5.1,0,9.8,2,13.2,5.3C83,17.1,74.8,9.3,64.8,9.3z"/>
<g>
	<g>
		<path class="st9" d="M35.3,60.3c0.6,0,0.6-1,0-1C34.7,59.3,34.7,60.3,35.3,60.3L35.3,60.3z"/>
	</g>
</g>
<g>
	<g>
		<path class="st9" d="M39.5,60.3c0.6,0,0.6-1,0-1C38.8,59.3,38.8,60.3,39.5,60.3L39.5,60.3z"/>
	</g>
</g>
<g>
	<g>
		<path class="st9" d="M37.1,64c0.6,0,0.6-1,0-1C36.5,63,36.5,64,37.1,64L37.1,64z"/>
	</g>
</g>
<g>
	<g>
		<path class="st9" d="M43.5,63.6c0.6,0,0.6-1,0-1C42.8,62.6,42.8,63.6,43.5,63.6L43.5,63.6z"/>
	</g>
</g>
<g>
	<g>
		<path class="st9" d="M41.6,62.1c0.6,0,0.6-1,0-1C41,61.1,41,62.1,41.6,62.1L41.6,62.1z"/>
	</g>
</g>
<g>
	<g>
		<path class="st9" d="M41.3,68.8c0.6,0,0.6-1,0-1C40.7,67.8,40.7,68.8,41.3,68.8L41.3,68.8z"/>
	</g>
</g>
<g>
	<g>
		<path class="st9" d="M48.6,73c0.6,0,0.6-1,0-1C48,72,48,73,48.6,73L48.6,73z"/>
	</g>
</g>
<g>
	<g>
		<path class="st9" d="M46.5,68.1c0.6,0,0.6-1,0-1C45.8,67.1,45.8,68.1,46.5,68.1L46.5,68.1z"/>
	</g>
</g>
<g>
	<g>
		<path class="st9" d="M43.6,74.5c0.6,0,0.6-1,0-1C43,73.5,43,74.5,43.6,74.5L43.6,74.5z"/>
	</g>
</g>
<g>
	<g>
		<path class="st9" d="M36.3,71.5c0.6,0,0.6-1,0-1C35.7,70.5,35.7,71.5,36.3,71.5L36.3,71.5z"/>
	</g>
</g>
<g>
	<g>
		<path class="st9" d="M46.5,79.8c0.6,0,0.6-1,0-1C45.8,78.8,45.8,79.8,46.5,79.8L46.5,79.8z"/>
	</g>
</g>
<g>
	<g>
		<path class="st9" d="M56.1,81.8c0.6,0,0.6-1,0-1C55.5,80.8,55.5,81.8,56.1,81.8L56.1,81.8z"/>
	</g>
</g>
<g>
	<g>
		<path class="st9" d="M53.3,77.5c0.6,0,0.6-1,0-1C52.7,76.5,52.6,77.5,53.3,77.5L53.3,77.5z"/>
	</g>
</g>
<g>
	<g>
		<path class="st9" d="M52.3,83.3c0.6,0,0.6-1,0-1C51.7,82.3,51.6,83.3,52.3,83.3L52.3,83.3z"/>
	</g>
</g>
<g>
	<g>
		<path class="st9" d="M49.5,77.8c0.6,0,0.6-1,0-1C48.8,76.8,48.8,77.8,49.5,77.8L49.5,77.8z"/>
	</g>
</g>
<g>
	<g>
		<path class="st9" d="M49.5,85.1c0.6,0,0.6-1,0-1C48.8,84.1,48.8,85.1,49.5,85.1L49.5,85.1z"/>
	</g>
</g>
<g>
	<g>
		<path class="st9" d="M42,81c0.6,0,0.6-1,0-1C41.3,80,41.3,81,42,81L42,81z"/>
	</g>
</g>
<g>
	<g>
		<path class="st9" d="M40.1,77c0.6,0,0.6-1,0-1C39.5,76,39.5,77,40.1,77L40.1,77z"/>
	</g>
</g>
<g>
	<g>
		<path class="st9" d="M45.5,60.5c0.6,0,0.6-1,0-1C44.8,59.5,44.8,60.5,45.5,60.5L45.5,60.5z"/>
	</g>
</g>
<g>
	<g>
		<path class="st9" d="M50.6,59.3c0.6,0,0.6-1,0-1C50,58.3,50,59.3,50.6,59.3L50.6,59.3z"/>
	</g>
</g>
<g>
	<g>
		<path class="st9" d="M54.1,62.8c0.6,0,0.6-1,0-1C53.5,61.8,53.5,62.8,54.1,62.8L54.1,62.8z"/>
	</g>
</g>
<g>
	<g>
		<path class="st9" d="M58.8,61.5c0.6,0,0.6-1,0-1C58.2,60.5,58.1,61.5,58.8,61.5L58.8,61.5z"/>
	</g>
</g>
<g>
	<g>
		<path class="st9" d="M58.3,66.5c0.6,0,0.6-1,0-1C57.7,65.5,57.6,66.5,58.3,66.5L58.3,66.5z"/>
	</g>
</g>
<g>
	<g>
		<path class="st9" d="M64.3,64.1c0.6,0,0.6-1,0-1C63.7,63.1,63.6,64.1,64.3,64.1L64.3,64.1z"/>
	</g>
</g>
<g>
	<g>
		<path class="st9" d="M62.1,68c0.6,0,0.6-1,0-1C61.5,67,61.5,68,62.1,68L62.1,68z"/>
	</g>
</g>
<g>
	<g>
		<path class="st9" d="M67.8,65.3c0.6,0,0.6-1,0-1C67.1,64.3,67.1,65.3,67.8,65.3L67.8,65.3z"/>
	</g>
</g>
<g>
	<g>
		<path class="st9" d="M67.6,61.5c0.6,0,0.6-1,0-1C67,60.5,67,61.5,67.6,61.5L67.6,61.5z"/>
	</g>
</g>
<g>
	<g>
		<path class="st9" d="M71,60.8c0.6,0,0.6-1,0-1C70.3,59.8,70.3,60.8,71,60.8L71,60.8z"/>
	</g>
</g>
<g>
	<g>
		<path class="st9" d="M71.3,65.6c0.6,0,0.6-1,0-1C70.6,64.6,70.6,65.6,71.3,65.6L71.3,65.6z"/>
	</g>
</g>
<g>
	<g>
		<path class="st9" d="M74.1,64.3c0.6,0,0.6-1,0-1C73.5,63.3,73.5,64.3,74.1,64.3L74.1,64.3z"/>
	</g>
</g>
<g>
	<g>
		<path class="st9" d="M76.5,61.5c0.6,0,0.6-1,0-1C75.8,60.5,75.8,61.5,76.5,61.5L76.5,61.5z"/>
	</g>
</g>
<g>
	<g>
		<path class="st9" d="M80.3,63c0.6,0,0.6-1,0-1C79.6,62,79.6,63,80.3,63L80.3,63z"/>
	</g>
</g>
<g>
	<g>
		<path class="st9" d="M81.1,68.1c0.6,0,0.6-1,0-1C80.5,67.1,80.5,68.1,81.1,68.1L81.1,68.1z"/>
	</g>
</g>
<g>
	<g>
		<path class="st9" d="M75,66.6c0.6,0,0.6-1,0-1C74.3,65.6,74.3,66.6,75,66.6L75,66.6z"/>
	</g>
</g>
<g>
	<g>
		<path class="st9" d="M73,74.1c0.6,0,0.6-1,0-1C72.3,73.1,72.3,74.1,73,74.1L73,74.1z"/>
	</g>
</g>
<g>
	<g>
		<path class="st9" d="M76.8,71.6c0.6,0,0.6-1,0-1C76.1,70.6,76.1,71.6,76.8,71.6L76.8,71.6z"/>
	</g>
</g>
<g>
	<g>
		<path class="st9" d="M78.1,66.1c0.6,0,0.6-1,0-1C77.5,65.1,77.5,66.1,78.1,66.1L78.1,66.1z"/>
	</g>
</g>
<g>
	<g>
		<path class="st9" d="M80.3,74.3c0.6,0,0.6-1,0-1C79.6,73.3,79.6,74.3,80.3,74.3L80.3,74.3z"/>
	</g>
</g>
<g>
	<g>
		<path class="st9" d="M74,80.6c0.6,0,0.6-1,0-1C73.3,79.6,73.3,80.6,74,80.6L74,80.6z"/>
	</g>
</g>
<g>
	<g>
		<path class="st9" d="M76.1,77c0.6,0,0.6-1,0-1C75.5,76,75.5,77,76.1,77L76.1,77z"/>
	</g>
</g>
<g>
	<g>
		<path class="st9" d="M71.6,70.5c0.6,0,0.6-1,0-1C71,69.5,71,70.5,71.6,70.5L71.6,70.5z"/>
	</g>
</g>
<g>
	<g>
		<path class="st9" d="M68,74.5c0.6,0,0.6-1,0-1C67.3,73.5,67.3,74.5,68,74.5L68,74.5z"/>
	</g>
</g>
<g>
	<g>
		<path class="st9" d="M72,78.1c0.6,0,0.6-1,0-1C71.3,77.1,71.3,78.1,72,78.1L72,78.1z"/>
	</g>
</g>
<g>
	<g>
		<path class="st9" d="M65.8,77.5c0.6,0,0.6-1,0-1C65.2,76.5,65.1,77.5,65.8,77.5L65.8,77.5z"/>
	</g>
</g>
<g>
	<g>
		<path class="st9" d="M70,82.1c0.6,0,0.6-1,0-1C69.3,81.1,69.3,82.1,70,82.1L70,82.1z"/>
	</g>
</g>
<g>
	<g>
		<path class="st9" d="M66.3,83.3c0.6,0,0.6-1,0-1C65.7,82.3,65.6,83.3,66.3,83.3L66.3,83.3z"/>
	</g>
</g>
<g>
	<g>
		<path class="st9" d="M63,79.8c0.6,0,0.6-1,0-1C62.3,78.8,62.3,79.8,63,79.8L63,79.8z"/>
	</g>
</g>
<g>
	<g>
		<path class="st9" d="M58.3,78.5c0.6,0,0.6-1,0-1C57.7,77.5,57.6,78.5,58.3,78.5L58.3,78.5z"/>
	</g>
</g>
<g>
	<g>
		<path class="st9" d="M62.3,84.3c0.6,0,0.6-1,0-1C61.7,83.3,61.6,84.3,62.3,84.3L62.3,84.3z"/>
	</g>
</g>
<g>
	<g>
		<path class="st9" d="M58.5,86.5c0.6,0,0.6-1,0-1C57.8,85.5,57.8,86.5,58.5,86.5L58.5,86.5z"/>
	</g>
</g>
<g>
	<g>
		<path class="st9" d="M54.5,86.6c0.6,0,0.6-1,0-1C53.8,85.6,53.8,86.6,54.5,86.6L54.5,86.6z"/>
	</g>
</g>
<g>
	<g>
		<path class="st9" d="M59.6,82.1c0.6,0,0.6-1,0-1C59,81.1,59,82.1,59.6,82.1L59.6,82.1z"/>
	</g>
</g>
<g>
	<g>
		<path class="st9" d="M44.5,84c0.6,0,0.6-1,0-1C43.8,83,43.8,84,44.5,84L44.5,84z"/>
	</g>
</g>
<g>
	<g>
		<path class="st9" d="M67.1,87.5c0.6,0,0.6-1,0-1C66.5,86.5,66.5,87.5,67.1,87.5L67.1,87.5z"/>
	</g>
</g>
<g>
	<g>
		<path class="st9" d="M73.1,85c0.6,0,0.6-1,0-1C72.5,84,72.5,85,73.1,85L73.1,85z"/>
	</g>
</g>
<g>
	<g>
		<path class="st9" d="M68.6,79c0.6,0,0.6-1,0-1C68,78,68,79,68.6,79L68.6,79z"/>
	</g>
</g>
<g>
	<g>
		<path class="st9" d="M40.6,73c0.6,0,0.6-1,0-1C40,72,40,73,40.6,73L40.6,73z"/>
	</g>
</g>
<g>
	<g>
		<path class="st9" d="M36.3,67.3c0.6,0,0.6-1,0-1C35.7,66.3,35.7,67.3,36.3,67.3L36.3,67.3z"/>
	</g>
</g>
<g>
	<g>
		<path class="st9" d="M54.6,67c0.6,0,0.6-1,0-1C54,66,54,67,54.6,67L54.6,67z"/>
	</g>
</g>
<g>
	<g>
		<path class="st9" d="M58.5,70.8c0.6,0,0.6-1,0-1C57.8,69.8,57.8,70.8,58.5,70.8L58.5,70.8z"/>
	</g>
</g>
<g>
	<g>
		<path class="st9" d="M64.3,60.6c0.6,0,0.6-1,0-1C63.7,59.6,63.6,60.6,64.3,60.6L64.3,60.6z"/>
	</g>
</g>
<g>
	<g>
		<path class="st9" d="M61,64.1c0.6,0,0.6-1,0-1C60.3,63.1,60.3,64.1,61,64.1L61,64.1z"/>
	</g>
</g>
<g>
	<g>
		<path class="st9" d="M55.3,59.6c0.6,0,0.6-1,0-1C54.7,58.6,54.6,59.6,55.3,59.6L55.3,59.6z"/>
	</g>
</g>
<g>
	<g>
		<path class="st9" d="M48.3,62.6c0.6,0,0.6-1,0-1C47.7,61.6,47.7,62.6,48.3,62.6L48.3,62.6z"/>
	</g>
</g>
<g>
	<g>
		<path class="st9" d="M80,60c0.6,0,0.6-1,0-1C79.3,59,79.3,60,80,60L80,60z"/>
	</g>
</g>
<path class="st10" d="M80.1,168.7H36.8c-3.5,0-6.4-2.9-6.4-6.4v-55.7c0-3.5,2.9-6.4,6.4-6.4h43.3c3.5,0,6.4,2.9,6.4,6.4v55.7
	C86.5,165.9,83.6,168.7,80.1,168.7z"/>
<path class="st11" d="M75,122.8h-4.5c-1.6,0-2.9-1.3-2.9-2.9v-4.5c0-1.6,1.3-2.9,2.9-2.9H75c1.6,0,2.9,1.3,2.9,2.9v4.5
	C77.9,121.5,76.6,122.8,75,122.8z"/>
<path class="st12" d="M79,226.2H63.2v-57.6c0-3.3,2.7-6,6-6H73c3.3,0,6,2.7,6,6V226.2z"/>
<g>
	<path class="st1" d="M12.3,265.8h42.2v-23.3H30.3c-9.9,0-18,8.1-18,18V265.8z"/>
	
		<rect x="12.3" y="261.9" transform="matrix(-1 -4.486645e-11 4.486645e-11 -1 66.8019 527.7899)" class="st13" width="42.2" height="3.9"/>
	
		<rect x="12.3" y="263.9" transform="matrix(-1 -4.495261e-11 4.495261e-11 -1 66.8019 528.765)" class="st14" width="42.2" height="1"/>
	<g>
		<g>
			<path class="st15" d="M20.9,245.6c-0.9,4,2.4,6.7,5.5,8.5c1.1,0.6,2.1-1.1,1-1.7c-2.2-1.3-5.3-3.2-4.6-6.2
				C23.1,244.9,21.2,244.3,20.9,245.6L20.9,245.6z"/>
		</g>
	</g>
</g>
<path class="st1" d="M45.7,249.5h3.7c2.9,0,5.2-2.3,5.2-5.2v-20.3c0-2.9-2.3-5.2-5.2-5.2h-3.7c-2.9,0-5.2,2.3-5.2,5.2v20.3
	C40.5,247.2,42.8,249.5,45.7,249.5z"/>
<path class="st12" d="M39.7,226.3h15.8v-57.8c0-3.3-2.7-6-6-6h-3.8c-3.3,0-6,2.7-6,6V226.3z"/>
<rect x="29.3" y="161" class="st15" width="56" height="7.8"/>
<path class="st10" d="M92.4,103.2h-5.2c-10.2,0-4.2,12.2-4.2,24.9v36.8h15.8v-36.8C98.8,115.4,101.4,106.1,92.4,103.2z"/>
<path class="st10" d="M24.8,103.7H30c10.2,0,4.2,12.2,4.2,24.9v36.8H18.4v-36.8C18.4,115.9,15.7,106.6,24.8,103.7z"/>
<circle class="st16" cx="25.2" cy="168.6" r="9.4"/>
<circle class="st16" cx="92.1" cy="167.8" r="9.4"/>
<rect x="47.7" y="95.2" class="st10" width="21.6" height="7.4"/>
<polygon class="st17" points="92.1,125.3 92.1,115.7 97.8,117.1 97.4,129.1 "/>
<path class="st18" d="M76.9,114.6h-8.5c-1.1,0-2-0.9-2-2v-1.2c0-1.1,0.9-2,2-2h8.5c1.1,0,2,0.9,2,2v1.2
	C78.9,113.7,78,114.6,76.9,114.6z"/>
<path class="st18" d="M72.7,121L72.7,121c-1.1,0-2-0.9-2-2l0,0c0-1.1,0.9-2,2-2l0,0c1.1,0,2,0.9,2,2l0,0
	C74.7,120.1,73.8,121,72.7,121z"/>
<rect x="57.1" y="95.4" transform="matrix(-1 -1.224647e-16 1.224647e-16 -1 117.1581 256.326)" class="st18" width="3" height="65.6"/>
<path class="st11" d="M45.2,123.7h-4.5c-1.6,0-2.9-1.3-2.9-2.9v-4.5c0-1.6,1.3-2.9,2.9-2.9h4.5c1.6,0,2.9,1.3,2.9,2.9v4.5
	C48.1,122.4,46.8,123.7,45.2,123.7z"/>
<path class="st18" d="M46.4,115.4H38c-1.1,0-2-0.9-2-2v-1.2c0-1.1,0.9-2,2-2h8.5c1.1,0,2,0.9,2,2v1.2
	C48.4,114.5,47.5,115.4,46.4,115.4z"/>
<path class="st18" d="M42.7,121L42.7,121c-1.1,0-2-0.9-2-2l0,0c0-1.1,0.9-2,2-2h0c1.1,0,2,0.9,2,2l0,0C44.7,120.2,43.8,121,42.7,121
	z"/>
<path class="st19" d="M61.8,169.3h-7.4c-2.1,0-3.7-1.7-3.7-3.7v-4c0-2.1,1.7-3.7,3.7-3.7h7.4c2.1,0,3.7,1.7,3.7,3.7v4
	C65.6,167.6,63.9,169.3,61.8,169.3z"/>
<rect x="58.5" y="162" class="st20" width="6.5" height="3.1"/>
<g>
	<path class="st1" d="M106.5,265.9H64.3v-23.3h24.2c9.9,0,18,8.1,18,18V265.9z"/>
	<rect x="64.3" y="262" class="st13" width="42.2" height="3.9"/>
	<rect x="64.3" y="263.9" class="st14" width="42.2" height="1"/>
	<g>
		<g>
			<path class="st15" d="M96,246.2c0.7,3-2.4,4.9-4.6,6.2c-1.1,0.6-0.1,2.4,1,1.7c3.1-1.8,6.4-4.4,5.5-8.5
				C97.6,244.4,95.7,244.9,96,246.2L96,246.2z"/>
		</g>
	</g>
</g>
<path class="st21" d="M78.9,200.7h-2.7c-1.1,0-2-0.9-2-2v-8.9c0-1.1,0.9-2,2-2h2.7c1.1,0,2,0.9,2,2v8.9
	C80.9,199.8,80,200.7,78.9,200.7z"/>
<path class="st22" d="M80,195.8h-1c-1.1,0-2-0.9-2-2v-0.2c0-1.1,0.9-2,2-2h1c0.6,0,1,0.4,1,1v2.2C81,195.3,80.6,195.8,80,195.8z"/>
<path class="st21" d="M40.9,200.7h2.7c1.1,0,2-0.9,2-2v-8.9c0-1.1-0.9-2-2-2h-2.7c-1.1,0-2,0.9-2,2v8.9
	C38.9,199.8,39.8,200.7,40.9,200.7z"/>
<path class="st22" d="M39.9,195.8h1c1.1,0,2-0.9,2-2v-0.2c0-1.1-0.9-2-2-2h-1c-0.5,0-1,0.4-1,1v2.2
	C38.9,195.3,39.3,195.8,39.9,195.8z"/>
<g>
	<path class="st23" d="M230.4,183.5h-6.7c-1.9,0-3.4,1.5-3.4,3.4v19.5h0c-2.4,1-8.5,0-8.5,0c-0.5,0-0.9-0.4-0.9-0.9v-24.7
		c0-1.9-1.5-3.4-3.4-3.4h-6.7c-1.9,0-3.4,1.5-3.4,3.4v25.5h0c-2.7,1-9.1,1-10.4,0h0v-19.5c0-1.9-1.5-3.4-3.4-3.4h-6.7
		c-1.9,0-3.4,1.5-3.4,3.4v27.6v1.2v0c0,4.4,3.6,8.1,8.1,8.1h0h2h17.1h6.7h16.1h2h1.5c3.6,0,6.6-3,6.6-6.6v-1.5v-2.7v-26.1
		C233.8,185,232.3,183.5,230.4,183.5z"/>
</g>
<path class="st24" d="M187.4,193.5h-0.3v-5h0.3c0.6,0,1,0.5,1,1v3C188.4,193.1,188,193.5,187.4,193.5z"/>
<path class="st24" d="M220.1,193.5h0.3v-5h-0.3c-0.6,0-1,0.5-1,1v3C219.1,193.1,219.5,193.5,220.1,193.5z"/>
<path class="st25" d="M207.5,177.2v0.3h-5v-0.3c0-0.6,0.5-1,1-1h3C207.1,176.2,207.5,176.6,207.5,177.2z"/>
<path class="st26" d="M187.4,198h-0.3v-3.4h0.3c0.6,0,1,0.4,1,1v1.4C188.4,197.6,188,198,187.4,198z"/>
<path class="st27" d="M220.1,198h0.3v-3.4h-0.3c-0.6,0-1,0.5-1,1v1.4C219.1,197.5,219.5,198,220.1,198z"/>
<path class="st28" d="M183.2,206.8h-5.6c-0.6,0-1-0.4-1-1V188c0-1.1,0.9-2,2-2h3.6c1.1,0,2,0.9,2,2v17.8
	C184.2,206.3,183.8,206.8,183.2,206.8z"/>
<path class="st28" d="M230.1,206.3h-5.6c-0.6,0-1-0.4-1-1v-17.8c0-1.1,0.9-2,2-2h3.6c1.1,0,2,0.9,2,2v17.8
	C231.1,205.9,230.6,206.3,230.1,206.3z"/>
<circle class="st29" cx="201.7" cy="182.7" r="2"/>
<circle class="st29" cx="207.5" cy="182.7" r="2"/>
<circle class="st30" cx="200.9" cy="187.8" r="1.3"/>
<circle class="st30" cx="200.9" cy="191" r="1.3"/>
<circle class="st30" cx="200.9" cy="194.3" r="1.3"/>
<path class="st31" d="M197.7,172.6h-57c-1.6,0-3-1.3-3-3v-2c0-33,27-60,60-60h0c1.7,0,3,1.3,3,3v59
	C200.7,171.2,199.3,172.6,197.7,172.6z"/>
<path class="st31" d="M210,172.6h57c1.6,0,3-1.3,3-3v-2c0-33-27-60-60-60h0c-1.7,0-3,1.3-3,3v59C207,171.2,208.3,172.6,210,172.6z"
	/>
<circle class="st32" cx="142.6" cy="187.8" r="3.2"/>
<circle class="st32" cx="142.6" cy="195.5" r="3.2"/>
<circle class="st32" cx="142.6" cy="203.3" r="3.2"/>
<circle class="st33" cx="142.6" cy="187.8" r="1.5"/>
<circle class="st34" cx="142.6" cy="195.5" r="1.5"/>
<rect x="201" y="223.7" class="st35" width="8" height="5"/>
<circle class="st36" cx="253.7" cy="196.7" r="16.4"/>
<path class="st37" d="M159.7,191.7l-9.3-4.7c2.6-5.1,8.9-7.2,14-4.7c2.1,1.1,3.9,2.8,4.9,5L159.7,191.7z"/>
<rect x="157.5" y="186.8" transform="matrix(0.3712 -0.9286 0.9286 0.3712 -72.527 267.5277)" class="st38" width="7.6" height="1"/>
<path class="st39" d="M159.7,191.7l-9.9-3.3c0.2-0.7,0.6-1.4,1-2.1c0.4-0.7,0.9-1.3,1.4-1.8L159.7,191.7z"/>
<circle class="st40" cx="253.7" cy="196.7" r="16.4"/>
<circle class="st40" cx="253.8" cy="197.1" r="13.3"/>
<circle class="st40" cx="253.7" cy="196.7" r="10.2"/>
<circle class="st40" cx="253.8" cy="197.1" r="7.1"/>
<circle class="st40" cx="253.8" cy="197.1" r="4.3"/>
<rect x="248.8" y="189.6" transform="matrix(0.3712 -0.9286 0.9286 0.3712 -14.9527 357.7457)" class="st41" width="15.7" height="0.7"/>
</svg>
