<?xml version="1.0" encoding="utf-8"?>
<!-- Generator: Adobe Illustrator 22.0.1, SVG Export Plug-In . SVG Version: 6.00 Build 0)  -->
<svg version="1.1" id="Layer_1" xmlns="http://www.w3.org/2000/svg" xmlns:xlink="http://www.w3.org/1999/xlink" x="0px" y="0px"
	 viewBox="0 0 310 268" style="enable-background:new 0 0 310 268;" xml:space="preserve">
<style type="text/css">
	.st0{fill:#FBDBE1;}
	.st1{fill:#492B80;}
	.st2{fill:#FFF100;}
	.st3{fill:#FBBB74;}
	.st4{fill:#68092D;}
	.st5{fill:#7B277C;}
	.st6{fill:#F7991C;}
	.st7{fill:#BE5C3F;}
	.st8{fill:#DF1D3B;}
	.st9{fill:#0F0908;}
	.st10{fill:#FAAF40;}
	.st11{fill:#6952A1;}
	.st12{fill:#F6921E;}
	.st13{fill:#CB7929;}
	.st14{fill:#231F20;}
	.st15{fill:#374D8B;}
	.st16{fill:#4562AC;}
	.st17{fill:#FFFFFF;}
	.st18{fill:#D0D2D3;}
</style>
<path class="st0" d="M90,257.3H79.8c-1.1,0-2-0.9-2-2v-12.7c0-1.1,0.9-2,2-2H88c1.1,0,2,0.9,2,2V257.3z"/>
<path class="st0" d="M58.1,255.6H47.9c-1.1,0-2-0.9-2-2V241c0-1.1,0.9-2,2-2h8.2c1.1,0,2,0.9,2,2V255.6z"/>
<path class="st0" d="M103.1,170.2L103.1,170.2c4,0,7.2-3.3,7.2-7.2v-45.3c0-4-3.3-7.2-7.2-7.2h0c-4,0-7.2,3.3-7.2,7.2V163
	C95.9,167,99.1,170.2,103.1,170.2z"/>
<path class="st1" d="M98.9,115.9c0-6.7-3.1-12.7-7.9-16.7c0.3,0,0.6-0.1,0.9-0.1h12.4c4.3,0,7.8,3.5,7.8,7.8v3.8
	c0,4.3-3.5,7.8-7.8,7.8h-6L98.9,115.9z"/>
<path class="st0" d="M30,170.2L30,170.2c-4,0-7.2-3.3-7.2-7.2v-45.3c0-4,3.3-7.2,7.2-7.2h0c4,0,7.2,3.3,7.2,7.2V163
	C37.2,167,34,170.2,30,170.2z"/>
<path class="st1" d="M34.2,115.9c0-6.7,3.1-12.7,7.9-16.7c-0.3,0-0.6-0.1-0.9-0.1H28.8c-4.3,0-7.8,3.5-7.8,7.8v3.8
	c0,4.3,3.5,7.8,7.8,7.8h6L34.2,115.9z"/>
<path class="st0" d="M70.9,99.1h-5.8c-2.8,0-5-2.3-5-5v-5.9c0-2.8,2.3-5,5-5h5.8c2.8,0,5,2.3,5,5v5.9C75.9,96.9,73.7,99.1,70.9,99.1
	z"/>
<path class="st2" d="M21,76.6c1.8,3.1,23.3,5.5,25.9-1.5c2.6-7.2-5.3-7.5-0.9-14c5.1-7.5-14-2.5-14.2,7C31.5,74.5,19.7,74.5,21,76.6
	z"/>
<path class="st2" d="M31.6,67.1c0,9,18-7,20.5-14c2.6-7.2,0.3-7.8,4.7-14.4c5.1-7.5-13.7-7.8-20.5-4.6
	C30.7,36.9,31.6,58.1,31.6,67.1z"/>
<path class="st2" d="M116.4,74.3c-1.8,3.1-23.3,5.5-25.9-1.5c-2.6-7.2,5.3-7.5,0.9-14c-5.1-7.5,14-2.5,14.2,7
	C105.9,72.1,117.7,72.1,116.4,74.3z"/>
<path class="st2" d="M105.5,65.9c0,9-18-7-20.5-14c-2.6-7.2-0.3-7.8-4.7-14.4c-5.1-7.5,13.7-7.8,20.5-4.6
	C106.4,35.7,105.5,56.9,105.5,65.9z"/>
<path class="st0" d="M67.7,87.3L67.7,87.3c-13.8,0-25-11.2-25-25v-22c0-11.6,9.4-21,21-21h8c11.6,0,21,9.4,21,21v22
	C92.7,76.1,81.6,87.3,67.7,87.3z"/>
<path class="st3" d="M95.9,49.8h-3.1V39.8h2.1c1.7,0,3,1.3,3,3v5.1C97.9,48.9,97,49.8,95.9,49.8z"/>
<circle class="st4" cx="77.6" cy="40.9" r="2.5"/>
<polygon class="st5" points="96.3,47.9 93.3,54.1 99.2,54.1 "/>
<polygon class="st6" points="96.9,52.8 96.1,53.1 95.5,52.5 95.7,51.8 96.4,51.5 97,52 "/>
<path class="st3" d="M39.6,49.8h3.1V39.8h-2.1c-1.7,0-3,1.3-3,3v5.1C37.6,48.9,38.5,49.8,39.6,49.8z"/>
<g>
	<polygon class="st5" points="40.2,47.9 37.2,54.1 43.1,54.1 	"/>
	<polygon class="st6" points="40.8,53 40,53.3 39.4,52.7 39.6,51.9 40.3,51.7 40.9,52.2 	"/>
</g>
<path class="st2" d="M105,38.4c0,9-14.7-9.6-22.2-12.6c-7.1-2.9-10.8,4.5-15.3-2C62.4,16.3,80.2,9.1,87,12.3
	C92.7,15,105,29.4,105,38.4z"/>
<path class="st2" d="M32.6,38.4c0,9,14.7-9.6,22.2-12.6c7.1-2.9,10.8,4.5,15.3-2c5.1-7.5-12.8-14.7-19.6-11.5
	C44.8,15,32.6,29.4,32.6,38.4z"/>
<path class="st7" d="M68.2,56.9h-0.4c-1,0-1.8-0.8-1.8-1.8v-3.6c0-1,0.8-1.8,1.8-1.8h0.4c1,0,1.8,0.8,1.8,1.8V55
	C70,56,69.2,56.9,68.2,56.9z"/>
<g>
	<path class="st8" d="M67.6,68.6c0,1.9-1.5,3.4-3.4,3.4s-6.9-3.1-6.9-5c0-1.9,5-1.8,6.9-1.8S67.6,66.7,67.6,68.6z"/>
	<path class="st8" d="M67.4,68.6c0,1.9,1.5,3.4,3.4,3.4c1.9,0,6.9-3.1,6.9-5c0-1.9-5-1.8-6.9-1.8C69,65.2,67.4,66.7,67.4,68.6z"/>
	<path class="st8" d="M77.1,67.7c0,1.2-5.8,5.3-9.2,5.3c-3.4,0-9.2-3.2-9.2-4.5c0-1.2,5.8,0,9.2,0C71.3,68.6,77.1,66.5,77.1,67.7z"
		/>
</g>
<circle class="st4" cx="57.7" cy="40.7" r="2.5"/>
<g>
	<g>
		<path class="st9" d="M52.8,39.5c1.9-1.6,4.1-2.6,6.5-3c0.6-0.1,0.4-1.1-0.3-1c-2.6,0.4-4.9,1.5-6.9,3.2
			C51.6,39.2,52.3,39.9,52.8,39.5L52.8,39.5z"/>
	</g>
</g>
<g>
	<g>
		<path class="st9" d="M83.1,38.9c-2-1.7-4.3-2.8-6.9-3.2c-0.6-0.1-0.9,0.9-0.3,1c2.4,0.4,4.6,1.4,6.5,3
			C82.9,40,83.6,39.3,83.1,38.9L83.1,38.9z"/>
	</g>
</g>
<g>
	<g>
		<path class="st10" d="M67.2,19.3c-2.3-3.8-11-7.6-14.4-3.2c-0.8,1,0.6,2.4,1.4,1.4c2.5-3.3,9.6,0.1,11.2,2.8
			C66.1,21.4,67.9,20.4,67.2,19.3L67.2,19.3z"/>
	</g>
</g>
<g>
	<g>
		<path class="st10" d="M59.4,20.8c-2.7-0.4-3.7-0.7-6.3,0.2c-2.4,0.9-4.9,1.5-7.1,2.6c-3.8,1.8-6.3,4.9-7.6,8.8
			c-0.4,1.2,1.5,1.7,1.9,0.5c2.3-6.9,11.6-11.3,18.6-10.2C60.2,23,60.7,21,59.4,20.8L59.4,20.8z"/>
	</g>
</g>
<g>
	<g>
		<path class="st10" d="M75.8,19.6c8.5-2.1,14.7,1.9,19.9,8.3c0.8,1,2.2-0.4,1.4-1.4c-5.6-7-12.6-11.2-21.8-8.8
			C74,17.9,74.5,19.9,75.8,19.6L75.8,19.6z"/>
	</g>
</g>
<g>
	<g>
		<path class="st10" d="M88.1,28.2c5.3,1.8,7.8,7.5,11.4,11.3c0.9,0.9,2.3-0.5,1.4-1.4c-4-4.2-6.5-9.8-12.3-11.8
			C87.4,25.8,86.9,27.8,88.1,28.2L88.1,28.2z"/>
	</g>
</g>
<g>
	<g>
		<path class="st10" d="M34.6,58.4c0.7,2.8,4.4,12.2,0.2,13.2c-1.3,0.3-0.7,2.2,0.5,1.9c6.6-1.6,2.2-11.7,1.2-15.7
			C36.3,56.6,34.3,57.1,34.6,58.4L34.6,58.4z"/>
	</g>
</g>
<g>
	<g>
		<path class="st10" d="M39.4,74.1c-0.3,1.2-1.5,2-2.7,1.8c-1.3-0.3-1.8,1.7-0.5,1.9c2.3,0.5,4.6-0.9,5.2-3.2
			C41.7,73.4,39.7,72.9,39.4,74.1L39.4,74.1z"/>
	</g>
</g>
<g>
	<g>
		<path class="st10" d="M93.9,59.6c1.4,2.2,1,5.2,1.6,7.7c0.6,2.4,1.6,4.6,2.9,6.7c0.7,1.1,2.4,0.1,1.7-1c-1.7-2.8-2.8-5.7-3.2-9
			c-0.2-2-0.3-3.7-1.3-5.5C95,57.5,93.3,58.5,93.9,59.6L93.9,59.6z"/>
	</g>
</g>
<g>
	<g>
		<path class="st10" d="M100.9,51.8c-0.4,5.2,0.2,10.3,1.8,15.3c0.4,1.2,2.3,0.7,1.9-0.5c-1.6-4.8-2.1-9.7-1.8-14.8
			C103,50.5,101,50.5,100.9,51.8L100.9,51.8z"/>
	</g>
</g>
<g>
	<g>
		<path class="st10" d="M103.4,73.2c0.8,0.5,1.5,0.9,2.3,1.4c1.1,0.7,2.1-1.1,1-1.7c-0.8-0.5-1.5-0.9-2.3-1.4
			C103.3,70.8,102.3,72.5,103.4,73.2L103.4,73.2z"/>
	</g>
</g>
<g>
	<g>
		<path class="st10" d="M48.1,19.1c-1-0.4-2.1-0.5-3.2-0.3c-0.5,0.1-0.8,0.7-0.7,1.2c0.2,0.6,0.7,0.8,1.2,0.7c0.7-0.1,1.5,0,2.1,0.3
			c0.5,0.2,1.1-0.2,1.2-0.7C48.9,19.7,48.6,19.3,48.1,19.1L48.1,19.1z"/>
	</g>
</g>
<g>
	<g>
		<path class="st10" d="M72.1,25.1c0.9-0.4,1.8-0.7,2.6-1.1c0.5-0.2,0.9-0.7,0.7-1.2c-0.1-0.5-0.7-0.9-1.2-0.7
			c-0.9,0.4-1.8,0.7-2.6,1.1c-0.5,0.2-0.9,0.7-0.7,1.2C71,24.9,71.6,25.3,72.1,25.1L72.1,25.1z"/>
	</g>
</g>
<path class="st11" d="M90.8,168.3h-45l-12.4-52.7C33.4,103.7,43.2,94,55,94h23.1c11.9,0,21.6,9.7,21.6,21.6L90.8,168.3z"/>
<polygon class="st11" points="26.8,243.6 44.6,159.6 92.3,159.6 108.4,243.6 "/>
<g>
	<g>
		<path class="st12" d="M54.4,98c2.6,0,2.6-4,0-4C51.8,94,51.8,98,54.4,98L54.4,98z"/>
	</g>
</g>
<g>
	<g>
		<path class="st12" d="M55.9,103.2c2.6,0,2.6-4,0-4C53.3,99.2,53.3,103.2,55.9,103.2L55.9,103.2z"/>
	</g>
</g>
<g>
	<g>
		<path class="st12" d="M58.1,108c2.6,0,2.6-4,0-4C55.5,104,55.5,108,58.1,108L58.1,108z"/>
	</g>
</g>
<g>
	<g>
		<path class="st12" d="M61.3,112.3c2.6,0,2.6-4,0-4C58.7,108.3,58.7,112.3,61.3,112.3L61.3,112.3z"/>
	</g>
</g>
<g>
	<g>
		<path class="st12" d="M65.9,114c2.6,0,2.6-4,0-4C63.3,110,63.3,114,65.9,114L65.9,114z"/>
	</g>
</g>
<g>
	<g>
		<path class="st12" d="M70.6,112.3c2.6,0,2.6-4,0-4C68,108.3,68,112.3,70.6,112.3L70.6,112.3z"/>
	</g>
</g>
<g>
	<g>
		<path class="st12" d="M74.1,108.5c2.6,0,2.6-4,0-4C71.5,104.5,71.5,108.5,74.1,108.5L74.1,108.5z"/>
	</g>
</g>
<g>
	<g>
		<path class="st12" d="M76.3,103.2c2.6,0,2.6-4,0-4C73.7,99.2,73.7,103.2,76.3,103.2L76.3,103.2z"/>
	</g>
</g>
<g>
	<g>
		<path class="st12" d="M77.3,98.3c2.6,0,2.6-4,0-4C74.7,94.3,74.7,98.3,77.3,98.3L77.3,98.3z"/>
	</g>
</g>
<g>
	<g>
		<path class="st2" d="M47.4,164.7c3.9,0,3.9-6,0-6C43.6,158.7,43.6,164.7,47.4,164.7L47.4,164.7z"/>
	</g>
</g>
<g>
	<g>
		<path class="st2" d="M54.2,165.7c3.9,0,3.9-6,0-6C50.3,159.7,50.3,165.7,54.2,165.7L54.2,165.7z"/>
	</g>
</g>
<g>
	<g>
		<path class="st2" d="M60.7,166.2c3.9,0,3.9-6,0-6C56.8,160.2,56.8,166.2,60.7,166.2L60.7,166.2z"/>
	</g>
</g>
<g>
	<g>
		<path class="st2" d="M67.7,166.9c3.9,0,3.9-6,0-6C63.8,160.9,63.8,166.9,67.7,166.9L67.7,166.9z"/>
	</g>
</g>
<g>
	<g>
		<path class="st2" d="M74.2,166.4c3.9,0,3.9-6,0-6C70.3,160.4,70.3,166.4,74.2,166.4L74.2,166.4z"/>
	</g>
</g>
<g>
	<g>
		<path class="st2" d="M81.4,165.7c3.9,0,3.9-6,0-6C77.6,159.7,77.6,165.7,81.4,165.7L81.4,165.7z"/>
	</g>
</g>
<g>
	<g>
		<path class="st2" d="M88.4,164.4c3.9,0,3.9-6,0-6C84.6,158.4,84.6,164.4,88.4,164.4L88.4,164.4z"/>
	</g>
</g>
<circle class="st0" cx="30" cy="170.2" r="9.4"/>
<circle class="st0" cx="103.1" cy="170.2" r="9.4"/>
<path class="st13" d="M58.1,261.2H30v0c0-3.9,3.1-7,7-7h21.1V261.2z"/>
<path class="st14" d="M58.1,260.3h-28v-0.2c0-0.6,0.4-1,1-1h27V260.3z"/>
<path class="st13" d="M77.8,261.2h28.1v0c0-3.9-3.1-7-7-7H77.8V261.2z"/>
<path class="st14" d="M77.8,260.3h28v-0.2c0-0.6-0.4-1-1-1h-27V260.3z"/>
<path class="st15" d="M250.9,199.2H190c-6.6,0-12-5.4-12-12v-30c0-6.6,5.4-12,12-12h60.9c6.6,0,12,5.4,12,12v30
	C262.9,193.8,257.5,199.2,250.9,199.2z"/>
<path class="st16" d="M265.5,161.6h-90.1c-3.8,0-7-3.2-7-7v-10.1c0-3.8,3.2-7,7-7h90.1c3.9,0,7,3.2,7,7v10.1
	C272.5,158.4,269.4,161.6,265.5,161.6z"/>
<circle class="st17" cx="186.3" cy="172.2" r="1.9"/>
<circle class="st17" cx="193.7" cy="172.2" r="1.9"/>
<circle class="st17" cx="186.3" cy="179.2" r="1.9"/>
<circle class="st17" cx="193.7" cy="179.2" r="1.9"/>
<circle class="st17" cx="201.4" cy="172.2" r="1.9"/>
<circle class="st17" cx="208.8" cy="172.2" r="1.9"/>
<circle class="st17" cx="201.4" cy="179.2" r="1.9"/>
<circle class="st17" cx="208.8" cy="179.2" r="1.9"/>
<circle class="st17" cx="216.8" cy="172" r="1.9"/>
<circle class="st17" cx="224.2" cy="172" r="1.9"/>
<circle class="st17" cx="216.8" cy="178.9" r="1.9"/>
<circle class="st17" cx="224.2" cy="178.9" r="1.9"/>
<circle class="st17" cx="230.9" cy="172" r="1.9"/>
<circle class="st17" cx="238.3" cy="172" r="1.9"/>
<circle class="st17" cx="230.9" cy="178.9" r="1.9"/>
<circle class="st17" cx="238.3" cy="178.9" r="1.9"/>
<circle class="st17" cx="245.3" cy="172" r="1.9"/>
<circle class="st17" cx="252.7" cy="172" r="1.9"/>
<circle class="st17" cx="245.3" cy="178.9" r="1.9"/>
<circle class="st17" cx="252.7" cy="178.9" r="1.9"/>
<circle class="st17" cx="193.7" cy="185.6" r="1.9"/>
<circle class="st17" cx="201.2" cy="185.6" r="1.9"/>
<circle class="st17" cx="193.7" cy="192.5" r="1.9"/>
<circle class="st17" cx="201.2" cy="192.5" r="1.9"/>
<circle class="st17" cx="237.8" cy="185.7" r="1.9"/>
<circle class="st17" cx="245.3" cy="185.7" r="1.9"/>
<circle class="st17" cx="237.8" cy="192.7" r="1.9"/>
<circle class="st17" cx="245.3" cy="192.7" r="1.9"/>
<circle class="st17" cx="208.8" cy="185.9" r="1.9"/>
<circle class="st17" cx="216.8" cy="185.4" r="1.9"/>
<circle class="st17" cx="224.2" cy="185.4" r="1.9"/>
<circle class="st17" cx="230.9" cy="185.4" r="1.9"/>
<circle class="st17" cx="208.8" cy="192.5" r="1.9"/>
<circle class="st17" cx="230.9" cy="192.7" r="1.9"/>
<path class="st17" d="M225.3,194h-8.7c-0.8,0-1.5-0.7-1.5-1.5l0,0c0-0.8,0.7-1.5,1.5-1.5h8.7c0.8,0,1.5,0.7,1.5,1.5l0,0
	C226.8,193.3,226.1,194,225.3,194z"/>
<path class="st17" d="M253,194.6L253,194.6c-0.9,0-1.7-0.7-1.7-1.7v-7.3c0-0.9,0.7-1.7,1.7-1.7h0c0.9,0,1.7,0.7,1.7,1.7v7.3
	C254.7,193.9,253.9,194.6,253,194.6z"/>
<path class="st17" d="M186.3,194.6L186.3,194.6c-0.9,0-1.7-0.7-1.7-1.7v-7.3c0-0.9,0.7-1.7,1.7-1.7l0,0c0.9,0,1.7,0.7,1.7,1.7v7.3
	C187.9,193.9,187.2,194.6,186.3,194.6z"/>
<path class="st14" d="M168.4,154.2h-5.1c-1.1,0-2-0.9-2-2V147c0-1.1,0.9-2,2-2h5.1V154.2z"/>
<path class="st14" d="M272.5,154.2h5.1c1.1,0,2-0.9,2-2V147c0-1.1-0.9-2-2-2h-5.1V154.2z"/>
<rect x="194.5" y="107.1" class="st18" width="55.4" height="43.9"/>
<path class="st14" d="M251.1,151.8h-57.8c-0.4,0-0.8-0.4-0.8-0.8l0,0c0-0.4,0.4-0.8,0.8-0.8h57.8c0.4,0,0.8,0.4,0.8,0.8l0,0
	C251.9,151.5,251.6,151.8,251.1,151.8z"/>
<path class="st14" d="M246.3,113.1H198c-0.5,0-0.9-0.4-0.9-0.9v0c0-0.5,0.4-0.9,0.9-0.9h48.2c0.5,0,0.9,0.4,0.9,0.9v0
	C247.2,112.6,246.8,113.1,246.3,113.1z"/>
<path class="st14" d="M246.3,117.4H198c-0.5,0-0.9-0.4-0.9-0.9l0,0c0-0.5,0.4-0.9,0.9-0.9h48.2c0.5,0,0.9,0.4,0.9,0.9l0,0
	C247.2,117,246.8,117.4,246.3,117.4z"/>
<path class="st14" d="M246.4,121.9h-48.2c-0.5,0-0.9-0.4-0.9-0.9l0,0c0-0.5,0.4-0.9,0.9-0.9h48.2c0.5,0,0.9,0.4,0.9,0.9l0,0
	C247.3,121.5,246.9,121.9,246.4,121.9z"/>
<path class="st14" d="M246.3,126.3H198c-0.5,0-0.9-0.4-0.9-0.9l0,0c0-0.5,0.4-0.9,0.9-0.9h48.2c0.5,0,0.9,0.4,0.9,0.9l0,0
	C247.2,125.8,246.8,126.3,246.3,126.3z"/>
<path class="st14" d="M246.4,130.7h-48.2c-0.5,0-0.9-0.4-0.9-0.9v0c0-0.5,0.4-0.9,0.9-0.9h48.2c0.5,0,0.9,0.4,0.9,0.9v0
	C247.3,130.2,246.9,130.7,246.4,130.7z"/>
<path class="st14" d="M246.4,135h-48.2c-0.5,0-0.9-0.4-0.9-0.9l0,0c0-0.5,0.4-0.9,0.9-0.9h48.2c0.5,0,0.9,0.4,0.9,0.9l0,0
	C247.3,134.6,246.9,135,246.4,135z"/>
<path class="st14" d="M229.1,139.5h-31.3c-0.4,0-0.8-0.4-0.8-0.8l0,0c0-0.4,0.4-0.8,0.8-0.8h31.3c0.4,0,0.8,0.4,0.8,0.8l0,0
	C229.9,139.2,229.6,139.5,229.1,139.5z"/>
</svg>
