<?xml version="1.0" encoding="utf-8"?>
<!-- Generator: Adobe Illustrator 22.0.1, SVG Export Plug-In . SVG Version: 6.00 Build 0)  -->
<svg version="1.1" id="Layer_1" xmlns="http://www.w3.org/2000/svg" xmlns:xlink="http://www.w3.org/1999/xlink" x="0px" y="0px"
	 viewBox="0 0 280 270" style="enable-background:new 0 0 280 270;" xml:space="preserve">
<style type="text/css">
	.st0{fill:#77411B;}
	.st1{fill:#606160;}
	.st2{fill:#989694;}
	.st3{fill:#FFE3B2;}
	.st4{fill:#4C3512;}
	.st5{fill:#BFA981;}
	.st6{fill:#050505;}
	.st7{fill:#5C3E16;}
	.st8{fill:#003B4D;}
	.st9{fill:#933D1F;}
	.st10{fill:#FFFAEB;}
	.st11{fill:#603B15;}
	.st12{fill:#FFF0EB;}
	.st13{fill:#200E0A;}
	.st14{fill:#231F20;}
	.st15{fill:#372611;}
	.st16{fill:#670E0C;}
	.st17{fill:#E4B322;stroke:#030202;stroke-width:0.75;stroke-miterlimit:10;}
	.st18{fill:#484C44;}
	.st19{fill:#B56528;}
	.st20{fill:#683A16;}
	.st21{fill:#366732;}
</style>
<path class="st0" d="M142.4,112.3l5.7-7.6c2.5-2.2,35.6,21.7,47.8,32l36.9,29.7c1.3,1,1.6,2.8,0.6,4.1l-3.6,4.8
	c-1,1.3-4.4,0.3-5.7-0.7c0,0-27.8-24.6-34.6-30.2c-6.8-5.6-16-12.9-16-12.9C162.3,121.3,141.4,116.3,142.4,112.3z"/>
<path class="st1" d="M227.3,168c1.2-1.6,2.4-3.1,3.5-4.6c1-1.3,0.8-3.2-0.5-4.1l-8.9-6.7c-1.4-1.1-3.5-0.6-4.4,0.9
	c-2.2,3.6-4.7,7.4-7.5,11.2c-9.3,12.5-19.5,21.9-26.8,25.5l23.7,17.7C207,200.1,215,184.4,227.3,168z"/>
<path class="st2" d="M207.8,201.6c2.8-8.6,9.8-20.7,19.5-33.6c1.5-1.9,2.9-3.8,4.4-5.6c0.6-0.7,0.4-1.7-0.3-2.3l-11.2-8.4
	c-0.9-0.6-2.1-0.4-2.7,0.5c-2.3,4-5.1,8.2-8.2,12.4c-7.3,9.8-14.9,17.8-21.5,22.5L207.8,201.6z"/>
<circle class="st1" cx="220.4" cy="164" r="2.9"/>
<path class="st3" d="M61.3,104.6H46.7c-2,0-3.6-1.6-3.6-3.6V82.9c0-2,1.6-3.6,3.6-3.6h14.6c2,0,3.6,1.6,3.6,3.6v18.2
	C64.9,103,63.3,104.6,61.3,104.6z"/>
<path class="st3" d="M77.7,62c-0.1-0.3,0.1-0.5,0.3-0.6V38.3c0-10.5-8.5-19-19-19H47c-10.5,0-19,8.5-19,19v38c0,12.7,10.3,23,23,23
	h4c12.7,0,23-10.3,23-23V62.9C77.9,62.6,77.8,62.3,77.7,62z"/>
<path class="st4" d="M47.7,46.3h-9c-1.1,0-2-0.9-2-2v-0.7c0-1.1,0.9-2,2-2h9c1.1,0,2,0.9,2,2v0.7C49.7,45.4,48.8,46.3,47.7,46.3z"/>
<path class="st4" d="M68.2,46.3h-9c-1.1,0-2-0.9-2-2v-0.7c0-1.1,0.9-2,2-2h9c1.1,0,2,0.9,2,2v0.7C70.2,45.4,69.3,46.3,68.2,46.3z"/>
<path class="st5" d="M28,60.2h-3.1c-1.1,0-2-0.9-2-2v-4.6c0-1.1,0.9-2,2-2H28V60.2z"/>
<path class="st5" d="M81.2,60.2H78v-8.6h3.1c1.1,0,2,0.9,2,2v4.6C83.2,59.3,82.3,60.2,81.2,60.2z"/>
<circle class="st6" cx="43.2" cy="49.6" r="2.1"/>
<circle class="st6" cx="64.4" cy="49.6" r="2.1"/>
<path class="st5" d="M54.5,63.8h-1.1c-1.1,0-2-0.9-2-2v-4.8c0-1.1,0.9-2,2-2h1.1c1.1,0,2,0.9,2,2v4.8C56.5,62.9,55.6,63.8,54.5,63.8
	z"/>
<path class="st7" d="M53.9,69.3c-1.1-6.1-11.1-3.4-16.3-1.7C31.8,69.5,25,81,25,81s7-6.1,15.3-4.2C46,78.2,54.4,72.5,53.9,69.3z"/>
<path class="st7" d="M53.3,69.3c1.1-6.1,11.1-3.4,16.3-1.7C75.3,69.5,82.1,81,82.1,81s-7-6.1-15.3-4.2
	C61.1,78.2,52.7,72.5,53.3,69.3z"/>
<path class="st8" d="M74.5,27.4c-3.4-4.9-9.1-8-15.5-8H47c-6.4,0-12.1,3.2-15.5,8H74.5z"/>
<g>
	<g>
		<path class="st7" d="M76.7,41.9c1.9,0,1.9-3,0-3C74.8,38.9,74.8,41.9,76.7,41.9L76.7,41.9z"/>
	</g>
</g>
<g>
	<g>
		<path class="st7" d="M77.2,42.9c1.9,0,1.9-3,0-3C75.3,39.9,75.3,42.9,77.2,42.9L77.2,42.9z"/>
	</g>
</g>
<g>
	<g>
		<path class="st7" d="M78,44.2c1.9,0,1.9-3,0-3C76.1,41.2,76.1,44.2,78,44.2L78,44.2z"/>
	</g>
</g>
<g>
	<g>
		<path class="st7" d="M78.4,45.7c1.9,0,1.9-3,0-3C76.4,42.7,76.4,45.7,78.4,45.7L78.4,45.7z"/>
	</g>
</g>
<g>
	<g>
		<path class="st7" d="M77,44.8c-0.1,0.1-0.1,0.1-0.2,0.2c-0.6,0.6-0.6,1.5,0,2.1c0.6,0.6,1.5,0.6,2.1,0c0.1-0.1,0.1-0.1,0.2-0.2
			c0.6-0.6,0.6-1.5,0-2.1C78.5,44.2,77.5,44.2,77,44.8L77,44.8z"/>
	</g>
</g>
<g>
	<g>
		<path class="st7" d="M77.4,50.4c1.9,0,1.9-3,0-3C75.4,47.4,75.4,50.4,77.4,50.4L77.4,50.4z"/>
	</g>
</g>
<g>
	<g>
		<path class="st7" d="M78.2,51.5c1.9,0,1.9-3,0-3C76.3,48.5,76.3,51.5,78.2,51.5L78.2,51.5z"/>
	</g>
</g>
<g>
	<g>
		<path class="st7" d="M78.7,53c1.9,0,1.9-3,0-3C76.8,50,76.8,53,78.7,53L78.7,53z"/>
	</g>
</g>
<g>
	<g>
		<path class="st7" d="M79,51.7c1.9,0,1.9-3,0-3C77.1,48.7,77.1,51.7,79,51.7L79,51.7z"/>
	</g>
</g>
<g>
	<g>
		<path class="st7" d="M78.5,49.7c1.9,0,1.9-3,0-3C76.6,46.7,76.6,49.7,78.5,49.7L78.5,49.7z"/>
	</g>
</g>
<g>
	<g>
		<path class="st7" d="M78.4,48.7c1.9,0,1.9-3,0-3C76.4,45.7,76.4,48.7,78.4,48.7L78.4,48.7z"/>
	</g>
</g>
<g>
	<g>
		<path class="st7" d="M79.5,47.4c1.9,0,1.9-3,0-3C77.6,44.4,77.6,47.4,79.5,47.4L79.5,47.4z"/>
	</g>
</g>
<g>
	<g>
		<path class="st7" d="M79.5,45c1.9,0,1.9-3,0-3C77.6,42,77.6,45,79.5,45L79.5,45z"/>
	</g>
</g>
<g>
	<g>
		<path class="st7" d="M79,42.2c1.9,0,1.9-3,0-3C77.1,39.2,77.1,42.2,79,42.2L79,42.2z"/>
	</g>
</g>
<g>
	<g>
		<path class="st7" d="M77.9,42c1.9,0,1.9-3,0-3C75.9,39,75.9,42,77.9,42L77.9,42z"/>
	</g>
</g>
<g>
	<g>
		<path class="st7" d="M76,41.7c1.9,0,1.9-3,0-3C74.1,38.7,74.1,41.7,76,41.7L76,41.7z"/>
	</g>
</g>
<g>
	<g>
		<path class="st7" d="M74.4,41.9c1.9,0,1.9-3,0-3C72.4,38.9,72.4,41.9,74.4,41.9L74.4,41.9z"/>
	</g>
</g>
<g>
	<g>
		<path class="st7" d="M75,43c1.9,0,1.9-3,0-3C73.1,40,73.1,43,75,43L75,43z"/>
	</g>
</g>
<g>
	<g>
		<path class="st7" d="M75.9,44c1.9,0,1.9-3,0-3C73.9,41,73.9,44,75.9,44L75.9,44z"/>
	</g>
</g>
<g>
	<g>
		<path class="st7" d="M76.7,46c1.9,0,1.9-3,0-3C74.8,43,74.8,46,76.7,46L76.7,46z"/>
	</g>
</g>
<g>
	<g>
		<path class="st7" d="M75.2,44.9c0,0.2,0,0.3,0,0.5c0,0.8,0.7,1.5,1.5,1.5c0.8,0,1.5-0.7,1.5-1.5c0-0.2,0-0.3,0-0.5
			c0-0.8-0.7-1.5-1.5-1.5C75.9,43.4,75.2,44,75.2,44.9L75.2,44.9z"/>
	</g>
</g>
<g>
	<g>
		<path class="st7" d="M76.7,48.5c1.9,0,1.9-3,0-3C74.8,45.5,74.8,48.5,76.7,48.5L76.7,48.5z"/>
	</g>
</g>
<g>
	<g>
		<path class="st7" d="M27.4,41.7c1.9,0,1.9-3,0-3C25.4,38.7,25.4,41.7,27.4,41.7L27.4,41.7z"/>
	</g>
</g>
<g>
	<g>
		<path class="st7" d="M28.5,42c1.9,0,1.9-3,0-3C26.6,39,26.6,42,28.5,42L28.5,42z"/>
	</g>
</g>
<g>
	<g>
		<path class="st7" d="M28.5,43.4c1.9,0,1.9-3,0-3C26.6,40.4,26.6,43.4,28.5,43.4L28.5,43.4z"/>
	</g>
</g>
<g>
	<g>
		<path class="st7" d="M27.9,44.9c1.9,0,1.9-3,0-3C25.9,41.9,25.9,44.9,27.9,44.9L27.9,44.9z"/>
	</g>
</g>
<g>
	<g>
		<path class="st7" d="M26,44c1.9,0,1.9-3,0-3C24.1,41,24.1,44,26,44L26,44z"/>
	</g>
</g>
<g>
	<g>
		<path class="st7" d="M25.7,47c1.9,0,1.9-3,0-3C23.8,44,23.8,47,25.7,47L25.7,47z"/>
	</g>
</g>
<g>
	<g>
		<path class="st7" d="M25.4,46.2c0.1,0.1,0.2,0.1,0.3,0.2c0.7,0.4,1.6,0.2,2.1-0.5c0.4-0.7,0.2-1.7-0.5-2.1
			c-0.1-0.1-0.2-0.1-0.3-0.2c-0.7-0.4-1.6-0.2-2.1,0.5C24.5,44.8,24.7,45.8,25.4,46.2L25.4,46.2z"/>
	</g>
</g>
<g>
	<g>
		<path class="st7" d="M27.2,47.9c1.9,0,1.9-3,0-3C25.3,44.9,25.3,47.9,27.2,47.9L27.2,47.9z"/>
	</g>
</g>
<g>
	<g>
		<path class="st7" d="M27,48.9c1.9,0,1.9-3,0-3C25.1,45.9,25.1,48.9,27,48.9L27,48.9z"/>
	</g>
</g>
<g>
	<g>
		<path class="st7" d="M26.2,49.8c0.1,0.1,0.1,0.2,0.2,0.3c0.4,0.7,1.4,0.9,2.1,0.5c0.7-0.4,0.9-1.3,0.5-2.1
			c-0.1-0.1-0.1-0.2-0.2-0.3c-0.4-0.7-1.4-0.9-2.1-0.5C26,48.2,25.8,49.1,26.2,49.8L26.2,49.8z"/>
	</g>
</g>
<g>
	<g>
		<path class="st7" d="M28,51.7c1.9,0,1.9-3,0-3C26.1,48.7,26.1,51.7,28,51.7L28,51.7z"/>
	</g>
</g>
<g>
	<g>
		<path class="st7" d="M28.2,49.9c1.9,0,1.9-3,0-3C26.3,46.9,26.3,49.9,28.2,49.9L28.2,49.9z"/>
	</g>
</g>
<g>
	<g>
		<path class="st7" d="M28,47.9c1.9,0,1.9-3,0-3C26.1,44.9,26.1,47.9,28,47.9L28,47.9z"/>
	</g>
</g>
<g>
	<g>
		<path class="st7" d="M28.7,44.9c1.9,0,1.9-3,0-3C26.8,41.9,26.8,44.9,28.7,44.9L28.7,44.9z"/>
	</g>
</g>
<g>
	<g>
		<path class="st7" d="M29.4,42.4c1.9,0,1.9-3,0-3C27.4,39.4,27.4,42.4,29.4,42.4L29.4,42.4z"/>
	</g>
</g>
<g>
	<g>
		<path class="st7" d="M30.7,41c0.3,0,0.6,0,0.8,0c0.8,0,1.5-0.7,1.5-1.5c0-0.8-0.7-1.5-1.5-1.5c-0.3,0-0.6,0-0.8,0
			c-0.8,0-1.5,0.7-1.5,1.5C29.2,40.4,29.8,41,30.7,41L30.7,41z"/>
	</g>
</g>
<g>
	<g>
		<path class="st7" d="M33.1,40.7c0.1-0.1,0.2-0.1,0.3-0.2c0.7-0.4,0.9-1.4,0.5-2.1c-0.4-0.7-1.3-0.9-2.1-0.5
			c-0.1,0.1-0.2,0.1-0.3,0.2c-0.7,0.4-0.9,1.4-0.5,2.1C31.5,40.9,32.4,41,33.1,40.7L33.1,40.7z"/>
	</g>
</g>
<g>
	<g>
		<path class="st7" d="M33,40.3c0.1,0.1,0.1,0.1,0.2,0.2c0.6,0.6,1.5,0.6,2.1,0c0.6-0.6,0.6-1.5,0-2.1c-0.1-0.1-0.1-0.1-0.2-0.2
			c-0.6-0.6-1.5-0.6-2.1,0C32.4,38.7,32.4,39.7,33,40.3L33,40.3z"/>
	</g>
</g>
<g>
	<g>
		<path class="st7" d="M35.5,41c1.9,0,1.9-3,0-3C33.6,38,33.6,41,35.5,41L35.5,41z"/>
	</g>
</g>
<g>
	<g>
		<path class="st7" d="M37,40.9c0.1,0,0.2,0,0.3,0c0.8,0,1.5-0.7,1.5-1.5c0-0.8-0.7-1.5-1.5-1.5c-0.1,0-0.2,0-0.3,0
			c-0.8,0-1.5,0.7-1.5,1.5C35.6,40.2,36.2,40.9,37,40.9L37,40.9z"/>
	</g>
</g>
<g>
	<g>
		<path class="st7" d="M38.9,40.5c0.1,0,0.2,0,0.3,0c0.8,0,1.5-0.7,1.5-1.5c0-0.8-0.7-1.5-1.5-1.5c-0.1,0-0.2,0-0.3,0
			c-0.8,0-1.5,0.7-1.5,1.5C37.4,39.9,38,40.5,38.9,40.5L38.9,40.5z"/>
	</g>
</g>
<g>
	<g>
		<path class="st7" d="M39.9,40.7c1.9,0,1.9-3,0-3C37.9,37.7,37.9,40.7,39.9,40.7L39.9,40.7z"/>
	</g>
</g>
<g>
	<g>
		<path class="st7" d="M41.1,41c0.2,0.1,0.3,0.1,0.5,0.2c0.7,0.3,1.7-0.3,1.8-1c0.2-0.8-0.3-1.6-1-1.8c-0.2-0.1-0.3-0.1-0.5-0.2
			c-0.7-0.3-1.7,0.3-1.8,1C39.9,40,40.3,40.7,41.1,41L41.1,41z"/>
	</g>
</g>
<g>
	<g>
		<path class="st7" d="M44,41c1.9,0,1.9-3,0-3C42.1,38,42.1,41,44,41L44,41z"/>
	</g>
</g>
<g>
	<g>
		<path class="st7" d="M45.5,40.9c1.9,0,1.9-3,0-3C43.6,37.9,43.6,40.9,45.5,40.9L45.5,40.9z"/>
	</g>
</g>
<g>
	<g>
		<path class="st7" d="M47.5,40.7c1.9,0,1.9-3,0-3C45.6,37.7,45.6,40.7,47.5,40.7L47.5,40.7z"/>
	</g>
</g>
<g>
	<g>
		<path class="st7" d="M49.4,40.7c1.9,0,1.9-3,0-3C47.4,37.7,47.4,40.7,49.4,40.7L49.4,40.7z"/>
	</g>
</g>
<g>
	<g>
		<path class="st7" d="M51.5,40.9c1.9,0,1.9-3,0-3C49.6,37.9,49.6,40.9,51.5,40.9L51.5,40.9z"/>
	</g>
</g>
<g>
	<g>
		<path class="st7" d="M53,40.7c1.9,0,1.9-3,0-3C51.1,37.7,51.1,40.7,53,40.7L53,40.7z"/>
	</g>
</g>
<g>
	<g>
		<path class="st7" d="M55.2,40.5c1.9,0,1.9-3,0-3C53.3,37.5,53.3,40.5,55.2,40.5L55.2,40.5z"/>
	</g>
</g>
<g>
	<g>
		<path class="st7" d="M56.7,41.2c1.9,0,1.9-3,0-3C54.8,38.2,54.8,41.2,56.7,41.2L56.7,41.2z"/>
	</g>
</g>
<g>
	<g>
		<path class="st7" d="M58.5,41.2c1.9,0,1.9-3,0-3C56.6,38.2,56.6,41.2,58.5,41.2L58.5,41.2z"/>
	</g>
</g>
<g>
	<g>
		<path class="st7" d="M59.7,40.7c0.1,0,0.2,0,0.3,0c0.8,0,1.5-0.7,1.5-1.5c0-0.8-0.7-1.5-1.5-1.5c-0.1,0-0.2,0-0.3,0
			c-0.8,0-1.5,0.7-1.5,1.5C58.2,40,58.8,40.7,59.7,40.7L59.7,40.7z"/>
	</g>
</g>
<g>
	<g>
		<path class="st7" d="M62,40.9c1.9,0,1.9-3,0-3C60.1,37.9,60.1,40.9,62,40.9L62,40.9z"/>
	</g>
</g>
<g>
	<g>
		<path class="st7" d="M64.4,40.9c1.9,0,1.9-3,0-3C62.4,37.9,62.4,40.9,64.4,40.9L64.4,40.9z"/>
	</g>
</g>
<g>
	<g>
		<path class="st7" d="M65.9,40.5c1.9,0,1.9-3,0-3C63.9,37.5,63.9,40.5,65.9,40.5L65.9,40.5z"/>
	</g>
</g>
<g>
	<g>
		<path class="st7" d="M67.9,41c1.9,0,1.9-3,0-3C65.9,38,65.9,41,67.9,41L67.9,41z"/>
	</g>
</g>
<g>
	<g>
		<path class="st7" d="M68.9,40.7c0.1,0.1,0.2,0.1,0.3,0.2c0.7,0.4,1.6,0.2,2.1-0.5c0.4-0.7,0.2-1.7-0.5-2.1
			c-0.1-0.1-0.2-0.1-0.3-0.2c-0.7-0.4-1.6-0.2-2.1,0.5C68,39.3,68.2,40.3,68.9,40.7L68.9,40.7z"/>
	</g>
</g>
<g>
	<g>
		<path class="st7" d="M71.6,40.5c0.1,0.1,0.2,0.1,0.3,0.2c0.7,0.4,1.6,0.2,2.1-0.5c0.4-0.7,0.2-1.7-0.5-2.1
			c-0.1-0.1-0.2-0.1-0.3-0.2c-0.7-0.4-1.6-0.2-2.1,0.5C70.7,39.1,70.9,40.1,71.6,40.5L71.6,40.5z"/>
	</g>
</g>
<g>
	<g>
		<path class="st7" d="M26,52.5c1.9,0,1.9-3,0-3C24.1,49.5,24.1,52.5,26,52.5L26,52.5z"/>
	</g>
</g>
<g>
	<g>
		<path class="st7" d="M23.7,52.7c1.9,0,1.9-3,0-3C21.8,49.7,21.8,52.7,23.7,52.7L23.7,52.7z"/>
	</g>
</g>
<g>
	<g>
		<path class="st7" d="M24.5,51c1.9,0,1.9-3,0-3C22.6,48,22.6,51,24.5,51L24.5,51z"/>
	</g>
</g>
<g>
	<g>
		<path class="st7" d="M25,48.4c1.9,0,1.9-3,0-3C23.1,45.4,23.1,48.4,25,48.4L25,48.4z"/>
	</g>
</g>
<g>
	<g>
		<path class="st7" d="M26.4,50.2c1.9,0,1.9-3,0-3C24.4,47.2,24.4,50.2,26.4,50.2L26.4,50.2z"/>
	</g>
</g>
<g>
	<g>
		<path class="st7" d="M24.9,40.2c1.9,0,1.9-3,0-3C22.9,37.2,22.9,40.2,24.9,40.2L24.9,40.2z"/>
	</g>
</g>
<g>
	<g>
		<path class="st7" d="M25.4,42c1.9,0,1.9-3,0-3C23.4,39,23.4,42,25.4,42L25.4,42z"/>
	</g>
</g>
<g>
	<g>
		<path class="st7" d="M25,44c1.9,0,1.9-3,0-3C23.1,41,23.1,44,25,44L25,44z"/>
	</g>
</g>
<g>
	<g>
		<path class="st7" d="M24.4,42.7c1.9,0,1.9-3,0-3C22.4,39.7,22.4,42.7,24.4,42.7L24.4,42.7z"/>
	</g>
</g>
<g>
	<g>
		<path class="st7" d="M24,46.4c1.9,0,1.9-3,0-3C22.1,43.4,22.1,46.4,24,46.4L24,46.4z"/>
	</g>
</g>
<g>
	<g>
		<path class="st7" d="M22.7,44.5c1.9,0,1.9-3,0-3C20.8,41.5,20.8,44.5,22.7,44.5L22.7,44.5z"/>
	</g>
</g>
<g>
	<g>
		<path class="st7" d="M23.9,48.4c1.9,0,1.9-3,0-3C21.9,45.4,21.9,48.4,23.9,48.4L23.9,48.4z"/>
	</g>
</g>
<g>
	<g>
		<path class="st7" d="M23,50.9c1.9,0,1.9-3,0-3C21.1,47.9,21.1,50.9,23,50.9L23,50.9z"/>
	</g>
</g>
<g>
	<g>
		<path class="st7" d="M79.5,40.4c1.9,0,1.9-3,0-3C77.6,37.4,77.6,40.4,79.5,40.4L79.5,40.4z"/>
	</g>
</g>
<g>
	<g>
		<path class="st7" d="M78.5,39.5c0,0.2,0,0.4,0,0.7c0,0.8,0.7,1.5,1.5,1.5c0.8,0,1.5-0.7,1.5-1.5c0-0.2,0-0.4,0-0.7
			c0-0.8-0.7-1.5-1.5-1.5C79.2,38.1,78.5,38.7,78.5,39.5L78.5,39.5z"/>
	</g>
</g>
<g>
	<g>
		<path class="st7" d="M78.5,41.7c0,0.1,0,0.1,0,0.2c0,0.8,0.7,1.5,1.5,1.5c0.8,0,1.5-0.7,1.5-1.5c0-0.1,0-0.1,0-0.2
			c0-0.8-0.7-1.5-1.5-1.5C79.2,40.2,78.5,40.9,78.5,41.7L78.5,41.7z"/>
	</g>
</g>
<g>
	<g>
		<path class="st7" d="M78.7,42.9c0.1,0.2,0.1,0.4,0.2,0.7c0.2,0.8,1.1,1.3,1.8,1c0.8-0.2,1.2-1.1,1-1.8c-0.1-0.2-0.1-0.4-0.2-0.7
			c-0.2-0.8-1.1-1.3-1.8-1C79,41.3,78.5,42.2,78.7,42.9L78.7,42.9z"/>
	</g>
</g>
<g>
	<g>
		<path class="st7" d="M78.8,44.3c0.1,0.2,0.1,0.4,0.2,0.7c0.2,0.8,1.1,1.3,1.8,1c0.8-0.2,1.2-1.1,1-1.8c-0.1-0.2-0.1-0.4-0.2-0.7
			c-0.2-0.8-1.1-1.3-1.8-1C79,42.6,78.6,43.5,78.8,44.3L78.8,44.3z"/>
	</g>
</g>
<g>
	<g>
		<path class="st7" d="M78.7,45.7c0,0.1,0,0.2,0,0.3c0,0.8,0.7,1.5,1.5,1.5c0.8,0,1.5-0.7,1.5-1.5c0-0.1,0-0.2,0-0.3
			c0-0.8-0.7-1.5-1.5-1.5C79.4,44.2,78.7,44.9,78.7,45.7L78.7,45.7z"/>
	</g>
</g>
<g>
	<g>
		<path class="st7" d="M78.7,47.4c0,0.1,0,0.2,0,0.3c0,0.8,0.7,1.5,1.5,1.5c0.8,0,1.5-0.7,1.5-1.5c0-0.1,0-0.2,0-0.3
			c0-0.8-0.7-1.5-1.5-1.5C79.4,45.9,78.7,46.5,78.7,47.4L78.7,47.4z"/>
	</g>
</g>
<g>
	<g>
		<path class="st7" d="M78.9,48.4c0,0.1,0,0.1,0,0.2c0,0.8,0.7,1.5,1.5,1.5c0.8,0,1.5-0.7,1.5-1.5c0-0.1,0-0.1,0-0.2
			c0-0.8-0.7-1.5-1.5-1.5C79.5,46.9,78.9,47.5,78.9,48.4L78.9,48.4z"/>
	</g>
</g>
<g>
	<g>
		<path class="st7" d="M80.2,52.2c1.9,0,1.9-3,0-3C78.3,49.2,78.3,52.2,80.2,52.2L80.2,52.2z"/>
	</g>
</g>
<path class="st8" d="M77.1,39.5H27.7c-1.5,0-2.7-1.2-2.7-2.7V30c0-1.5,1.2-2.7,2.7-2.7h49.3c1.5,0,2.7,1.2,2.7,2.7v6.8
	C79.7,38.3,78.5,39.5,77.1,39.5z"/>
<path class="st9" d="M75.7,170.2H32.4c-3.5,0-6.4-2.9-6.4-6.4v-55.7c0-3.5,2.9-6.4,6.4-6.4h43.3c3.5,0,6.4,2.9,6.4,6.4v55.7
	C82,167.3,79.2,170.2,75.7,170.2z"/>
<rect x="96.2" y="130.8" class="st10" width="7.8" height="7.8"/>
<g>
	<path class="st11" d="M99.2,266.4H57v-23.3h24.2c9.9,0,18,8.1,18,18V266.4z"/>
	<rect x="57" y="262.5" class="st12" width="42.2" height="3.9"/>
	<rect x="57" y="264.5" class="st13" width="42.2" height="1"/>
	<g>
		<g>
			<path class="st14" d="M81.7,245.1c0.7,3-2.4,4.9-4.6,6.2c-1.1,0.6-0.1,2.4,1,1.7c3.1-1.8,6.4-4.4,5.5-8.5
				C83.3,243.3,81.4,243.8,81.7,245.1L81.7,245.1z"/>
		</g>
	</g>
	<g>
		<g>
			<path class="st14" d="M87.9,246.7c0.7,3-2.4,4.9-4.6,6.2c-1.1,0.6-0.1,2.4,1,1.7c3.1-1.8,6.4-4.4,5.5-8.5
				C89.5,244.9,87.6,245.5,87.9,246.7L87.9,246.7z"/>
		</g>
	</g>
	<g>
		<g>
			<path class="st14" d="M92.1,249.9c0.7,3-2.4,4.9-4.6,6.2c-1.1,0.6-0.1,2.4,1,1.7c3.1-1.8,6.4-4.4,5.5-8.5
				C93.7,248.1,91.8,248.7,92.1,249.9L92.1,249.9z"/>
		</g>
	</g>
</g>
<path class="st15" d="M72.8,237.8H57v-68.7c0-3.3,2.7-6,6-6h3.8c3.3,0,6,2.7,6,6V237.8z"/>
<rect x="57" y="224.6" class="st16" width="15.8" height="15"/>
<path class="st16" d="M71.5,229.4H58.4c-1.7,0-3-1.3-3-3v-1.3c0-1.7,1.3-3,3-3h13.1c1.7,0,3,1.3,3,3v1.3
	C74.5,228,73.1,229.4,71.5,229.4z"/>
<g>
	<path class="st11" d="M7.1,266.4h42.2v-23.3H25.1c-9.9,0-18,8.1-18,18V266.4z"/>
	
		<rect x="7.1" y="262.5" transform="matrix(-1 -4.494994e-11 4.494994e-11 -1 56.415 528.9974)" class="st12" width="42.2" height="3.9"/>
	
		<rect x="7.1" y="264.5" transform="matrix(-1 -4.486379e-11 4.486379e-11 -1 56.415 529.9725)" class="st13" width="42.2" height="1"/>
	<g>
		<g>
			<path class="st14" d="M22.7,244.6c-0.9,4,2.4,6.7,5.5,8.5c1.1,0.6,2.1-1.1,1-1.7c-2.2-1.3-5.3-3.2-4.6-6.2
				C24.9,243.8,23,243.3,22.7,244.6L22.7,244.6z"/>
		</g>
	</g>
	<g>
		<g>
			<path class="st14" d="M16.5,246.2c-0.9,4,2.4,6.7,5.5,8.5c1.1,0.6,2.1-1.1,1-1.7c-2.2-1.3-5.3-3.2-4.6-6.2
				C18.7,245.5,16.8,244.9,16.5,246.2L16.5,246.2z"/>
		</g>
	</g>
	<g>
		<g>
			<path class="st14" d="M12.3,249.4c-0.9,4,2.4,6.7,5.5,8.5c1.1,0.6,2.1-1.1,1-1.7c-2.2-1.3-5.3-3.2-4.6-6.2
				C14.5,248.7,12.6,248.1,12.3,249.4L12.3,249.4z"/>
		</g>
	</g>
</g>
<path class="st15" d="M33.5,239h15.8v-69.9c0-3.3-2.7-6-6-6h-3.8c-3.3,0-6,2.7-6,6V239z"/>
<rect x="33.5" y="225.7" transform="matrix(-1 -3.299106e-11 3.299106e-11 -1 82.8128 465.4484)" class="st16" width="15.8" height="14"/>
<path class="st16" d="M34.9,229.4H48c1.7,0,3-1.3,3-3v-1.3c0-1.7-1.3-3-3-3H34.9c-1.7,0-3,1.3-3,3v1.3
	C31.9,228,33.2,229.4,34.9,229.4z"/>
<rect x="24.9" y="162.4" class="st14" width="56" height="7.8"/>
<circle class="st3" cx="87.6" cy="169.2" r="9.4"/>
<path class="st3" d="M88,173.5h-3.1c-3.5,0-6.4-2.9-6.4-6.4v-49c0-3.5,2.9-6.4,6.4-6.4H88c3.5,0,6.4,2.9,6.4,6.4v49
	C94.4,170.6,91.5,173.5,88,173.5z"/>
<circle class="st3" cx="20.7" cy="170" r="9.4"/>
<path class="st3" d="M22.7,173.5h-3.1c-3.5,0-6.4-2.9-6.4-6.4v-49c0-3.5,2.9-6.4,6.4-6.4h3.1c3.5,0,6.4,2.9,6.4,6.4v49
	C29,170.6,26.2,173.5,22.7,173.5z"/>
<path class="st17" d="M57.4,171.7H50c-2.1,0-3.7-1.7-3.7-3.7v-4c0-2.1,1.7-3.7,3.7-3.7h7.4c2.1,0,3.7,1.7,3.7,3.7v4
	C61.2,170.1,59.5,171.7,57.4,171.7z"/>
<path class="st9" d="M88,106.4h-3.1c-3.5,0-6.4,2.9-6.4,6.4v10.1h15.8v-10.1C94.4,109.3,91.5,106.4,88,106.4z"/>
<path class="st9" d="M22.7,104.6h-3.1c-3.5,0-6.4,2.9-6.4,6.4v10.1H29V111C29,107.5,26.2,104.6,22.7,104.6z"/>
<rect x="72.5" y="59.7" class="st3" width="5.6" height="6.1"/>
<polygon class="st3" points="54,119.5 43.2,101.5 64.9,101.5 "/>
<path class="st18" d="M39.6,162.4h-5.9v-59.3c0-1.1,0.9-2,2-2h1.9c1.1,0,2,0.9,2,2V162.4z"/>
<path class="st18" d="M73.8,162.4h-5.9v-59.3c0-1.1,0.9-2,2-2h1.9c1.1,0,2,0.9,2,2V162.4z"/>
<rect x="33.5" y="231.5" class="st11" width="15.8" height="14.9"/>
<rect x="57" y="231.5" class="st11" width="15.8" height="14.9"/>
<g>
	<g>
		<path class="st11" d="M50,114.2c1.9,0,1.9-3,0-3C48.1,111.2,48.1,114.2,50,114.2L50,114.2z"/>
	</g>
</g>
<g>
	<g>
		<path class="st11" d="M48.7,112.9c1.9,0,1.9-3,0-3C46.8,109.9,46.8,112.9,48.7,112.9L48.7,112.9z"/>
	</g>
</g>
<g>
	<g>
		<path class="st11" d="M47.2,110.7c1.9,0,1.9-3,0-3C45.3,107.7,45.3,110.7,47.2,110.7L47.2,110.7z"/>
	</g>
</g>
<g>
	<g>
		<path class="st11" d="M58,114c1.9,0,1.9-3,0-3C56.1,111,56.1,114,58,114L58,114z"/>
	</g>
</g>
<g>
	<g>
		<path class="st11" d="M58.5,112.4c1.9,0,1.9-3,0-3C56.6,109.4,56.6,112.4,58.5,112.4L58.5,112.4z"/>
	</g>
</g>
<g>
	<g>
		<path class="st11" d="M59.7,110.4c1.9,0,1.9-3,0-3C57.8,107.4,57.8,110.4,59.7,110.4L59.7,110.4z"/>
	</g>
</g>
<g>
	<g>
		<path class="st11" d="M56.7,112.2c1.9,0,1.9-3,0-3C54.8,109.2,54.8,112.2,56.7,112.2L56.7,112.2z"/>
	</g>
</g>
<g>
	<g>
		<path class="st11" d="M54.5,111.5c1.9,0,1.9-3,0-3C52.6,108.5,52.6,111.5,54.5,111.5L54.5,111.5z"/>
	</g>
</g>
<g>
	<g>
		<path class="st11" d="M52.5,110c1.9,0,1.9-3,0-3C50.6,107,50.6,110,52.5,110L52.5,110z"/>
	</g>
</g>
<g>
	<g>
		<path class="st11" d="M51.4,113.7c1.9,0,1.9-3,0-3C49.4,110.7,49.4,113.7,51.4,113.7L51.4,113.7z"/>
	</g>
</g>
<g>
	<g>
		<path class="st11" d="M53.9,114.7c1.9,0,1.9-3,0-3C51.9,111.7,51.9,114.7,53.9,114.7L53.9,114.7z"/>
	</g>
</g>
<g>
	<g>
		<path class="st11" d="M54.5,117c1.9,0,1.9-3,0-3C52.6,114,52.6,117,54.5,117L54.5,117z"/>
	</g>
</g>
<g>
	<g>
		<path class="st11" d="M56.2,117.7c1.9,0,1.9-3,0-3C54.3,114.7,54.3,117.7,56.2,117.7L56.2,117.7z"/>
	</g>
</g>
<g>
	<g>
		<path class="st11" d="M53.5,121.2c1.9,0,1.9-3,0-3C51.6,118.2,51.6,121.2,53.5,121.2L53.5,121.2z"/>
	</g>
</g>
<g>
	<g>
		<path class="st11" d="M51.5,117c1.9,0,1.9-3,0-3C49.6,114,49.6,117,51.5,117L51.5,117z"/>
	</g>
</g>
<g>
	<g>
		<path class="st11" d="M52.9,120c1.9,0,1.9-3,0-3C50.9,117,50.9,120,52.9,120L52.9,120z"/>
	</g>
</g>
<g>
	<g>
		<path class="st11" d="M47.4,107.4c0,0.1,0,0.1,0,0.2c0,0.8,0.7,1.5,1.5,1.5c0.8,0,1.5-0.7,1.5-1.5c0-0.1,0-0.1,0-0.2
			c0-0.8-0.7-1.5-1.5-1.5C48.1,105.9,47.4,106.5,47.4,107.4L47.4,107.4z"/>
	</g>
</g>
<g>
	<g>
		<path class="st11" d="M47.2,107c1.9,0,1.9-3,0-3C45.3,104,45.3,107,47.2,107L47.2,107z"/>
	</g>
</g>
<g>
	<g>
		<path class="st11" d="M44.5,105.7c1.9,0,1.9-3,0-3C42.6,102.7,42.6,105.7,44.5,105.7L44.5,105.7z"/>
	</g>
</g>
<g>
	<g>
		<path class="st11" d="M60.9,109c1.9,0,1.9-3,0-3C58.9,106,58.9,109,60.9,109L60.9,109z"/>
	</g>
</g>
<g>
	<g>
		<path class="st11" d="M62,106.5c1.9,0,1.9-3,0-3C60.1,103.5,60.1,106.5,62,106.5L62,106.5z"/>
	</g>
</g>
<g>
	<g>
		<path class="st11" d="M58.4,107c1.9,0,1.9-3,0-3C56.4,104,56.4,107,58.4,107L58.4,107z"/>
	</g>
</g>
<g>
	<g>
		<path class="st11" d="M58.2,109.5c1.9,0,1.9-3,0-3C56.3,106.5,56.3,109.5,58.2,109.5L58.2,109.5z"/>
	</g>
</g>
<g>
	<g>
		<path class="st11" d="M53,108.2c1.9,0,1.9-3,0-3C51.1,105.2,51.1,108.2,53,108.2L53,108.2z"/>
	</g>
</g>
<g>
	<g>
		<path class="st11" d="M50,107.2c1.9,0,1.9-3,0-3C48.1,104.2,48.1,107.2,50,107.2L50,107.2z"/>
	</g>
</g>
<g>
	<g>
		<path class="st11" d="M50,107.2c1.9,0,1.9-3,0-3C48.1,104.2,48.1,107.2,50,107.2L50,107.2z"/>
	</g>
</g>
<g>
	<g>
		<path class="st11" d="M53.7,106c1.9,0,1.9-3,0-3C51.8,103,51.8,106,53.7,106L53.7,106z"/>
	</g>
</g>
<path class="st19" d="M225.1,253.6h-47.2v-51c0-1.1,0.9-2,2-2h43.2c1.1,0,2,0.9,2,2V253.6z"/>
<path class="st19" d="M174.5,242.2l3.3-1.9v13.4h-38c-1.4,0-4-0.6-2.9-1.4l1.1-0.9c0,0,0.1-0.1,0.1-0.1c1.1-0.3,2.3-0.1,3.7-0.9
	c0.2-0.1,0.4,0.1,0.5-0.2l7-0.9c0.7-0.4,1-0.3,1.2-0.4l5-2.8c1-0.9,2.3,0.5,2.5-0.1c0.1-0.2,0.2-0.4,0.5-0.5l4.2-0.8
	c0.1,0,0.2,0,0.3,0c1.3,0,4.5-1.1,4.6-1.1l6.2-1C174,242.4,174.3,242.3,174.5,242.2z"/>
<path class="st19" d="M227.7,242.2l-2.6-1.9v13.4h30.4c1.1,0,3.2-0.6,2.4-1.4l-0.8-0.9c0,0-0.1-0.1-0.1-0.1c-0.9-0.3-1.8-0.1-3-0.9
	c-0.1-0.1-0.3,0.1-0.4-0.2l-5.6-0.9c-0.5-0.4-0.8-0.3-0.9-0.4l-4-2.8c-0.8-0.9-1.9,0.5-2-0.1c-0.1-0.2-0.2-0.4-0.4-0.5l-3.4-0.8
	c-0.1,0-0.1,0-0.2,0c-1.1,0-3.6-1.1-3.7-1.1l-5-1C228.1,242.4,227.9,242.3,227.7,242.2z"/>
<g>
	<g>
		<path class="st19" d="M223,246c0.9,0.2,1.7,0.6,2.5,1.1c0.7,0.5,1.7,0.1,2.1-0.5c0.4-0.7,0.1-1.6-0.5-2.1c-1-0.7-2.1-1.1-3.2-1.4
			c-0.8-0.2-1.6,0.2-1.8,1C221.7,244.9,222.2,245.8,223,246L223,246z"/>
	</g>
</g>
<g>
	<g>
		<path class="st19" d="M222,244.8c2.5,1.9,5.9,2.5,8.8,3.4c1.9,0.5,2.6-2.3,0.8-2.9c-2.7-0.8-5.8-1.4-8.1-3.1
			C222,241,220.5,243.6,222,244.8L222,244.8z"/>
	</g>
</g>
<g>
	<g>
		<path class="st20" d="M185.5,211.6c0.3,5.7,0.3,11.3,0.1,17c-0.1,1.9,2.9,1.9,3,0c0.2-5.7,0.2-11.3-0.1-17
			C188.4,209.7,185.4,209.7,185.5,211.6L185.5,211.6z"/>
	</g>
</g>
<g>
	<g>
		<path class="st20" d="M198.9,210.9c1.6,3.8-0.8,9.7-1.2,13.7c-0.4,4.2-0.2,8.4,0.3,12.6c0.2,1.9,3.2,1.9,3,0
			c-0.7-5.9-0.7-11.7,0.3-17.5c0.7-3.7,1.6-6.7,0.1-10.3C200.7,207.6,198.1,209.1,198.9,210.9L198.9,210.9z"/>
	</g>
</g>
<g>
	<g>
		<path class="st20" d="M210.6,217.6c0.8,7,1.2,14,1.2,21c0,1.9,3,1.9,3,0c0-7-0.4-14-1.2-21C213.3,215.8,210.3,215.7,210.6,217.6
			L210.6,217.6z"/>
	</g>
</g>
<g>
	<g>
		<path class="st20" d="M216,209.1c0.4,4,1.1,8,2.1,11.9c0.5,1.9,3.4,1.1,2.9-0.8c-1-3.6-1.7-7.3-2-11.1
			C218.8,207.2,215.8,207.2,216,209.1L216,209.1z"/>
	</g>
</g>
<g>
	<g>
		<path class="st20" d="M186.9,238.2c-2.7,5.7-8,9.7-14.3,10.4c-1.9,0.2-1.9,3.2,0,3c7.3-0.9,13.7-5.2,16.9-11.9
			C190.3,238,187.7,236.4,186.9,238.2L186.9,238.2z"/>
	</g>
</g>
<g>
	<g>
		<path class="st20" d="M192.6,242.1c0.2,1.7,0.3,3.3,0.5,5c0.1,0.8,0.6,1.5,1.5,1.5c0.7,0,1.6-0.7,1.5-1.5c-0.2-1.7-0.3-3.3-0.5-5
			c-0.1-0.8-0.6-1.5-1.5-1.5C193.3,240.6,192.5,241.3,192.6,242.1L192.6,242.1z"/>
	</g>
</g>
<g>
	<g>
		<path class="st20" d="M205.6,233.1c0.4,4.6,0,9.1-1.3,13.6c-0.5,1.9,2.4,2.7,2.9,0.8c1.4-4.7,1.9-9.5,1.4-14.4
			C208.4,231.2,205.4,231.2,205.6,233.1L205.6,233.1z"/>
	</g>
</g>
<g>
	<g>
		<path class="st20" d="M218.5,241c-4,7.6,11,10.1,15.6,9.6c1.9-0.2,1.9-3.2,0-3c-1.8,0.2-15-1.2-13-5.1
			C222,240.8,219.4,239.3,218.5,241L218.5,241z"/>
	</g>
</g>
<g>
	<g>
		<path class="st20" d="M165.6,246.7c-3.1-0.3-6,0.3-8.8,1.6c-1.7,0.8-0.2,3.4,1.5,2.6c2.3-1.1,4.7-1.5,7.3-1.2
			C167.5,249.9,167.5,246.9,165.6,246.7L165.6,246.7z"/>
	</g>
</g>
<g>
	<g>
		<path class="st21" d="M124.9,256.6c48.7-5.2,97.8-1.2,146.6,1.1c1.9,0.1,1.9-2.9,0-3c-48.7-2.4-97.9-6.3-146.6-1.1
			C123,253.8,123,256.8,124.9,256.6L124.9,256.6z"/>
	</g>
</g>
<g>
	<g>
		<path class="st21" d="M271.7,254.9c-49.9-0.2-99.8-0.3-149.6-0.6c0,1,0,2,0,3c15.2,0.1,30.5-0.3,45.7-1.1
			c7.4-0.4,14.9-0.9,22.3-1.5c7.8-0.6,15.8-1.6,23,1.9c0.3-0.9,0.5-1.9,0.8-2.8c-29.3-1.6-59.1,1.4-88.4,2.9c-1.9,0.1-1.9,3.1,0,3
			c29.3-1.4,59.1-4.5,88.4-2.9c1.5,0.1,2.1-2.1,0.8-2.8c-6.1-3-12.5-3.2-19.1-2.7c-7.9,0.5-15.9,1.3-23.8,1.7
			c-16.5,1-33.1,1.4-49.6,1.3c-1.9,0-1.9,3,0,3c49.9,0.3,99.8,0.4,149.6,0.6C273.7,257.9,273.7,254.9,271.7,254.9L271.7,254.9z"/>
	</g>
</g>
<g>
	<g>
		<path class="st21" d="M271.1,259.3c0.9-0.7,1.7-1.4,2.6-2.2c0.5-0.4,0.6-1.3,0.2-1.8c-2.7-4.2-8.4-4.3-11.3-0.2
			c-1,1.3,0.8,2.6,2.1,2.1c1.9-0.9,2.5-2.9,1.2-4.6c-0.4-0.5-1-0.9-1.7-0.7c-3.8,1-6.3,3.7-6.9,7.6c-0.2,1.6,1.8,2.7,2.7,1.2
			c4.7-7.4-6.8-8.5-5.3-2.7c0.4,1.5,2.4,1.3,2.9,0c1.1-2.8-0.3-5.2-3.1-6c-0.6-0.2-1.4,0.1-1.7,0.7c-0.9,1.8-0.9,2.9,0.2,4.6
			c0.9,1.4,3.2,0.5,2.7-1.2c-1.1-4.3-6.4-4.3-7.2,0.1c0.9-0.1,1.8-0.2,2.7-0.4c-2-2.7-3.7-2.2-6.7-2.2c-2.9,0.1-4.9-0.4-7,2.2
			c0.8,0.2,1.7,0.4,2.5,0.7c-1.3-4.7-6.9-7.7-11.7-6.9c-3.5,0.6-5,4.8-1.1,6c1.9,0.6,2.5-2.2,0.8-2.9c-2.3-0.9-4.2,0.6-4.3,3
			c0.9-0.3,1.9-0.5,2.8-0.8c-3.3-7.7-12-3.1-17.4-1.1c-10.3,3.7-21.4,3.8-31.8,0.6c-1.9-0.6-2.6,2.3-0.8,2.9c7.3,2.2,14.9,3,22.5,2
			c3.7-0.5,7.4-1.3,10.9-2.6c4.1-1.5,11.4-6.3,14-0.3c0.6,1.4,2.8,0.6,2.8-0.8c0.2,0,0.3-0.1,0.5-0.1c0.3-1,0.5-1.9,0.8-2.9
			c1.3,0.4,3-0.1,4.5,0.4c2.2,0.8,4,1.8,4.6,4.2c0.3,1,1.8,1.6,2.5,0.7c0.5-0.7,8.1-1.9,9-0.6c0.7,0.9,2.5,1,2.7-0.4
			c0.5,0,0.9-0.1,1.4-0.1c0.9-0.4,1.8-0.8,2.7-1.2c-0.1-0.5-0.1-1-0.2-1.6c-0.6,0.2-1.1,0.5-1.7,0.7c0.3,0.8,0.7,1.5,1,2.3
			c1,0,1.9,0,2.9,0c-0.1,0.7-0.1,1.3-0.2,2c0.9,0.4,1.8,0.8,2.7,1.2c0.4-2.8,1.9-4.8,4.8-5.5c-0.6-0.2-1.1-0.5-1.7-0.7
			c0,0.2-0.1,0.4-0.1,0.5c0.7,0.7,1.4,1.4,2.1,2.1c2.1-2.2,4.2-2.1,6.1,0.2c0.1-0.6,0.2-1.2,0.2-1.8c-0.9,0.7-1.7,1.4-2.6,2.2
			C267.5,258.4,269.6,260.5,271.1,259.3L271.1,259.3z"/>
	</g>
</g>
<g>
	<g>
		<path class="st21" d="M202.5,260.4c12.1,0.9,24.1,0.8,36.2,0.6c5.4-0.1,10.2,1.9,15.4,2c5.2,0.1,10.6-0.8,15.9-1.3
			c1.5-0.1,2-1.9,0.8-2.8c-3.6-2.4-7.9-2.2-12.1-2.5c-6.2-0.3-12.4-0.7-18.6-1c-1.9-0.1-1.9,2.9,0,3c5,0.3,9.9,0.5,14.9,0.8
			c4.6,0.2,10.4-0.4,14.3,2.2c0.3-0.9,0.5-1.9,0.8-2.8c-5,0.4-10.1,1.3-15.1,1.3c-5.5,0-10.6-2.2-16.2-2
			c-12.1,0.3-24.1,0.4-36.2-0.6C200.5,257.3,200.5,260.3,202.5,260.4L202.5,260.4z"/>
	</g>
</g>
<g>
	<g>
		<path class="st21" d="M264.5,259.2c-5.1,0.1-9.9-0.1-14.9-1.4c-4-1.1-7.9-2.3-12.1-2.9c-8-1.3-16.1-1.1-24.1,0.2
			c-1.8,0.3-1.1,2.8,0.4,2.9c7.8,0.9,15.4,0.6,23.1-1c1.6-0.3,1.3-3.1-0.4-2.9c-9.7,1.1-20.6-5.4-29,2.1c-0.9,0.9-0.2,2.6,1.1,2.6
			c3.3-0.2,6.3,0.2,9.4,1.1c1.9,0.5,2.6-2.3,0.8-2.9c-3.4-1-6.6-1.4-10.2-1.2c0.4,0.9,0.7,1.7,1.1,2.6c7.2-6.5,18.3-0.3,26.9-1.3
			c-0.1-1-0.3-2-0.4-2.9c-7.4,1.5-14.8,1.8-22.3,0.9c0.1,1,0.3,2,0.4,2.9c9.3-1.6,18.7-1.4,27.8,0.8c7.8,1.9,14.3,3.6,22.4,3.4
			C266.4,262.1,266.4,259.1,264.5,259.2L264.5,259.2z"/>
	</g>
</g>
<g>
	<g>
		<path class="st21" d="M201.4,262.7c14.4-1.2,28.7-2.3,43.1-3.5c0-1,0-2,0-3c-19,2.2-38.3,5.6-57.5,3.5c-9.8-1.1-19.4-2.2-29.3-2.1
			c-10.1,0-20.1,0.8-30.2,1.5c0,1,0,2,0,3c25.7-2.6,51.6-2.5,77.3,0.3c1.7,0.2,2.1-2.7,0.4-2.9c-15.2-2.4-30.5-3.9-45.8-4.6
			c-1.9-0.1-1.9,2.9,0,3c15.1,0.6,30.1,2.1,45,4.5c0.1-1,0.3-2,0.4-2.9c-25.7-2.7-51.6-2.8-77.3-0.3c-1.9,0.2-1.9,3.1,0,3
			c9.7-0.7,19.5-1.4,29.2-1.5c10.2-0.1,20.1,1,30.2,2.1c19.2,2.1,38.5-1.3,57.5-3.5c1.9-0.2,1.9-3.2,0-3
			c-14.4,1.2-28.7,2.3-43.1,3.5C199.5,259.9,199.5,262.9,201.4,262.7L201.4,262.7z"/>
	</g>
</g>
<g>
	<g>
		<path class="st21" d="M118.7,256.5c1.6,3.6,5.5,5.5,9.3,4.8c1.3-0.2,1.4-2.2,0.4-2.7c-2.5-1.3-4.5-3.2-5.9-5.7
			c-1-1.7-3.5-0.2-2.6,1.5c1.6,2.9,4,5.2,7,6.8c0.1-0.9,0.2-1.8,0.4-2.7c-2.6,0.4-4.9-1.1-5.9-3.4
			C120.5,253.2,117.9,254.7,118.7,256.5L118.7,256.5z"/>
	</g>
</g>
<g>
	<g>
		<path class="st21" d="M136.5,251.7c-2.4,0-5,0.4-7.4-0.2c-1.7-0.4-2.8-0.9-4.7-0.8c-3.2,0.3-5.8,2-7.4,4.7
			c-0.3,0.5-0.3,1.4,0.2,1.8c2.8,2.3,5.7,4.2,8.9,5.9c1.7,0.9,3.2-1.7,1.5-2.6c-3-1.6-5.7-3.3-8.3-5.5c0.1,0.6,0.2,1.2,0.2,1.8
			c0.9-1.5,2.2-2.5,3.9-3c2-0.5,3,0.2,4.9,0.6c2.6,0.5,5.4,0.2,8.1,0.2C138.4,254.7,138.4,251.7,136.5,251.7L136.5,251.7z"/>
	</g>
</g>
<g>
	<g>
		<path class="st21" d="M123,255.2c1.9,0,1.9-3,0-3C121.1,252.2,121.1,255.2,123,255.2L123,255.2z"/>
	</g>
</g>
<g>
	<g>
		<path class="st21" d="M116.4,258.3c9.6,10.6,28.3,4.6,40.1,1.6c1.9-0.5,1.1-3.4-0.8-2.9c-10.7,2.7-28.5,8.6-37.1-0.9
			C117.2,254.7,115.1,256.9,116.4,258.3L116.4,258.3z"/>
	</g>
</g>
<g>
	<g>
		<path class="st21" d="M248.8,256.8c3.4-0.9,6.8-1.6,10.4-1.9c1.2-0.1,14.7,0.5,11.3,4.4c-1.3,1.5,0.9,3.6,2.1,2.1
			c3-3.5,0.4-6.9-3.3-8.4c-6.5-2.7-14.9-0.9-21.4,0.9C246.1,254.4,246.9,257.3,248.8,256.8L248.8,256.8z"/>
	</g>
</g>
</svg>
