<?xml version="1.0" encoding="utf-8"?>
<!-- Generator: Adobe Illustrator 22.0.1, SVG Export Plug-In . SVG Version: 6.00 Build 0)  -->
<svg version="1.1" id="Layer_1" xmlns="http://www.w3.org/2000/svg" xmlns:xlink="http://www.w3.org/1999/xlink" x="0px" y="0px"
	 viewBox="0 0 280 270" style="enable-background:new 0 0 280 270;" xml:space="preserve">
<style type="text/css">
	.st0{fill:#D6CEC7;}
	.st1{fill:#EC873A;}
	.st2{fill:#484545;}
	.st3{fill:#BAA9A7;}
	.st4{fill:#FCCCA5;}
	.st5{fill:#ABC1E4;}
	.st6{fill:#FFFAEB;}
	.st7{fill:#2A241D;}
	.st8{fill:#68809B;}
	.st9{fill:#242962;}
	.st10{fill:#231F20;}
	.st11{fill:#EF4923;}
	.st12{fill:#F3E91C;}
	.st13{fill:#FAED3A;stroke:#110A09;stroke-miterlimit:10;}
	.st14{fill:#110A09;}
	.st15{fill:#808D99;stroke:#231F20;stroke-miterlimit:10;}
	.st16{fill:#050505;}
	.st17{fill:#8B8074;}
	.st18{fill:#7D5F32;}
	.st19{fill:#9E9388;}
	.st20{fill:#9ED8DD;}
	.st21{fill:#EE4223;}
	.st22{fill:#EE4323;}
	.st23{fill:#EE4423;}
	.st24{fill:#FFFFFF;}
	.st25{fill:#ECA133;}
	.st26{fill:#D7CFC8;}
</style>
<path class="st0" d="M264.7,206H129.2c-6.6,0-12-5.4-12-12v-71.8c0-6.6,5.4-12,12-12h135.5c6.6,0,12,5.4,12,12V194
	C276.7,200.6,271.3,206,264.7,206z"/>
<polygon class="st1" points="144,163.9 142.5,164.2 142.6,158.4 144.5,158.5 "/>
<polygon class="st2" points="141.7,189.8 133.8,189.8 131.2,154.5 142.8,154.5 "/>
<path class="st3" d="M189.9,141.7l0-4.9c0,0,0,0,0,0c2.7,0,4.9,2.2,4.9,4.9s-2.2,4.9-4.9,4.9V141.7z"/>
<path class="st4" d="M55,110.9H41.4c-2,0-3.6-1.6-3.6-3.6v-17c0-2,1.6-3.6,3.6-3.6H55c2,0,3.6,1.6,3.6,3.6v17
	C58.6,109.3,57,110.9,55,110.9z"/>
<path class="st5" d="M68.5,173.3H27.9c-3.5,0-6.4-2.9-6.4-6.4v-52.4c0-3.5,2.9-6.4,6.4-6.4h40.6c3.5,0,6.4,2.9,6.4,6.4V167
	C74.9,170.5,72,173.3,68.5,173.3z"/>
<rect x="88.4" y="135.9" class="st6" width="7.4" height="7.4"/>
<g>
	<path class="st7" d="M91.2,265H51.1v-22.2h22.2c9.9,0,18,8.1,18,18V265z"/>
	<rect x="51.1" y="261.3" class="st7" width="40.2" height="3.7"/>
	<rect x="51.1" y="263.1" class="st7" width="40.2" height="0.9"/>
</g>
<path class="st8" d="M66.1,237.8h-15v-65.2c0-3.3,2.7-6,6-6h3c3.3,0,6,2.7,6,6V237.8z"/>
<rect x="51.1" y="225.2" class="st9" width="15" height="14.2"/>
<path class="st9" d="M64.7,229.7H52.5c-1.7,0-3-1.3-3-3v-0.9c0-1.7,1.3-3,3-3h12.2c1.7,0,3,1.3,3,3v0.9
	C67.7,228.3,66.3,229.7,64.7,229.7z"/>
<g>
	<path class="st7" d="M3.6,265h40.2v-22.2H21.6c-9.9,0-18,8.1-18,18V265z"/>
	
		<rect x="3.6" y="261.3" transform="matrix(-1 -4.493529e-11 4.493529e-11 -1 47.2644 526.2855)" class="st7" width="40.2" height="3.7"/>
	
		<rect x="3.6" y="263.1" transform="matrix(-1 -4.488999e-11 4.488999e-11 -1 47.2644 527.2142)" class="st7" width="40.2" height="0.9"/>
</g>
<path class="st8" d="M28.7,238.9h15v-66.3c0-3.3-2.7-6-6-6h-3c-3.3,0-6,2.7-6,6V238.9z"/>
<rect x="28.7" y="226.2" transform="matrix(-1 -3.306789e-11 3.306789e-11 -1 72.4037 465.7661)" class="st9" width="15" height="13.3"/>
<path class="st9" d="M30.1,229.7h12.2c1.7,0,3-1.3,3-3v-0.9c0-1.7-1.3-3-3-3H30.1c-1.7,0-3,1.3-3,3v0.9
	C27.1,228.3,28.4,229.7,30.1,229.7z"/>
<rect x="20.5" y="165.9" class="st10" width="53.3" height="7.4"/>
<circle class="st4" cx="77.7" cy="166.8" r="8.9"/>
<path class="st4" d="M78.1,166.8h-2.3c-3.5,0-6.4-2.9-6.4-6.4v-7.8c0-3.5,2.9-6.4,6.4-6.4h2.3c3.5,0,6.4,2.9,6.4,6.4v7.8
	C84.4,164,81.6,166.8,78.1,166.8z"/>
<circle class="st4" cx="18" cy="166.8" r="8.9"/>
<path class="st4" d="M20.6,168.7h-2.3c-3.5,0-6.4-2.9-6.4-6.4v-24c0-3.5,2.9-6.4,6.4-6.4h2.3c3.5,0,6.4,2.9,6.4,6.4v24
	C27,165.9,24.1,168.7,20.6,168.7z"/>
<path class="st5" d="M78.4,109.8h-2.9c-3.3,0-6.1,8.5-6.1,18.8v30h15v-30C84.4,118.3,81.7,109.8,78.4,109.8z"/>
<path class="st5" d="M20.9,110.6H18c-3.3,0-6.1,8.8-6.1,19.5v31h15v-31C27,119.4,24.3,110.6,20.9,110.6z"/>
<path class="st4" d="M47.5,117.6l-9.6-9.7h20.7l-9.6,9.7C48.5,118,47.9,118,47.5,117.6z"/>
<rect x="28.7" y="235.9" class="st7" width="15" height="10"/>
<rect x="51.1" y="235.9" class="st7" width="15" height="10"/>
<path class="st11" d="M33.4,108.2h-5.8c-0.6,0-1,0.5-1,1l1.3,58.5c0,0.5,0.5,1,1,1h16c0.6,0,1-0.5,1-1l-1.7-48
	c0-0.2-0.1-0.5-0.3-0.7L33.4,108.2z"/>
<path class="st12" d="M35.2,168.7l-5.6,0l-1.4-59c0-1.1,0.8-2,1.9-2l1.8,0c1,0,1.9,0.9,2,1.9L35.2,168.7z"/>
<path class="st11" d="M63.1,108.2h5.8c0.6,0,1,0.5,1,1l-1.3,58.5c0,0.5-0.5,1-1,1h-16c-0.6,0-1-0.5-1-1l1.7-48
	c0-0.2,0.1-0.5,0.3-0.7L63.1,108.2z"/>
<path class="st12" d="M61.3,168.7l5.6,0l1.4-59c0-1.1-0.8-2-1.9-2l-1.8,0c-1,0-1.9,0.9-2,1.9L61.3,168.7z"/>
<path class="st4" d="M52.1,98.6h-7.8c-10.5,0-19-8.6-19-19V55.5c0-8.1,6.6-14.8,14.8-14.8h16.3c8.1,0,14.8,6.6,14.8,14.8v24.1
	C71.1,90.1,62.6,98.6,52.1,98.6z"/>
<path class="st13" d="M48.5,55.3H21.6c0-17,12.2-31,26.9-31s26.9,14,26.9,31c0,0,0,0,0,0L48.5,55.3z"/>
<rect x="19.5" y="52.2" class="st13" width="57.4" height="3.5"/>
<g>
	<g>
		<path class="st14" d="M51.5,30.7c3.3,1.8,7.3,3.4,9.9,6.1c2.7,2.7,4.7,6.8,6.1,10.3c0.3,0.9,1.8,0.5,1.4-0.4
			c-1.4-3.5-3.3-7.1-5.7-10.1c-2.8-3.4-7.2-5.2-11-7.2C51.4,28.9,50.7,30.2,51.5,30.7L51.5,30.7z"/>
	</g>
</g>
<g>
	<g>
		<path class="st14" d="M51.8,37.7c4,3,6.9,7,8.7,11.6c0.3,0.9,1.8,0.5,1.4-0.4c-1.9-5-5.1-9.2-9.4-12.5
			C51.7,35.9,51,37.2,51.8,37.7L51.8,37.7z"/>
	</g>
</g>
<g>
	<g>
		<path class="st14" d="M44,29.4c-3.8,2.1-8.2,3.8-11,7.2c-2.4,2.9-4.3,6.5-5.7,10.1c-0.4,0.9,1.1,1.3,1.4,0.4
			c1.4-3.5,3.4-7.6,6.1-10.3c2.7-2.7,6.6-4.3,9.9-6.1C45.6,30.2,44.8,28.9,44,29.4L44,29.4z"/>
	</g>
</g>
<g>
	<g>
		<path class="st14" d="M44.9,35.7c-4.3,3.2-7.5,7.4-9.4,12.5c-0.3,0.9,1.1,1.3,1.4,0.4c1.8-4.6,4.8-8.6,8.7-11.6
			C46.4,36.4,45.6,35.1,44.9,35.7L44.9,35.7z"/>
	</g>
</g>
<g>
	<g>
		<path class="st14" d="M47.9,39.8c0,3.3,0.1,6.7,0.1,10c0,1,1.5,1,1.5,0c0-3.3-0.1-6.7-0.1-10C49.4,38.8,47.9,38.8,47.9,39.8
			L47.9,39.8z"/>
	</g>
</g>
<path class="st15" d="M39.6,206h-6.8c-1.6,0-3-1.3-3-3v-6.2c0-1.6,1.3-3,3-3h6.8c1.6,0,3,1.3,3,3v6.2C42.6,204.6,41.3,206,39.6,206z
	"/>
<path class="st15" d="M62,206h-6.8c-1.6,0-3-1.3-3-3v-6.2c0-1.6,1.3-3,3-3H62c1.6,0,3,1.3,3,3v6.2C65,204.6,63.6,206,62,206z"/>
<circle class="st16" cx="38.4" cy="65.6" r="2.9"/>
<circle class="st16" cx="57.8" cy="65.6" r="2.9"/>
<path class="st17" d="M48.8,77.7L48.8,77.7c-1,0-1.9-0.9-1.9-1.9v-3.5c0-1,0.9-1.9,1.9-1.9h0c1,0,1.9,0.9,1.9,1.9v3.5
	C50.7,76.9,49.8,77.7,48.8,77.7z"/>
<path class="st18" d="M42.9,60.2L42.9,60.2c0,0.8-0.6,1.4-1.3,1.4l-7.1,0.2c-0.8,0-1.4-0.6-1.4-1.3v0c0-0.8,0.6-1.4,1.3-1.4l7.1-0.2
	C42.3,58.9,42.9,59.5,42.9,60.2z"/>
<path class="st18" d="M52.8,60.2L52.8,60.2c0,0.8,0.6,1.4,1.3,1.4l7.1,0.2c0.8,0,1.4-0.6,1.4-1.3l0,0c0-0.8-0.6-1.4-1.3-1.4
	l-7.1-0.2C53.5,58.9,52.9,59.5,52.8,60.2z"/>
<path class="st19" d="M74,71.5h-2.9v-7.7H74c1.1,0,2,0.9,2,2v3.7C76,70.6,75.1,71.5,74,71.5z"/>
<path class="st19" d="M22.5,72.3h2.9v-7.7h-2.9c-1.1,0-2,0.9-2,2v3.7C20.5,71.4,21.4,72.3,22.5,72.3z"/>
<g>
	<g>
		<path class="st10" d="M39.2,86.7c3.4,2.6,8.2,3,12.4,2.3c4.4-0.7,6.9-3.8,9.4-7.3c0.7-1.1-1-2.1-1.7-1c-2.1,3-4.1,5.6-7.9,6.3
			c-3.4,0.6-7.9,0.4-10.7-1.7C39.6,84.5,38.2,85.9,39.2,86.7L39.2,86.7z"/>
	</g>
</g>
<g>
	<g>
		<path class="st10" d="M60.3,77.7c0.9,0.6,1.5,1.3,2,2.2c0.6,1.1,2.4,0.1,1.7-1c-0.7-1.2-1.6-2.2-2.8-2.9
			C60.2,75.3,59.2,77,60.3,77.7L60.3,77.7z"/>
	</g>
</g>
<g>
	<g>
		<path class="st10" d="M43.1,92.5c2.3,0.9,4.7,1.2,7.1,1.1c1.3-0.1,1.3-2.1,0-2c-2.3,0.1-4.4-0.2-6.6-1
			C42.5,90.1,42,92.1,43.1,92.5L43.1,92.5z"/>
	</g>
</g>
<path class="st20" d="M127.1,131.9v21.8c0,1.7,1.4,3.1,3.1,3.1c25.8,0.3,48,4.1,59.7,9.6v-44.8c-13.1,4.4-33.6,7.2-56.8,7.2
	c-1,0-2,0-2.9,0C128.5,128.9,127.1,130.2,127.1,131.9z"/>
<path class="st21" d="M187.9,167.8L187.9,167.8c-1.1,0-1.9-0.9-1.9-1.9v-44.1c0-1.1,0.9-1.9,1.9-1.9l0,0c1.1,0,1.9,0.9,1.9,1.9v44.1
	C189.9,166.9,189,167.8,187.9,167.8z"/>
<path class="st22" d="M156,127.9c-7.2,0.6-14.9,1-22.9,1c-1,0-2,0-2.9,0c-1.7,0-3.1,1.4-3.1,3.1v21.8c0,1.7,1.4,3.1,3.1,3.1
	c9.1,0.1,17.8,0.6,25.8,1.5V127.9z"/>
<path class="st2" d="M143.4,189.8h-9.2c-0.9,0-1.6-0.7-1.6-1.6l0,0c0-0.9,0.7-1.6,1.6-1.6h9.2c0.9,0,1.6,0.7,1.6,1.6l0,0
	C145,189.1,144.3,189.8,143.4,189.8z"/>
<path class="st3" d="M127.1,146.6h-0.6c-1.7,0-3-1.4-3-3v-1.5c0-1.7,1.3-3,3-3h0.6V146.6z"/>
<path class="st23" d="M254.5,201.1h-42.2c-3.9,0-7.1-3.2-7.1-7.1v-60.1c0-3.9,3.2-7.1,7.1-7.1h42.2c3.9,0,7.1,3.2,7.1,7.1V194
	C261.6,197.9,258.4,201.1,254.5,201.1z"/>
<rect x="208.5" y="130.2" class="st24" width="49.9" height="68.6"/>
<path class="st25" d="M250.5,132.2h-34.1c-1.6,0-3-1.3-3-3v-0.5c0-1.6,1.4-3,3-3h34.1c1.6,0,3,1.3,3,3v0.5
	C253.5,130.9,252.1,132.2,250.5,132.2z"/>
<circle class="st25" cx="233.4" cy="124.5" r="7.7"/>
<circle class="st0" cx="233.4" cy="123.1" r="3.8"/>
<path class="st26" d="M255,138.7h-43.2c-1,0-1.9-0.9-1.9-1.9v0c0-1,0.9-1.9,1.9-1.9H255c1,0,1.9,0.9,1.9,1.9v0
	C257,137.8,256.1,138.7,255,138.7z"/>
<path class="st26" d="M255,145.2h-43.2c-1,0-1.9-0.9-1.9-1.9l0,0c0-1,0.9-1.9,1.9-1.9H255c1,0,1.9,0.9,1.9,1.9l0,0
	C257,144.3,256.1,145.2,255,145.2z"/>
<path class="st26" d="M255,151.6h-43.2c-1,0-1.9-0.9-1.9-1.9l0,0c0-1,0.9-1.9,1.9-1.9H255c1,0,1.9,0.9,1.9,1.9l0,0
	C257,150.8,256.1,151.6,255,151.6z"/>
<path class="st26" d="M255.3,158.1h-43.2c-1,0-1.9-0.9-1.9-1.9v0c0-1,0.9-1.9,1.9-1.9h43.2c1,0,1.9,0.9,1.9,1.9v0
	C257.2,157.3,256.4,158.1,255.3,158.1z"/>
<path class="st26" d="M255.3,164.6h-43.2c-1,0-1.9-0.9-1.9-1.9l0,0c0-1,0.9-1.9,1.9-1.9h43.2c1,0,1.9,0.9,1.9,1.9l0,0
	C257.2,163.7,256.4,164.6,255.3,164.6z"/>
<path class="st26" d="M241.4,171.1h-29.3c-1,0-1.9-0.9-1.9-1.9l0,0c0-1,0.9-1.9,1.9-1.9h29.3c1,0,1.9,0.9,1.9,1.9l0,0
	C243.3,170.2,242.5,171.1,241.4,171.1z"/>
</svg>
