<?xml version="1.0" encoding="utf-8"?>
<!-- Generator: Adobe Illustrator 22.0.1, SVG Export Plug-In . SVG Version: 6.00 Build 0)  -->
<svg version="1.1" id="Layer_1" xmlns="http://www.w3.org/2000/svg" xmlns:xlink="http://www.w3.org/1999/xlink" x="0px" y="0px"
	 viewBox="0 0 310 268" style="enable-background:new 0 0 310 268;" xml:space="preserve">
<style type="text/css">
	.st0{fill:#DDDFE0;}
	.st1{fill:#FFF000;}
	.st2{fill:#A78956;}
	.st3{fill:#8A5D3B;}
	.st4{fill:#F6921E;}
	.st5{fill:#231F20;}
	.st6{fill:#D8BD9D;}
	.st7{fill:#A87C4F;}
	.st8{fill:#D0D2D3;}
	.st9{fill:none;stroke:#111042;stroke-width:0.75;stroke-miterlimit:10;}
	.st10{fill:#603813;}
	.st11{fill:#3B2314;}
	.st12{fill:#58595B;}
	.st13{fill:#FCB614;stroke:#231F20;stroke-miterlimit:10;}
	.st14{fill:#6D6E70;}
	.st15{fill:none;stroke:#58595B;stroke-width:5;stroke-miterlimit:10;}
	.st16{fill:#DEADCF;}
	.st17{fill:#E51C43;}
	.st18{fill:#F39984;}
	.st19{fill:#3E5724;}
	.st20{fill:#817669;}
</style>
<path class="st0" d="M267,186H136.6c-6.6,0-12-5.4-12-12V98.1c0-6.6,5.4-12,12-12H267c6.6,0,12,5.4,12,12V174
	C279,180.6,273.6,186,267,186z"/>
<rect x="236" y="170.8" class="st1" width="38.9" height="2.6"/>
<path class="st2" d="M252,173.4h-29.6v-22.5c0,0,20.4,15.4,28.6,15.4C255.3,166.3,252,173.4,252,173.4z"/>
<g>
	<g>
		<g>
			<path class="st3" d="M94.8,22.2c-3,14.8-4.2,29.4,3.8,42.9c1.8,3,1.4-0.1,0.4-1.7c-6.7-11.1-4.2-25.1-1.7-37.1
				C97.6,25,94.8,22,94.8,22.2L94.8,22.2z"/>
		</g>
	</g>
	<g>
		<g>
			<path class="st3" d="M96,37.9c0,7.3,0,14.7,0,22c0,1.9,4.2,4.4,4.2,1.8c0-7.3,0-14.7,0-22C100.2,37.8,96,35.3,96,37.9L96,37.9z"
				/>
		</g>
	</g>
	<g>
		<g>
			<path class="st3" d="M97.2,44.6c-1,5.3-0.4,10.5,1.6,15.4c0.4,1,1.5,1.9,2.6,2.3c0.5,0.2,2,0.5,1.5-0.6
				c-1.9-4.8-2.4-9.7-1.5-14.7C101.7,45.6,97.5,43.1,97.2,44.6L97.2,44.6z"/>
		</g>
	</g>
	<g>
		<g>
			<path class="st3" d="M94,41.1c-1.7,7.6-0.5,15.2,3.6,21.8c1.4,2.3,5.8,1.6,4.1-1.2c-3.5-5.6-4.7-12-3.3-18.5
				C99,40.8,94.5,38.4,94,41.1L94,41.1z"/>
		</g>
	</g>
	<g>
		<g>
			<path class="st3" d="M95.5,54.6c-2.4,6.1,0.3,11.9,4.9,16.1c1.1,1,5.4,1.8,3-0.3c-3.9-3.5-5.5-8.5-3.5-13.4
				C100.5,55.6,96,53.4,95.5,54.6L95.5,54.6z"/>
		</g>
	</g>
	<g>
		<g>
			<path class="st3" d="M95.9,54.2c-0.6,3.4-0.3,6.6,0.7,9.9c0.3,1.1,1.3,2.2,2.4,2.6c0.9,0.3,1.5-0.1,1.2-1.1
				c-0.9-2.7-1.1-5.4-0.6-8.2c0.2-1.1-0.7-2.2-1.5-2.8C97.8,54.3,96.1,53.2,95.9,54.2L95.9,54.2z"/>
		</g>
	</g>
	<g>
		<g>
			<path class="st3" d="M98.7,55.6c-2.1-1.1-4.6-0.8-5.5,1.7c-0.9,2.6-0.5,6.1-0.4,8.8c0.1,2,4.8,3.7,4.6,1.5
				c-0.1-1.7-0.1-3.4,0-5.1c0-0.7,0.1-1.5,0.1-2.2c0-0.4,0.1-0.9,0.2-1.3c0.6-0.6,0.4-0.8-0.6-0.7c0.8,0.4,2.4,0.8,2.9-0.2
				C100.7,57.1,99.4,56,98.7,55.6L98.7,55.6z"/>
		</g>
	</g>
	<g>
		<g>
			<path class="st3" d="M90.3,60.7c0,3.1-0.3,6.1-1,9.1c-0.5,2,4.2,3.9,4.6,2c0.7-3.3,1.1-6.5,1.1-9.9C95,60,90.3,58.5,90.3,60.7
				L90.3,60.7z"/>
		</g>
	</g>
	<g>
		<g>
			<path class="st3" d="M90.2,52.9c0.3,3.4,0,6.8-0.9,10.1c-0.6,2.2,4.3,1.6,4.9-0.4c1-3.6,1.3-7.2,0.9-10.9
				C94.8,49.6,89.9,50.7,90.2,52.9L90.2,52.9z"/>
		</g>
	</g>
	<g>
		<g>
			<path class="st3" d="M89.3,54.5c-0.4,3.8-0.5,7.7-0.3,11.5c0.1,0.8,1.2,1.9,1.8,2.5c0.2,0.2,1.5,1.5,1.5,1.1
				c-0.2-3.9-0.1-7.7,0.3-11.5c0.1-0.7-1.3-2-1.8-2.5C90.6,55.4,89.4,54.1,89.3,54.5L89.3,54.5z"/>
		</g>
	</g>
	<g>
		<g>
			<path class="st3" d="M87.1,61.3c-0.7,2.2-1.3,4.3-2,6.5c-0.4,1.3,4.5,1.2,4.8,0c0.7-2.2,1.3-4.3,2-6.5C92.4,60,87.5,60,87.1,61.3
				L87.1,61.3z"/>
		</g>
	</g>
	<g>
		<g>
			<path class="st3" d="M83.9,64.6c-0.2,1.3,0,2.5,0.5,3.7c0.4,0.9,1.6,1.5,2.5,1.9c0.2,0.1,2.3,0.7,2,0c-0.5-1-0.7-2.1-0.5-3.3
				c0.1-0.8-1.3-1.5-1.9-1.8C86.3,65,84,64,83.9,64.6L83.9,64.6z"/>
		</g>
	</g>
	<g>
		<g>
			<path class="st3" d="M88.3,67.5c0,3,0,6.1,0,9.1c0,2,5,2.5,5,0.6c0-3,0-6.1,0-9.1C93.3,66.1,88.3,65.6,88.3,67.5L88.3,67.5z"/>
		</g>
	</g>
	<g>
		<g>
			<path class="st3" d="M92.8,69.8c0.5,2.4,1,4.8,1.4,7.1c0.3,1.3,1.4,2.3,2.7,2.3c1.2,0,2.2-1.1,2-2.3c-0.5-2.4-1-4.8-1.4-7.1
				c-0.3-1.3-1.4-2.3-2.7-2.3C93.6,67.5,92.6,68.6,92.8,69.8L92.8,69.8z"/>
		</g>
	</g>
	<g>
		<g>
			<path class="st3" d="M91.1,27.6c0.5,3.8,1.5,7.3,2.9,10.9c0.7,1.8,5.5,2,4.6-0.4c-1.3-3.2-2.1-6.6-2.6-10
				C95.7,26.1,90.8,25.3,91.1,27.6L91.1,27.6z"/>
		</g>
	</g>
	<g>
		<g>
			<path class="st3" d="M89.2,36.9c-0.6,3.2,0.1,6.3,2,8.9c1.2,1.7,5.9,0,4.5-1.9c-1.5-2.1-2.1-4.6-1.6-7.2
				C94.6,34.3,89.6,34.8,89.2,36.9L89.2,36.9z"/>
		</g>
	</g>
	<g>
		<g>
			<path class="st3" d="M94.8,42.9c0.2,1.8,0.5,3.7,0.7,5.5c0.1,0.6,5,0.1,5-0.2c-0.2-1.8-0.5-3.7-0.7-5.5
				C99.7,42.1,94.8,42.5,94.8,42.9L94.8,42.9z"/>
		</g>
	</g>
	<g>
		<g>
			<path class="st3" d="M92.3,38.1c-0.2,4.7,0.1,9.4,0.9,14c0.4,2.6,5.1,0.8,4.7-1.6c-0.7-4.3-1-8.6-0.9-13
				C97.1,34.6,92.4,35.7,92.3,38.1L92.3,38.1z"/>
		</g>
	</g>
	<g>
		<g>
			<path class="st3" d="M90.1,44.5c0,3.3,0,6.7,0,10c0,1.2,5,0.9,5-0.5c0-3.3,0-6.7,0-10C95.1,42.9,90.1,43.1,90.1,44.5L90.1,44.5z"
				/>
		</g>
	</g>
	<g>
		<g>
			<path class="st3" d="M49.2,37.2c0.2,5.1-0.6,10.1-2.1,14.9c-0.8,2.6,4.2,2.6,4.9,0.2c1.6-5.2,2.3-10.5,2.1-16
				C54,33.8,49.1,34.6,49.2,37.2L49.2,37.2z"/>
		</g>
	</g>
	<g>
		<g>
			<path class="st3" d="M47.4,46.8c0.2,2.9-0.7,5.6-2.5,7.9c-0.2,0.3,1.6-0.4,1.7-0.4c0.8-0.3,2.2-0.7,2.7-1.4
				c1.8-2.3,2.7-5.1,2.6-8.1C51.9,45,47.3,45.9,47.4,46.8L47.4,46.8z"/>
		</g>
	</g>
	<g>
		<g>
			<path class="st3" d="M50.4,49c0.4,2.9-0.2,5.5-1.8,7.9c-1.3,2,2.6,5,4.1,2.7c2-3,2.7-6.5,2.1-10C54.4,47.2,49.9,45.9,50.4,49
				L50.4,49z"/>
		</g>
	</g>
	<g>
		<g>
			<path class="st3" d="M52.5,55.9c-1.5,2-2.4,4.2-2.7,6.8c-0.2,1.3,4.6,0.4,4.8-0.8c0.3-2.2,1-4.4,2.3-6.2c0.6-0.8-0.5-1-1.2-0.9
				C54.8,54.8,53,55.1,52.5,55.9L52.5,55.9z"/>
		</g>
	</g>
	<g>
		<g>
			<path class="st3" d="M54.8,61.7c-0.4,2.2-0.7,4.3-1.1,6.5c-0.3,1.7,3.5,4.7,3.9,2.2c0.4-2.2,0.7-4.3,1.1-6.5
				C59,62.3,55.2,59.3,54.8,61.7L54.8,61.7z"/>
		</g>
	</g>
	<g>
		<g>
			<path class="st3" d="M55.4,55.8c-0.1,1.9-0.7,3.8-1.7,5.4c-1.3,2.2,2.4,5.5,3.9,3c1.4-2.3,2.2-4.9,2.3-7.6
				C60.1,54.1,55.6,52.7,55.4,55.8L55.4,55.8z"/>
		</g>
	</g>
	<g>
		<g>
			<path class="st3" d="M57.4,64.4c-0.4,2.5-1.2,4.7-2.5,6.9c-0.2,0.3,1.6-0.4,1.7-0.5c0.7-0.3,2.2-0.9,2.6-1.6
				c1.4-2.2,2.2-4.6,2.6-7.1c0-0.1-2.2,0.8-2.4,0.9C59,63.3,57.5,63.8,57.4,64.4L57.4,64.4z"/>
		</g>
	</g>
	<g>
		<g>
			<path class="st3" d="M60.2,67.7c-0.4,2.7-1.4,5.1-2.8,7.4c-0.2,0.4,1.7-0.2,1.8-0.3c0.7-0.2,2.4-0.6,2.8-1.3
				c1.5-2.4,2.4-4.9,2.9-7.7c0-0.2-2.3,0.5-2.4,0.6C62,66.6,60.3,67.1,60.2,67.7L60.2,67.7z"/>
		</g>
	</g>
	<g>
		<g>
			<path class="st3" d="M59.8,62.1c-0.9,3.5-2.3,6.7-4.3,9.6c-1.1,1.6,3,4.5,4,3c2.1-3.2,3.7-6.6,4.6-10.4
				C64.6,62.6,60.3,60.1,59.8,62.1L59.8,62.1z"/>
		</g>
	</g>
	<g>
		<g>
			<path class="st3" d="M52.4,63.7c-1.3,2.3-3,4.3-5.2,5.7c-0.9,0.6-1.4,1.6-0.6,2.5c0.8,0.8,2.5,0.7,3.5,0.1
				c2.9-1.8,5.2-4.2,6.8-7.2C58.2,62.4,53.4,61.8,52.4,63.7L52.4,63.7z"/>
		</g>
	</g>
	<g>
		<g>
			<path class="st3" d="M50.1,57.1c-1.7,3.4-3.7,6.5-6.2,9.4c-0.4,0.5,3.5,3.4,4.3,2.5c2.5-2.8,4.6-6,6.2-9.4
				C54.9,58.7,50.5,56.3,50.1,57.1L50.1,57.1z"/>
		</g>
	</g>
	<g>
		<g>
			<path class="st3" d="M45.6,52.4c-1.2,2.2-2.3,4.3-3.5,6.5c-0.7,1.3,2.9,4.3,3.2,3.9c1.2-2.2,2.3-4.3,3.5-6.5
				C49.4,55,45.9,51.9,45.6,52.4L45.6,52.4z"/>
		</g>
	</g>
	<g>
		<g>
			<path class="st3" d="M47.9,51.6c-0.4,6-2,11.6-4.7,16.9c-0.4,0.8,3.6,3.5,3.7,3.4c2.7-5.3,4.3-10.9,4.7-16.9
				C51.7,53.6,47.9,52.1,47.9,51.6L47.9,51.6z"/>
		</g>
	</g>
	<g>
		<g>
			<path class="st3" d="M42.7,60.6c-1.2,1.5-2.1,3.2-2.7,5c-0.4,1.2,0.3,2.6,1.4,3.2c1,0.5,2.4,0.3,2.8-0.9c0.5-1.5,1.2-2.8,2.2-4.1
				C48,61.9,44.5,58.4,42.7,60.6L42.7,60.6z"/>
		</g>
	</g>
	<g>
		<g>
			<path class="st3" d="M49.3,63.2c-0.2,3.2-0.4,6.3-0.6,9.5c-0.2,2.6,4.7,1.5,4.8-0.9c0.2-3.2,0.4-6.3,0.6-9.5
				C54.3,59.7,49.4,60.8,49.3,63.2L49.3,63.2z"/>
		</g>
	</g>
	<g>
		<g>
			<path class="st3" d="M51.5,65.7c0.1,2.5,0,5-0.5,7.4c-0.2,1.2,0.4,2.5,1.5,3.1c0.9,0.5,2.3,0.4,2.6-0.8c0.5-2.8,0.8-5.7,0.6-8.5
				c-0.1-1.2-0.9-2.5-2.1-2.8C52.6,63.8,51.5,64.5,51.5,65.7L51.5,65.7z"/>
		</g>
	</g>
	<g>
		<g>
			<path class="st3" d="M59.9,68.2c0.5,2.2,0.6,4.3,0.4,6.5c0,0.3,2.3-0.5,2.5-0.6c0.5-0.2,2.1-0.7,2.1-1.4c0.2-2.2,0.1-4.4-0.4-6.5
				C64.5,66,59.7,67.4,59.9,68.2L59.9,68.2z"/>
		</g>
	</g>
	<g>
		<g>
			<path class="st3" d="M63.2,67.6c0,0.1,0.3,0.3,0.2,0.4c-0.1-0.3-0.1-0.3,0-0.1c0,0.1,0,0.2,0.1,0.2c0,0.1,0,0.1,0-0.1
				c0,0.1,0,0.2,0,0.2c0,0.1-0.1,0.6,0,0.3C63.2,69.8,64,71,65,71.5c0.7,0.4,2.5,0.7,2.7-0.5c0.3-1.4,0.1-2.8-0.7-4
				c-0.4-0.6-0.8-1-1.4-1.4c-0.4-0.2-1.1-0.5-1.7-0.3C63,65.5,62.6,66.7,63.2,67.6L63.2,67.6z"/>
		</g>
	</g>
	<g>
		<g>
			<path class="st3" d="M82.3,67.8c0,0.8,0,1.7,0,2.5c0,1.2,1.1,2.5,2.3,2.6c1.1,0.2,2.4-0.4,2.4-1.7c0-0.8,0-1.7,0-2.5
				c0-1.2-1.1-2.5-2.3-2.6C83.6,65.9,82.3,66.5,82.3,67.8L82.3,67.8z"/>
		</g>
	</g>
	<g>
		<g>
			<path class="st3" d="M81.1,68.4c0,1.5,0,3,0,4.5c0,1.5,5,1.3,5-0.3c0-1.5,0-3,0-4.5C86.1,66.7,81.1,66.8,81.1,68.4L81.1,68.4z"/>
		</g>
	</g>
	<g>
		<g>
			<path class="st3" d="M66.3,68c-1.2,1.3-1.8,2.7-2,4.5c0,0.5,0.4,1.2,0.8,1.6c0.4,0.4,1.1,0.8,1.7,0.9c1.3,0.1,2.1-0.5,2.2-1.8
				c0,0.4,0.1-0.3,0.1-0.4c0-0.1,0.2-0.6,0.2-0.5c-0.1,0.2,0.2-0.4,0.3-0.4c0-0.1,0.5-0.7,0.2-0.4c0.4-0.4,0.7-0.8,0.6-1.4
				c0-0.6-0.4-1.2-0.8-1.6C68.9,67.8,67.2,67,66.3,68L66.3,68z"/>
		</g>
	</g>
	<g>
		<g>
			<path class="st3" d="M62.7,69.9c-0.2,0.8-0.3,1.7-0.5,2.5c-0.1,0.3,0.2,0.9,0.3,1.2c0.3,0.6,0.6,1.1,1,1.6c0.1,0.2,1.5,1.7,1.6,1
				c0.2-0.8,0.3-1.7,0.5-2.5c0.1-0.3-0.2-0.9-0.3-1.2c-0.3-0.6-0.6-1.1-1-1.6C64.2,70.7,62.9,69.2,62.7,69.9L62.7,69.9z"/>
		</g>
	</g>
	<g>
		<g>
			<path class="st3" d="M50.5,22.7c-1.2,0-2.3,0-3.5,0c-0.4,0-0.6,0.5-0.7,0.8c-0.1,0.5,0.2,1.1,0.4,1.6c0.5,0.9,1.4,1.9,2.6,1.9
				c1.2,0,2.3,0,3.5,0c0.4,0,0.6-0.5,0.7-0.8c0.1-0.5-0.2-1.1-0.4-1.6C52.5,23.6,51.6,22.7,50.5,22.7L50.5,22.7z"/>
		</g>
	</g>
	<g>
		<g>
			<path class="st3" d="M45.8,25.1C44.7,25.5,43.6,26,43,27c-0.4,0.7-0.5,1.5-0.2,2.2c0.3,0.7,2,0.4,2.6,0.3
				c0.3-0.1,2.6-0.6,2.3-1.2c-0.2-0.4-0.2-0.9-0.1-1.4c0.1-0.2,0.2-0.4,0.3-0.6c0,0,0.2-0.2,0.1-0.2c0,0,0.1-0.1,0.1-0.1
				c-0.2,0.1-0.5,0.2-0.7,0.3c0.3-0.1,2.1-0.6,1.5-1.3c-0.3-0.3-0.9-0.2-1.2-0.2C47.1,24.8,46.4,24.9,45.8,25.1L45.8,25.1z"/>
		</g>
	</g>
	<g>
		<g>
			<path class="st3" d="M42.9,29.6c-0.4,2.3,0,4.7,1,6.8c0.6,1.4,5.1-0.8,4.5-2.2c-0.9-2-1.2-4-0.9-6.2
				C47.7,26.6,43.1,28.1,42.9,29.6L42.9,29.6z"/>
		</g>
	</g>
	<g>
		<g>
			<path class="st3" d="M44.6,35.3c-0.3,3.5-1,6.8-2.1,10.1c-0.5,1.4,2.7,5,3.1,3.7c1.2-3.5,1.9-7.1,2.3-10.8
				C48,37,44.8,33.4,44.6,35.3L44.6,35.3z"/>
		</g>
	</g>
	<g>
		<g>
			<path class="st3" d="M46.2,38.1c0.3,3.9-0.4,7.6-2.1,11.2c-0.5,1.1,0.9,1.3,1.6,1.2c1.1-0.1,2.4-0.9,2.9-1.9
				c1.8-3.8,2.6-7.8,2.3-12C50.7,34.6,46.1,36.3,46.2,38.1L46.2,38.1z"/>
		</g>
	</g>
	<g>
		<g>
			<path class="st3" d="M46.4,24.9c-1.2,2.4-1.6,4.9-1.1,7.5c0.2,1.1,1.1,2.4,2.3,2.6c1.2,0.2,1.7-1,1.5-2c-0.3-1.6-0.2-3.1,0.6-4.5
				c0.6-1.1,0.2-2.4-0.6-3.2C48.5,24.7,46.9,23.8,46.4,24.9L46.4,24.9z"/>
		</g>
	</g>
	<g>
		<g>
			<path class="st3" d="M44.8,36.5c0,2.2-0.4,4.2-1.3,6.2c-0.7,1.5,3.8,3.7,4.4,2.3c1-2.2,1.4-4.5,1.4-6.9
				C49.4,36.6,44.8,34.7,44.8,36.5L44.8,36.5z"/>
		</g>
	</g>
	<g>
		<g>
			<path class="st3" d="M43.8,47.9c0,1.8,0,3.7,0,5.5c0,1.5,4.7,2.5,4.7,1.7c0-1.8,0-3.7,0-5.5C48.5,48.2,43.8,47.2,43.8,47.9
				L43.8,47.9z"/>
		</g>
	</g>
	<g>
		<g>
			<path class="st3" d="M43.4,46.9c-0.2,2.5-0.9,4.8-2.2,6.9c-0.3,0.5,4.2,2.6,4.7,1.7c1.2-2.2,2-4.5,2.2-6.9
				C48.2,47.5,43.4,46.5,43.4,46.9L43.4,46.9z"/>
		</g>
	</g>
	<g>
		<g>
			<path class="st3" d="M42.4,36.1c-0.5,10.4-2.7,20.4-6.6,30.1c-0.8,1.9,3.8,4,4.5,2.1c3.9-9.9,6.2-20.2,6.7-30.9
				C47.2,35.5,42.5,33.9,42.4,36.1L42.4,36.1z"/>
		</g>
	</g>
	<g>
		<g>
			<path class="st3" d="M89.8,22.7c0.4,4.8,0.7,9.7,1.1,14.5c0,0.3,5-0.2,4.9-0.8c-0.4-4.8-0.7-9.7-1.1-14.5
				C94.7,21.6,89.7,22.1,89.8,22.7L89.8,22.7z"/>
		</g>
	</g>
	<g>
		<g>
			<path class="st3" d="M91.8,21c0.4,1.8,0.7,3.7,1.1,5.5c0.2,1.1,0.8,2.2,1.3,3.1c0.1,0.2,1.1,1.5,0.9,0.6
				c-0.4-1.8-0.7-3.7-1.1-5.5c-0.2-1.1-0.8-2.2-1.3-3.1C92.6,21.3,91.7,20,91.8,21L91.8,21z"/>
		</g>
	</g>
	<g>
		<g>
			<path class="st3" d="M86.4,23.2c0,0,0.2-0.1,0.2-0.1c-0.1,0-0.3,0-0.4,0.1c-0.1,0-0.3,0-0.4,0c0.3,0-0.2,0-0.2-0.1
				c0.4,0.1-0.3-0.2-0.1-0.1c0,0,0.1,0,0.1,0.1c0.1,0.1,0.1,0,0,0c-0.1-0.1-0.1-0.1-0.1,0c0,0,0.1,0.1,0.1,0.1
				c0.1,0.2-0.1-0.3,0-0.1c0,0.1,0.1,0.2,0.1,0.3c0.2,0.4,0.8,0.7,1.2,0.9c0.6,0.2,1.3,0.2,1.9,0c0.9-0.3,2.1-1,1.6-2.1
				c-0.8-2-3.7-2.6-5.6-2c-0.5,0.2-1.1,0.4-1.4,0.8c-0.3,0.3-0.4,0.9-0.2,1.3C83.8,23.3,85.4,23.6,86.4,23.2L86.4,23.2z"/>
		</g>
	</g>
	<g>
		<g>
			<path class="st3" d="M88.1,26.2c-0.3,4,0.2,7.8,1.6,11.6c0.4,1.1,1.4,2.3,2.7,2.2c1.2-0.1,1.7-1.2,1.3-2.2
				c-1.1-3-1.7-6.2-1.4-9.4c0.1-1.2-0.5-2.5-1.7-3.1C89.7,24.9,88.2,24.9,88.1,26.2L88.1,26.2z"/>
		</g>
	</g>
	<g>
		<g>
			<path class="st3" d="M96.5,55.5c0.9,2.1,2,4.2,3.3,6.1c0.5,0.7,2.4,0.4,3.1,0.3c0.3,0,2.1-0.2,1.7-0.9c-1.2-1.8-2.3-3.7-3.1-5.8
				C101,54,96.3,55,96.5,55.5L96.5,55.5z"/>
		</g>
	</g>
	<g>
		<g>
			<path class="st3" d="M40.3,33.8c0.1,2.5,0,5-0.5,7.4c-0.2,1.2,0.4,2.5,1.5,3.1c0.9,0.5,2.3,0.4,2.6-0.8c0.5-2.8,0.8-5.7,0.6-8.5
				c-0.1-1.2-0.9-2.5-2.1-2.8C41.3,32,40.2,32.6,40.3,33.8L40.3,33.8z"/>
		</g>
	</g>
	<g>
		<g>
			<path class="st3" d="M38.6,44.7c0.1,2.5,0,5-0.5,7.4c-0.2,1.2,0.4,2.5,1.5,3.1c0.9,0.5,2.3,0.4,2.6-0.8c0.5-2.8,0.8-5.7,0.6-8.5
				c-0.1-1.2-0.9-2.5-2.1-2.8C39.7,42.8,38.6,43.5,38.6,44.7L38.6,44.7z"/>
		</g>
	</g>
</g>
<path class="st4" d="M74.7,243.6l14-0.2c0,0-0.3-10.8,0.3-13.9c0.8-4.2,0.8-10.2,1.4-14.8c0.6-4.3,1.2-9.2,2-14.8
	c1.3-8.9,1.5-25.6,1.5-25.6c0-4.8-0.9-18-5.6-18l-14.6,2.3c-0.4,9-1,9.4,0.3,18.8c1.2,8.2-0.2,21.5,0.5,29.2
	c0.5,5.8,0.8,14.3,0.5,19.1C74.8,230.1,74.7,243.6,74.7,243.6z"/>
<g>
	<path class="st4" d="M70.4,164.2c0,0,23.3,7,22.9,1.3c-0.7-9.1-4.6-11.1-5.1-20.5c-0.3-6.8-0.5-22.6,0.4-31.1
		c0.6-5.5,1.9-4.1,2.8-8.1c2.2-10.3-1.2-20.4-1.2-20.4s-5.8-5.3-8.4-5.8c-8.8-1.6-11.3,5.8-11.3,5.8V164.2z"/>
	<path class="st4" d="M71.4,164.2c0,0-21.9,6.5-21.9,0.7c0-8.8,3.6-10.5,4.1-19.9c0.5-8.9,1.7-21.5,0.3-31.4
		c-0.4-2.5-2.8-4.8-3.2-6.8c-2.2-10.3,1-21.4,1-21.4s2.2-4.7,8.8-5.3c7.9-0.7,10.9,5.3,10.9,5.3V164.2z"/>
</g>
<path class="st5" d="M86.9,144.7H54.7c-0.5,0-1,0.1-1-0.4l0.2-4.9c0-0.6,0.2-0.7,0.8-0.7h32.1c0.5,0,1.2-0.5,1.2,0l0.2,5.5
	C88.2,144.6,87.4,144.7,86.9,144.7z"/>
<path class="st6" d="M105.3,139.9l-4.7,0.3c-2.2,0.1-4.1-1.6-4.2-3.8l-1.6-26.5c-0.1-2.2,1.6-4.1,3.8-4.2l4.7-0.3
	c2.2-0.1,4.1,1.6,4.2,3.8l1.6,26.5C109.2,137.9,107.5,139.8,105.3,139.9z"/>
<path class="st6" d="M37.1,139.5l4.7,0.3c2.2,0.1,4.1-1.6,4.2-3.8l1.6-26.5c0.1-2.2-1.6-4.1-3.8-4.2l-4.7-0.3
	c-2.2-0.1-4.1,1.6-4.2,3.8l-1.6,26.5C33.2,137.4,34.9,139.3,37.1,139.5z"/>
<path class="st6" d="M75.3,85h-10c-1.1,0-2-0.9-2-2V73c0-1.1,0.9-2,2-2h10c1.1,0,2,0.9,2,2v10C77.3,84.1,76.4,85,75.3,85z"/>
<path class="st6" d="M70,74.5L70,74.5c-12.2,0-22.1-9.9-22.1-22.1V33c0-10.3,8.3-18.6,18.6-18.6h7.1c10.3,0,18.6,8.3,18.6,18.6v19.5
	C92.1,64.7,82.2,74.5,70,74.5z"/>
<path class="st7" d="M94.7,41.5h-2.5v-8.9h1.5c1.7,0,3,1.3,3,3v3.9C96.7,40.6,95.8,41.5,94.7,41.5z"/>
<path class="st7" d="M45.4,41.5h2.5v-8.9h-1.5c-1.7,0-3,1.3-3,3v3.9C43.4,40.6,44.3,41.5,45.4,41.5z"/>
<path class="st4" d="M67.9,244.1l-14-0.2c0,0,0.3-10.8-0.3-13.9c-0.8-4.2-0.8-10.2-1.4-14.8c-0.6-4.3-1.2-9.2-2-14.8
	c-1.3-8.9-1.5-30.4-1.5-30.4c0-4.8,0.9-8.3,5.3-12.1l15,1.1c0.4,9,1,9.4-0.3,18.8c-1.2,8.2,0.2,21.5-0.5,29.2
	c-0.5,5.8-0.8,14.3-0.5,19.1C67.9,230.6,67.9,244.1,67.9,244.1z"/>
<path class="st8" d="M69.6,85L71,94c0,0,3.7,0.1,10.3,0.8c7.5,0.7,11.9,4.9,11.9,4.9c0.4-8.2-2.1-15-2.1-15s-6.3-5.3-9.1-5.8
	c-7.4-1.2-4,4.8-12.1,4.5C69,83.2,69.6,85,69.6,85z"/>
<path class="st8" d="M70.8,84.7L71,94c0,0-7.6-0.1-10.4-0.1c-2.6,0-11.6,5.8-11.6,5.8c-0.4-8.2,2-15,2-15s6.2-5.3,8.9-5.8
	c7.3-1.2,1,2.3,10,4.5C69.4,84,70.8,84.7,70.8,84.7z"/>
<path class="st6" d="M37.6,111.8l4.4,1.8c2,0.8,4.4-0.2,5.2-2.2l7-17.3c0.8-2-0.2-4.4-2.2-5.2L47.6,87c-2-0.8-4.4,0.2-5.2,2.2
	l-7,17.3C34.6,108.6,35.6,110.9,37.6,111.8z"/>
<path class="st6" d="M104.8,112.2l-4.4,1.8c-2,0.8-4.4-0.2-5.2-2.2l-7-17.3c-0.8-2,0.2-4.4,2.2-5.2l4.4-1.8c2-0.8,4.4,0.2,5.2,2.2
	l7,17.3C107.8,109,106.8,111.4,104.8,112.2z"/>
<path class="st8" d="M89.9,99.2l12-4.4l-4.5-11.5c-1-2.6-4-3.9-6.6-2.9l-2.4,0.9c-2.7,1-4,3.9-3,6.4L89.9,99.2z"/>
<path class="st8" d="M52.5,98.8l-12-4.4L45,82.9c1-2.6,4-3.9,6.6-2.9l2.4,0.9c2.7,1,4,3.9,3,6.4L52.5,98.8z"/>
<path class="st4" d="M81.3,91.2L81.3,91.2c-1.4,0-2.5-1.1-2.5-2.5v-7.6c0-1.4,1.1-2.5,2.5-2.5h0c1.4,0,2.5,1.1,2.5,2.5v7.6
	C83.8,90.1,82.7,91.2,81.3,91.2z"/>
<path class="st4" d="M60.3,91.2L60.3,91.2c-1.4,0-2.5-1.1-2.5-2.5v-7.6c0-1.4,1.1-2.5,2.5-2.5h0c1.4,0,2.5,1.1,2.5,2.5v7.6
	C62.8,90.1,61.7,91.2,60.3,91.2z"/>
<ellipse class="st5" cx="81.3" cy="92.5" rx="2.7" ry="3.3"/>
<ellipse class="st5" cx="60.3" cy="92.5" rx="2.7" ry="3.3"/>
<path class="st9" d="M79.2,119.5H62.5c-1.7,0-3-1.3-3-3V110c0-1.7,1.3-3,3-3h16.7c1.7,0,3,1.3,3,3v6.5
	C82.2,118.2,80.8,119.5,79.2,119.5z"/>
<path class="st9" d="M82.2,111.5H59.5V110c0-1.7,1.3-3,3-3h16.7c1.7,0,3,1.3,3,3V111.5z"/>
<path class="st10" d="M66,250.6l-9.1,0.6c-1.6,0.1-3.1-1.1-3.2-2.8l-1.5-21.5c-0.1-1.6,1.1-3.1,2.8-3.2l9.1-0.6
	c1.6-0.1,3.1,1.1,3.2,2.8l1.5,21.5C68.9,249,67.7,250.5,66,250.6z"/>
<path class="st11" d="M67.4,226.4H51.9c-1.1,0-2-0.9-2-2v-0.3c0-1.1,0.9-2,2-2h15.5c1.1,0,2,0.9,2,2v0.3
	C69.4,225.5,68.5,226.4,67.4,226.4z"/>
<path class="st10" d="M55.1,263.6l-23.7,0.1c0-2.6,0.7-10,6.8-10.4c7.8-0.5,16.7-3.8,15.7-7.5c-2.8-9.8,3.5-4.8,10.2-3
	c8.2,2.2,2.2,6.7,6.3,12.6c1.3,1.9,0.9,5.8,1,8.2l-7.6,0.1l-0.2-2.8L55.1,263.6z"/>
<polygon class="st12" points="71.5,263.7 63.7,263.7 63.6,260.7 71.5,260.7 "/>
<polygon class="st12" points="54.9,263.7 31.4,263.7 31.6,261.7 63.6,260.7 "/>
<path class="st10" d="M75.9,250.6l9.1,0.6c1.6,0.1,3.1-1.1,3.2-2.8l1.5-21.5c0.1-1.6-1.1-3.1-2.8-3.2l-9.1-0.6
	c-1.6-0.1-3.1,1.1-3.2,2.8l-1.5,21.5C73,249,74.2,250.5,75.9,250.6z"/>
<path class="st11" d="M74.5,226.4H90c1.1,0,2-0.9,2-2v-0.3c0-1.1-0.9-2-2-2H74.5c-1.1,0-2,0.9-2,2v0.3
	C72.5,225.5,73.4,226.4,74.5,226.4z"/>
<path class="st10" d="M86.8,263.6l23.7,0.1c0-2.6-0.7-10-6.8-10.4c-7.8-0.5-16.7-3.8-15.7-7.5c2.8-9.8-3.5-4.8-10.2-3
	c-8.2,2.2-2.2,6.7-6.3,12.6c-1.3,1.9-0.9,5.8-1,8.2l7.6,0.1l0.2-2.8L86.8,263.6z"/>
<polygon class="st12" points="70.4,263.7 78.2,263.7 78.3,260.7 70.4,260.7 "/>
<polygon class="st12" points="87,263.7 110.5,263.7 110.3,261.7 78.3,260.7 "/>
<path class="st13" d="M93.7,24.6C93.2,14.2,84.6,6,74.1,6h-7.5C56.1,6,47.5,14.2,47,24.6H93.7z"/>
<path class="st13" d="M94.7,28.6H45c-1.7,0-3-1.3-3-3v-1.5c0-1.7,1.3-3,3-3h49.7c1.7,0,3,1.3,3,3v1.5C97.7,27.3,96.3,28.6,94.7,28.6
	z"/>
<circle class="st6" cx="102.3" cy="137.3" r="8.2"/>
<circle class="st6" cx="39.2" cy="137.1" r="8.2"/>
<g>
	<g>
		<path class="st5" d="M60.7,40.8c3.9,0,3.9-6,0-6C56.8,34.8,56.8,40.8,60.7,40.8L60.7,40.8z"/>
	</g>
</g>
<g>
	<g>
		<path class="st5" d="M79.6,40.8c3.9,0,3.9-6,0-6C75.8,34.8,75.8,40.8,79.6,40.8L79.6,40.8z"/>
	</g>
</g>
<g>
	<g>
		<path class="st5" d="M76.7,33.8c2.5,0.3,5.2-1,7.6,0.3c0.8,0.5,1.6-0.8,0.8-1.3c-2.7-1.5-5.5-0.2-8.3-0.5
			C75.8,32.2,75.8,33.7,76.7,33.8L76.7,33.8z"/>
	</g>
</g>
<g>
	<g>
		<path class="st5" d="M64,32.2c-3.2-0.5-7-1.7-9.6,0.7c-0.7,0.6,0.3,1.7,1.1,1.1c2.2-1.9,5.7-0.7,8.2-0.3
			C64.5,33.8,65,32.4,64,32.2L64,32.2z"/>
	</g>
</g>
<path class="st7" d="M71,52.2L71,52.2c-1.1,0-2-0.9-2-2v-3.8c0-1.1,0.9-2,2-2l0,0c1.1,0,2,0.9,2,2v3.8C73,51.3,72.1,52.2,71,52.2z"
	/>
<g>
	<g>
		<path class="st5" d="M66.1,63.3c5.4-0.3,12.4,0.1,15.7-4.9c0.7-1.1-1-2.1-1.7-1c-2.7,4.2-9.5,3.7-13.9,4
			C64.9,61.4,64.8,63.4,66.1,63.3L66.1,63.3z"/>
	</g>
</g>
<rect x="142.4" y="119.2" class="st14" width="10.1" height="37.8"/>
<path class="st14" d="M153.1,103.5v12.8c0,0.7-0.6,1.2-1.2,1.2h-8.2c-0.7,0-1.2-0.6-1.2-1.2v-13c-4.6,1.8-7.8,6.1-7.8,11
	c0,6.6,5.7,12,12.8,12s12.8-5.4,12.8-12C160.3,109.6,157.3,105.5,153.1,103.5z"/>
<circle class="st15" cx="147.6" cy="163.2" r="7.3"/>
<path class="st5" d="M145.3,152.1L145.3,152.1c-0.5,0-0.8-0.4-0.8-0.8v-24.5c0-0.5,0.4-0.8,0.8-0.8l0,0c0.5,0,0.8,0.4,0.8,0.8v24.5
	C146.2,151.7,145.8,152.1,145.3,152.1z"/>
<path class="st5" d="M149.7,152.1L149.7,152.1c-0.5,0-0.8-0.4-0.8-0.8v-24.5c0-0.5,0.4-0.8,0.8-0.8l0,0c0.5,0,0.8,0.4,0.8,0.8v24.5
	C150.5,151.7,150.2,152.1,149.7,152.1z"/>
<rect x="178.6" y="112.1" class="st4" width="7.3" height="62.3"/>
<path class="st16" d="M185,176.4h-5.3c-0.6,0-1-0.4-1-1v-7.7h7.3v7.7C186,176,185.5,176.4,185,176.4z"/>
<rect x="178.6" y="166.8" class="st17" width="7.3" height="3.5"/>
<polygon class="st18" points="182.3,99 186,112.1 178.6,112.1 "/>
<polygon class="st5" points="184,105 182.3,99 180.6,105 "/>
<ellipse class="st2" cx="220.6" cy="148.4" rx="24" ry="25.1"/>
<ellipse class="st19" cx="220.6" cy="148.4" rx="17.2" ry="18"/>
<path class="st20" d="M274.9,176.6h-0.5v-5.8h0.5c0.6,0,1,0.4,1,1v3.8C275.9,176.1,275.4,176.6,274.9,176.6z"/>
</svg>
