<?xml version="1.0" encoding="utf-8"?>
<!-- Generator: Adobe Illustrator 22.0.1, SVG Export Plug-In . SVG Version: 6.00 Build 0)  -->
<svg version="1.1" id="Layer_1" xmlns="http://www.w3.org/2000/svg" xmlns:xlink="http://www.w3.org/1999/xlink" x="0px" y="0px"
	 viewBox="0 0 310 268" style="enable-background:new 0 0 310 268;" xml:space="preserve">
<style type="text/css">
	.st0{fill:#85642D;}
	.st1{fill:#1F4282;}
	.st2{fill:#A8A595;}
	.st3{fill:#BD9C76;}
	.st4{fill:#FDD09C;}
	.st5{fill:#F58B1F;stroke:#F58B1F;stroke-miterlimit:10;}
	.st6{fill:#F58B21;stroke:#F58B1F;stroke-miterlimit:10;}
	.st7{fill:#895121;}
	.st8{fill:#99712A;}
	.st9{fill:none;stroke:#F4CD2F;stroke-width:6;stroke-miterlimit:10;}
	.st10{fill:#603B15;}
	.st11{fill:#9B702A;}
	.st12{fill:#200E0A;}
	.st13{fill:#231F20;}
	.st14{fill:#513217;}
	.st15{fill:#C58E67;}
	.st16{fill:#B67343;}
	.st17{fill:#8E5E38;}
	.st18{fill:#8E807C;}
	.st19{fill:#6D625F;}
	.st20{fill:#958580;}
	.st21{fill:#825B27;}
	.st22{fill:#48484A;}
</style>
<path class="st0" d="M186.3,164h-3.8c-0.8,0-1.4-0.6-1.4-1.4c0,0-0.5-6.2-0.7-12.8c-0.2-7,0-14.5,0-17.7c0-6.8,0.7-21.9,0.7-21.9
	h5.9c0,0-0.6,13.8-0.6,20.5c0,6.5,0.6,32.6,0.6,32.6C187,163.7,186.7,164,186.3,164z"/>
<path class="st1" d="M80.5,243.9h26v-41.3c0-3.3-2.7-6-6-6h-14c-3.3,0-6,2.7-6,6V243.9z"/>
<path class="st1" d="M48.1,243.7h26v-41.3c0-3.3-2.7-6-6-6h-14c-3.3,0-6,2.7-6,6V243.7z"/>
<path class="st2" d="M108.2,195.3c-4.5-0.2-5.2-1.5-32.8-1.5c-26.6,0-19.9,7.1-32.5,0c-16.1-9-16.7-93.3,31.8-93.7
	C130.2,99.6,123.8,195.9,108.2,195.3z"/>
<path class="st3" d="M107.1,75.8h-3.1v-14h3.1c1.1,0,2,0.9,2,2v10C109.1,74.9,108.2,75.8,107.1,75.8z"/>
<g>
	<path class="st4" d="M84.6,121.9H67.2c-10.6,0-19.3-8.6-19.3-19.3V57.1c0-8.4,6.8-15.3,15.3-15.3h25.4c8.4,0,15.3,6.8,15.3,15.3
		v45.5C103.9,113.2,95.3,121.9,84.6,121.9z"/>
</g>
<g>
	<g>
		<g>
			<g>
				<path class="st5" d="M65.2,116c-1.9,2-4.8,2.8-7.9,2.3c-3.1-0.5-6.6-2.4-9.4-6.1c-1.4-1.8-3-5.2-3.9-9.5
					c-0.4-2.1-0.7-4.4-0.6-6.8c0.1-2.4,0.5-4.5,1-6.4c0.5-1.9,1.1-3.5,1.6-5c0.5-1.5,1-2.9,1.4-4.1c0.9-2.4,1.4-3.9,1.4-3.9
					s0.7,1.4,1.8,3.7c0.5,1.1,1.1,2.5,1.8,4c0.7,1.5,1.4,3.1,2.1,4.7c1.4,3.2,3.2,5.1,5.1,6.8c1.8,1.7,3.5,3.1,4.4,4.2
					c1.7,2.3,3,5.2,3.4,8.2C67.8,111.1,67.2,114,65.2,116z"/>
			</g>
		</g>
	</g>
	<g>
		<g>
			<g>
				<path class="st5" d="M76,132.7c5.6,0.1,10.1,3.3,10.1,7.1c0,3.9-10.3,16.1-10.3,16.1s-10.1-12.4-10-16.3S70.4,132.6,76,132.7z"
					/>
			</g>
		</g>
	</g>
	<g>
		<g>
			<g>
				<path class="st5" d="M65.8,102.7c2.6,1.1,4.3,3.6,5,6.4c0.8,2.9,0.7,6.1,0,8.8c-0.4,1.4-1.5,3.3-2.5,5.6c-1,2.3-2,4.7-2.1,8.2
					c-0.1,1.7-0.1,3.5-0.2,5.1c-0.1,1.6-0.1,3.1-0.2,4.4c-0.1,2.5-0.2,4.1-0.2,4.1s-1.1-1.2-2.8-3.1c-0.8-0.9-1.8-2.1-2.9-3.3
					c-1.1-1.2-2.2-2.5-3.4-4.1c-1.2-1.5-2.4-3.4-3.4-5.5c-1-2.1-1.6-4.4-2-6.5c-0.8-4.3-0.6-8,0-10.2c1.2-4.5,3.7-7.6,6.4-9.2
					C60.3,101.9,63.3,101.5,65.8,102.7z"/>
			</g>
		</g>
	</g>
</g>
<g>
	<g>
		<g>
			<g>
				<path class="st5" d="M86.6,116c-2-2-2.6-4.9-2.2-7.9c0.4-3,1.6-5.9,3.4-8.2c0.9-1.1,2.6-2.5,4.4-4.2c1.8-1.8,3.6-3.6,5.1-6.8
					c0.7-1.5,1.4-3.2,2.1-4.7c0.7-1.5,1.3-2.8,1.8-4c1.1-2.3,1.8-3.7,1.8-3.7s0.5,1.5,1.4,3.9c0.4,1.2,0.9,2.6,1.4,4.1
					c0.5,1.6,1.1,3.2,1.6,5c0.5,1.9,1,4,1,6.4c0.1,2.3-0.2,4.7-0.6,6.8c-0.9,4.3-2.5,7.6-3.9,9.5c-2.8,3.7-6.3,5.6-9.4,6.1
					C91.4,118.9,88.6,118.1,86.6,116z"/>
			</g>
		</g>
	</g>
	<g>
		<g>
			<g>
				<path class="st5" d="M75.8,132.7c5.6-0.1,10.2,3.1,10.2,7s-10,16.3-10,16.3s-10.3-12.2-10.3-16.1
					C65.7,135.9,70.2,132.7,75.8,132.7z"/>
			</g>
		</g>
	</g>
	<g>
		<g>
			<g>
				<path class="st5" d="M86,102.7c2.6-1.1,5.5-0.8,8.2,0.8c2.7,1.6,5.2,4.8,6.4,9.2c0.6,2.2,0.8,6,0,10.2c-0.4,2.1-1.1,4.4-2,6.5
					c-1,2.2-2.2,4-3.4,5.5c-1.2,1.5-2.3,2.8-3.4,4.1c-1.1,1.2-2.1,2.3-2.9,3.3c-1.7,1.9-2.8,3.1-2.8,3.1s-0.1-1.6-0.2-4.1
					c-0.1-1.3-0.1-2.7-0.2-4.4c-0.1-1.6-0.1-3.4-0.2-5.1c-0.1-3.5-1.1-5.9-2.1-8.2c-1-2.3-2.1-4.2-2.5-5.6c-0.7-2.8-0.8-6,0-8.8
					C81.8,106.2,83.5,103.8,86,102.7z"/>
			</g>
		</g>
	</g>
</g>
<ellipse class="st6" cx="76.1" cy="113" rx="14.9" ry="29.5"/>
<path class="st7" d="M99.4,86.6c7.9,4.3,3.1,19.7,2.8,11.4c-0.1-3.9-9.9,0.1-15.5,0.1c-6,0-11.3-3.9-11.3-11.5
	c0-7.6,7.7-6.9,13.5-4.6C95.2,84.6,99.4,86.6,99.4,86.6z"/>
<path class="st7" d="M53.9,86.6c-7.9,4.3-3.1,19.7-2.8,11.4c0.1-3.9,9.9,0.1,15.5,0.1c6,0,11.3-3.9,11.3-11.5
	c0-7.6-7.7-6.9-13.5-4.6C58.2,84.6,53.9,86.6,53.9,86.6z"/>
<path class="st6" d="M69.7,59.4H56.2c-1.6,0-2.9-1.3-2.9-2.9v0c0-1.6,1.3-2.9,2.9-2.9h13.6c1.6,0,2.9,1.3,2.9,2.9v0
	C72.6,58.1,71.3,59.4,69.7,59.4z"/>
<path class="st6" d="M95.7,59.4H82.1c-1.6,0-2.9-1.3-2.9-2.9v0c0-1.6,1.3-2.9,2.9-2.9h13.6c1.6,0,2.9,1.3,2.9,2.9v0
	C98.6,58.1,97.3,59.4,95.7,59.4z"/>
<circle class="st7" cx="65.7" cy="62.4" r="3"/>
<circle class="st7" cx="86.7" cy="62.4" r="3"/>
<path class="st3" d="M79.2,83.5h-5c-1.2,0-2.2-1-2.2-2.2l0.6-5.6c0-1.2,0.5-3.1,1.7-3.1h5c1.2,0,1.7,2,1.7,3.2l0.5,5.4
	C81.4,82.5,80.4,83.5,79.2,83.5z"/>
<path class="st8" d="M107.1,209.4H46.2c-1.8,0-3.2-1.4-3.2-3.2V197c0-1.8,1.4-3.2,3.2-3.2h60.9c1.8,0,3.2,1.4,3.2,3.2v9.2
	C110.3,207.9,108.9,209.4,107.1,209.4z"/>
<path class="st2" d="M106.7,152.5l-4.3-22.2c-1.2-6.1,2.9-12.1,9-13.3l6.5-1.2c6.1-1.2,12.1,2.9,13.3,9l4.3,22.2
	c1.2,6.1-2.9,12.1-9,13.3l-6.5,1.2C113.9,162.6,107.9,158.6,106.7,152.5z"/>
<rect x="109.3" y="154.7" transform="matrix(0.1888 0.982 -0.982 0.1888 266.0027 6.7989)" class="st4" width="39.3" height="19.5"/>
<circle class="st4" cx="132.3" cy="182" r="10.7"/>
<path class="st2" d="M47.1,154.8l4.3-22.2c1.2-6.1-2.9-12.1-9-13.3l-6.5-1.2c-6.1-1.2-12.1,2.9-13.3,9l-4.3,22.2
	c-1.2,6.1,2.9,12.1,9,13.3l6.5,1.2C40,165,46,161,47.1,154.8z"/>
<rect x="5.1" y="158.1" transform="matrix(-0.1888 0.982 -0.982 -0.1888 194.1244 175.0345)" class="st4" width="39.3" height="19.2"/>
<path class="st9" d="M89.8,211.2H64.4c-2.1,0-3.7-1.7-3.7-3.7v-17.7c0-2.1,1.7-3.7,3.7-3.7h25.4c2.1,0,3.7,1.7,3.7,3.7v17.7
	C93.5,209.5,91.8,211.2,89.8,211.2z"/>
<g>
	<path class="st10" d="M122.2,263.5H80v-23.3h24.2c9.9,0,18,8.1,18,18V263.5z"/>
	<rect x="80" y="259.6" class="st11" width="42.2" height="3.9"/>
	<rect x="80" y="261.6" class="st12" width="42.2" height="1"/>
	<g>
		<g>
			<path class="st13" d="M111.7,243.8c0.7,3-2.4,4.9-4.6,6.2c-1.1,0.6-0.1,2.4,1,1.7c3.1-1.8,6.4-4.4,5.5-8.5
				C113.3,242,111.4,242.5,111.7,243.8L111.7,243.8z"/>
		</g>
	</g>
</g>
<g>
	<path class="st10" d="M32.3,263.5h42.2v-23.3H50.3c-9.9,0-18,8.1-18,18V263.5z"/>
	
		<rect x="32.3" y="259.6" transform="matrix(-1 -4.494994e-11 4.494994e-11 -1 106.7967 523.1422)" class="st11" width="42.2" height="3.9"/>
	
		<rect x="32.3" y="261.6" transform="matrix(-1 -4.494994e-11 4.494994e-11 -1 106.7967 524.1173)" class="st12" width="42.2" height="1"/>
	<g>
		<g>
			<path class="st13" d="M40.9,243.3c-0.9,4,2.4,6.7,5.5,8.5c1.1,0.6,2.1-1.1,1-1.7c-2.2-1.3-5.3-3.2-4.6-6.2
				C43.1,242.5,41.2,242,40.9,243.3L40.9,243.3z"/>
		</g>
	</g>
</g>
<path class="st14" d="M102.6,246.2H82.8c-2.9,0-5.2-2.3-5.2-5.2v-8.5c0-2.9,2.3-5.2,5.2-5.2h19.8c2.9,0,5.2,2.3,5.2,5.2v8.5
	C107.8,243.9,105.5,246.2,102.6,246.2z"/>
<path class="st14" d="M71,246.2H51.2c-2.9,0-5.2-2.3-5.2-5.2v-8.5c0-2.9,2.3-5.2,5.2-5.2H71c2.9,0,5.2,2.3,5.2,5.2v8.5
	C76.2,243.9,73.9,246.2,71,246.2z"/>
<circle class="st4" cx="20.7" cy="185.7" r="10.7"/>
<path class="st3" d="M44.9,76.4h3.1v-14h-3.1c-1.1,0-2,0.9-2,2v10C42.9,75.5,43.8,76.4,44.9,76.4z"/>
<path class="st6" d="M88.5,39.7H63.1c-8.4,0-15.3,7.7-15.3,17.1v2.7c0-6.8,4.9-12.3,11-12.3h34c6.1,0,11,5.5,11,12.3v-2.7
	C103.8,47.4,97,39.7,88.5,39.7z"/>
<polygon class="st15" points="176,262.9 162.3,262.9 189.8,192.7 201.3,192.7 "/>
<polygon class="st15" points="285.5,262.9 299.3,262.9 271.8,192.7 260.3,192.7 "/>
<path class="st16" d="M282.5,193.7H178.8c-0.6,0-1-0.4-1-1V183c0-0.6,0.4-1,1-1h103.8c0.6,0,1,0.4,1,1v9.7
	C283.5,193.2,283.1,193.7,282.5,193.7z"/>
<path class="st17" d="M177.8,190.6h-1.5c-0.6,0-1-0.4-1-1v-3.6c0-0.5,0.4-1,1-1h1.5V190.6z"/>
<path class="st17" d="M283.5,190.6h1.5c0.5,0,1-0.4,1-1v-3.6c0-0.5-0.5-1-1-1h-1.5V190.6z"/>
<polygon class="st18" points="189.8,97.2 191.6,104 189.8,110.8 178.4,110.8 176.5,104 178.4,97.2 "/>
<rect x="174.4" y="101.6" class="st18" width="19.4" height="4.8"/>
<path class="st19" d="M192.2,101.1c0,0,2.5-0.9,3.3-0.9s3.3,0,3.3,0.9c0,1.5,0,4.1,0,5.7c0,0.9-2.5,0.9-3.3,0.9
	c-0.9,0-3.3-0.9-3.3-0.9V101.1z"/>
<path class="st19" d="M166,98.8c0-1.3,3.5-1.6,4.7-1.6s4.8,0.3,4.7,1.6c0,2.9,0,7.4,0,10.3c0,1.3-3.5,1.6-4.7,1.7
	c-1.3,0.2-4.7-0.5-4.7-1.7C165.9,106.1,166,101.8,166,98.8z"/>
<polygon class="st20" points="297.5,163.6 286.5,175.3 286.1,172.8 282.7,172.4 281.8,169 278.1,168.8 277,165.3 273.7,165.4 
	272.8,162.1 269.7,162.3 268.8,159.3 265.2,158.9 263.6,155.2 260.8,155.5 260.1,152.4 256.7,152.3 255.6,149 252.4,149 
	251.7,145.9 248.4,145.9 247.6,143 244.4,142.8 243.1,139.3 239.9,139.3 238.5,135.9 235.2,135.8 233.9,132.3 231,132.5 
	230.2,129.5 227,129.4 226.4,126.6 223.3,126.6 239.7,109.1 "/>
<path class="st21" d="M224.1,92.9l-17.9,18.9c-0.8,0.9-0.8,2.2,0.1,3l14.1,13.3c0.9,0.8,2.2,0.8,3-0.1l17.9-18.9
	c0.8-0.9,0.8-2.2-0.1-3l-14.1-13.3C226.2,92,224.9,92.1,224.1,92.9z M234.2,104.4l-15.7,16.7l-6.9-6.5c-0.9-0.8-0.9-2.2-0.1-3
	L224.3,98c0.8-0.9,2.2-0.9,3-0.1L234.2,104.4z"/>
<circle class="st22" cx="224.6" cy="121" r="2.3"/>
<circle class="st22" cx="230.1" cy="115.1" r="2.3"/>
<circle class="st22" cx="234.9" cy="110" r="2.3"/>
</svg>
