<?xml version="1.0" encoding="utf-8"?>
<!-- Generator: Adobe Illustrator 22.0.1, SVG Export Plug-In . SVG Version: 6.00 Build 0)  -->
<svg version="1.1" id="Layer_1" xmlns="http://www.w3.org/2000/svg" xmlns:xlink="http://www.w3.org/1999/xlink" x="0px" y="0px"
	 viewBox="0 0 310 268" style="enable-background:new 0 0 310 268;" xml:space="preserve">
<style type="text/css">
	.st0{fill:#D6951F;}
	.st1{fill:#BEA871;}
	.st2{fill:#8B6C2A;}
	.st3{fill:#AF852D;}
	.st4{fill:#3F3D17;}
	.st5{fill:#715623;}
	.st6{fill:#3E2C13;}
	.st7{fill:#6C5020;}
	.st8{fill:#386F3D;}
	.st9{fill:#FFFAEB;}
	.st10{fill:#4FB755;}
	.st11{fill:#603B15;}
	.st12{fill:#FFF0EB;}
	.st13{fill:#200E0A;}
	.st14{fill:#231F20;}
	.st15{fill:#9C692E;}
	.st16{fill:#4D3824;}
	.st17{fill:#FDE9A1;stroke:#030202;stroke-width:0.75;stroke-miterlimit:10;}
	.st18{fill:#7F461D;}
	.st19{fill:#633412;}
	.st20{fill:#F9C11F;}
	.st21{fill:#717275;}
	.st22{fill:#454547;}
	.st23{fill:#F5A924;}
	.st24{fill:#434345;}
	.st25{fill:#7D7E80;}
</style>
<path class="st0" d="M226.9,112.6h-44.6c-1.7,0-3-1.3-3-3V93.9c0-1.7,1.3-3,3-3h44.6c1.7,0,3,1.3,3,3v15.7
	C229.9,111.2,228.6,112.6,226.9,112.6z"/>
<path class="st1" d="M82.4,103.5H67.7c-2,0-3.6-1.6-3.6-3.6V81.8c0-2,1.6-3.6,3.6-3.6h14.6c2,0,3.6,1.6,3.6,3.6v18.2
	C85.9,101.9,84.3,103.5,82.4,103.5z"/>
<g>
	<path class="st1" d="M75.9,97.4h-4c-12.7,0-23-10.3-23-23v-38c0-10.5,8.5-19,19-19h12c10.5,0,19,8.5,19,19v38
		C98.9,87.1,88.6,97.4,75.9,97.4z"/>
	<path class="st2" d="M68.6,42.9h-9c-1.1,0-2-0.9-2-2v-0.7c0-1.1,0.9-2,2-2h9c1.1,0,2,0.9,2,2v0.7C70.6,42,69.7,42.9,68.6,42.9z"/>
	<path class="st2" d="M89.1,42.9h-9c-1.1,0-2-0.9-2-2v-0.7c0-1.1,0.9-2,2-2h9c1.1,0,2,0.9,2,2v0.7C91.1,42,90.2,42.9,89.1,42.9z"/>
	<path class="st3" d="M48.9,57.8h-3.1c-1.1,0-2-0.9-2-2v-4.6c0-1.1,0.9-2,2-2h3.1V57.8z"/>
	<path class="st3" d="M102.1,57.8h-3.1v-8.6h3.1c1.1,0,2,0.9,2,2v4.6C104.1,56.9,103.2,57.8,102.1,57.8z"/>
	<circle class="st4" cx="64.1" cy="47.1" r="2.1"/>
	<circle class="st4" cx="85.2" cy="47.1" r="2.1"/>
	<ellipse class="st5" cx="74.6" cy="67.2" rx="7" ry="5"/>
	<path class="st3" d="M75.4,61.3h-1.1c-1.1,0-2-0.9-2-2v-8.2c0-1.1,0.9-2,2-2h1.1c1.1,0,2,0.9,2,2v8.2
		C77.4,60.4,76.5,61.3,75.4,61.3z"/>
	<path class="st6" d="M79.9,17.4h-12c-10.5,0-19,8.5-19,19V44c0.5-2,2-3.6,4.7-3.6c0.1,0,0.2,0,0.3,0C55,31,63,23.7,72.7,23.7h12
		c4.7,0,9,1.7,12.3,4.6C94,21.8,87.5,17.4,79.9,17.4z"/>
	<path class="st6" d="M80.8,84.2h-4c-12.7,0-23-10.3-23-23l0.1-20.8c0.1-12.5-0.6-1.7-1.8-2.2c-3.7-1.6-3.1,7.2-3.1,14.5v21.9
		c0,12.7,10.3,23,23,23h4c12.4,0,22.6-9.9,23-22.2C94.7,80.8,88.1,84.2,80.8,84.2z"/>
	<g>
		<g>
			<g>
				<g>
					<path class="st4" d="M74.6,60.5c0.8,1.1,0.9,2.6,0.2,4c-0.7,1.4-2.2,2.6-4.2,3.1c-1,0.2-3.5,0.4-6.5-0.2
						c-3-0.6-6.4-2.3-8.7-4.6c-2.4-2.3-3.9-5-4.6-7c-0.4-1-0.5-1.9-0.7-2.5c-0.1-0.6-0.1-0.9-0.1-0.9s0.2,0.3,0.5,0.8
						c0.4,0.5,0.9,1.1,1.6,1.8c1.4,1.4,3.6,2.9,6,3.6c2.4,0.8,4.8,0.8,6.6,0.4c1.8-0.4,3.1-1,3.6-1.1c1.1-0.3,2.1-0.1,3.3,0.4
						C72.7,58.7,73.9,59.4,74.6,60.5z"/>
				</g>
			</g>
		</g>
		<g>
			<g>
				<g>
					<path class="st4" d="M75.1,60.5c0.8-1.2,1.9-1.9,3-2.3c1.1-0.4,2.2-0.6,3.3-0.4c0.5,0.1,1.8,0.7,3.6,1.1
						c1.8,0.4,4.2,0.4,6.6-0.4c2.4-0.7,4.6-2.2,6-3.6c0.7-0.7,1.2-1.3,1.6-1.8c0.3-0.5,0.5-0.8,0.5-0.8s-0.1,0.3-0.1,0.9
						c-0.1,0.6-0.3,1.4-0.7,2.5c-0.7,2-2.2,4.7-4.6,7c-2.4,2.3-5.7,4-8.7,4.6c-3,0.7-5.5,0.5-6.5,0.2c-2-0.5-3.5-1.7-4.2-3.1
						C74.2,63.1,74.3,61.7,75.1,60.5z"/>
				</g>
			</g>
		</g>
	</g>
	<path class="st6" d="M98.9,36.2h-50v0c0-16.5,13.5-30,30-30h20c8.2,0,15,6.7,15,15v0C113.9,29.5,107.2,36.2,98.9,36.2z"/>
	<g>
		<g>
			<path class="st7" d="M103.5,9c-7.3,7-20.6,2.7-29.3,2.5c-6.1-0.1-12.6,4-17.9,6.6c-1.7,0.8,0.9,1,1.7,0.6
				c5.5-2.7,11.1-5.9,17.4-5.4c4.4,0.4,8.7,0.7,13.2,0.7c6.4-0.1,12.7-0.4,17.5-5.1C106.8,8.2,104,8.4,103.5,9L103.5,9z"/>
		</g>
	</g>
	<g>
		<g>
			<path class="st7" d="M107.1,12.2c-7.2,11.1-22,6.9-33,7.4c-9.1,0.4-16.2,4.6-23.4,9.9c-1.6,1.2,0.8,2.1,1.9,1.3
				c5.7-4.1,11.3-8,18.4-8.9c5.9-0.7,11.9,0.2,17.8,0.1c8.2-0.1,16.4-2.4,21.1-9.6C110.7,11.2,107.8,11.2,107.1,12.2L107.1,12.2z"/>
		</g>
	</g>
	<g>
		<g>
			<path class="st7" d="M108.5,14c0.4,15.3-19.2,12.5-29.3,13c-7.9,0.4-15.6,2.5-21.4,8.3c-1.2,1.2,1.6,1.5,2.4,0.7
				c10.1-10,23.9-5.5,36.4-7.7c7.5-1.3,15-6.1,14.8-14.5C111.4,12.4,108.5,12.9,108.5,14L108.5,14z"/>
		</g>
	</g>
	<g>
		<g>
			<path class="st7" d="M110,17.4c-0.8,4.4-2.1,7.7-6.6,9.5c-2.2,0.9-4.9,0.8-7.2,1.5c-3.7,1.1-6.8,3.3-9.3,6.3
				c-1.2,1.4,1.6,1.9,2.4,0.9c2.8-3.3,6.1-4.9,10.2-5.7c2.5-0.5,5.1-0.8,7.3-2c3.9-2.2,5.2-6.4,6-10.6
				C113.2,15.8,110.2,16.1,110,17.4L110,17.4z"/>
		</g>
	</g>
</g>
<path class="st8" d="M98,168.2H54.7c-3.5,0-6.4-2.9-6.4-6.4v-55.7c0-3.5,2.9-6.4,6.4-6.4H98c3.5,0,6.4,2.9,6.4,6.4v55.7
	C104.4,165.3,101.5,168.2,98,168.2z"/>
<rect x="88.5" y="110.9" class="st9" width="7.8" height="7.8"/>
<path class="st10" d="M94.7,123.9h-4.5c-1.6,0-2.9-1.3-2.9-2.9v-4.5c0-1.6,1.3-2.9,2.9-2.9h4.5c1.6,0,2.9,1.3,2.9,2.9v4.5
	C97.6,122.6,96.3,123.9,94.7,123.9z"/>
<g>
	<path class="st11" d="M120.2,265.3H78V242h24.2c9.9,0,18,8.1,18,18V265.3z"/>
	<rect x="78" y="261.4" class="st12" width="42.2" height="3.9"/>
	<rect x="78" y="263.4" class="st13" width="42.2" height="1"/>
	<g>
		<g>
			<path class="st14" d="M102.7,244c0.7,3-2.4,4.9-4.6,6.2c-1.1,0.6-0.1,2.4,1,1.7c3.1-1.8,6.4-4.4,5.5-8.5
				C104.3,242.2,102.4,242.7,102.7,244L102.7,244z"/>
		</g>
	</g>
	<g>
		<g>
			<path class="st14" d="M108.9,245.6c0.7,3-2.4,4.9-4.6,6.2c-1.1,0.6-0.1,2.4,1,1.7c3.1-1.8,6.4-4.4,5.5-8.5
				C110.5,243.8,108.6,244.4,108.9,245.6L108.9,245.6z"/>
		</g>
	</g>
	<g>
		<g>
			<path class="st14" d="M113.1,248.8c0.7,3-2.4,4.9-4.6,6.2c-1.1,0.6-0.1,2.4,1,1.7c3.1-1.8,6.4-4.4,5.5-8.5
				C114.7,247,112.8,247.5,113.1,248.8L113.1,248.8z"/>
		</g>
	</g>
</g>
<path class="st1" d="M88.6,249h-5.4c-2.9,0-5.2-2.3-5.2-5.2V235c0-2.9,2.3-5.2,5.2-5.2h5.4c2.9,0,5.2,2.3,5.2,5.2v8.8
	C93.8,246.7,91.5,249,88.6,249z"/>
<path class="st15" d="M93.8,240.3H78V168c0-3.3,2.7-6,6-6h3.8c3.3,0,6,2.7,6,6V240.3z"/>
<path class="st16" d="M92.5,240.3H79.4c-1.7,0-3-1.3-3-3V236c0-1.7,1.3-3,3-3h13.1c1.7,0,3,1.3,3,3v1.3
	C95.5,238.9,94.1,240.3,92.5,240.3z"/>
<g>
	<path class="st11" d="M28.1,265.3h42.2V242H46.1c-9.9,0-18,8.1-18,18V265.3z"/>
	
		<rect x="28.1" y="261.4" transform="matrix(-1 -4.486379e-11 4.486379e-11 -1 98.4586 526.7726)" class="st12" width="42.2" height="3.9"/>
	
		<rect x="28.1" y="263.4" transform="matrix(-1 -4.490687e-11 4.490687e-11 -1 98.4586 527.7477)" class="st13" width="42.2" height="1"/>
	<g>
		<g>
			<path class="st14" d="M43.8,243.4c-0.9,4,2.4,6.7,5.5,8.5c1.1,0.6,2.1-1.1,1-1.7c-2.2-1.3-5.3-3.2-4.6-6.2
				C46,242.7,44,242.2,43.8,243.4L43.8,243.4z"/>
		</g>
	</g>
	<g>
		<g>
			<path class="st14" d="M37.5,245.1c-0.9,4,2.4,6.7,5.5,8.5c1.1,0.6,2.1-1.1,1-1.7c-2.2-1.3-5.3-3.2-4.6-6.2
				C39.8,244.4,37.8,243.8,37.5,245.1L37.5,245.1z"/>
		</g>
	</g>
	<g>
		<g>
			<path class="st14" d="M33.3,248.3c-0.9,4,2.4,6.7,5.5,8.5c1.1,0.6,2.1-1.1,1-1.7c-2.2-1.3-5.3-3.2-4.6-6.2
				C35.5,247.5,33.6,247,33.3,248.3L33.3,248.3z"/>
		</g>
	</g>
</g>
<path class="st1" d="M59.7,249h5.4c2.9,0,5.2-2.3,5.2-5.2V235c0-2.9-2.3-5.2-5.2-5.2h-5.4c-2.9,0-5.2,2.3-5.2,5.2v8.8
	C54.5,246.7,56.9,249,59.7,249z"/>
<path class="st15" d="M54.5,240.3h15.8V168c0-3.3-2.7-6-6-6h-3.8c-3.3,0-6,2.7-6,6V240.3z"/>
<path class="st16" d="M55.9,240.3H69c1.7,0,3-1.3,3-3V236c0-1.7-1.3-3-3-3H55.9c-1.7,0-3,1.3-3,3v1.3
	C52.9,238.9,54.2,240.3,55.9,240.3z"/>
<rect x="45.9" y="161.3" class="st14" width="56" height="7.8"/>
<circle class="st1" cx="108.7" cy="168.1" r="9.4"/>
<path class="st1" d="M109,172.4H106c-3.5,0-6.4-2.9-6.4-6.4v-49c0-3.5,2.9-6.4,6.4-6.4h3.1c3.5,0,6.4,2.9,6.4,6.4v49
	C115.4,169.5,112.5,172.4,109,172.4z"/>
<circle class="st1" cx="41.8" cy="168.9" r="9.4"/>
<path class="st1" d="M43.7,172.4h-3.1c-3.5,0-6.4-2.9-6.4-6.4v-49c0-3.5,2.9-6.4,6.4-6.4h3.1c3.5,0,6.4,2.9,6.4,6.4v49
	C50.1,169.5,47.2,172.4,43.7,172.4z"/>
<path class="st17" d="M78.4,170.6H71c-2.1,0-3.7-1.7-3.7-3.7v-4c0-2.1,1.7-3.7,3.7-3.7h7.4c2.1,0,3.7,1.7,3.7,3.7v4
	C82.2,168.9,80.5,170.6,78.4,170.6z"/>
<path class="st8" d="M109,105.3H106c-3.5,0-6.4,2.9-6.4,6.4v10.1h15.8v-10.1C115.4,108.2,112.5,105.3,109,105.3z"/>
<path class="st8" d="M43.7,103.5h-3.1c-3.5,0-6.4,2.9-6.4,6.4V120h15.8v-10.1C50.1,106.4,47.2,103.5,43.7,103.5z"/>
<g>
	<g>
		<path class="st18" d="M179,243.9c0.2-0.1,0.3-0.2,0.5-0.3c1.3-0.6,2.4-2.2,2.8-3.6c0.4-1.4,0.2-3.3-0.6-4.6
			c-0.8-1.3-2.1-2.4-3.6-2.8c-0.5-0.1-1.1-0.1-1.6-0.2c-1.1,0-2.1,0.3-3,0.8c-0.2,0.1-0.3,0.2-0.5,0.3c-1.3,0.6-2.4,2.2-2.8,3.6
			c-0.4,1.4-0.2,3.3,0.6,4.6c0.8,1.3,2.1,2.4,3.6,2.8c0.5,0.1,1.1,0.1,1.6,0.2C177.1,244.7,178.1,244.5,179,243.9L179,243.9z"/>
	</g>
</g>
<g>
	<g>
		<path class="st18" d="M240.3,239.7c7.7,0,7.7-12,0-12C232.5,227.7,232.5,239.7,240.3,239.7L240.3,239.7z"/>
	</g>
</g>
<g>
	<g>
		<path class="st18" d="M232.8,228.5c-0.2,0-0.3,0-0.5,0c-1.5,0-3.2,0.7-4.2,1.8c-1,1-1.8,2.7-1.8,4.2c0.1,1.6,0.6,3.2,1.8,4.2
			c1.2,1.1,2.6,1.8,4.2,1.8c0.2,0,0.3,0,0.5,0c1.5,0,3.2-0.7,4.2-1.8c1-1,1.8-2.7,1.8-4.2c-0.1-1.6-0.6-3.2-1.8-4.2
			C235.8,229.2,234.4,228.5,232.8,228.5L232.8,228.5z"/>
	</g>
</g>
<g>
	<g>
		<path class="st18" d="M223.9,228.2c-0.3,0.1-0.7,0.2-1,0.3c-1.4,0.4-2.8,1.5-3.6,2.8c-0.8,1.3-1.1,3.2-0.6,4.6
			c0.5,1.5,1.4,2.9,2.8,3.6c1.4,0.8,3,1,4.6,0.6c0.3-0.1,0.7-0.2,1-0.3c1.4-0.4,2.8-1.5,3.6-2.8c0.8-1.3,1.1-3.2,0.6-4.6
			c-0.5-1.5-1.4-2.9-2.8-3.6C227.1,228.1,225.5,227.8,223.9,228.2L223.9,228.2z"/>
	</g>
</g>
<g>
	<g>
		<path class="st18" d="M213.4,230.7c-0.4,0.1-0.8,0.2-1.3,0.3c-1.4,0.3-2.9,1.5-3.6,2.8c-0.8,1.3-1.1,3.2-0.6,4.6
			c0.5,1.5,1.4,2.9,2.8,3.6c0.5,0.2,1,0.4,1.4,0.6c1.1,0.3,2.1,0.3,3.2,0c0.4-0.1,0.8-0.2,1.3-0.3c1.4-0.3,2.9-1.5,3.6-2.8
			c0.8-1.3,1.1-3.2,0.6-4.6c-0.5-1.5-1.4-2.9-2.8-3.6c-0.5-0.2-1-0.4-1.4-0.6C215.5,230.4,214.5,230.4,213.4,230.7L213.4,230.7z"/>
	</g>
</g>
<g>
	<g>
		<path class="st18" d="M202.7,231.5c-0.1-0.1-0.2-0.2-0.3-0.3c-1.1-1.1-2.7-1.8-4.2-1.8c-1.5,0-3.2,0.7-4.2,1.8
			c-1,1.1-1.8,2.6-1.8,4.2c0.1,1.6,0.6,3.1,1.8,4.2c0.1,0.1,0.2,0.2,0.3,0.3c1.1,1.1,2.7,1.8,4.2,1.8c1.5,0,3.2-0.7,4.2-1.8
			c1-1.1,1.8-2.6,1.8-4.2C204.4,234.2,203.9,232.6,202.7,231.5L202.7,231.5z"/>
	</g>
</g>
<g>
	<g>
		<path class="st18" d="M191,229.2c-0.4,0-0.8,0-1.3,0c-1.5,0-3.2,0.7-4.2,1.8c-1,1-1.8,2.7-1.8,4.2c0.1,1.6,0.6,3.2,1.8,4.2
			c1.2,1.1,2.6,1.8,4.2,1.8c0.4,0,0.8,0,1.3,0c1.5,0,3.2-0.7,4.2-1.8c1-1,1.8-2.7,1.8-4.2c-0.1-1.6-0.6-3.2-1.8-4.2
			C194.1,229.9,192.6,229.2,191,229.2L191,229.2z"/>
	</g>
</g>
<g>
	<g>
		<path class="st18" d="M178.5,228.8c-0.2,0.1-0.3,0.2-0.5,0.3c-1.3,0.7-2.4,2.2-2.8,3.6c-0.4,1.4-0.2,3.3,0.6,4.6
			c0.8,1.3,2.1,2.4,3.6,2.8c1.6,0.4,3.1,0.2,4.6-0.6c0.2-0.1,0.3-0.2,0.5-0.3c1.3-0.7,2.4-2.2,2.8-3.6c0.4-1.4,0.2-3.3-0.6-4.6
			c-0.8-1.3-2.1-2.4-3.6-2.8C181.5,227.8,180,228,178.5,228.8L178.5,228.8z"/>
	</g>
</g>
<g>
	<g>
		<path class="st18" d="M174.5,231.8c-0.2,0.1-0.3,0.2-0.5,0.3c-1.3,0.6-2.4,2.2-2.8,3.6c-0.4,1.4-0.2,3.3,0.6,4.6
			c0.8,1.3,2.1,2.4,3.6,2.8c0.5,0.1,1.1,0.1,1.6,0.2c1.1,0,2.1-0.3,3-0.8c0.2-0.1,0.3-0.2,0.5-0.3c1.3-0.6,2.4-2.2,2.8-3.6
			c0.4-1.4,0.2-3.3-0.6-4.6c-0.8-1.3-2.1-2.4-3.6-2.8c-0.5-0.1-1.1-0.1-1.6-0.2C176.4,231,175.4,231.3,174.5,231.8L174.5,231.8z"/>
	</g>
</g>
<g>
	<g>
		<path class="st18" d="M254.3,243.5c7.7,0,7.7-12,0-12C246.5,231.5,246.5,243.5,254.3,243.5L254.3,243.5z"/>
	</g>
</g>
<g>
	<g>
		<path class="st18" d="M253,230c-0.1-0.1-0.2-0.2-0.3-0.3c-1.1-1.1-2.7-1.8-4.2-1.8c-1.5,0-3.2,0.7-4.2,1.8c-1,1.1-1.8,2.6-1.8,4.2
			c0.1,1.6,0.6,3.1,1.8,4.2c0.1,0.1,0.2,0.2,0.3,0.3c1.1,1.1,2.7,1.8,4.2,1.8c1.5,0,3.2-0.7,4.2-1.8c1-1.1,1.8-2.6,1.8-4.2
			C254.7,232.7,254.1,231.1,253,230L253,230z"/>
	</g>
</g>
<g>
	<g>
		<path class="st18" d="M244,227.5c-0.2,0-0.3,0-0.5,0c-1.5,0-3.2,0.7-4.2,1.8c-1,1-1.8,2.7-1.8,4.2c0.1,1.6,0.6,3.2,1.8,4.2
			c1.2,1.1,2.6,1.8,4.2,1.8c0.2,0,0.3,0,0.5,0c1.5,0,3.2-0.7,4.2-1.8c1-1,1.8-2.7,1.8-4.2c-0.1-1.6-0.6-3.2-1.8-4.2
			C247.1,228.2,245.6,227.5,244,227.5L244,227.5z"/>
	</g>
</g>
<g>
	<g>
		<path class="st18" d="M171.5,235.2c7.7,0,7.7-12,0-12C163.8,223.2,163.8,235.2,171.5,235.2L171.5,235.2z"/>
	</g>
</g>
<g>
	<g>
		<path class="st18" d="M196,241c7.7,0,7.7-12,0-12C188.3,229,188.3,241,196,241L196,241z"/>
	</g>
</g>
<g>
	<g>
		<path class="st18" d="M204.3,242.2c7.7,0,7.7-12,0-12C196.5,230.2,196.5,242.2,204.3,242.2L204.3,242.2z"/>
	</g>
</g>
<g>
	<g>
		<path class="st18" d="M165.5,240.2c7.7,0,7.7-12,0-12C157.8,228.2,157.8,240.2,165.5,240.2L165.5,240.2z"/>
	</g>
</g>
<g>
	<g>
		<path class="st18" d="M176.5,236.2c0.2,0,0.3,0,0.5,0c1.5,0,3.2-0.7,4.2-1.8c1-1,1.8-2.7,1.8-4.2c-0.1-1.6-0.6-3.2-1.8-4.2
			c-1.2-1.1-2.6-1.8-4.2-1.8c-0.2,0-0.3,0-0.5,0c-1.5,0-3.2,0.7-4.2,1.8c-1,1-1.8,2.7-1.8,4.2c0.1,1.6,0.6,3.2,1.8,4.2
			C173.4,235.6,174.9,236.2,176.5,236.2L176.5,236.2z"/>
	</g>
</g>
<g>
	<g>
		<path class="st18" d="M178,232.5c7.7,0,7.7-12,0-12C170.3,220.5,170.3,232.5,178,232.5L178,232.5z"/>
	</g>
</g>
<g>
	<g>
		<path class="st18" d="M177.5,229.7c7.7,0,7.7-12,0-12C169.8,217.7,169.8,229.7,177.5,229.7L177.5,229.7z"/>
	</g>
</g>
<g>
	<g>
		<path class="st19" d="M236.8,237.7c0.2,0,0.3,0,0.5,0c1.5,0,3.2-0.7,4.2-1.8c1-1,1.8-2.7,1.8-4.2c-0.1-1.6-0.6-3.2-1.8-4.2
			c-1.2-1.1-2.6-1.8-4.2-1.8c-0.2,0-0.3,0-0.5,0c-1.5,0-3.2,0.7-4.2,1.8c-1,1-1.8,2.7-1.8,4.2c0.1,1.6,0.6,3.2,1.8,4.2
			C233.7,237.1,235.1,237.7,236.8,237.7L236.8,237.7z"/>
	</g>
</g>
<g>
	<g>
		<path class="st19" d="M242.3,233c7.7,0,7.7-12,0-12C234.5,221,234.5,233,242.3,233L242.3,233z"/>
	</g>
</g>
<g>
	<g>
		<path class="st19" d="M236.7,225.6c-0.7,0.5-1.5,1-2.4,1.3c0.5-0.2,1-0.4,1.4-0.6c-0.4,0.2-0.8,0.3-1.2,0.4
			c-1.5,0.4-2.8,1.4-3.6,2.8c-0.8,1.3-1.1,3.2-0.6,4.6c1,3,4.2,5.2,7.4,4.2c1.7-0.5,3.5-1.3,4.9-2.3c1.3-0.9,2.3-2,2.8-3.6
			c0.4-1.4,0.2-3.3-0.6-4.6c-0.8-1.3-2.1-2.4-3.6-2.8C239.9,224.6,238,224.7,236.7,225.6L236.7,225.6z"/>
	</g>
</g>
<g>
	<g>
		<path class="st19" d="M228.8,230.5c-0.2,0.2-0.4,0.4-0.6,0.5c0.4-0.3,0.8-0.6,1.2-0.9c-0.3,0.2-0.6,0.4-1,0.6
			c0.5-0.2,1-0.4,1.4-0.6c-0.1,0.1-0.3,0.1-0.4,0.2c-1.5,0.5-2.8,1.4-3.6,2.8c-0.8,1.3-1.1,3.2-0.6,4.6c0.5,1.5,1.4,2.9,2.8,3.6
			c1.4,0.7,3.1,1.1,4.6,0.6c1.7-0.6,3.4-1.5,4.6-2.8c1.1-1.1,1.8-2.6,1.8-4.2c0-1.5-0.7-3.2-1.8-4.2c-1.1-1-2.6-1.8-4.2-1.8
			C231.4,228.8,229.8,229.3,228.8,230.5L228.8,230.5z"/>
	</g>
</g>
<g>
	<g>
		<path class="st19" d="M236.2,242.2c0.2,0.1,0.3,0.2,0.5,0.3c1.5,0.7,3,1,4.6,0.6c1.4-0.4,2.9-1.5,3.6-2.8c0.7-1.4,1.1-3.1,0.6-4.6
			c-0.5-1.4-1.4-2.9-2.8-3.6c-0.2-0.1-0.3-0.2-0.5-0.3c-1.5-0.7-3-1-4.6-0.6c-1.4,0.4-2.9,1.5-3.6,2.8c-0.7,1.4-1.1,3.1-0.6,4.6
			C233.9,240,234.8,241.5,236.2,242.2L236.2,242.2z"/>
	</g>
</g>
<g>
	<g>
		<path class="st19" d="M239.1,241c0.2,0.3,0.3,0.7,0.5,1c0.7,1.3,2.2,2.4,3.6,2.8c1.4,0.4,3.3,0.2,4.6-0.6c1.3-0.8,2.4-2.1,2.8-3.6
			c0.4-1.6,0.2-3.1-0.6-4.6c-0.2-0.3-0.3-0.7-0.5-1c-0.7-1.3-2.2-2.4-3.6-2.8c-1.4-0.4-3.3-0.2-4.6,0.6c-1.3,0.8-2.4,2.1-2.8,3.6
			C238.1,238,238.4,239.5,239.1,241L239.1,241z"/>
	</g>
</g>
<g>
	<g>
		<g>
			<path class="st18" d="M180.5,233.7c-0.1,0-0.2,0-0.3,0c-1.5,0-3.2,0.7-4.2,1.8c-1,1-1.8,2.7-1.8,4.2c0.1,1.6,0.6,3.2,1.8,4.2
				c1.2,1.1,2.6,1.8,4.2,1.8c0.1,0,0.2,0,0.3,0c1.5,0,3.2-0.7,4.2-1.8c1-1,1.8-2.7,1.8-4.2c-0.1-1.6-0.6-3.2-1.8-4.2
				C183.5,234.4,182.1,233.7,180.5,233.7L180.5,233.7z"/>
		</g>
	</g>
	<g>
		<g>
			<path class="st18" d="M171.5,253.2c7.7,0,7.7-12,0-12C163.7,241.2,163.7,253.2,171.5,253.2L171.5,253.2z"/>
		</g>
	</g>
	<g>
		<g>
			<path class="st18" d="M161.5,255.7c7.7,0,7.7-12,0-12C153.7,243.7,153.7,255.7,161.5,255.7L161.5,255.7z"/>
		</g>
	</g>
	<g>
		<g>
			<path class="st18" d="M167.7,250.4c7.7,0,7.7-12,0-12C160,238.4,160,250.4,167.7,250.4L167.7,250.4z"/>
		</g>
	</g>
	<g>
		<g>
			<path class="st18" d="M171,248.9c7.7,0,7.7-12,0-12C163.2,236.9,163.2,248.9,171,248.9L171,248.9z"/>
		</g>
	</g>
	<g>
		<g>
			<path class="st18" d="M172.7,247.4c7.7,0,7.7-12,0-12C165,235.4,165,247.4,172.7,247.4L172.7,247.4z"/>
		</g>
	</g>
	<g>
		<g>
			<path class="st18" d="M179.9,242.4c0.1-0.1,0.2-0.2,0.3-0.3c-0.4,0.3-0.8,0.6-1.2,0.9c0.1-0.1,0.3-0.2,0.4-0.2
				c-0.5,0.2-1,0.4-1.4,0.6c0.2-0.1,0.4-0.1,0.6-0.2c-0.5,0.1-1.1,0.1-1.6,0.2c0.1,0,0.1,0,0.2,0c0.8,0,1.6-0.1,2.3-0.5
				c0.7-0.2,1.4-0.7,1.9-1.2c1-1,1.8-2.7,1.8-4.2c-0.1-1.6-0.6-3.2-1.8-4.2c-0.4-0.3-0.8-0.6-1.2-0.9c-0.9-0.5-1.9-0.8-3-0.8
				c-1.6,0.2-2.3,0.3-3.8,1c-0.7,0.4-1.4,0.9-2,1.5c-1.1,1.1-1.8,2.7-1.8,4.2c0,1.5,0.7,3.2,1.8,4.2c1.1,1,2.6,1.8,4.2,1.8
				C177.3,244.1,178.8,243.6,179.9,242.4L179.9,242.4z"/>
		</g>
	</g>
	<g>
		<g>
			<path class="st18" d="M183,240.2c0.4,0.3,0.8,0.7,1.2,1c0.5,0.6,1.2,1,1.9,1.2c0.7,0.4,1.5,0.5,2.3,0.5c1.5,0,3.2-0.7,4.2-1.8
				c1-1.1,1.8-2.6,1.8-4.2c-0.1-1.5-0.5-3.3-1.8-4.2c-0.4-0.3-0.8-0.7-1.2-1c-0.5-0.6-1.2-1-1.9-1.2c-0.7-0.4-1.5-0.5-2.3-0.5
				c-1.5,0-3.2,0.7-4.2,1.8c-1,1.1-1.8,2.6-1.8,4.2C181.3,237.4,181.8,239.2,183,240.2L183,240.2z"/>
		</g>
	</g>
	<g>
		<g>
			<path class="st18" d="M194.2,245.7c0.1,0,0.2,0,0.3,0c1.5,0,3.2-0.7,4.2-1.8c1-1,1.8-2.7,1.8-4.2c-0.1-1.6-0.6-3.2-1.8-4.2
				c-1.2-1.1-2.6-1.8-4.2-1.8c-0.1,0-0.2,0-0.3,0c-1.5,0-3.2,0.7-4.2,1.8c-1,1-1.8,2.7-1.8,4.2c0.1,1.6,0.6,3.2,1.8,4.2
				C191.1,245,192.6,245.7,194.2,245.7L194.2,245.7z"/>
		</g>
	</g>
	<g>
		<g>
			<path class="st18" d="M198,247.4c2.5,2.5,6.5,2.4,9,0c1.1-1.1,1.8-2.7,1.8-4.2c0-1.5-0.7-3.2-1.8-4.2c-1.1-1-2.6-1.8-4.2-1.8
				c-1.6,0.1-3.1,0.6-4.2,1.8c0,0-0.1,0.1-0.1,0.1c0.9-0.5,1.8-1,2.6-1.5c0,0-0.1,0-0.1,0c0.5-0.1,1.1-0.1,1.6-0.2c0,0-0.1,0-0.1,0
				c0.5,0.1,1.1,0.1,1.6,0.2c0,0-0.1,0-0.1,0c0.9,0.5,1.8,1,2.6,1.5c0,0-0.1-0.1-0.1-0.1c-1.1-1.1-2.7-1.8-4.2-1.8
				c-1.5,0-3.2,0.7-4.2,1.8c-1,1.1-1.8,2.6-1.8,4.2C196.3,244.8,196.8,246.3,198,247.4L198,247.4z"/>
		</g>
	</g>
	<g>
		<g>
			<path class="st18" d="M205.9,250.1c0.3,0.2,0.5,0.3,0.8,0.5c1.3,0.8,3.2,1,4.6,0.6c1.4-0.4,2.9-1.5,3.6-2.8
				c0.7-1.4,1.1-3.1,0.6-4.6c-0.5-1.5-1.4-2.7-2.8-3.6c-0.3-0.2-0.5-0.3-0.8-0.5c-1.3-0.8-3.2-1-4.6-0.6c-1.4,0.4-2.9,1.5-3.6,2.8
				c-0.7,1.4-1.1,3.1-0.6,4.6C203.7,248.1,204.6,249.2,205.9,250.1L205.9,250.1z"/>
		</g>
	</g>
	<g>
		<g>
			<path class="st18" d="M216.2,252.4c0.2,0,0.3,0,0.5,0c1.5,0,3.2-0.7,4.2-1.8c1-1,1.8-2.7,1.8-4.2c-0.1-1.6-0.6-3.2-1.8-4.2
				c-1.2-1.1-2.6-1.8-4.2-1.8c-0.2,0-0.3,0-0.5,0c-1.5,0-3.2,0.7-4.2,1.8c-1,1-1.8,2.7-1.8,4.2c0.1,1.6,0.6,3.2,1.8,4.2
				C213.1,251.8,214.6,252.4,216.2,252.4L216.2,252.4z"/>
		</g>
	</g>
	<g>
		<g>
			<path class="st18" d="M218.2,251.2c0.3,0.3,0.5,0.5,0.8,0.8c1.1,1.1,2.7,1.8,4.2,1.8c1.5,0,3.2-0.7,4.2-1.8
				c1-1.1,1.8-2.6,1.8-4.2c-0.1-1.6-0.6-3.1-1.8-4.2c-0.3-0.3-0.5-0.5-0.8-0.8c-1.1-1.1-2.7-1.8-4.2-1.8c-1.5,0-3.2,0.7-4.2,1.8
				c-1,1.1-1.8,2.6-1.8,4.2C216.5,248.5,217.1,250,218.2,251.2L218.2,251.2z"/>
		</g>
	</g>
	<g>
		<g>
			<path class="st18" d="M222,258.4c7.7,0,7.7-12,0-12C214.2,246.4,214.2,258.4,222,258.4L222,258.4z"/>
		</g>
	</g>
	<g>
		<g>
			<path class="st18" d="M222.1,246.6c-1.3-0.3-2.5-0.6-3.8-1c-1.5-0.4-3.3-0.2-4.6,0.6c-1.2,0.7-2.4,2.2-2.8,3.6
				c-0.7,3.1,0.9,6.6,4.2,7.4c1.3,0.3,2.5,0.6,3.8,1c1.5,0.4,3.3,0.2,4.6-0.6c1.2-0.7,2.4-2.2,2.8-3.6
				C227,250.9,225.3,247.5,222.1,246.6L222.1,246.6z"/>
		</g>
	</g>
	<g>
		<g>
			<path class="st18" d="M212.7,245.5c-0.4,0-0.7,0-1-0.1c0.5,0.1,1.1,0.1,1.6,0.2c-0.4-0.1-0.8-0.2-1.2-0.3c0.5,0.2,1,0.4,1.4,0.6
				C213.2,245.8,213,245.7,212.7,245.5c-1.3-0.7-3.1-1-4.6-0.6c-1.4,0.4-2.9,1.5-3.6,2.8c-0.7,1.4-1.1,3.1-0.6,4.6
				c0.5,1.5,1.4,2.8,2.8,3.6c1.8,1.1,3.9,1.7,6,1.6c1.6,0,3.1-0.6,4.2-1.8c1-1,1.8-2.7,1.8-4.2c-0.1-1.6-0.6-3.2-1.8-4.2
				C215.8,246.2,214.3,245.4,212.7,245.5L212.7,245.5z"/>
		</g>
	</g>
	<g>
		<g>
			<path class="st18" d="M209.7,245.3c-0.1-0.1-0.3-0.2-0.4-0.3c-0.5-0.3-1.2-0.6-1.7-0.7c-0.8-0.2-1.6-0.3-2.4-0.3
				c-1.5,0-3.2,0.7-4.2,1.8c-1,1-1.8,2.7-1.8,4.2c0.1,1.6,0.6,3.2,1.8,4.2c1.2,1.1,2.6,1.7,4.2,1.8c0.1,0,0.2,0,0.3,0
				c-0.5-0.1-1.1-0.1-1.6-0.2c0.2,0,0.4,0.1,0.6,0.2c-0.5-0.2-1-0.4-1.4-0.6c0.2,0.1,0.4,0.2,0.6,0.3c0.7,0.4,1.4,0.7,2.2,0.7
				c0.8,0.2,1.6,0.1,2.4-0.1c1.4-0.4,2.9-1.5,3.6-2.8c0.7-1.4,1.1-3.1,0.6-4.6c-0.2-0.5-0.4-1-0.6-1.4
				C211.4,246.5,210.6,245.8,209.7,245.3L209.7,245.3z"/>
		</g>
	</g>
	<g>
		<g>
			<path class="st18" d="M201.5,242.4c-0.5-0.2-1-0.3-1.5-0.5c-1.4-0.5-3.3-0.1-4.6,0.6c-1.2,0.7-2.4,2.2-2.8,3.6
				c-0.3,1.5-0.3,3.3,0.6,4.6c0.9,1.4,2,2.2,3.6,2.8c0.5,0.2,1,0.3,1.5,0.5c1.4,0.5,3.3,0.1,4.6-0.6c1.2-0.7,2.4-2.2,2.8-3.6
				c0.3-1.5,0.3-3.3-0.6-4.6C204.3,243.8,203.1,242.9,201.5,242.4L201.5,242.4z"/>
		</g>
	</g>
	<g>
		<g>
			<path class="st18" d="M194.5,241.2c-0.4-0.1-0.8-0.2-1.2-0.3c-1.6-0.3-3.2-0.2-4.6,0.6c-1.2,0.7-2.4,2.2-2.8,3.6
				c-0.3,1.5-0.3,3.3,0.6,4.6c0.8,1.3,2.1,2.4,3.6,2.8c0.4,0.1,0.8,0.2,1.2,0.3c1.6,0.3,3.2,0.2,4.6-0.6c1.2-0.7,2.4-2.2,2.8-3.6
				c0.3-1.5,0.3-3.3-0.6-4.6C197.3,242.7,196.1,241.5,194.5,241.2L194.5,241.2z"/>
		</g>
	</g>
	<g>
		<g>
			<path class="st18" d="M185.5,251.7c7.7,0,7.7-12,0-12C177.7,239.7,177.7,251.7,185.5,251.7L185.5,251.7z"/>
		</g>
	</g>
	<g>
		<g>
			<path class="st18" d="M179.9,239.4c-3.4,0.7-6.5,1.9-9.7,3.3c-2.9,1.3-3.8,5.7-2.2,8.2c1.9,3,5.1,3.5,8.2,2.2
				c0.7-0.3,0.7-0.3,0.2-0.1c0.4-0.1,0.7-0.3,1.1-0.4c0.5-0.2,1.1-0.4,1.6-0.6c1.3-0.4,2.6-0.8,3.9-1c3.1-0.7,5.2-4.4,4.2-7.4
				C186.2,240.4,183.1,238.7,179.9,239.4L179.9,239.4z"/>
		</g>
	</g>
	<g>
		<g>
			<path class="st18" d="M168.2,243.2c-4.6,2-7.6,8.3-4.9,13c2.7,4.8,10.5,4.4,15,3.8c2.7-0.4,5.3-1,8.1-0.8c3,0.2,5.9,1.1,9,1.2
				c6.5,0.2,13.1-0.2,19.6-0.4c7.8-0.2,7.7-11.6,0-12c-18.5-1-37.1-2.7-55.6-0.6c-7.7,0.9-7.7,11.1,0,12c8.4,1,16.4,0.7,23.1-4.9
				c3.3-2.8,7.4-6.3,9.8-9.9c0.8-1.2,1.3-2.4,1.4-3.9c-0.1-0.9-0.2-1.9-0.5-2.8c-2.6,1.5-2.9,2.7-0.9,3.5c2.2,2.4,7,2.8,10.1,2.8
				c4.5,0,7.5-0.6,11.8,1.2c3.3,1.3,6.5,1.7,9.8,0.2c2.3-1.1,5.2-5.8,7.8-3.7c-0.6-1.4-1.2-2.8-1.8-4.2c0.1,1.2-1.9,4.1-2.4,5.3
				c2.7-0.7,5.5-1.4,8.2-2.2c-1.7-1-3.4-2-5.1-3.1c-1.5,3.7-3.1,7.3-4.6,11c8.4,2.9,23.1,8.3,30.4,0.5c3.3-3.5,3.3-9.5-1.1-12
				c-2-1.2-4.2-1.1-6.5-0.7c-0.9,0.2-2.9,1.2-3.8,1c-0.1,0.1-0.3,0.2-0.4,0.3c-0.4-0.8-0.8-1.6-1.2-2.4c-2.3,2.9-4.5,5.9-6.8,8.8
				c4.7,1.7,9.7,1.7,14.3-0.2c-1.9-0.5-3.9-1-5.8-1.5c4.7,4.9,9.9,7.5,15.6,10.8c-0.9-1.2-1.8-2.4-2.8-3.6c0.1,0.3,0.2,0.5,0.3,0.8
				c0.5-1.9,1-3.9,1.5-5.8c0.9-0.7-2.1,0.1-2.7,0.1c-1.7,0.1-3.4,0-5.1,0.1c-3.4,0.1-6.8,0.2-10.2,0.5c-7,0.5-14.1,1.5-21,2.8
				c-6.2,1.2-5.1,9.8,0,11.6c7.5,2.5,15.3,0.7,23,0.5c4.1-0.1,8.3,0.1,12.4,0.5c3.6,0.3,7.4,1.3,10.9,0.5c6-1.4,10.6-8.6,6.8-14.3
				c-0.7-1.1-1.8-2.2-3-2.9c-0.8-0.5-2.9-0.8-3.5-1.4c0.5,0.6-0.5-1.8-0.7-2c-0.7-1.1-2.2-2.3-2.8-3c0.6,1.4,1.2,2.8,1.8,4.2
				c0.1-3,0.3-6.2-2.7-8.8c-3.1-2.7-7.1-2.6-10.6-0.6c2.7,0.7,5.5,1.4,8.2,2.2c-2.2-4.4-6.8-7-11.7-6.5c-7.6,0.7-7.7,12.7,0,12
				c0.8-0.5,1.3-0.3,1.3,0.6c1.5,2.9,5.5,3.7,8.2,2.2c-3-4.2-4.6-5-4.7-2.5c-0.1,0.4-0.1,0.8-0.1,1.2c0,1.2,0.2,2.3,0.8,3.4
				c0.9,1.6,2.1,2.6,2.9,3.8c1.2,1.9,2.3,3.5,4.3,4.6c2.1,1.1,2.5,1.7,2.4-1.3c-0.2-3.1-0.5-2.3-3.2-2.6c-6-0.7-12-1.1-18-1
				c-6.2,0.2-12.9,1.9-18.9-0.1c0,3.9,0,7.7,0,11.6c8-1.5,16.2-2.4,24.3-2.7c6.7-0.3,14.6,0.9,20-3.8c1.5-1.3,2.2-4,1.5-5.8
				c-1.3-3.9-3.6-4.6-6.9-6.3c-3.6-1.8-6.5-4.2-9.3-7.1c-1.3-1.4-4-2.3-5.8-1.5c-2.9,1.2-5,1.3-7.9,0.2c-5.5-2-8.6,4.6-6.8,8.8
				c1.5,3.4,3.8,6.6,7.5,7.8c2,0.6,4.1,0.6,6.1,0.2c1-0.2,2-0.5,3-0.8c2.1-0.3,2-0.6-0.2-0.8c-0.9-1.2-1.8-2.4-2.8-3.6
				c1.8-2.6,2-3.6,0.7-3c-0.4,0-0.8,0-1.3,0c-1.6-0.5-3.7-0.4-5.4-0.8c-3.9-0.8-7.7-1.9-11.5-3.2c-6.5-2.3-10.4,7.6-4.6,11
				c1.7,1,3.4,2,5.1,3.1c2.6,1.5,6.9,0.8,8.2-2.2c1.5-3.4,4.3-7.5,4-11.3c-0.3-4.4-4.6-7-8.5-8.1c-4.1-1.2-7.9-0.3-11.2,2.3
				c-0.7,0.6-2.4,2.7-3.3,2.9c-0.2,0-2.8-1.5-3.4-1.7c-3.8-1.4-7.6-1-11.6-0.8c-2.3,0.1-3.6,0-5.6-1.1c-1.7-0.9-3.1-2.2-5.1-2.6
				c-8.5-1.8-13.1,6.6-11.4,13.8c0.2-1.5,0.4-3.1,0.6-4.6c-2,3.1-6.7,7.6-10,9.2c-4,1.9-9,1-13.2,0.5c0,4,0,8,0,12
				c18.4-2.2,37.1-0.4,55.6,0.6c0-4,0-8,0-12c-7.5,0.2-15.5,1.2-22.9,0c-3.3-0.5-6.3-1-9.7-0.7c-3.2,0.3-7.7,2-10.8,0.6
				c1,1.7,2,3.5,3,5.2c-0.1,0.1-0.1,0.2-0.2,0.4C181.3,250.5,175.2,240.2,168.2,243.2L168.2,243.2z"/>
		</g>
	</g>
	<g>
		<g>
			<path class="st18" d="M169.2,232c-0.1,0.1-0.2,0.2-0.3,0.3c-1.1,1.1-1.8,2.7-1.8,4.2c0,1.5,0.7,3.2,1.8,4.2
				c1.1,1,2.6,1.8,4.2,1.8c1.6-0.1,3.1-0.6,4.2-1.8c0.1-0.1,0.2-0.2,0.3-0.3c1.1-1.1,1.8-2.7,1.8-4.2c0-1.5-0.7-3.2-1.8-4.2
				c-1.1-1-2.6-1.8-4.2-1.8C171.9,230.3,170.4,230.8,169.2,232L169.2,232z"/>
		</g>
	</g>
	<g>
		<g>
			<path class="st18" d="M163.7,237.7c-0.4,0.5-0.8,1-1.3,1.5c-0.6,0.5-1,1.2-1.2,1.9c-0.4,0.7-0.5,1.5-0.5,2.3
				c0,1.5,0.7,3.2,1.8,4.2c1.1,1,2.6,1.8,4.2,1.8c1.5-0.1,3.2-0.6,4.2-1.8c0.4-0.5,0.8-1,1.3-1.5c0.6-0.5,1-1.2,1.2-1.9
				c0.4-0.7,0.5-1.5,0.5-2.3c0-1.5-0.7-3.2-1.8-4.2c-1.1-1-2.6-1.8-4.2-1.8C166.5,236,164.8,236.5,163.7,237.7L163.7,237.7z"/>
		</g>
	</g>
	<g>
		<g>
			<path class="st18" d="M155.9,245.6c-0.1,0.3-0.2,0.7-0.3,1c-0.4,1.5-0.2,3.2,0.6,4.6c0.7,1.2,2.2,2.4,3.6,2.8
				c1.5,0.3,3.3,0.3,4.6-0.6c1.3-0.8,2.4-2.1,2.8-3.6c0.1-0.3,0.2-0.7,0.3-1c0.4-1.5,0.2-3.2-0.6-4.6c-0.7-1.2-2.2-2.4-3.6-2.8
				c-1.5-0.3-3.3-0.3-4.6,0.6C157.4,242.9,156.3,244.1,155.9,245.6L155.9,245.6z"/>
		</g>
	</g>
	<g>
		<g>
			<path class="st18" d="M156.5,259.4c7.7,0,7.7-12,0-12C148.7,247.4,148.7,259.4,156.5,259.4L156.5,259.4z"/>
		</g>
	</g>
	<g>
		<g>
			<path class="st18" d="M273.7,258.4c7.7,0,7.7-12,0-12C266,246.4,266,258.4,273.7,258.4L273.7,258.4z"/>
		</g>
	</g>
	<g>
		<g>
			<path class="st18" d="M277.3,244.9c-0.2-0.1-0.5-0.2-0.7-0.3c-1.4-0.5-3.4-0.1-4.6,0.6c-1.2,0.7-2.4,2.2-2.8,3.6
				c-0.3,1.5-0.3,3.3,0.6,4.6c0.9,1.4,2,2.2,3.6,2.8c0.2,0.1,0.5,0.2,0.7,0.3c1.4,0.5,3.4,0.1,4.6-0.6c1.2-0.7,2.4-2.2,2.8-3.6
				c0.3-1.5,0.3-3.3-0.6-4.6C280,246.3,278.8,245.5,277.3,244.9L277.3,244.9z"/>
		</g>
	</g>
	<g>
		<g>
			<path class="st18" d="M267.5,250.7c7.7,0,7.7-12,0-12C259.7,238.7,259.7,250.7,267.5,250.7L267.5,250.7z"/>
		</g>
	</g>
	<g>
		<g>
			<path class="st18" d="M266,245.4c7.7,0,7.7-12,0-12C258.2,233.4,258.2,245.4,266,245.4L266,245.4z"/>
		</g>
	</g>
	<g>
		<g>
			<path class="st18" d="M269.8,235.3c-0.1-0.2-0.2-0.5-0.3-0.7c-0.5-1.5-1.4-2.8-2.8-3.6c-1.3-0.8-3.2-1.1-4.6-0.6
				c-1.5,0.5-2.9,1.4-3.6,2.8c-0.7,1.4-1.1,3.1-0.6,4.6c0.1,0.2,0.2,0.5,0.3,0.7c0.5,1.5,1.4,2.8,2.8,3.6c1.3,0.8,3.2,1.1,4.6,0.6
				c1.5-0.5,2.9-1.4,3.6-2.8C269.9,238.6,270.3,236.9,269.8,235.3L269.8,235.3z"/>
		</g>
	</g>
	<g>
		<g>
			<path class="st18" d="M162.5,241.9c7.7,0,7.7-12,0-12C154.7,229.9,154.7,241.9,162.5,241.9L162.5,241.9z"/>
		</g>
	</g>
	<g>
		<g>
			<path class="st18" d="M160.5,245.4c7.7,0,7.7-12,0-12C152.7,233.4,152.7,245.4,160.5,245.4L160.5,245.4z"/>
		</g>
	</g>
	<g>
		<g>
			<path class="st18" d="M157,249.2c7.7,0,7.7-12,0-12C149.2,237.2,149.2,249.2,157,249.2L157,249.2z"/>
		</g>
	</g>
	<g>
		<g>
			<path class="st18" d="M152.5,254.2c7.7,0,7.7-12,0-12C144.7,242.2,144.7,254.2,152.5,254.2L152.5,254.2z"/>
		</g>
	</g>
	<g>
		<g>
			<path class="st18" d="M148,257.9c7.7,0,7.7-12,0-12C140.2,245.9,140.2,257.9,148,257.9L148,257.9z"/>
		</g>
	</g>
	<g>
		<g>
			<path class="st19" d="M144.2,261.1c4.7,1.4,9.5,1.3,14.1-0.6c6.2-2.6,5.4-11.1-1.6-11.8c-2.5-0.2-4.9-0.5-7.4-0.7c0,4,0,8,0,12
				c4.6-0.1,8.7-1.2,12.6-3.7c-2.9-1.2-5.9-2.4-8.8-3.6c0.5,1.9,0.6,3.5,0.3,5.5c-0.5,2.8,0.4,5.2,2.8,6.8c2.2,1.4,4.6,1.8,7,1.1
				c1.1-0.3,2.1-0.8,3-1.4c1.1-0.7,2.7-1.2,1.3-1.8c0-3.9,0-7.7,0-11.6c0.6,1.3,1.3,2.7,1.9,4c0.9-2.3-0.6-5.7-2.8-6.8
				c-0.9-0.5-1.9-0.9-2.9-1.1c-0.4-0.1-0.9-0.1-1.3-0.2c-1.9-0.4-1.3,0.3,1.9,2.2c-0.2,1.5-0.4,3.1-0.6,4.6c3.3-5,11.8-3.2,16.6-3
				c6.4,0.2,12.8-0.4,19.1-1.3c7.6-1.2,4.4-12.7-3.2-11.6c-6.2,1-12.4,1.1-18.7,0.8c-5.6-0.3-10.7-0.3-15.8,2.1
				c-3.8,1.8-9,5.3-9.2,10c-0.1,2.3,1,4.5,2.7,5.9c1.7,1.4,3.7,1.2,5.4,2c-0.9-2.3-1.8-4.5-2.8-6.8c-1.3,3.3-0.1,6.9,2.6,9.1
				c3,2.6,6.7,2.3,10.3,1.6c6.2-1.2,5.2-9.8,0-11.6c-2.2-0.8-4.2-0.7-6.4,0.2c-1,0.4-1.8,0.9-2.6,1.5c-0.4,0.3-0.8,0.6-1.2,1
				c-1.2,0.8-0.6,1,1.7,0.6c0.9,2.3,1.8,4.5,2.8,6.8c0.7-4.1,0.7-7.8-0.3-11.9c-0.9-3.7-5.6-5.7-8.8-3.6c-2.1,1.4-4,2-6.5,2.1
				c-7.8,0.1-7.6,11.3,0,12c2.5,0.2,4.9,0.5,7.4,0.7c-0.5-3.9-1.1-7.9-1.6-11.8c-2.7,1.1-4.9,1.5-7.7,0.6
				C139.9,247.4,136.8,258.9,144.2,261.1L144.2,261.1z"/>
		</g>
	</g>
	<g>
		<g>
			<path class="st19" d="M175.9,252.8c0.5-1.7,4.5-4,6.1-4.6c2.8-1,5-0.9,7.1-3.3c3.5-3.8,1.1-10.2-4.2-10.2
				c-5.4,0-10.6,0.8-15.7,2.6c-6.3,2.2-5.4,11.5,1.6,11.8c7.8,0.3,16.9,2,22.4-4.6c-1.4,0.6-2.8,1.2-4.2,1.8
				c-1.6-0.9-2.1-0.8-1.5,0.2c0.3,0.6,0.5,1.2,0.8,1.8c0.6,1,1.2,2,2,2.8c1.8,1.8,4.1,3.1,6.6,3.4c7.6,1.2,10.8-10.4,3.2-11.6
				c-2.2-0.3-2.6-3.7-4.1-5.4c-2-2.2-4.8-3.6-7.8-3.1c-1.7,0.3-2.5,1.1-3.8,2c-1.5,1.1-0.4,0.7-2,0.9c-3.6,0.5-8-0.1-11.6-0.2
				c0.5,3.9,1.1,7.9,1.6,11.8c4.2-1.5,8.1-2.2,12.5-2.1c-1.4-3.4-2.8-6.8-4.2-10.2c0.6-0.7,0.9-0.4-0.4-0.1c-1,0.2-1.9,0.5-2.8,0.8
				c-2.1,0.8-4,2-5.8,3.4c-3.2,2.4-6.3,5.1-7.4,9.1C162.4,257.1,174,260.2,175.9,252.8L175.9,252.8z"/>
		</g>
	</g>
	<g>
		<g>
			<path class="st19" d="M248.5,245.2c-3.7,0.2-7.4,0.7-11.1,1.3c-3.1,0.5-5.1,4.5-4.2,7.4c1.1,3.4,4.1,4.7,7.4,4.2
				c2.5-0.4,5.1-0.7,7.9-0.9c3.1-0.2,6.2-2.6,6-6C254.3,248.1,251.8,244.9,248.5,245.2L248.5,245.2z"/>
		</g>
	</g>
	<g>
		<g>
			<path class="st19" d="M240.3,240.5c-3.7,0.7-6.9,0.3-10.3,2.4c-3.2,2-3,4.4-4.7,7.3c-2,3.3-0.1,7.8,3.6,8.8
				c8.3,2.4,18.5-0.4,26.9-1.4c2.6-0.3,5.1-1.6,5.8-4.4c2.4-10-7.5-10.1-13.5-14c-1,3.7-2,7.5-3,11.2c1.5,0,4.1-0.1,5.4,0.9
				c1.4,1.1,1.6,3.2,3.4,4.3c4.2,2.7,8.7,0.6,11.6,5.6c1.7-3,3.5-6,5.2-9c-42.5,0.6-85.1,0.9-127.6,0.6c-7.7-0.1-7.7,11.9,0,12
				c42.5,0.3,85.1,0,127.6-0.6c4.5-0.1,7.5-5.1,5.2-9c-1.9-3.2-4.5-6-7.8-7.7c-1.2-0.6-2.6-1.2-3.9-1.6c-1-0.2-1.9-0.4-2.9-0.5
				c-2-0.5-1.9,0,0.4,1.3c1.2-0.9-5.1-5.7-6-6.2c-3.2-1.6-6.9-1.9-10.4-2c-6.2-0.2-7.9,8.1-3,11.2c1.7,1.1,3.4,1.9,5.2,2.6
				c0.9,0.4,1.8,0.7,2.7,0.9c2.1,0.8,2.1-0.2,0.1-3.1c1.9-1.5,3.9-2.9,5.8-4.4c-4.1,0.5-8.1,0.9-12.2,1.4c-3.7,0.4-7.8,1.4-11.5,0.4
				c1.2,2.9,2.4,5.9,3.6,8.8c0.3-0.5,2.5-4.8,0.8-3.3c0.9-0.8,5.6-0.6,7-0.8C251.1,250.7,247.9,239.2,240.3,240.5L240.3,240.5z"/>
		</g>
	</g>
	<g>
		<g>
			<path class="st19" d="M170.3,260.7c11.6-3.9,25.7-2.3,37.8-2.4c6.2-0.1,12.4-0.2,18.6-0.7c4.9-0.4,10.4-0.9,12.8-5.9
				c1.6-3.4,0.5-7.8-3.6-8.8c-5.8-1.4-11.9-2.2-17.9-1.8c-4.3,0.3-11.5,3.2-15.5,1c-6.8-3.7-12.9,6.7-6.1,10.4
				c5.3,2.9,10.4,2.3,16.2,1.3c6.8-1.1,13.4-1,20.1,0.7c-1.2-2.9-2.4-5.9-3.6-8.8c-0.3,0.7-12.4,0.5-14.2,0.6
				c-5.6,0.1-11.1,0.1-16.7,0.2c-10.2,0.1-21.4-0.5-31.2,2.7C159.8,251.6,162.9,263.2,170.3,260.7L170.3,260.7z"/>
		</g>
	</g>
	<g>
		<g>
			<path class="st19" d="M214.9,244c0-0.1,0-0.2,0-0.3c-0.1,0.5-0.1,1.1-0.2,1.6c0-0.1,0-0.2,0.1-0.4c-0.2,0.5-0.4,1-0.6,1.4
				c0-0.1,0.1-0.2,0.1-0.2c-0.3,0.4-0.6,0.8-0.9,1.2c0.1-0.1,0.1-0.1,0.2-0.2c-0.4,0.3-0.8,0.6-1.2,0.9c0.1-0.1,0.1-0.1,0.2-0.1
				c-0.5,0.2-1,0.4-1.4,0.6c0,0,0.1,0,0.1,0c1.5-0.5,2.8-1.4,3.6-2.8c0.8-1.3,1.1-3.2,0.6-4.6c-0.5-1.5-1.4-2.9-2.8-3.6
				c-1.4-0.7-3.1-1.1-4.6-0.6c-1.7,0.6-3.3,1.6-4.2,3.2c-0.3,0.5-0.6,1.2-0.8,1.8c-0.1,0.3-0.1,0.8-0.1,1c-0.1,0.4-0.1,0.7-0.1,1.1
				c0,0.8,0.1,1.6,0.5,2.3c0.2,0.7,0.7,1.4,1.2,1.9c1,1,2.7,1.8,4.2,1.8c1.6-0.1,3.2-0.6,4.2-1.8c0.3-0.4,0.6-0.8,0.9-1.2
				C214.7,246,214.9,245,214.9,244L214.9,244z"/>
		</g>
	</g>
	<g>
		<g>
			<path class="st19" d="M219,245.7c1.5,0.2,3.1,0,4.6-0.4c1.4-0.4,2.8-1.5,3.6-2.8c0.8-1.3,1.1-3.2,0.6-4.6
				c-0.5-1.5-1.4-2.9-2.8-3.6c-1.4-0.8-3-1-4.6-0.6c-0.4,0.1-0.7,0.2-1.1,0.2c0.5-0.1,1.1-0.1,1.6-0.2c-0.7,0.1-1.3,0.1-1.9,0
				c-1.4-0.2-3.3,0.8-4.2,1.8c-1,1-1.8,2.7-1.8,4.2c0.1,1.6,0.6,3.2,1.8,4.2c0.4,0.3,0.8,0.6,1.2,0.9
				C216.9,245.4,217.9,245.7,219,245.7L219,245.7z"/>
		</g>
	</g>
	<g>
		<g>
			<path class="st19" d="M229.9,229.7c-0.5,0.2-1,0.3-1.5,0.5c-1.5,0.5-2.8,1.4-3.6,2.8c-0.8,1.3-1.1,3.2-0.6,4.6
				c0.5,1.5,1.4,2.9,2.8,3.6c1.4,0.7,3.1,1.1,4.6,0.6c0.5-0.2,1-0.3,1.5-0.5c1.5-0.5,2.8-1.4,3.6-2.8c0.8-1.3,1.1-3.2,0.6-4.6
				c-0.5-1.5-1.4-2.9-2.8-3.6C233.1,229.5,231.4,229.2,229.9,229.7L229.9,229.7z"/>
		</g>
	</g>
	<g>
		<g>
			<path class="st19" d="M221.7,233.2c-0.2,0.2-0.3,0.3-0.5,0.5c-1.1,1.1-1.8,2.7-1.8,4.2c0,1.5,0.7,3.2,1.8,4.2
				c1.1,1,2.6,1.8,4.2,1.8c1.6-0.1,3.1-0.6,4.2-1.8c0.2-0.2,0.3-0.3,0.5-0.5c1.1-1.1,1.8-2.7,1.8-4.2c0-1.5-0.7-3.2-1.8-4.2
				c-1.1-1-2.6-1.8-4.2-1.8C224.4,231.5,222.9,232.1,221.7,233.2L221.7,233.2z"/>
		</g>
	</g>
	<g>
		<g>
			<path class="st19" d="M228.5,245.2c1.5,0,3,0,4.5,0c3.1,0,6.1-2.8,6-6c-0.1-3.3-2.6-6-6-6c-1.5,0-3,0-4.5,0c-3.1,0-6.1,2.8-6,6
				C222.6,242.5,225.1,245.2,228.5,245.2L228.5,245.2z"/>
		</g>
	</g>
	<g>
		<g>
			<path class="st19" d="M237.5,245.2c0.6,0,1.2,0,1.8,0c1.5,0,3.2-0.7,4.2-1.8c1-1,1.8-2.7,1.8-4.2c-0.1-1.6-0.6-3.2-1.8-4.2
				c-1.2-1.1-2.6-1.8-4.2-1.8c-0.6,0-1.2,0-1.8,0c-1.5,0-3.2,0.7-4.2,1.8c-1,1-1.8,2.7-1.8,4.2c0.1,1.6,0.6,3.2,1.8,4.2
				C234.4,244.5,235.8,245.2,237.5,245.2L237.5,245.2z"/>
		</g>
	</g>
	<g>
		<g>
			<path class="st19" d="M243.7,245.2c7.7,0,7.7-12,0-12C236,233.2,236,245.2,243.7,245.2L243.7,245.2z"/>
		</g>
	</g>
	<g>
		<g>
			<path class="st19" d="M246,243.7c0.3,0.3,0.7,0.7,1,1c1.1,1.1,2.7,1.8,4.2,1.8c1.5,0,3.2-0.7,4.2-1.8c1-1.1,1.8-2.6,1.8-4.2
				c-0.1-1.6-0.6-3.1-1.8-4.2c-0.3-0.3-0.7-0.7-1-1c-1.1-1.1-2.7-1.8-4.2-1.8c-1.5,0-3.2,0.7-4.2,1.8c-1,1.1-1.8,2.6-1.8,4.2
				C244.3,241,244.8,242.5,246,243.7L246,243.7z"/>
		</g>
	</g>
	<g>
		<g>
			<path class="st19" d="M254.2,248.9c7.7,0,7.7-12,0-12C246.5,236.9,246.5,248.9,254.2,248.9L254.2,248.9z"/>
		</g>
	</g>
	<g>
		<g>
			<path class="st19" d="M260.7,255.2c7.7,0,7.7-12,0-12C253,243.2,253,255.2,260.7,255.2L260.7,255.2z"/>
		</g>
	</g>
	<g>
		<g>
			<path class="st19" d="M280.2,260.9c7.7,0,7.7-12,0-12C272.5,248.9,272.5,260.9,280.2,260.9L280.2,260.9z"/>
		</g>
	</g>
	<g>
		<g>
			<path class="st19" d="M275.2,265.4c7.7,0,7.7-12,0-12C267.5,253.4,267.5,265.4,275.2,265.4L275.2,265.4z"/>
		</g>
	</g>
	<g>
		<g>
			<path class="st19" d="M281.5,266.9c7.7,0,7.7-12,0-12C273.7,254.9,273.7,266.9,281.5,266.9L281.5,266.9z"/>
		</g>
	</g>
</g>
<path class="st20" d="M226.6,131.2h-30.8c-1.1,0-2-0.9-2-2V126c0-1.1,0.9-2,2-2h30.8c1.1,0,2,0.9,2,2v3.2
	C228.6,130.3,227.7,131.2,226.6,131.2z"/>
<rect x="196.5" y="120.5" class="st14" width="29.5" height="3.5"/>
<polygon class="st21" points="142.1,252.5 140.2,252.7 190.4,128.3 197.7,128.3 "/>
<polygon class="st21" points="209.7,230.8 207.8,230.8 206.9,128.3 214.2,128.3 "/>
<polygon class="st21" points="264,230.2 262.3,230.3 224.9,128.3 232.3,128.3 "/>
<path class="st14" d="M196.7,129h-5.6c-0.6,0-1-0.4-1-1v-1c0-0.6,0.4-1,1-1h5.6c0.6,0,1,0.4,1,1v1C197.7,128.5,197.3,129,196.7,129z
	"/>
<path class="st14" d="M213.8,129.1h-6.7c-0.5,0-1-0.4-1-1v-1c0-0.5,0.5-1,1-1h6.7c0.6,0,1,0.5,1,1v1
	C214.8,128.7,214.3,129.1,213.8,129.1z"/>
<path class="st14" d="M231.9,129h-6.7c-0.5,0-1-0.4-1-1v-1c0-0.6,0.5-1,1-1h6.7c0.6,0,1,0.4,1,1v1C232.9,128.5,232.5,129,231.9,129z
	"/>
<path class="st22" d="M205.8,120.5H202c-0.5,0-1-0.4-1-1v-1c0-0.6,0.5-1,1-1h3.9c0.6,0,1,0.4,1,1v1
	C206.8,120,206.4,120.5,205.8,120.5z"/>
<path class="st22" d="M222.1,120.5h-3.9c-0.5,0-1-0.4-1-1v-1c0-0.6,0.5-1,1-1h3.9c0.6,0,1,0.4,1,1v1
	C223.1,120,222.6,120.5,222.1,120.5z"/>
<path class="st23" d="M224.8,117.5h-27.5c-0.6,0-1-0.4-1-1v-5.2c0-0.6,0.4-1,1-1h27.5c0.6,0,1,0.4,1,1v5.2
	C225.8,117,225.3,117.5,224.8,117.5z"/>
<rect x="196.3" y="116.4" class="st14" width="29.5" height="1.1"/>
<path class="st24" d="M179.3,102.8H167c-1.1,0-2-0.9-2-2v-4.5c0-1.1,0.9-2,2-2h12.3V102.8z"/>
<path class="st24" d="M229.9,103.8h5.3c0.5,0,1-0.5,1-1v-8.5c0-0.6-0.5-1-1-1h-5.3V103.8z"/>
<path class="st14" d="M236.1,102.2h1.1c0.5,0,1-0.4,1-1v-5.4c0-0.6-0.5-1-1-1h-1.1V102.2z"/>
<path class="st14" d="M225.8,90.9v-1.1c0-0.6-0.4-1-1-1h-15.1c-0.6,0-1,0.4-1,1v1.1H225.8z"/>
<path class="st25" d="M224.8,99.9h-15.1c-0.6,0-1-0.4-1-1v-4.3c0-0.5,0.4-1,1-1h15.1c0.6,0,1,0.5,1,1v4.3
	C225.8,99.4,225.3,99.9,224.8,99.9z"/>
</svg>
