<?xml version="1.0" encoding="utf-8"?>
<!-- Generator: Adobe Illustrator 22.0.1, SVG Export Plug-In . SVG Version: 6.00 Build 0)  -->
<svg version="1.1" id="Layer_1" xmlns="http://www.w3.org/2000/svg" xmlns:xlink="http://www.w3.org/1999/xlink" x="0px" y="0px"
	 viewBox="0 0 310 268" style="enable-background:new 0 0 310 268;" xml:space="preserve">
<style type="text/css">
	.st0{fill:#FFE5AC;}
	.st1{fill:#E8EAF5;}
	.st2{fill:#8B6235;}
	.st3{fill:#D8E8F6;stroke:#030202;stroke-miterlimit:10;}
	.st4{fill:none;stroke:#030202;stroke-miterlimit:10;}
	.st5{fill:#B07D2B;}
	.st6{fill:#A87C4F;}
	.st7{fill:#8091A7;}
	.st8{fill:#0C0907;}
	.st9{fill:#D1E8F8;}
	.st10{fill:#FFFAEB;}
	.st11{fill:#A7C6E8;}
	.st12{fill:#231F20;}
	.st13{fill:#FFF0EB;}
	.st14{fill:#200E0A;}
	.st15{fill:#635724;}
	.st16{fill:#2B2914;}
	.st17{fill:#F7F9E7;stroke:#030202;stroke-width:0.75;stroke-miterlimit:10;}
	.st18{fill:#EFA81F;stroke:#1F1B0E;stroke-width:0.5;stroke-miterlimit:10;}
	.st19{fill:#603813;}
	.st20{fill:#626366;}
	.st21{fill:#7E9BCF;}
	.st22{fill:#C8CACB;}
	.st23{font-family:'MyriadPro-Regular';}
	.st24{font-size:14px;}
	.st25{font-size:11.394px;}
	.st26{font-size:8.7739px;}
</style>
<path class="st0" d="M60,100.5H45.4c-2,0-3.6-1.6-3.6-3.6V78.7c0-2,1.6-3.6,3.6-3.6H60c2,0,3.6,1.6,3.6,3.6v18.2
	C63.6,98.9,62,100.5,60,100.5z"/>
<path class="st0" d="M59.5,71.2h-14c-9.9,0-18-8.1-18-18V26.8c0-10.5,8.5-19,19-19h12c10.5,0,19,8.5,19,19v26.4
	C77.5,63.1,69.4,71.2,59.5,71.2z"/>
<path class="st1" d="M69.7,22.5l-9-0.8c-1.1-0.1-1.9-1.1-1.8-2.2v0c0.1-1.1,1.1-1.9,2.2-1.8l9,0.8c1.1,0.1,1.9,1.1,1.8,2.2v0
	C71.8,21.8,70.8,22.6,69.7,22.5z"/>
<path class="st2" d="M80.7,39.9h-3.1V27h3.1c1.1,0,2,0.9,2,2v8.9C82.7,39,81.8,39.9,80.7,39.9z"/>
<g>
	<circle class="st3" cx="62.7" cy="30.6" r="8.1"/>
	<circle class="st3" cx="42.7" cy="30" r="8.1"/>
	<path class="st4" d="M52.8,29.4c-0.6,0-1.2,0.1-1.8,0.2l0,0.7c1.1-0.2,2.2-0.3,3.4,0l0.1-0.7C54,29.5,53.4,29.4,52.8,29.4z"/>
</g>
<g>
	<path class="st2" d="M53.1,42.2h-1.1c-1.1,0-2-0.9-2-2v-2.7c0-1.1,0.9-2,2-2h1.1c1.1,0,2,0.9,2,2v2.7
		C55.1,41.3,54.2,42.2,53.1,42.2z"/>
	<path class="st2" d="M54.6,45h-4.1c-0.8,0-1.4-0.6-1.4-1.4v-2.4c0-0.8,0.6-1.4,1.4-1.4h4.1c0.8,0,1.4,0.6,1.4,1.4v2.4
		C55.9,44.4,55.3,45,54.6,45z"/>
</g>
<path class="st1" d="M36.5,21.8l9-0.8c1.1-0.1,1.9-1.1,1.8-2.2v0c-0.1-1.1-1.1-1.9-2.2-1.8l-9,0.8c-1.1,0.1-1.9,1.1-1.8,2.2v0
	C34.4,21.1,35.4,21.9,36.5,21.8z"/>
<path class="st2" d="M24.4,39.9h3.1V27h-3.1c-1.1,0-2,0.9-2,2v8.9C22.4,39,23.3,39.9,24.4,39.9z"/>
<g>
	<g>
		<path class="st5" d="M27.1,45.8"/>
		<g>
			<path class="st6" d="M27.1,48.8c3.9,0,3.9-6,0-6C23.2,42.8,23.2,48.8,27.1,48.8L27.1,48.8z"/>
		</g>
	</g>
	<g>
		<path class="st5" d="M29.6,47.7"/>
		<g>
			<path class="st6" d="M29.6,50.7c3.9,0,3.9-6,0-6C25.7,44.7,25.7,50.7,29.6,50.7L29.6,50.7z"/>
		</g>
	</g>
	<g>
		<path class="st5" d="M26.4,51"/>
		<g>
			<path class="st6" d="M26.4,54c3.9,0,3.9-6,0-6C22.5,48,22.5,54,26.4,54L26.4,54z"/>
		</g>
	</g>
	<g>
		<path class="st5" d="M29.5,51.5"/>
		<g>
			<path class="st6" d="M29.5,54.5c3.9,0,3.9-6,0-6C25.6,48.5,25.6,54.5,29.5,54.5L29.5,54.5z"/>
		</g>
	</g>
	<g>
		<path class="st5" d="M32.5,50.7"/>
		<g>
			<path class="st6" d="M32.5,53.7c3.9,0,3.9-6,0-6C28.6,47.7,28.6,53.7,32.5,53.7L32.5,53.7z"/>
		</g>
	</g>
	<g>
		<path class="st5" d="M31.1,54.2"/>
		<g>
			<path class="st6" d="M31.1,57.2c3.9,0,3.9-6,0-6C27.2,51.2,27.2,57.2,31.1,57.2L31.1,57.2z"/>
		</g>
	</g>
	<g>
		<path class="st5" d="M26.5,54.8"/>
		<g>
			<path class="st6" d="M26.5,57.8c3.9,0,3.9-6,0-6C22.6,51.8,22.6,57.8,26.5,57.8L26.5,57.8z"/>
		</g>
	</g>
	<g>
		<path class="st5" d="M28.6,58.2"/>
		<g>
			<path class="st6" d="M28.6,61.2c3.9,0,3.9-6,0-6C24.7,55.2,24.7,61.2,28.6,61.2L28.6,61.2z"/>
		</g>
	</g>
	<g>
		<path class="st5" d="M31.6,58.3"/>
		<g>
			<path class="st6" d="M31.6,61.3c3.9,0,3.9-6,0-6C27.7,55.3,27.7,61.3,31.6,61.3L31.6,61.3z"/>
		</g>
	</g>
	<g>
		<path class="st5" d="M30,61.2"/>
		<g>
			<path class="st6" d="M30,64.2c3.9,0,3.9-6,0-6C26.1,58.2,26.1,64.2,30,64.2L30,64.2z"/>
		</g>
	</g>
	<g>
		<path class="st5" d="M31.5,65.8"/>
		<g>
			<path class="st6" d="M31.5,68.8c3.9,0,3.9-6,0-6C27.6,62.8,27.6,68.8,31.5,68.8L31.5,68.8z"/>
		</g>
	</g>
	<g>
		<path class="st5" d="M32.2,62.9"/>
		<g>
			<path class="st6" d="M32.2,65.9c3.9,0,3.9-6,0-6C28.4,59.9,28.4,65.9,32.2,65.9L32.2,65.9z"/>
		</g>
	</g>
	<g>
		<path class="st5" d="M35.1,63.8"/>
		<g>
			<path class="st6" d="M35.1,66.8c3.9,0,3.9-6,0-6C31.2,60.8,31.2,66.8,35.1,66.8L35.1,66.8z"/>
		</g>
	</g>
	<g>
		<path class="st5" d="M35.5,66"/>
		<g>
			<path class="st6" d="M35.5,69c3.9,0,3.9-6,0-6C31.6,63,31.6,69,35.5,69L35.5,69z"/>
		</g>
	</g>
	<g>
		<path class="st5" d="M36.7,68.4c0,0.1,0.1,0.2,0.1,0.3"/>
		<g>
			<path class="st6" d="M34.1,69.9c0,0.1,0.1,0.2,0.1,0.3c0.7,1.4,2.8,1.9,4.1,1.1c1.4-0.9,1.8-2.6,1.1-4.1c0-0.1-0.1-0.2-0.1-0.3
				c-0.7-1.4-2.8-1.9-4.1-1.1C33.8,66.8,33.4,68.4,34.1,69.9L34.1,69.9z"/>
		</g>
	</g>
	<g>
		<path class="st5" d="M39.7,69.9"/>
		<g>
			<path class="st6" d="M39.7,72.9c3.9,0,3.9-6,0-6C35.9,66.9,35.9,72.9,39.7,72.9L39.7,72.9z"/>
		</g>
	</g>
	<g>
		<path class="st5" d="M39.1,66"/>
		<g>
			<path class="st6" d="M39.1,69c3.9,0,3.9-6,0-6C35.2,63,35.2,69,39.1,69L39.1,69z"/>
		</g>
	</g>
	<g>
		<path class="st5" d="M42,68.7"/>
		<g>
			<path class="st6" d="M42,71.7c3.9,0,3.9-6,0-6C38.1,65.7,38.1,71.7,42,71.7L42,71.7z"/>
		</g>
	</g>
	<g>
		<path class="st5" d="M44.4,67"/>
		<g>
			<path class="st6" d="M44.4,70c3.9,0,3.9-6,0-6C40.5,64,40.5,70,44.4,70L44.4,70z"/>
		</g>
	</g>
	<g>
		<path class="st5" d="M47.7,67.3"/>
		<g>
			<path class="st6" d="M47.7,70.3c3.9,0,3.9-6,0-6C43.9,64.3,43.9,70.3,47.7,70.3L47.7,70.3z"/>
		</g>
	</g>
	<g>
		<path class="st5" d="M50.5,70.5"/>
		<g>
			<path class="st6" d="M50.5,73.5c3.9,0,3.9-6,0-6C46.6,67.5,46.6,73.5,50.5,73.5L50.5,73.5z"/>
		</g>
	</g>
	<g>
		<path class="st5" d="M48,72.7"/>
		<g>
			<path class="st6" d="M48,75.7c3.9,0,3.9-6,0-6C44.1,69.7,44.1,75.7,48,75.7L48,75.7z"/>
		</g>
	</g>
	<g>
		<path class="st5" d="M43.9,71.4"/>
		<g>
			<path class="st6" d="M43.9,74.4c3.9,0,3.9-6,0-6C40,68.4,40,74.4,43.9,74.4L43.9,74.4z"/>
		</g>
	</g>
	<g>
		<path class="st5" d="M42.6,73.9"/>
		<g>
			<path class="st6" d="M42.6,76.9c3.9,0,3.9-6,0-6C38.7,70.9,38.7,76.9,42.6,76.9L42.6,76.9z"/>
		</g>
	</g>
	<g>
		<path class="st5" d="M46.4,74.4"/>
		<g>
			<path class="st6" d="M46.4,77.4c3.9,0,3.9-6,0-6C42.5,71.4,42.5,77.4,46.4,77.4L46.4,77.4z"/>
		</g>
	</g>
	<g>
		<path class="st5" d="M50.6,75.5"/>
		<g>
			<path class="st6" d="M50.6,78.5c3.9,0,3.9-6,0-6C46.7,72.5,46.7,78.5,50.6,78.5L50.6,78.5z"/>
		</g>
	</g>
	<g>
		<path class="st5" d="M51.4,73.9"/>
		<g>
			<path class="st6" d="M51.4,76.9c3.9,0,3.9-6,0-6C47.5,70.9,47.5,76.9,51.4,76.9L51.4,76.9z"/>
		</g>
	</g>
	<g>
		<path class="st5" d="M55.7,71.2"/>
		<g>
			<path class="st6" d="M55.7,74.2c3.9,0,3.9-6,0-6C51.9,68.2,51.9,74.2,55.7,74.2L55.7,74.2z"/>
		</g>
	</g>
	<g>
		<path class="st5" d="M53.5,68.5"/>
		<g>
			<path class="st6" d="M53.5,71.5c3.9,0,3.9-6,0-6C49.6,65.5,49.6,71.5,53.5,71.5L53.5,71.5z"/>
		</g>
	</g>
	<g>
		<path class="st5" d="M57.5,66.4"/>
		<g>
			<path class="st6" d="M57.5,69.4c3.9,0,3.9-6,0-6C53.6,63.4,53.6,69.4,57.5,69.4L57.5,69.4z"/>
		</g>
	</g>
	<g>
		<path class="st5" d="M51,65.9"/>
		<g>
			<path class="st6" d="M51,68.9c3.9,0,3.9-6,0-6C47.1,62.9,47.1,68.9,51,68.9L51,68.9z"/>
		</g>
	</g>
	<g>
		<path class="st5" d="M60.7,65.3"/>
		<g>
			<path class="st6" d="M60.7,68.3c3.9,0,3.9-6,0-6C56.9,62.3,56.9,68.3,60.7,68.3L60.7,68.3z"/>
		</g>
	</g>
	<g>
		<path class="st5" d="M65.4,66.4"/>
		<g>
			<path class="st6" d="M65.4,69.4c3.9,0,3.9-6,0-6C61.5,63.4,61.5,69.4,65.4,69.4L65.4,69.4z"/>
		</g>
	</g>
	<g>
		<path class="st5" d="M68.6,65.9"/>
		<g>
			<path class="st6" d="M68.6,68.9c3.9,0,3.9-6,0-6C64.7,62.9,64.7,68.9,68.6,68.9L68.6,68.9z"/>
		</g>
	</g>
	<g>
		<path class="st5" d="M64.4,70.7"/>
		<g>
			<path class="st6" d="M64.4,73.7c3.9,0,3.9-6,0-6C60.5,67.7,60.5,73.7,64.4,73.7L64.4,73.7z"/>
		</g>
	</g>
	<g>
		<path class="st5" d="M61,68.8"/>
		<g>
			<path class="st6" d="M61,71.8c3.9,0,3.9-6,0-6C57.1,65.8,57.1,71.8,61,71.8L61,71.8z"/>
		</g>
	</g>
	<g>
		<path class="st5" d="M58,72.2"/>
		<g>
			<path class="st6" d="M58,75.2c3.9,0,3.9-6,0-6C54.1,69.2,54.1,75.2,58,75.2L58,75.2z"/>
		</g>
	</g>
	<g>
		<path class="st5" d="M61.4,72.3"/>
		<g>
			<path class="st6" d="M61.4,75.3c3.9,0,3.9-6,0-6C57.5,69.3,57.5,75.3,61.4,75.3L61.4,75.3z"/>
		</g>
	</g>
	<g>
		<path class="st5" d="M77.2,45.4"/>
		<g>
			<path class="st6" d="M77.2,48.4c3.9,0,3.9-6,0-6C73.4,42.4,73.4,48.4,77.2,48.4L77.2,48.4z"/>
		</g>
	</g>
	<g>
		<path class="st5" d="M79.1,47.2"/>
		<g>
			<path class="st6" d="M79.1,50.2c3.9,0,3.9-6,0-6C75.2,44.2,75.2,50.2,79.1,50.2L79.1,50.2z"/>
		</g>
	</g>
	<g>
		<path class="st5" d="M76.9,49.9"/>
		<g>
			<path class="st6" d="M76.9,52.9c3.9,0,3.9-6,0-6C73,46.9,73,52.9,76.9,52.9L76.9,52.9z"/>
		</g>
	</g>
	<g>
		<path class="st5" d="M74.5,52.7"/>
		<g>
			<path class="st6" d="M74.5,55.7c3.9,0,3.9-6,0-6C70.6,49.7,70.6,55.7,74.5,55.7L74.5,55.7z"/>
		</g>
	</g>
	<g>
		<path class="st5" d="M76.9,54.7"/>
		<g>
			<path class="st6" d="M76.9,57.7c3.9,0,3.9-6,0-6C73,51.7,73,57.7,76.9,57.7L76.9,57.7z"/>
		</g>
	</g>
	<g>
		<path class="st5" d="M78.7,59"/>
		<g>
			<path class="st6" d="M78.7,62c3.9,0,3.9-6,0-6C74.9,56,74.9,62,78.7,62L78.7,62z"/>
		</g>
	</g>
	<g>
		<path class="st5" d="M74.9,61.2"/>
		<g>
			<path class="st6" d="M74.9,64.2c3.9,0,3.9-6,0-6C71,58.2,71,64.2,74.9,64.2L74.9,64.2z"/>
		</g>
	</g>
	<g>
		<path class="st5" d="M74.2,58.8"/>
		<g>
			<path class="st6" d="M74.2,61.8c3.9,0,3.9-6,0-6C70.4,55.8,70.4,61.8,74.2,61.8L74.2,61.8z"/>
		</g>
	</g>
	<g>
		<path class="st5" d="M72.2,55.7"/>
		<g>
			<path class="st6" d="M72.2,58.7c3.9,0,3.9-6,0-6C68.4,52.7,68.4,58.7,72.2,58.7L72.2,58.7z"/>
		</g>
	</g>
	<g>
		<path class="st5" d="M71,61"/>
		<g>
			<path class="st6" d="M71,64c3.9,0,3.9-6,0-6C67.1,58,67.1,64,71,64L71,64z"/>
		</g>
	</g>
	<g>
		<path class="st5" d="M73.1,64"/>
		<g>
			<path class="st6" d="M73.1,67c3.9,0,3.9-6,0-6C69.2,61,69.2,67,73.1,67L73.1,67z"/>
		</g>
	</g>
	<g>
		<path class="st5" d="M71.4,67.3"/>
		<g>
			<path class="st6" d="M71.4,70.3c3.9,0,3.9-6,0-6C67.5,64.3,67.5,70.3,71.4,70.3L71.4,70.3z"/>
		</g>
	</g>
	<g>
		<path class="st5" d="M68,69"/>
		<g>
			<path class="st6" d="M68,72c3.9,0,3.9-6,0-6C64.1,66,64.1,72,68,72L68,72z"/>
		</g>
	</g>
	<g>
		<path class="st5" d="M70.4,72.3"/>
		<g>
			<path class="st6" d="M70.4,75.3c3.9,0,3.9-6,0-6C66.5,69.3,66.5,75.3,70.4,75.3L70.4,75.3z"/>
		</g>
	</g>
	<g>
		<path class="st5" d="M67.6,74.2"/>
		<g>
			<path class="st6" d="M67.6,77.2c3.9,0,3.9-6,0-6C63.7,71.2,63.7,77.2,67.6,77.2L67.6,77.2z"/>
		</g>
	</g>
	<g>
		<path class="st5" d="M65.9,77.4"/>
		<g>
			<path class="st6" d="M65.9,80.4c3.9,0,3.9-6,0-6C62,74.4,62,80.4,65.9,80.4L65.9,80.4z"/>
		</g>
	</g>
	<g>
		<path class="st5" d="M63.7,75.3"/>
		<g>
			<path class="st6" d="M63.7,78.3c3.9,0,3.9-6,0-6C59.9,72.3,59.9,78.3,63.7,78.3L63.7,78.3z"/>
		</g>
	</g>
	<g>
		<path class="st5" d="M59.5,75.3"/>
		<g>
			<path class="st6" d="M59.5,78.3c3.9,0,3.9-6,0-6C55.6,72.3,55.6,78.3,59.5,78.3L59.5,78.3z"/>
		</g>
	</g>
	<g>
		<path class="st5" d="M55.2,75.4"/>
		<g>
			<path class="st6" d="M55.2,78.4c3.9,0,3.9-6,0-6C51.4,72.4,51.4,78.4,55.2,78.4L55.2,78.4z"/>
		</g>
	</g>
	<g>
		<path class="st5" d="M59.5,78.9"/>
		<g>
			<path class="st6" d="M59.5,81.9c3.9,0,3.9-6,0-6C55.6,75.9,55.6,81.9,59.5,81.9L59.5,81.9z"/>
		</g>
	</g>
	<g>
		<path class="st5" d="M63.7,79.7"/>
		<g>
			<path class="st6" d="M63.7,82.7c3.9,0,3.9-6,0-6C59.9,76.7,59.9,82.7,63.7,82.7L63.7,82.7z"/>
		</g>
	</g>
	<g>
		<path class="st5" d="M62.2,82.5"/>
		<g>
			<path class="st6" d="M62.2,85.5c3.9,0,3.9-6,0-6C58.4,79.5,58.4,85.5,62.2,85.5L62.2,85.5z"/>
		</g>
	</g>
	<g>
		<path class="st5" d="M52.7,78.5"/>
		<g>
			<path class="st6" d="M52.7,81.5c3.9,0,3.9-6,0-6C48.9,75.5,48.9,81.5,52.7,81.5L52.7,81.5z"/>
		</g>
	</g>
	<g>
		<path class="st5" d="M49.6,79.5"/>
		<g>
			<path class="st6" d="M49.6,82.5c3.9,0,3.9-6,0-6C45.7,76.5,45.7,82.5,49.6,82.5L49.6,82.5z"/>
		</g>
	</g>
	<g>
		<path class="st5" d="M46.2,80.3"/>
		<g>
			<path class="st6" d="M46.2,83.3c3.9,0,3.9-6,0-6C42.4,77.3,42.4,83.3,46.2,83.3L46.2,83.3z"/>
		</g>
	</g>
	<g>
		<path class="st5" d="M43.5,77.7"/>
		<g>
			<path class="st6" d="M43.5,80.7c3.9,0,3.9-6,0-6C39.6,74.7,39.6,80.7,43.5,80.7L43.5,80.7z"/>
		</g>
	</g>
	<g>
		<path class="st5" d="M48.1,77.5"/>
		<g>
			<path class="st6" d="M48.1,80.5c3.9,0,3.9-6,0-6C44.2,74.5,44.2,80.5,48.1,80.5L48.1,80.5z"/>
		</g>
	</g>
	<g>
		<path class="st5" d="M32.7,68.9"/>
		<g>
			<path class="st6" d="M32.7,71.9c3.9,0,3.9-6,0-6C28.9,65.9,28.9,71.9,32.7,71.9L32.7,71.9z"/>
		</g>
	</g>
	<g>
		<path class="st5" d="M34.7,71.3"/>
		<g>
			<path class="st6" d="M34.7,74.3c3.9,0,3.9-6,0-6C30.9,68.3,30.9,74.3,34.7,74.3L34.7,74.3z"/>
		</g>
	</g>
	<g>
		<path class="st5" d="M37.4,72.5"/>
		<g>
			<path class="st6" d="M37.4,75.5c3.9,0,3.9-6,0-6C33.5,69.5,33.5,75.5,37.4,75.5L37.4,75.5z"/>
		</g>
	</g>
	<g>
		<path class="st5" d="M39.6,73.3"/>
		<g>
			<path class="st6" d="M39.6,76.3c3.9,0,3.9-6,0-6C35.7,70.3,35.7,76.3,39.6,76.3L39.6,76.3z"/>
		</g>
	</g>
	<g>
		<path class="st5" d="M40.1,77.9"/>
		<g>
			<path class="st6" d="M40.1,80.9c3.9,0,3.9-6,0-6C36.2,74.9,36.2,80.9,40.1,80.9L40.1,80.9z"/>
		</g>
	</g>
	<g>
		<path class="st5" d="M54.9,78.8"/>
		<g>
			<path class="st6" d="M54.9,81.8c3.9,0,3.9-6,0-6C51,75.8,51,81.8,54.9,81.8L54.9,81.8z"/>
		</g>
	</g>
	<g>
		<path class="st5" d="M58,81.4"/>
		<g>
			<path class="st6" d="M58,84.4c3.9,0,3.9-6,0-6C54.1,78.4,54.1,84.4,58,84.4L58,84.4z"/>
		</g>
	</g>
	<g>
		<path class="st5" d="M59.2,84.5"/>
		<g>
			<path class="st6" d="M59.2,87.5c3.9,0,3.9-6,0-6C55.4,81.5,55.4,87.5,59.2,87.5L59.2,87.5z"/>
		</g>
	</g>
	<g>
		<path class="st5" d="M54.5,87.3"/>
		<g>
			<path class="st6" d="M54.5,90.3c3.9,0,3.9-6,0-6C50.6,84.3,50.6,90.3,54.5,90.3L54.5,90.3z"/>
		</g>
	</g>
	<g>
		<path class="st5" d="M54.9,84.5"/>
		<g>
			<path class="st6" d="M54.9,87.5c3.9,0,3.9-6,0-6C51,81.5,51,87.5,54.9,87.5L54.9,87.5z"/>
		</g>
	</g>
	<g>
		<path class="st5" d="M51.5,82.5"/>
		<g>
			<path class="st6" d="M51.5,85.5c3.9,0,3.9-6,0-6C47.6,79.5,47.6,85.5,51.5,85.5L51.5,85.5z"/>
		</g>
	</g>
	<g>
		<path class="st5" d="M52.1,85.5"/>
		<g>
			<path class="st6" d="M52.1,88.5c3.9,0,3.9-6,0-6C48.2,82.5,48.2,88.5,52.1,88.5L52.1,88.5z"/>
		</g>
	</g>
	<g>
		<path class="st5" d="M47.9,83.5"/>
		<g>
			<path class="st6" d="M47.9,86.5c3.9,0,3.9-6,0-6C44,80.5,44,86.5,47.9,86.5L47.9,86.5z"/>
		</g>
	</g>
	<g>
		<path class="st5" d="M41.7,82.4"/>
		<g>
			<path class="st6" d="M41.7,85.4c3.9,0,3.9-6,0-6C37.9,79.4,37.9,85.4,41.7,85.4L41.7,85.4z"/>
		</g>
	</g>
	<g>
		<path class="st5" d="M45,84.4"/>
		<g>
			<path class="st6" d="M45,87.4c3.9,0,3.9-6,0-6C41.1,81.4,41.1,87.4,45,87.4L45,87.4z"/>
		</g>
	</g>
	<g>
		<path class="st5" d="M46.7,86.5"/>
		<g>
			<path class="st6" d="M46.7,89.5c3.9,0,3.9-6,0-6C42.9,83.5,42.9,89.5,46.7,89.5L46.7,89.5z"/>
		</g>
	</g>
	<g>
		<path class="st5" d="M49.4,86.8"/>
		<g>
			<path class="st6" d="M49.4,89.8c3.9,0,3.9-6,0-6C45.5,83.8,45.5,89.8,49.4,89.8L49.4,89.8z"/>
		</g>
	</g>
	<g>
		<path class="st5" d="M25.6,57.9c0.1,0,0.2,0,0.3,0"/>
		<g>
			<path class="st6" d="M25.6,60.9c0.1,0,0.2,0,0.3,0c1.6,0,3.1-1.4,3-3c-0.1-1.6-1.3-3-3-3c-0.1,0-0.2,0-0.3,0c-1.6,0-3.1,1.4-3,3
				C22.7,59.5,23.9,60.9,25.6,60.9L25.6,60.9z"/>
		</g>
	</g>
	<g>
		<path class="st5" d="M27,61.3"/>
		<g>
			<path class="st6" d="M27,64.3c3.9,0,3.9-6,0-6C23.1,58.3,23.1,64.3,27,64.3L27,64.3z"/>
		</g>
	</g>
	<g>
		<path class="st5" d="M27.6,63.9c0,0,0.1,0.1,0.1,0.1"/>
		<g>
			<path class="st6" d="M25.5,66c0,0,0.1,0.1,0.1,0.1c1.1,1.1,3.1,1.2,4.2,0c1.1-1.2,1.2-3.1,0-4.2c0,0-0.1-0.1-0.1-0.1
				c-1.1-1.1-3.1-1.2-4.2,0C24.4,63,24.3,64.9,25.5,66L25.5,66z"/>
		</g>
	</g>
	<g>
		<path class="st5" d="M27.2,67.2"/>
		<g>
			<path class="st6" d="M27.2,70.2c3.9,0,3.9-6,0-6C23.4,64.2,23.4,70.2,27.2,70.2L27.2,70.2z"/>
		</g>
	</g>
	<g>
		<path class="st5" d="M29.2,69.5c0.1,0.1,0.2,0.2,0.3,0.3"/>
		<g>
			<path class="st6" d="M27.1,71.7c0.1,0.1,0.2,0.2,0.3,0.3c1.1,1.1,3.1,1.2,4.2,0c1.1-1.2,1.2-3.1,0-4.2c-0.1-0.1-0.2-0.2-0.3-0.3
				c-1.1-1.1-3.1-1.2-4.2,0C26,68.6,25.9,70.5,27.1,71.7L27.1,71.7z"/>
		</g>
	</g>
	<g>
		<path class="st5" d="M30.8,72.3c0.1,0.2,0.2,0.3,0.3,0.5"/>
		<g>
			<path class="st6" d="M28.3,73.8c0.1,0.2,0.2,0.3,0.3,0.5c0.7,1.4,2.8,1.9,4.1,1.1c1.4-0.9,1.8-2.6,1.1-4.1
				c-0.1-0.2-0.2-0.3-0.3-0.5c-0.7-1.4-2.8-1.9-4.1-1.1C27.9,70.6,27.5,72.3,28.3,73.8L28.3,73.8z"/>
		</g>
	</g>
	<g>
		<path class="st5" d="M32.4,75.2c0,0.1,0.1,0.2,0.1,0.3"/>
		<g>
			<path class="st6" d="M29.8,76.7c0,0.1,0.1,0.2,0.1,0.3c0.7,1.4,2.8,1.9,4.1,1.1c1.4-0.9,1.8-2.6,1.1-4.1c0-0.1-0.1-0.2-0.1-0.3
				c-0.7-1.4-2.8-1.9-4.1-1.1C29.4,73.5,29,75.2,29.8,76.7L29.8,76.7z"/>
		</g>
	</g>
	<g>
		<path class="st5" d="M35,76.5"/>
		<g>
			<path class="st6" d="M35,79.5c3.9,0,3.9-6,0-6C31.1,73.5,31.1,79.5,35,79.5L35,79.5z"/>
		</g>
	</g>
	<g>
		<path class="st5" d="M36.5,76.3"/>
		<g>
			<path class="st6" d="M36.5,79.3c3.9,0,3.9-6,0-6C32.6,73.3,32.6,79.3,36.5,79.3L36.5,79.3z"/>
		</g>
	</g>
	<g>
		<path class="st5" d="M35.6,79.2"/>
		<g>
			<path class="st6" d="M35.6,82.2c3.9,0,3.9-6,0-6C31.7,76.2,31.7,82.2,35.6,82.2L35.6,82.2z"/>
		</g>
	</g>
	<g>
		<path class="st5" d="M36.4,81.7"/>
		<g>
			<path class="st6" d="M36.4,84.7c3.9,0,3.9-6,0-6C32.5,78.7,32.5,84.7,36.4,84.7L36.4,84.7z"/>
		</g>
	</g>
	<g>
		<path class="st5" d="M37.6,82.3c0.2,0,0.3,0.1,0.4,0.2"/>
		<g>
			<path class="st6" d="M37.6,85.3c0,0,0.1,0,0.1,0c-0.5-0.1-1-0.3-1.5-0.4c-0.3-0.3-0.6-0.6-0.8-0.8c0.7,1.4,2.8,1.9,4.1,1.1
				c1.4-0.9,1.8-2.6,1.1-4.1c-0.6-1.1-1.8-1.6-3-1.7c-1.6-0.1-3.1,1.5-3,3C34.7,84,35.9,85.2,37.6,85.3L37.6,85.3z"/>
		</g>
	</g>
	<g>
		<path class="st5" d="M40.4,85.9"/>
		<g>
			<path class="st6" d="M40.4,88.9c3.9,0,3.9-6,0-6C36.5,82.9,36.5,88.9,40.4,88.9L40.4,88.9z"/>
		</g>
	</g>
	<g>
		<path class="st5" d="M43.4,88.7"/>
		<g>
			<path class="st6" d="M43.4,91.7c3.9,0,3.9-6,0-6C39.5,85.7,39.5,91.7,43.4,91.7L43.4,91.7z"/>
		</g>
	</g>
	<g>
		<path class="st5" d="M77.7,62.7"/>
		<g>
			<path class="st6" d="M77.7,65.7c3.9,0,3.9-6,0-6C73.9,59.7,73.9,65.7,77.7,65.7L77.7,65.7z"/>
		</g>
	</g>
	<g>
		<path class="st5" d="M79.4,57.9c0-0.1,0.1-0.2,0.1-0.2"/>
		<g>
			<path class="st6" d="M82,59.4c0-0.1,0.1-0.2,0.1-0.2c0.7-1.4,0.4-3.3-1.1-4.1c-1.4-0.7-3.4-0.4-4.1,1.1c0,0.1-0.1,0.2-0.1,0.2
				c-0.7,1.4-0.4,3.3,1.1,4.1C79.2,61.2,81.2,60.9,82,59.4L82,59.4z"/>
		</g>
	</g>
	<g>
		<path class="st5" d="M79.5,54"/>
		<g>
			<path class="st6" d="M79.5,57c3.9,0,3.9-6,0-6C75.6,51,75.6,57,79.5,57L79.5,57z"/>
		</g>
	</g>
	<g>
		<path class="st5" d="M80,50.7"/>
		<g>
			<path class="st6" d="M80,53.7c3.9,0,3.9-6,0-6C76.1,47.7,76.1,53.7,80,53.7L80,53.7z"/>
		</g>
	</g>
	<g>
		<path class="st5" d="M77.9,64.9"/>
		<g>
			<path class="st6" d="M77.9,67.9c3.9,0,3.9-6,0-6C74,61.9,74,67.9,77.9,67.9L77.9,67.9z"/>
		</g>
	</g>
	<g>
		<path class="st5" d="M77.2,68.4"/>
		<g>
			<path class="st6" d="M77.2,71.4c3.9,0,3.9-6,0-6C73.4,65.4,73.4,71.4,77.2,71.4L77.2,71.4z"/>
		</g>
	</g>
	<g>
		<path class="st5" d="M74,67c0,0,0-0.1,0-0.1"/>
		<g>
			<path class="st6" d="M77,67c0,0,0-0.1,0-0.1c0-1.6-1.4-3.1-3-3c-1.6,0.1-3,1.3-3,3c0,0,0,0.1,0,0.1c0,1.6,1.4,3.1,3,3
				C75.6,70,77,68.7,77,67L77,67z"/>
		</g>
	</g>
	<g>
		<path class="st5" d="M73.5,71.8"/>
		<g>
			<path class="st6" d="M73.5,74.8c3.9,0,3.9-6,0-6C69.6,68.8,69.6,74.8,73.5,74.8L73.5,74.8z"/>
		</g>
	</g>
	<g>
		<path class="st5" d="M75.6,71.5"/>
		<g>
			<path class="st6" d="M75.6,74.5c3.9,0,3.9-6,0-6C71.7,68.5,71.7,74.5,75.6,74.5L75.6,74.5z"/>
		</g>
	</g>
	<g>
		<path class="st5" d="M71.2,75.5"/>
		<g>
			<path class="st6" d="M71.2,78.5c3.9,0,3.9-6,0-6C67.4,72.5,67.4,78.5,71.2,78.5L71.2,78.5z"/>
		</g>
	</g>
	<g>
		<path class="st5" d="M73.6,74.9"/>
		<g>
			<path class="st6" d="M73.6,77.9c3.9,0,3.9-6,0-6C69.7,71.9,69.7,77.9,73.6,77.9L73.6,77.9z"/>
		</g>
	</g>
	<g>
		<path class="st5" d="M70.1,79.7"/>
		<g>
			<path class="st6" d="M70.1,82.7c3.9,0,3.9-6,0-6C66.2,76.7,66.2,82.7,70.1,82.7L70.1,82.7z"/>
		</g>
	</g>
	<g>
		<path class="st5" d="M67,81.9"/>
		<g>
			<path class="st6" d="M67,84.9c3.9,0,3.9-6,0-6C63.1,78.9,63.1,84.9,67,84.9L67,84.9z"/>
		</g>
	</g>
	<g>
		<path class="st5" d="M64.7,83.7"/>
		<g>
			<path class="st6" d="M64.7,86.7c3.9,0,3.9-6,0-6C60.9,80.7,60.9,86.7,64.7,86.7L64.7,86.7z"/>
		</g>
	</g>
	<g>
		<path class="st5" d="M62.2,86.8"/>
		<g>
			<path class="st6" d="M62.2,89.8c3.9,0,3.9-6,0-6C58.4,83.8,58.4,89.8,62.2,89.8L62.2,89.8z"/>
		</g>
	</g>
	<g>
		<path class="st5" d="M58.4,88.3"/>
		<g>
			<path class="st6" d="M58.4,91.3c3.9,0,3.9-6,0-6C54.5,85.3,54.5,91.3,58.4,91.3L58.4,91.3z"/>
		</g>
	</g>
	<g>
		<path class="st5" d="M51.5,89.9"/>
		<g>
			<path class="st6" d="M51.5,92.9c3.9,0,3.9-6,0-6C47.6,86.9,47.6,92.9,51.5,92.9L51.5,92.9z"/>
		</g>
	</g>
	<g>
		<path class="st5" d="M55.1,90.7"/>
		<g>
			<path class="st6" d="M55.1,93.7c3.9,0,3.9-6,0-6C51.2,87.7,51.2,93.7,55.1,93.7L55.1,93.7z"/>
		</g>
	</g>
	<g>
		<path class="st5" d="M46.4,90.2"/>
		<g>
			<path class="st6" d="M46.4,93.2c3.9,0,3.9-6,0-6C42.5,87.2,42.5,93.2,46.4,93.2L46.4,93.2z"/>
		</g>
	</g>
	<g>
		<path class="st5" d="M27.4,42.3"/>
		<g>
			<path class="st6" d="M27.4,45.3c3.9,0,3.9-6,0-6C23.5,39.3,23.5,45.3,27.4,45.3L27.4,45.3z"/>
		</g>
	</g>
	<g>
		<path class="st5" d="M27,38.8"/>
		<g>
			<path class="st6" d="M27,41.8c3.9,0,3.9-6,0-6C23.1,35.8,23.1,41.8,27,41.8L27,41.8z"/>
		</g>
	</g>
	<g>
		<path class="st5" d="M29,39.2"/>
		<g>
			<path class="st6" d="M29,42.2c3.9,0,3.9-6,0-6C25.1,36.2,25.1,42.2,29,42.2L29,42.2z"/>
		</g>
	</g>
	<g>
		<path class="st5" d="M30.1,44.3"/>
		<g>
			<path class="st6" d="M30.1,47.3c3.9,0,3.9-6,0-6C26.2,41.3,26.2,47.3,30.1,47.3L30.1,47.3z"/>
		</g>
	</g>
	<g>
		<path class="st5" d="M76.4,39.8"/>
		<g>
			<path class="st6" d="M76.4,42.8c3.9,0,3.9-6,0-6C72.5,36.8,72.5,42.8,76.4,42.8L76.4,42.8z"/>
		</g>
	</g>
	<g>
		<path class="st5" d="M79.1,39"/>
		<g>
			<path class="st6" d="M79.1,42c3.9,0,3.9-6,0-6C75.2,36,75.2,42,79.1,42L79.1,42z"/>
		</g>
	</g>
	<g>
		<path class="st5" d="M79.1,43.2"/>
		<g>
			<path class="st6" d="M79.1,46.2c3.9,0,3.9-6,0-6C75.2,40.2,75.2,46.2,79.1,46.2L79.1,46.2z"/>
		</g>
	</g>
	<g>
		<path class="st5" d="M74.2,42.5"/>
		<g>
			<path class="st6" d="M74.2,45.5c3.9,0,3.9-6,0-6C70.4,39.5,70.4,45.5,74.2,45.5L74.2,45.5z"/>
		</g>
	</g>
	<g>
		<path class="st5" d="M74.6,47.3"/>
		<g>
			<path class="st6" d="M74.6,50.3c3.9,0,3.9-6,0-6C70.7,44.3,70.7,50.3,74.6,50.3L74.6,50.3z"/>
		</g>
	</g>
</g>
<g>
	<g>
		<path class="st7" d="M39.8,10.8c0.6,0,0.6-1,0-1C39.2,9.8,39.2,10.8,39.8,10.8L39.8,10.8z"/>
	</g>
</g>
<g>
	<g>
		<path class="st7" d="M44.2,9.9c0.6,0,0.6-1,0-1C43.6,8.9,43.6,9.9,44.2,9.9L44.2,9.9z"/>
	</g>
</g>
<g>
	<g>
		<path class="st7" d="M36.2,12.9c0.6,0,0.6-1,0-1C35.6,11.9,35.6,12.9,36.2,12.9L36.2,12.9z"/>
	</g>
</g>
<g>
	<g>
		<path class="st7" d="M41.8,11.3c0.6,0,0.6-1,0-1C41.2,10.3,41.2,11.3,41.8,11.3L41.8,11.3z"/>
	</g>
</g>
<g>
	<g>
		<path class="st7" d="M46.7,9.6c0.6,0,0.6-1,0-1C46.1,8.6,46.1,9.6,46.7,9.6L46.7,9.6z"/>
	</g>
</g>
<g>
	<g>
		<path class="st7" d="M52.3,9.5c0.6,0,0.6-1,0-1C51.7,8.5,51.7,9.5,52.3,9.5L52.3,9.5z"/>
	</g>
</g>
<g>
	<g>
		<path class="st7" d="M50.3,9.1c0.6,0,0.6-1,0-1C49.7,8.1,49.7,9.1,50.3,9.1L50.3,9.1z"/>
	</g>
</g>
<g>
	<g>
		<path class="st7" d="M55.2,9c0.6,0,0.6-1,0-1C54.6,8,54.6,9,55.2,9L55.2,9z"/>
	</g>
</g>
<g>
	<g>
		<path class="st7" d="M63.2,10.3c0.6,0,0.6-1,0-1C62.6,9.3,62.6,10.3,63.2,10.3L63.2,10.3z"/>
	</g>
</g>
<g>
	<g>
		<path class="st7" d="M60.3,9.8c0.6,0,0.6-1,0-1C59.7,8.8,59.7,9.8,60.3,9.8L60.3,9.8z"/>
	</g>
</g>
<g>
	<g>
		<path class="st7" d="M57.7,9.4c0.6,0,0.6-1,0-1C57.1,8.4,57.1,9.4,57.7,9.4L57.7,9.4z"/>
	</g>
</g>
<g>
	<g>
		<path class="st7" d="M54.5,10.8c0.6,0,0.6-1,0-1C53.8,9.8,53.8,10.8,54.5,10.8L54.5,10.8z"/>
	</g>
</g>
<g>
	<g>
		<path class="st7" d="M50.6,11.6c0.6,0,0.6-1,0-1C49.9,10.6,49.9,11.6,50.6,11.6L50.6,11.6z"/>
	</g>
</g>
<g>
	<g>
		<path class="st7" d="M48.5,10.1c0.6,0,0.6-1,0-1C47.8,9.1,47.8,10.1,48.5,10.1L48.5,10.1z"/>
	</g>
</g>
<g>
	<g>
		<path class="st7" d="M45.5,11.9c0.6,0,0.6-1,0-1C44.8,10.9,44.8,11.9,45.5,11.9L45.5,11.9z"/>
	</g>
</g>
<g>
	<g>
		<path class="st7" d="M47.7,12.1c0.6,0,0.6-1,0-1C47.1,11.1,47.1,12.1,47.7,12.1L47.7,12.1z"/>
	</g>
</g>
<g>
	<g>
		<path class="st7" d="M42.8,12.4c0.6,0,0.6-1,0-1C42.2,11.4,42.2,12.4,42.8,12.4L42.8,12.4z"/>
	</g>
</g>
<g>
	<g>
		<path class="st7" d="M38.2,12.4c0.6,0,0.6-1,0-1C37.6,11.4,37.6,12.4,38.2,12.4L38.2,12.4z"/>
	</g>
</g>
<g>
	<g>
		<path class="st7" d="M40.7,12.8c0.6,0,0.6-1,0-1C40.1,11.8,40.1,12.8,40.7,12.8L40.7,12.8z"/>
	</g>
</g>
<g>
	<g>
		<path class="st7" d="M56.1,11.1c0.6,0,0.6-1,0-1C55.4,10.1,55.4,11.1,56.1,11.1L56.1,11.1z"/>
	</g>
</g>
<g>
	<g>
		<path class="st7" d="M59.3,10.8c0.6,0,0.6-1,0-1C58.7,9.8,58.7,10.8,59.3,10.8L59.3,10.8z"/>
	</g>
</g>
<g>
	<g>
		<path class="st7" d="M61.8,11.6c0.6,0,0.6-1,0-1C61.2,10.6,61.2,11.6,61.8,11.6L61.8,11.6z"/>
	</g>
</g>
<g>
	<g>
		<path class="st7" d="M64.3,10.8c0.6,0,0.6-1,0-1C63.7,9.8,63.7,10.8,64.3,10.8L64.3,10.8z"/>
	</g>
</g>
<g>
	<g>
		<path class="st7" d="M64.6,12.6c0.6,0,0.6-1,0-1C63.9,11.6,63.9,12.6,64.6,12.6L64.6,12.6z"/>
	</g>
</g>
<g>
	<g>
		<path class="st7" d="M66.3,12.3c0.6,0,0.6-1,0-1C65.7,11.3,65.7,12.3,66.3,12.3L66.3,12.3z"/>
	</g>
</g>
<g>
	<g>
		<path class="st7" d="M69,12.9c0.6,0,0.6-1,0-1C68.3,11.9,68.3,12.9,69,12.9L69,12.9z"/>
	</g>
</g>
<g>
	<g>
		<path class="st7" d="M66.7,11c0.6,0,0.6-1,0-1C66.1,10,66.1,11,66.7,11L66.7,11z"/>
	</g>
</g>
<g>
	<g>
		<path class="st7" d="M70.6,14.8c0.6,0,0.6-1,0-1C69.9,13.8,69.9,14.8,70.6,14.8L70.6,14.8z"/>
	</g>
</g>
<g>
	<g>
		<path class="st7" d="M72.6,16c0.6,0,0.6-1,0-1C71.9,15,71.9,16,72.6,16L72.6,16z"/>
	</g>
</g>
<g>
	<g>
		<path class="st7" d="M72.5,17.6c0.6,0,0.6-1,0-1C71.8,16.6,71.8,17.6,72.5,17.6L72.5,17.6z"/>
	</g>
</g>
<g>
	<g>
		<path class="st7" d="M74.1,18.3c0.6,0,0.6-1,0-1C73.4,17.3,73.4,18.3,74.1,18.3L74.1,18.3z"/>
	</g>
</g>
<g>
	<g>
		<path class="st7" d="M74.8,20.5c0.6,0,0.6-1,0-1C74.2,19.5,74.2,20.5,74.8,20.5L74.8,20.5z"/>
	</g>
</g>
<g>
	<g>
		<path class="st7" d="M74.3,21.4c0.6,0,0.6-1,0-1C73.7,20.4,73.7,21.4,74.3,21.4L74.3,21.4z"/>
	</g>
</g>
<g>
	<g>
		<path class="st7" d="M76.1,24c0.6,0,0.6-1,0-1C75.4,23,75.4,24,76.1,24L76.1,24z"/>
	</g>
</g>
<g>
	<g>
		<path class="st7" d="M76.1,26.3c0.6,0,0.6-1,0-1C75.4,25.3,75.4,26.3,76.1,26.3L76.1,26.3z"/>
	</g>
</g>
<g>
	<g>
		<path class="st7" d="M36.7,14.4c0.6,0,0.6-1,0-1C36.1,13.4,36.1,14.4,36.7,14.4L36.7,14.4z"/>
	</g>
</g>
<g>
	<g>
		<path class="st7" d="M33.6,15.1c0.6,0,0.6-1,0-1C32.9,14.1,32.9,15.1,33.6,15.1L33.6,15.1z"/>
	</g>
</g>
<g>
	<g>
		<path class="st7" d="M35.5,15.9c0.6,0,0.6-1,0-1C34.8,14.9,34.8,15.9,35.5,15.9L35.5,15.9z"/>
	</g>
</g>
<g>
	<g>
		<path class="st7" d="M32,17.5c0.6,0,0.6-1,0-1C31.3,16.5,31.3,17.5,32,17.5L32,17.5z"/>
	</g>
</g>
<g>
	<g>
		<path class="st7" d="M33.7,17c0.6,0,0.6-1,0-1C33.1,16,33.1,17,33.7,17L33.7,17z"/>
	</g>
</g>
<g>
	<g>
		<path class="st7" d="M31.5,19.9c0.6,0,0.6-1,0-1C30.8,18.9,30.8,19.9,31.5,19.9L31.5,19.9z"/>
	</g>
</g>
<g>
	<g>
		<path class="st7" d="M29.7,20.4c0.6,0,0.6-1,0-1C29.1,19.4,29.1,20.4,29.7,20.4L29.7,20.4z"/>
	</g>
</g>
<g>
	<g>
		<path class="st7" d="M30.5,22.4c0.6,0,0.6-1,0-1C29.8,21.4,29.8,22.4,30.5,22.4L30.5,22.4z"/>
	</g>
</g>
<g>
	<g>
		<path class="st7" d="M28.7,23.8c0.6,0,0.6-1,0-1C28.1,22.8,28.1,23.8,28.7,23.8L28.7,23.8z"/>
	</g>
</g>
<g>
	<g>
		<path class="st7" d="M29.6,24.9c0.6,0,0.6-1,0-1C28.9,23.9,28.9,24.9,29.6,24.9L29.6,24.9z"/>
	</g>
</g>
<g>
	<g>
		<path class="st7" d="M28.6,26.5c0.6,0,0.6-1,0-1C27.9,25.5,27.9,26.5,28.6,26.5L28.6,26.5z"/>
	</g>
</g>
<g>
	<g>
		<path class="st7" d="M67.1,13.8c0.6,0,0.6-1,0-1C66.4,12.8,66.4,13.8,67.1,13.8L67.1,13.8z"/>
	</g>
</g>
<g>
	<g>
		<path class="st8" d="M43.1,51.7c3.2,2.3,7.2,4.7,11.2,5.2c3.1,0.4,5.6-1.5,8-3.2c0.5-0.4,0-1.2-0.5-0.9c-2.9,2.1-5.8,3.8-9.6,2.5
			c-3.1-1-5.9-2.6-8.6-4.5C43,50.4,42.5,51.3,43.1,51.7L43.1,51.7z"/>
	</g>
</g>
<g>
	<g>
		<path class="st8" d="M41,49.1c-0.4,0.8-0.6,1.6-0.6,2.5c0,0.6,1,0.6,1,0c0-0.7,0.2-1.4,0.5-2C42.1,49,41.3,48.5,41,49.1L41,49.1z"
			/>
	</g>
</g>
<g>
	<g>
		<path class="st8" d="M40.5,46.4c-1.7,1.9-2.6,4.2-2.6,6.7c0,0.6,1,0.6,1,0c0-2.3,0.8-4.3,2.3-6C41.6,46.6,40.9,45.9,40.5,46.4
			L40.5,46.4z"/>
	</g>
</g>
<circle class="st8" cx="42.7" cy="30" r="1.8"/>
<circle class="st8" cx="63.2" cy="29.9" r="1.8"/>
<path class="st9" d="M74.3,166H31c-3.5,0-6.4-2.9-6.4-6.4V104c0-3.5,2.9-6.4,6.4-6.4h43.3c3.5,0,6.4,2.9,6.4,6.4v55.7
	C80.7,163.2,77.8,166,74.3,166z"/>
<rect x="66.2" y="107.9" class="st10" width="7.8" height="7.8"/>
<path class="st11" d="M72.3,120.8h-4.5c-1.6,0-2.9-1.3-2.9-2.9v-4.5c0-1.6,1.3-2.9,2.9-2.9h4.5c1.6,0,2.9,1.3,2.9,2.9v4.5
	C75.2,119.5,73.9,120.8,72.3,120.8z"/>
<g>
	<path class="st12" d="M97.8,262.3H55.7V239h24.2c9.9,0,18,8.1,18,18V262.3z"/>
	<rect x="55.7" y="258.4" class="st13" width="42.2" height="3.9"/>
	<rect x="55.7" y="260.3" class="st14" width="42.2" height="1"/>
</g>
<path class="st0" d="M66.3,246h-5.4c-2.9,0-5.2-2.3-5.2-5.2V232c0-2.9,2.3-5.2,5.2-5.2h5.4c2.9,0,5.2,2.3,5.2,5.2v8.8
	C71.5,243.6,69.1,246,66.3,246z"/>
<path class="st15" d="M71.5,237.2H55.7V165c0-3.3,2.7-6,6-6h3.8c3.3,0,6,2.7,6,6V237.2z"/>
<path class="st16" d="M70.1,237.2H57c-1.7,0-3-1.3-3-3v-1.3c0-1.7,1.3-3,3-3h13.1c1.7,0,3,1.3,3,3v1.3
	C73.1,235.9,71.8,237.2,70.1,237.2z"/>
<g>
	<path class="st12" d="M5.8,262.3h42.2V239H23.8c-9.9,0-18,8.1-18,18V262.3z"/>
	
		<rect x="5.8" y="258.4" transform="matrix(-1 -4.486379e-11 4.486379e-11 -1 53.732 520.6725)" class="st13" width="42.2" height="3.9"/>
	
		<rect x="5.8" y="260.3" transform="matrix(-1 -4.494994e-11 4.494994e-11 -1 53.732 521.6476)" class="st14" width="42.2" height="1"/>
</g>
<path class="st0" d="M37.3,246h5.4c2.9,0,5.2-2.3,5.2-5.2V232c0-2.9-2.3-5.2-5.2-5.2h-5.4c-2.9,0-5.2,2.3-5.2,5.2v8.8
	C32.2,243.6,34.5,246,37.3,246z"/>
<path class="st15" d="M32.2,237.2h15.8V165c0-3.3-2.7-6-6-6h-3.8c-3.3,0-6,2.7-6,6V237.2z"/>
<path class="st16" d="M33.5,237.2h13.1c1.7,0,3-1.3,3-3v-1.3c0-1.7-1.3-3-3-3H33.5c-1.7,0-3,1.3-3,3v1.3
	C30.5,235.9,31.9,237.2,33.5,237.2z"/>
<rect x="23.5" y="158.3" class="st12" width="56" height="7.8"/>
<path class="st17" d="M56.1,167.6h-7.4c-2.1,0-3.7-1.7-3.7-3.7v-4c0-2.1,1.7-3.7,3.7-3.7h7.4c2.1,0,3.7,1.7,3.7,3.7v4
	C59.8,165.9,58.1,167.6,56.1,167.6z"/>
<path class="st9" d="M86.6,100.5h-5.2c-10.2,0-4.2,12.2-4.2,24.9v36.8H93v-36.8C93,112.7,95.7,103.4,86.6,100.5z"/>
<path class="st9" d="M19,101h5.2c10.2,0,4.2,12.2,4.2,24.9v36.8H12.6v-36.8C12.6,113.2,10,103.9,19,101z"/>
<circle class="st0" cx="19.4" cy="165.9" r="9.4"/>
<polygon class="st18" points="51.5,105.8 47.6,102.5 51.4,98.3 55.3,102.7 "/>
<polygon class="st18" points="51.8,142.5 46.4,137.4 48.4,103.1 51.5,105.8 54.6,103.2 57.2,137.2 "/>
<g>
	<g>
		<path class="st19" d="M78.3,27.7c2.6,0,2.6-4,0-4C75.7,23.7,75.7,27.7,78.3,27.7L78.3,27.7z"/>
	</g>
</g>
<g>
	<g>
		<path class="st19" d="M77.3,27.7c2.6,0,2.6-4,0-4C74.7,23.7,74.7,27.7,77.3,27.7L77.3,27.7z"/>
	</g>
</g>
<g>
	<g>
		<path class="st19" d="M77.3,27c2.6,0,2.6-4,0-4C74.7,23,74.7,27,77.3,27L77.3,27z"/>
	</g>
</g>
<g>
	<g>
		<path class="st19" d="M76.6,24.3c2.6,0,2.6-4,0-4C74.1,20.3,74.1,24.3,76.6,24.3L76.6,24.3z"/>
	</g>
</g>
<g>
	<g>
		<path class="st19" d="M76,23c2.6,0,2.6-4,0-4C73.4,19,73.4,23,76,23L76,23z"/>
	</g>
</g>
<g>
	<g>
		<path class="st19" d="M74.3,20c2.6,0,2.6-4,0-4C71.7,16,71.7,20,74.3,20L74.3,20z"/>
	</g>
</g>
<g>
	<g>
		<path class="st19" d="M76.3,20.3c2.6,0,2.6-4,0-4C73.7,16.3,73.7,20.3,76.3,20.3L76.3,20.3z"/>
	</g>
</g>
<g>
	<g>
		<path class="st19" d="M75.3,20c0.1,0.2,0.2,0.4,0.3,0.7c0.5,0.9,1.9,1.3,2.7,0.7c1-0.6,1.2-1.7,0.7-2.7c-0.1-0.2-0.2-0.4-0.3-0.7
			c-0.5-0.9-1.9-1.3-2.7-0.7C75,17.9,74.8,19,75.3,20L75.3,20z"/>
	</g>
</g>
<g>
	<g>
		<path class="st19" d="M78.3,24c2.6,0,2.6-4,0-4C75.7,20,75.7,24,78.3,24L78.3,24z"/>
	</g>
</g>
<g>
	<g>
		<path class="st19" d="M79.3,26c2.6,0,2.6-4,0-4C76.7,22,76.7,26,79.3,26L79.3,26z"/>
	</g>
</g>
<g>
	<g>
		<path class="st19" d="M79.6,26c2.6,0,2.6-4,0-4C77.1,22,77.1,26,79.6,26L79.6,26z"/>
	</g>
</g>
<g>
	<g>
		<path class="st19" d="M79,23.7c2.6,0,2.6-4,0-4C76.4,19.7,76.4,23.7,79,23.7L79,23.7z"/>
	</g>
</g>
<g>
	<g>
		<path class="st19" d="M79,20c2.6,0,2.6-4,0-4C76.4,16,76.4,20,79,20L79,20z"/>
	</g>
</g>
<g>
	<g>
		<path class="st19" d="M78.6,17.3c2.6,0,2.6-4,0-4C76.1,13.3,76.1,17.3,78.6,17.3L78.6,17.3z"/>
	</g>
</g>
<g>
	<g>
		<path class="st19" d="M76.6,17.3c2.6,0,2.6-4,0-4C74.1,13.3,74.1,17.3,76.6,17.3L76.6,17.3z"/>
	</g>
</g>
<g>
	<g>
		<path class="st19" d="M75.3,17.3c2.6,0,2.6-4,0-4C72.7,13.3,72.7,17.3,75.3,17.3L75.3,17.3z"/>
	</g>
</g>
<g>
	<g>
		<path class="st19" d="M74.3,17.7c2.6,0,2.6-4,0-4C71.7,13.7,71.7,17.7,74.3,17.7L74.3,17.7z"/>
	</g>
</g>
<g>
	<g>
		<path class="st19" d="M73.6,18c2.6,0,2.6-4,0-4C71.1,14,71.1,18,73.6,18L73.6,18z"/>
	</g>
</g>
<g>
	<g>
		<path class="st19" d="M72.6,18c2.6,0,2.6-4,0-4C70.1,14,70.1,18,72.6,18L72.6,18z"/>
	</g>
</g>
<g>
	<g>
		<path class="st19" d="M72.3,17c2.6,0,2.6-4,0-4C69.7,13,69.7,17,72.3,17L72.3,17z"/>
	</g>
</g>
<g>
	<g>
		<path class="st19" d="M72.6,15c2.6,0,2.6-4,0-4C70.1,11,70.1,15,72.6,15L72.6,15z"/>
	</g>
</g>
<g>
	<g>
		<path class="st19" d="M75,14.7c2.6,0,2.6-4,0-4C72.4,10.7,72.4,14.7,75,14.7L75,14.7z"/>
	</g>
</g>
<g>
	<g>
		<path class="st19" d="M76.3,15.3c2.6,0,2.6-4,0-4C73.7,11.3,73.7,15.3,76.3,15.3L76.3,15.3z"/>
	</g>
</g>
<g>
	<g>
		<path class="st19" d="M76.6,13.7c2.6,0,2.6-4,0-4C74.1,9.7,74.1,13.7,76.6,13.7L76.6,13.7z"/>
	</g>
</g>
<g>
	<g>
		<path class="st19" d="M72.3,13.7c2.6,0,2.6-4,0-4C69.7,9.7,69.7,13.7,72.3,13.7L72.3,13.7z"/>
	</g>
</g>
<g>
	<g>
		<path class="st19" d="M69.6,13.3c2.6,0,2.6-4,0-4C67.1,9.3,67.1,13.3,69.6,13.3L69.6,13.3z"/>
	</g>
</g>
<g>
	<g>
		<path class="st19" d="M69.6,15c2.6,0,2.6-4,0-4C67.1,11,67.1,15,69.6,15L69.6,15z"/>
	</g>
</g>
<g>
	<g>
		<path class="st19" d="M69.6,16c2.6,0,2.6-4,0-4C67.1,12,67.1,16,69.6,16L69.6,16z"/>
	</g>
</g>
<g>
	<g>
		<path class="st19" d="M71.3,16.7c2.6,0,2.6-4,0-4C68.7,12.7,68.7,16.7,71.3,16.7L71.3,16.7z"/>
	</g>
</g>
<g>
	<g>
		<path class="st19" d="M35.3,15c2.6,0,2.6-4,0-4C32.7,11,32.7,15,35.3,15L35.3,15z"/>
	</g>
</g>
<g>
	<g>
		<path class="st19" d="M35,16.3c2.6,0,2.6-4,0-4C32.4,12.3,32.4,16.3,35,16.3L35,16.3z"/>
	</g>
</g>
<g>
	<g>
		<path class="st19" d="M34.6,17c2.6,0,2.6-4,0-4C32.1,13,32.1,17,34.6,17L34.6,17z"/>
	</g>
</g>
<g>
	<g>
		<path class="st19" d="M33.3,17c2.6,0,2.6-4,0-4C30.7,13,30.7,17,33.3,17L33.3,17z"/>
	</g>
</g>
<g>
	<g>
		<path class="st19" d="M35.3,13.1c-0.3-1.5-2-2.4-3.5-2c-1,0.3-1.7,1.4-1.4,2.5c0.3,1,1.4,1.7,2.5,1.4c-0.3,0.1-0.8,0-1-0.2
			c-0.1-0.1-0.2-0.2-0.3-0.4c-0.1-0.3-0.2-0.4-0.1-0.2c0.2,1,1.5,1.7,2.5,1.4C35,15.2,35.4,14.2,35.3,13.1L35.3,13.1z"/>
	</g>
</g>
<g>
	<g>
		<path class="st19" d="M30.6,15c2.6,0,2.6-4,0-4C28.1,11,28.1,15,30.6,15L30.6,15z"/>
	</g>
</g>
<g>
	<g>
		<path class="st19" d="M30,16c2.6,0,2.6-4,0-4C27.4,12,27.4,16,30,16L30,16z"/>
	</g>
</g>
<g>
	<g>
		<path class="st19" d="M30,16.3c2.6,0,2.6-4,0-4C27.4,12.3,27.4,16.3,30,16.3L30,16.3z"/>
	</g>
</g>
<g>
	<g>
		<path class="st19" d="M32,17c2.6,0,2.6-4,0-4C29.4,13,29.4,17,32,17L32,17z"/>
	</g>
</g>
<g>
	<g>
		<path class="st19" d="M32.3,18c2.6,0,2.6-4,0-4C29.7,14,29.7,18,32.3,18L32.3,18z"/>
	</g>
</g>
<g>
	<g>
		<path class="st19" d="M31.3,19.7c2.6,0,2.6-4,0-4C28.7,15.7,28.7,19.7,31.3,19.7L31.3,19.7z"/>
	</g>
</g>
<g>
	<g>
		<path class="st19" d="M30.3,20.7c2.6,0,2.6-4,0-4C27.7,16.7,27.7,20.7,30.3,20.7L30.3,20.7z"/>
	</g>
</g>
<g>
	<g>
		<path class="st19" d="M29,22.3c2.6,0,2.6-4,0-4C26.4,18.3,26.4,22.3,29,22.3L29,22.3z"/>
	</g>
</g>
<g>
	<g>
		<path class="st19" d="M28.6,24c2.6,0,2.6-4,0-4C26.1,20,26.1,24,28.6,24L28.6,24z"/>
	</g>
</g>
<g>
	<g>
		<path class="st19" d="M28.6,25.3c2.6,0,2.6-4,0-4C26.1,21.3,26.1,25.3,28.6,25.3L28.6,25.3z"/>
	</g>
</g>
<g>
	<g>
		<path class="st19" d="M28.6,27c2.6,0,2.6-4,0-4C26.1,23,26.1,27,28.6,27L28.6,27z"/>
	</g>
</g>
<g>
	<g>
		<path class="st19" d="M28.6,26c2.6,0,2.6-4,0-4C26.1,22,26.1,26,28.6,26L28.6,26z"/>
	</g>
</g>
<g>
	<g>
		<path class="st19" d="M29.3,31c2.6,0,2.6-4,0-4C26.7,27,26.7,31,29.3,31L29.3,31z"/>
	</g>
</g>
<g>
	<g>
		<path class="st19" d="M28.3,36c2.6,0,2.6-4,0-4C25.7,32,25.7,36,28.3,36L28.3,36z"/>
	</g>
</g>
<g>
	<g>
		<path class="st19" d="M28.3,37.7c2.6,0,2.6-4,0-4C25.7,33.7,25.7,37.7,28.3,37.7L28.3,37.7z"/>
	</g>
</g>
<g>
	<g>
		<path class="st19" d="M28.6,32c2.6,0,2.6-4,0-4C26.1,28,26.1,32,28.6,32L28.6,32z"/>
	</g>
</g>
<g>
	<g>
		<path class="st19" d="M28.6,32c2.6,0,2.6-4,0-4C26.1,28,26.1,32,28.6,32L28.6,32z"/>
	</g>
</g>
<g>
	<g>
		<path class="st19" d="M29,29c2.6,0,2.6-4,0-4C26.4,25,26.4,29,29,29L29,29z"/>
	</g>
</g>
<g>
	<g>
		<path class="st19" d="M29.3,32.7c2.6,0,2.6-4,0-4C26.7,28.7,26.7,32.7,29.3,32.7L29.3,32.7z"/>
	</g>
</g>
<g>
	<g>
		<path class="st19" d="M75.6,30.7c2.6,0,2.6-4,0-4C73.1,26.7,73.1,30.7,75.6,30.7L75.6,30.7z"/>
	</g>
</g>
<g>
	<g>
		<path class="st19" d="M73.6,29.7c0,0.1,0,0.2,0,0.3c0,1,0.9,2,2,2c1.1,0,2-0.9,2-2c0-0.1,0-0.2,0-0.3c0-1-0.9-2-2-2
			C74.5,27.7,73.6,28.5,73.6,29.7L73.6,29.7z"/>
	</g>
</g>
<g>
	<g>
		<path class="st19" d="M75.6,34c2.6,0,2.6-4,0-4C73.1,30,73.1,34,75.6,34L75.6,34z"/>
	</g>
</g>
<g>
	<g>
		<path class="st19" d="M76.6,36.3c2.6,0,2.6-4,0-4C74.1,32.3,74.1,36.3,76.6,36.3L76.6,36.3z"/>
	</g>
</g>
<g>
	<g>
		<path class="st19" d="M76.3,39.3c2.6,0,2.6-4,0-4C73.7,35.3,73.7,39.3,76.3,39.3L76.3,39.3z"/>
	</g>
</g>
<g>
	<g>
		<path class="st19" d="M75.6,40c2.6,0,2.6-4,0-4C73.1,36,73.1,40,75.6,40L75.6,40z"/>
	</g>
</g>
<g>
	<g>
		<path class="st19" d="M76,37c2.6,0,2.6-4,0-4C73.4,33,73.4,37,76,37L76,37z"/>
	</g>
</g>
<g>
	<g>
		<path class="st19" d="M27,28.3c2.6,0,2.6-4,0-4C24.4,24.3,24.4,28.3,27,28.3L27,28.3z"/>
	</g>
</g>
<g>
	<g>
		<path class="st19" d="M26.6,26.3c2.6,0,2.6-4,0-4C24.1,22.3,24.1,26.3,26.6,26.3L26.6,26.3z"/>
	</g>
</g>
<g>
	<g>
		<path class="st19" d="M26.3,24.3c2.6,0,2.6-4,0-4C23.7,20.3,23.7,24.3,26.3,24.3L26.3,24.3z"/>
	</g>
</g>
<g>
	<g>
		<path class="st19" d="M26.6,23c2.6,0,2.6-4,0-4C24.1,19,24.1,23,26.6,23L26.6,23z"/>
	</g>
</g>
<g>
	<g>
		<path class="st19" d="M27.3,21c2.6,0,2.6-4,0-4C24.7,17,24.7,21,27.3,21L27.3,21z"/>
	</g>
</g>
<g>
	<g>
		<path class="st19" d="M28.3,19c2.6,0,2.6-4,0-4C25.7,15,25.7,19,28.3,19L28.3,19z"/>
	</g>
</g>
<circle class="st0" cx="86.3" cy="165.1" r="9.4"/>
<path class="st20" d="M246.5,219.7h-82.3c-6.6,0-12-5.4-12-12v-98.8c0-6.6,5.4-12,12-12h82.3c6.6,0,12,5.4,12,12v98.8
	C258.5,214.3,253.1,219.7,246.5,219.7z"/>
<path class="st21" d="M246.8,138H164c-3.9,0-7-3.2-7-7v-23.4c0-3.8,3.1-7,7-7h82.8c3.8,0,7,3.2,7,7V131
	C253.8,134.9,250.6,138,246.8,138z"/>
<path class="st22" d="M167.6,158.6h-6.7c-2.2,0-4-1.8-4-4v-6.7c0-2.2,1.8-4,4-4h6.7c2.2,0,4,1.8,4,4v6.7
	C171.6,156.8,169.8,158.6,167.6,158.6z"/>
<path class="st22" d="M167.6,176.6h-6.7c-2.2,0-4-1.8-4-4v-6.7c0-2.2,1.8-4,4-4h6.7c2.2,0,4,1.8,4,4v6.7
	C171.6,174.8,169.8,176.6,167.6,176.6z"/>
<path class="st22" d="M167.6,194.6h-6.7c-2.2,0-4-1.8-4-4v-6.7c0-2.2,1.8-4,4-4h6.7c2.2,0,4,1.8,4,4v6.7
	C171.6,192.8,169.8,194.6,167.6,194.6z"/>
<path class="st22" d="M167.6,212.6h-6.7c-2.2,0-4-1.8-4-4v-6.7c0-2.2,1.8-4,4-4h6.7c2.2,0,4,1.8,4,4v6.7
	C171.6,210.8,169.8,212.6,167.6,212.6z"/>
<path class="st22" d="M186.9,158.6h-6.7c-2.2,0-4-1.8-4-4v-6.7c0-2.2,1.8-4,4-4h6.7c2.2,0,4,1.8,4,4v6.7
	C190.9,156.8,189.1,158.6,186.9,158.6z"/>
<path class="st22" d="M186.9,176.6h-6.7c-2.2,0-4-1.8-4-4v-6.7c0-2.2,1.8-4,4-4h6.7c2.2,0,4,1.8,4,4v6.7
	C190.9,174.8,189.1,176.6,186.9,176.6z"/>
<path class="st22" d="M186.9,194.6h-6.7c-2.2,0-4-1.8-4-4v-6.7c0-2.2,1.8-4,4-4h6.7c2.2,0,4,1.8,4,4v6.7
	C190.9,192.8,189.1,194.6,186.9,194.6z"/>
<path class="st22" d="M205.9,158.7h-6.7c-2.2,0-4-1.8-4-4V148c0-2.2,1.8-4,4-4h6.7c2.2,0,4,1.8,4,4v6.7
	C209.9,156.9,208.1,158.7,205.9,158.7z"/>
<path class="st22" d="M205.9,176.7h-6.7c-2.2,0-4-1.8-4-4V166c0-2.2,1.8-4,4-4h6.7c2.2,0,4,1.8,4,4v6.7
	C209.9,174.9,208.1,176.7,205.9,176.7z"/>
<path class="st22" d="M205.9,194.7h-6.7c-2.2,0-4-1.8-4-4V184c0-2.2,1.8-4,4-4h6.7c2.2,0,4,1.8,4,4v6.7
	C209.9,192.9,208.1,194.7,205.9,194.7z"/>
<path class="st22" d="M224.2,158.6h-6.7c-2.2,0-4-1.8-4-4v-6.7c0-2.2,1.8-4,4-4h6.7c2.2,0,4,1.8,4,4v6.7
	C228.2,156.8,226.4,158.6,224.2,158.6z"/>
<path class="st22" d="M224.2,176.6h-6.7c-2.2,0-4-1.8-4-4v-6.7c0-2.2,1.8-4,4-4h6.7c2.2,0,4,1.8,4,4v6.7
	C228.2,174.8,226.4,176.6,224.2,176.6z"/>
<path class="st22" d="M224.2,194.6h-6.7c-2.2,0-4-1.8-4-4v-6.7c0-2.2,1.8-4,4-4h6.7c2.2,0,4,1.8,4,4v6.7
	C228.2,192.8,226.4,194.6,224.2,194.6z"/>
<path class="st22" d="M224.2,212.6h-6.7c-2.2,0-4-1.8-4-4v-6.7c0-2.2,1.8-4,4-4h6.7c2.2,0,4,1.8,4,4v6.7
	C228.2,210.8,226.4,212.6,224.2,212.6z"/>
<path class="st22" d="M249.8,212.7h-14.3c-2.2,0-4-1.8-4-4V202c0-2.2,1.8-4,4-4h14.3c2.2,0,4,1.8,4,4v6.7
	C253.8,210.9,252,212.7,249.8,212.7z"/>
<text transform="matrix(1 0 0 1 160.2991 156.5092)" class="st12 st23 st24">1</text>
<text transform="matrix(1 0 0 1 179.7994 156.5088)" class="st12 st23 st24">2</text>
<text transform="matrix(1 0 0 1 198.4657 156.5092)" class="st12 st23 st24">3</text>
<text transform="matrix(1 0 0 1 179.7997 173.5095)" class="st12 st23 st24">5</text>
<text transform="matrix(1 0 0 1 160.2994 173.5095)" class="st12 st23 st24">4</text>
<text transform="matrix(1 0 0 1 198.4657 173.5092)" class="st12 st23 st24">6</text>
<text transform="matrix(1 0 0 1 160.2994 191.6758)" class="st12 st23 st24">7</text>
<text transform="matrix(1 0 0 1 179.7997 191.6761)" class="st12 st23 st24">8</text>
<text transform="matrix(1 0 0 1 199.133 191.6765)" class="st12 st23 st24">9</text>
<text transform="matrix(1 0 0 1 160.2994 209.1758)" class="st12 st23 st24">0</text>
<text transform="matrix(1 0 0 1 238.7994 209.8422)" class="st12 st23 st24">=</text>
<text transform="matrix(1 0 0 1 217.1321 155.1752)" class="st12 st23 st24">+</text>
<text transform="matrix(1 0 0 1 218.9657 173.5091)" class="st12 st23 st24">-</text>
<text transform="matrix(1 0 0 1 217.8878 191.676)" class="st12 st23 st24">x</text>
<text transform="matrix(1 0 0 1 217.8881 209.8423)" class="st12 st23 st24">/</text>
<path class="st22" d="M249.8,194.6h-14.3c-2.2,0-4-1.8-4-4v-6.7c0-2.2,1.8-4,4-4h14.3c2.2,0,4,1.8,4,4v6.7
	C253.8,192.8,252,194.6,249.8,194.6z"/>
<path class="st22" d="M249.8,176.7h-14.3c-2.2,0-4-1.8-4-4V166c0-2.2,1.8-4,4-4h14.3c2.2,0,4,1.8,4,4v6.7
	C253.8,174.9,252,176.7,249.8,176.7z"/>
<text transform="matrix(0.9692 0 0 1 233.4664 191.4078)" class="st12 st23 st25">DEL</text>
<path class="st22" d="M249.8,158.7h-14.3c-2.2,0-4-1.8-4-4V148c0-2.2,1.8-4,4-4h14.3c2.2,0,4,1.8,4,4v6.7
	C253.8,156.9,252,158.7,249.8,158.7z"/>
<path class="st22" d="M186.9,212.6h-6.7c-2.2,0-4-1.8-4-4v-6.7c0-2.2,1.8-4,4-4h6.7c2.2,0,4,1.8,4,4v6.7
	C190.9,210.8,189.1,212.6,186.9,212.6z"/>
<text transform="matrix(1 0 0 1 181.966 206.6758)" class="st12 st23 st24">.</text>
<text transform="matrix(0.9692 0 0 1 235.966 155.1746)" class="st12 st23 st25">AC</text>
<text transform="matrix(0.9692 0 0 1 235.966 172.6472)" class="st12 st23 st26">OFF</text>
</svg>
