<?xml version="1.0" encoding="utf-8"?>
<!-- Generator: Adobe Illustrator 22.0.1, SVG Export Plug-In . SVG Version: 6.00 Build 0)  -->
<svg version="1.1" id="Layer_1" xmlns="http://www.w3.org/2000/svg" xmlns:xlink="http://www.w3.org/1999/xlink" x="0px" y="0px"
	 viewBox="0 0 310 268" style="enable-background:new 0 0 310 268;" xml:space="preserve">
<style type="text/css">
	.st0{fill:#DF9D28;}
	.st1{fill:#6C81B1;}
	.st2{fill:#506E44;}
	.st3{fill:#705739;}
	.st4{fill:#FDD09C;}
	.st5{fill:none;stroke:#A58D1E;stroke-width:3;stroke-miterlimit:10;}
	.st6{fill:#603B15;}
	.st7{fill:#9B702A;}
	.st8{fill:#200E0A;}
	.st9{fill:#231F20;}
	.st10{fill:#A37A44;}
	.st11{fill:#895121;}
	.st12{fill:#B28E62;}
	.st13{fill:#5C5D60;}
	.st14{fill:#D5EDEE;}
	.st15{fill:#C2262D;}
	.st16{fill:#9A6B03;}
	.st17{fill:#258B43;}
	.st18{fill:#ED3224;}
	.st19{fill:#5E74B2;}
	.st20{fill:none;stroke:#231F20;stroke-width:3;stroke-miterlimit:10;}
	.st21{fill:#4A5A8C;}
	.st22{fill:#302D2F;}
</style>
<path class="st0" d="M86.8,41.2H61.4c-8.4,0-15.3,9.2-15.3,20.6v3.2c0-8.2,4.9-14.9,11-14.9h34c6.1,0,11,6.7,11,14.9v-3.2
	C102.1,50.4,95.3,41.2,86.8,41.2z"/>
<g>
	<g>
		<path class="st0" d="M104,95.6c1.9,0,1.9-3,0-3C102.1,92.6,102.1,95.6,104,95.6L104,95.6z"/>
	</g>
</g>
<g>
	<g>
		<path class="st0" d="M103.8,92.1c1.9,0,1.9-3,0-3C101.8,89.1,101.8,92.1,103.8,92.1L103.8,92.1z"/>
	</g>
</g>
<g>
	<g>
		<path class="st0" d="M103.5,90.6c1.9,0,1.9-3,0-3C101.6,87.6,101.6,90.6,103.5,90.6L103.5,90.6z"/>
	</g>
</g>
<g>
	<g>
		<path class="st0" d="M103,87.6c1.9,0,1.9-3,0-3C101.1,84.6,101.1,87.6,103,87.6L103,87.6z"/>
	</g>
</g>
<g>
	<g>
		<path class="st0" d="M103,85.1c1.9,0,1.9-3,0-3C101.1,82.1,101.1,85.1,103,85.1L103,85.1z"/>
	</g>
</g>
<g>
	<g>
		<path class="st0" d="M102.5,82.9c1.9,0,1.9-3,0-3C100.6,79.9,100.6,82.9,102.5,82.9L102.5,82.9z"/>
	</g>
</g>
<g>
	<g>
		<path class="st0" d="M103,80.4c1.9,0,1.9-3,0-3C101.1,77.4,101.1,80.4,103,80.4L103,80.4z"/>
	</g>
</g>
<g>
	<g>
		<path class="st0" d="M102,79.9c0.2,0.2,0.3,0.3,0.5,0.5c0.6,0.6,1.5,0.6,2.1,0c0.6-0.6,0.6-1.5,0-2.1c-0.2-0.2-0.3-0.3-0.5-0.5
			c-0.6-0.6-1.5-0.6-2.1,0C101.4,78.4,101.4,79.3,102,79.9L102,79.9z"/>
	</g>
</g>
<g>
	<g>
		<path class="st0" d="M104.5,81.9c1.9,0,1.9-3,0-3C102.6,78.9,102.6,81.9,104.5,81.9L104.5,81.9z"/>
	</g>
</g>
<g>
	<g>
		<path class="st0" d="M104.3,83.1c1.9,0,1.9-3,0-3C102.3,80.1,102.3,83.1,104.3,83.1L104.3,83.1z"/>
	</g>
</g>
<g>
	<g>
		<path class="st0" d="M103.8,85.4c1.9,0,1.9-3,0-3C101.8,82.4,101.8,85.4,103.8,85.4L103.8,85.4z"/>
	</g>
</g>
<g>
	<g>
		<path class="st0" d="M103.3,87.9c1.9,0,1.9-3,0-3C101.3,84.9,101.3,87.9,103.3,87.9L103.3,87.9z"/>
	</g>
</g>
<g>
	<g>
		<path class="st0" d="M103,89.4c1.9,0,1.9-3,0-3C101.1,86.4,101.1,89.4,103,89.4L103,89.4z"/>
	</g>
</g>
<g>
	<g>
		<path class="st0" d="M101.5,90.1c0,0.1,0,0.2,0,0.3c0,0.8,0.7,1.5,1.5,1.5c0.8,0,1.5-0.7,1.5-1.5c0-0.1,0-0.2,0-0.3
			c0-0.8-0.7-1.5-1.5-1.5C102.2,88.6,101.5,89.3,101.5,90.1L101.5,90.1z"/>
	</g>
</g>
<g>
	<g>
		<path class="st0" d="M102.8,94.6c1.9,0,1.9-3,0-3C100.8,91.6,100.8,94.6,102.8,94.6L102.8,94.6z"/>
	</g>
</g>
<g>
	<g>
		<path class="st0" d="M103.5,94.1c1.9,0,1.9-3,0-3C101.6,91.1,101.6,94.1,103.5,94.1L103.5,94.1z"/>
	</g>
</g>
<g>
	<g>
		<path class="st0" d="M104.3,93.9c1.9,0,1.9-3,0-3C102.3,90.9,102.3,93.9,104.3,93.9L104.3,93.9z"/>
	</g>
</g>
<g>
	<g>
		<path class="st0" d="M104.5,95.9c1.9,0,1.9-3,0-3C102.6,92.9,102.6,95.9,104.5,95.9L104.5,95.9z"/>
	</g>
</g>
<g>
	<g>
		<path class="st0" d="M104.3,98.6c1.9,0,1.9-3,0-3C102.3,95.6,102.3,98.6,104.3,98.6L104.3,98.6z"/>
	</g>
</g>
<g>
	<g>
		<path class="st0" d="M103.8,97.9c1.9,0,1.9-3,0-3C101.8,94.9,101.8,97.9,103.8,97.9L103.8,97.9z"/>
	</g>
</g>
<g>
	<g>
		<path class="st0" d="M103.3,96.4c1.9,0,1.9-3,0-3C101.3,93.4,101.3,96.4,103.3,96.4L103.3,96.4z"/>
	</g>
</g>
<g>
	<g>
		<path class="st0" d="M103.3,98.1c1.9,0,1.9-3,0-3C101.3,95.1,101.3,98.1,103.3,98.1L103.3,98.1z"/>
	</g>
</g>
<g>
	<g>
		<path class="st0" d="M101.8,97.9c0,0.1,0,0.2,0,0.3c0,0.8,0.7,1.5,1.5,1.5c0.8,0,1.5-0.7,1.5-1.5c0-0.1,0-0.2,0-0.3
			c0-0.8-0.7-1.5-1.5-1.5C102.5,96.4,101.8,97,101.8,97.9L101.8,97.9z"/>
	</g>
</g>
<g>
	<g>
		<path class="st0" d="M103.8,101.6c1.9,0,1.9-3,0-3C101.8,98.6,101.8,101.6,103.8,101.6L103.8,101.6z"/>
	</g>
</g>
<g>
	<g>
		<path class="st0" d="M104,103.1c1.9,0,1.9-3,0-3C102.1,100.1,102.1,103.1,104,103.1L104,103.1z"/>
	</g>
</g>
<g>
	<g>
		<path class="st0" d="M102.3,104.4c0,0.1,0,0.2,0,0.3c0,0.8,0.7,1.5,1.5,1.5c0.8,0,1.5-0.7,1.5-1.5c0-0.1,0-0.2,0-0.3
			c0-0.8-0.7-1.5-1.5-1.5C103,102.9,102.3,103.5,102.3,104.4L102.3,104.4z"/>
	</g>
</g>
<g>
	<g>
		<path class="st0" d="M103.5,108.9c1.9,0,1.9-3,0-3C101.6,105.9,101.6,108.9,103.5,108.9L103.5,108.9z"/>
	</g>
</g>
<g>
	<g>
		<path class="st0" d="M103.5,110.4c1.9,0,1.9-3,0-3C101.6,107.4,101.6,110.4,103.5,110.4L103.5,110.4z"/>
	</g>
</g>
<g>
	<g>
		<path class="st0" d="M103.5,111.9c1.9,0,1.9-3,0-3C101.6,108.9,101.6,111.9,103.5,111.9L103.5,111.9z"/>
	</g>
</g>
<g>
	<g>
		<path class="st0" d="M104.5,114.1c1.9,0,1.9-3,0-3C102.6,111.1,102.6,114.1,104.5,114.1L104.5,114.1z"/>
	</g>
</g>
<g>
	<g>
		<path class="st0" d="M104.8,115.1c1.9,0,1.9-3,0-3C102.8,112.1,102.8,115.1,104.8,115.1L104.8,115.1z"/>
	</g>
</g>
<g>
	<g>
		<path class="st0" d="M104.8,113.9c1.9,0,1.9-3,0-3C102.8,110.9,102.8,113.9,104.8,113.9L104.8,113.9z"/>
	</g>
</g>
<g>
	<g>
		<path class="st0" d="M104.8,111.1c1.9,0,1.9-3,0-3C102.8,108.1,102.8,111.1,104.8,111.1L104.8,111.1z"/>
	</g>
</g>
<g>
	<g>
		<path class="st0" d="M106.3,108.9c0-0.1,0-0.2,0-0.3c0-0.8-0.7-1.5-1.5-1.5c-0.8,0-1.5,0.7-1.5,1.5c0,0.1,0,0.2,0,0.3
			c0,0.8,0.7,1.5,1.5,1.5C105.6,110.3,106.3,109.7,106.3,108.9L106.3,108.9z"/>
	</g>
</g>
<g>
	<g>
		<path class="st0" d="M104.8,107.6c1.9,0,1.9-3,0-3C102.8,104.6,102.8,107.6,104.8,107.6L104.8,107.6z"/>
	</g>
</g>
<g>
	<g>
		<path class="st0" d="M105.3,106.1c1.9,0,1.9-3,0-3C103.3,103.1,103.3,106.1,105.3,106.1L105.3,106.1z"/>
	</g>
</g>
<g>
	<g>
		<path class="st0" d="M105.5,104.4c1.9,0,1.9-3,0-3C103.6,101.4,103.6,104.4,105.5,104.4L105.5,104.4z"/>
	</g>
</g>
<g>
	<g>
		<path class="st0" d="M105.5,102.6c1.9,0,1.9-3,0-3C103.6,99.6,103.6,102.6,105.5,102.6L105.5,102.6z"/>
	</g>
</g>
<g>
	<g>
		<path class="st0" d="M105.5,101.4c1.9,0,1.9-3,0-3C103.6,98.4,103.6,101.4,105.5,101.4L105.5,101.4z"/>
	</g>
</g>
<g>
	<g>
		<path class="st0" d="M104.5,99.1c1.9,0,1.9-3,0-3C102.6,96.1,102.6,99.1,104.5,99.1L104.5,99.1z"/>
	</g>
</g>
<g>
	<g>
		<path class="st0" d="M102.7,97.9c-0.1,0.2-0.2,0.3-0.3,0.5c-0.4,0.7-0.2,1.6,0.5,2.1c0.7,0.4,1.7,0.2,2.1-0.5
			c0.1-0.2,0.2-0.3,0.3-0.5c0.4-0.7,0.2-1.6-0.5-2.1C104.1,96.9,103.1,97.1,102.7,97.9L102.7,97.9z"/>
	</g>
</g>
<g>
	<g>
		<path class="st0" d="M102.7,101.1c-0.1,0.1-0.2,0.2-0.3,0.3c-0.6,0.6-0.6,1.5,0,2.1c0.6,0.6,1.5,0.6,2.1,0
			c0.1-0.1,0.2-0.2,0.3-0.3c0.6-0.6,0.6-1.5,0-2.1C104.3,100.5,103.3,100.5,102.7,101.1L102.7,101.1z"/>
	</g>
</g>
<g>
	<g>
		<path class="st0" d="M103,105.9c1.9,0,1.9-3,0-3C101.1,102.9,101.1,105.9,103,105.9L103,105.9z"/>
	</g>
</g>
<g>
	<g>
		<path class="st0" d="M103,106.6c1.9,0,1.9-3,0-3C101.1,103.6,101.1,106.6,103,106.6L103,106.6z"/>
	</g>
</g>
<g>
	<g>
		<path class="st0" d="M103,104.1c1.9,0,1.9-3,0-3C101.1,101.1,101.1,104.1,103,104.1L103,104.1z"/>
	</g>
</g>
<g>
	<g>
		<path class="st0" d="M101.7,102.1c-0.1,0.2-0.2,0.3-0.3,0.5c-0.4,0.7-0.2,1.6,0.5,2.1c0.7,0.4,1.7,0.2,2.1-0.5
			c0.1-0.2,0.2-0.3,0.3-0.5c0.4-0.7,0.2-1.6-0.5-2.1C103.1,101.2,102.1,101.4,101.7,102.1L101.7,102.1z"/>
	</g>
</g>
<g>
	<g>
		<path class="st0" d="M102,108.1c1.9,0,1.9-3,0-3C100.1,105.1,100.1,108.1,102,108.1L102,108.1z"/>
	</g>
</g>
<g>
	<g>
		<path class="st0" d="M102,109.9c1.9,0,1.9-3,0-3C100.1,106.9,100.1,109.9,102,109.9L102,109.9z"/>
	</g>
</g>
<g>
	<g>
		<path class="st0" d="M101.5,111.4c1.9,0,1.9-3,0-3C99.6,108.4,99.6,111.4,101.5,111.4L101.5,111.4z"/>
	</g>
</g>
<g>
	<g>
		<path class="st0" d="M101.3,112.6c1.9,0,1.9-3,0-3C99.3,109.6,99.3,112.6,101.3,112.6L101.3,112.6z"/>
	</g>
</g>
<g>
	<g>
		<path class="st0" d="M100,115.1c1.9,0,1.9-3,0-3C98.1,112.1,98.1,115.1,100,115.1L100,115.1z"/>
	</g>
</g>
<g>
	<g>
		<path class="st0" d="M99.3,115.6c1.9,0,1.9-3,0-3C97.3,112.6,97.3,115.6,99.3,115.6L99.3,115.6z"/>
	</g>
</g>
<g>
	<g>
		<path class="st0" d="M98.3,116.4c1.9,0,1.9-3,0-3C96.3,113.4,96.3,116.4,98.3,116.4L98.3,116.4z"/>
	</g>
</g>
<g>
	<g>
		<path class="st0" d="M98.3,116.4c1.9,0,1.9-3,0-3C96.3,113.4,96.3,116.4,98.3,116.4L98.3,116.4z"/>
	</g>
</g>
<g>
	<g>
		<path class="st0" d="M98.3,115.1c1.9,0,1.9-3,0-3C96.3,112.1,96.3,115.1,98.3,115.1L98.3,115.1z"/>
	</g>
</g>
<g>
	<g>
		<path class="st0" d="M99.8,114.1c1.9,0,1.9-3,0-3C97.8,111.1,97.8,114.1,99.8,114.1L99.8,114.1z"/>
	</g>
</g>
<g>
	<g>
		<path class="st0" d="M100.3,112.1c1.9,0,1.9-3,0-3C98.3,109.1,98.3,112.1,100.3,112.1L100.3,112.1z"/>
	</g>
</g>
<g>
	<g>
		<path class="st0" d="M100.5,110.4c1.9,0,1.9-3,0-3C98.6,107.4,98.6,110.4,100.5,110.4L100.5,110.4z"/>
	</g>
</g>
<g>
	<g>
		<path class="st0" d="M100.5,110.9c1.9,0,1.9-3,0-3C98.6,107.9,98.6,110.9,100.5,110.9L100.5,110.9z"/>
	</g>
</g>
<g>
	<g>
		<path class="st0" d="M98.5,112.9c-0.1,0-0.2,0-0.3,0c-0.8,0-1.5,0.7-1.5,1.5c0,0.8,0.7,1.5,1.5,1.5c0.1,0,0.2,0,0.3,0
			c0.8,0,1.5-0.7,1.5-1.5C100,113.5,99.4,112.9,98.5,112.9L98.5,112.9z"/>
	</g>
</g>
<g>
	<g>
		<path class="st0" d="M97.3,117.1c1.9,0,1.9-3,0-3C95.3,114.1,95.3,117.1,97.3,117.1L97.3,117.1z"/>
	</g>
</g>
<g>
	<g>
		<path class="st0" d="M96.8,118.1c1.9,0,1.9-3,0-3C94.8,115.1,94.8,118.1,96.8,118.1L96.8,118.1z"/>
	</g>
</g>
<g>
	<g>
		<path class="st0" d="M96.3,118.9c1.9,0,1.9-3,0-3C94.3,115.9,94.3,118.9,96.3,118.9L96.3,118.9z"/>
	</g>
</g>
<g>
	<g>
		<path class="st0" d="M95.3,119.4c1.9,0,1.9-3,0-3C93.3,116.4,93.3,119.4,95.3,119.4L95.3,119.4z"/>
	</g>
</g>
<g>
	<g>
		<path class="st0" d="M93.8,119.9c1.9,0,1.9-3,0-3C91.8,116.9,91.8,119.9,93.8,119.9L93.8,119.9z"/>
	</g>
</g>
<g>
	<g>
		<path class="st0" d="M92.8,120.4c1.9,0,1.9-3,0-3C90.8,117.4,90.8,120.4,92.8,120.4L92.8,120.4z"/>
	</g>
</g>
<g>
	<g>
		<path class="st0" d="M90.2,118.8c-0.1,0.1-0.2,0.2-0.3,0.3c-0.6,0.6-0.6,1.5,0,2.1c0.6,0.6,1.5,0.6,2.1,0c0.1-0.1,0.2-0.2,0.3-0.3
			c0.6-0.6,0.6-1.5,0-2.1C91.8,118.2,90.8,118.2,90.2,118.8L90.2,118.8z"/>
	</g>
</g>
<g>
	<g>
		<path class="st0" d="M89.8,122.1c1.9,0,1.9-3,0-3C87.8,119.1,87.8,122.1,89.8,122.1L89.8,122.1z"/>
	</g>
</g>
<g>
	<g>
		<path class="st0" d="M89.5,122.4c1.9,0,1.9-3,0-3C87.6,119.4,87.6,122.4,89.5,122.4L89.5,122.4z"/>
	</g>
</g>
<g>
	<g>
		<path class="st0" d="M89,123.1c1.9,0,1.9-3,0-3C87.1,120.1,87.1,123.1,89,123.1L89,123.1z"/>
	</g>
</g>
<g>
	<g>
		<path class="st0" d="M90.3,123.6c0.1,0,0.2,0,0.3,0c0.8,0,1.5-0.7,1.5-1.5c0-0.8-0.7-1.5-1.5-1.5c-0.1,0-0.2,0-0.3,0
			c-0.8,0-1.5,0.7-1.5,1.5C88.8,122.9,89.4,123.6,90.3,123.6L90.3,123.6z"/>
	</g>
</g>
<g>
	<g>
		<path class="st0" d="M91.8,123.6c0.1,0,0.2,0,0.3,0c0.8,0,1.5-0.7,1.5-1.5c0-0.8-0.7-1.5-1.5-1.5c-0.1,0-0.2,0-0.3,0
			c-0.8,0-1.5,0.7-1.5,1.5C90.3,122.9,90.9,123.6,91.8,123.6L91.8,123.6z"/>
	</g>
</g>
<g>
	<g>
		<path class="st0" d="M93.5,123.6c1.9,0,1.9-3,0-3C91.6,120.6,91.6,123.6,93.5,123.6L93.5,123.6z"/>
	</g>
</g>
<g>
	<g>
		<path class="st0" d="M94.8,123.6c1.9,0,1.9-3,0-3C92.8,120.6,92.8,123.6,94.8,123.6L94.8,123.6z"/>
	</g>
</g>
<g>
	<g>
		<path class="st0" d="M96.3,123.6c0.1,0,0.2,0,0.3,0c0.8,0,1.5-0.7,1.5-1.5c0-0.8-0.7-1.5-1.5-1.5c-0.1,0-0.2,0-0.3,0
			c-0.8,0-1.5,0.7-1.5,1.5C94.8,122.9,95.4,123.6,96.3,123.6L96.3,123.6z"/>
	</g>
</g>
<g>
	<g>
		<path class="st0" d="M98.3,123.6c1.9,0,1.9-3,0-3C96.3,120.6,96.3,123.6,98.3,123.6L98.3,123.6z"/>
	</g>
</g>
<g>
	<g>
		<path class="st0" d="M99.8,123.6c1.9,0,1.9-3,0-3C97.8,120.6,97.8,123.6,99.8,123.6L99.8,123.6z"/>
	</g>
</g>
<g>
	<g>
		<path class="st0" d="M101,123.9c1.9,0,1.9-3,0-3C99.1,120.9,99.1,123.9,101,123.9L101,123.9z"/>
	</g>
</g>
<g>
	<g>
		<path class="st0" d="M101.3,124.6c1.9,0,1.9-3,0-3C99.3,121.6,99.3,124.6,101.3,124.6L101.3,124.6z"/>
	</g>
</g>
<g>
	<g>
		<path class="st0" d="M102.3,124.6c1.9,0,1.9-3,0-3C100.3,121.6,100.3,124.6,102.3,124.6L102.3,124.6z"/>
	</g>
</g>
<g>
	<g>
		<path class="st0" d="M103.5,123.9c1.9,0,1.9-3,0-3C101.6,120.9,101.6,123.9,103.5,123.9L103.5,123.9z"/>
	</g>
</g>
<g>
	<g>
		<path class="st0" d="M103.5,123.9c1.9,0,1.9-3,0-3C101.6,120.9,101.6,123.9,103.5,123.9L103.5,123.9z"/>
	</g>
</g>
<g>
	<g>
		<path class="st0" d="M104.5,120.1c1.9,0,1.9-3,0-3C102.6,117.1,102.6,120.1,104.5,120.1L104.5,120.1z"/>
	</g>
</g>
<g>
	<g>
		<path class="st0" d="M105,119.4c1.9,0,1.9-3,0-3C103.1,116.4,103.1,119.4,105,119.4L105,119.4z"/>
	</g>
</g>
<g>
	<g>
		<path class="st0" d="M104.8,117.4c1.9,0,1.9-3,0-3C102.8,114.4,102.8,117.4,104.8,117.4L104.8,117.4z"/>
	</g>
</g>
<g>
	<g>
		<path class="st0" d="M104.3,116.1c1.9,0,1.9-3,0-3C102.3,113.1,102.3,116.1,104.3,116.1L104.3,116.1z"/>
	</g>
</g>
<g>
	<g>
		<path class="st0" d="M103,115.4c1.9,0,1.9-3,0-3C101.1,112.4,101.1,115.4,103,115.4L103,115.4z"/>
	</g>
</g>
<g>
	<g>
		<path class="st0" d="M102.5,115.1c1.9,0,1.9-3,0-3C100.6,112.1,100.6,115.1,102.5,115.1L102.5,115.1z"/>
	</g>
</g>
<g>
	<g>
		<path class="st0" d="M102.5,114.6c1.9,0,1.9-3,0-3C100.6,111.6,100.6,114.6,102.5,114.6L102.5,114.6z"/>
	</g>
</g>
<g>
	<g>
		<path class="st0" d="M101,116.9c1.9,0,1.9-3,0-3C99.1,113.9,99.1,116.9,101,116.9L101,116.9z"/>
	</g>
</g>
<g>
	<g>
		<path class="st0" d="M101.5,117.9c1.9,0,1.9-3,0-3C99.6,114.9,99.6,117.9,101.5,117.9L101.5,117.9z"/>
	</g>
</g>
<g>
	<g>
		<path class="st0" d="M101.8,117.9c1.9,0,1.9-3,0-3C99.8,114.9,99.8,117.9,101.8,117.9L101.8,117.9z"/>
	</g>
</g>
<g>
	<g>
		<path class="st0" d="M102.5,119.4c1.9,0,1.9-3,0-3C100.6,116.4,100.6,119.4,102.5,119.4L102.5,119.4z"/>
	</g>
</g>
<g>
	<g>
		<path class="st0" d="M101.5,118.9c0,0.2,0,0.3,0,0.5c0,0.8,0.7,1.5,1.5,1.5c0.8,0,1.5-0.7,1.5-1.5c0-0.2,0-0.3,0-0.5
			c0-0.8-0.7-1.5-1.5-1.5C102.2,117.4,101.5,118,101.5,118.9L101.5,118.9z"/>
	</g>
</g>
<g>
	<g>
		<path class="st0" d="M104,122.6c1.9,0,1.9-3,0-3C102.1,119.6,102.1,122.6,104,122.6L104,122.6z"/>
	</g>
</g>
<g>
	<g>
		<path class="st0" d="M104.8,124.1c1.9,0,1.9-3,0-3C102.8,121.1,102.8,124.1,104.8,124.1L104.8,124.1z"/>
	</g>
</g>
<g>
	<g>
		<path class="st0" d="M103.3,123.6c1.9,0,1.9-3,0-3C101.3,120.6,101.3,123.6,103.3,123.6L103.3,123.6z"/>
	</g>
</g>
<g>
	<g>
		<path class="st0" d="M102.8,122.4c1.9,0,1.9-3,0-3C100.8,119.4,100.8,122.4,102.8,122.4L102.8,122.4z"/>
	</g>
</g>
<g>
	<g>
		<path class="st0" d="M102.5,121.9c1.9,0,1.9-3,0-3C100.6,118.9,100.6,121.9,102.5,121.9L102.5,121.9z"/>
	</g>
</g>
<g>
	<g>
		<path class="st0" d="M101.8,120.4c1.9,0,1.9-3,0-3C99.8,117.4,99.8,120.4,101.8,120.4L101.8,120.4z"/>
	</g>
</g>
<g>
	<g>
		<path class="st0" d="M100.8,119.6c1.9,0,1.9-3,0-3C98.8,116.6,98.8,119.6,100.8,119.6L100.8,119.6z"/>
	</g>
</g>
<g>
	<g>
		<path class="st0" d="M100.3,118.6c1.9,0,1.9-3,0-3C98.3,115.6,98.3,118.6,100.3,118.6L100.3,118.6z"/>
	</g>
</g>
<g>
	<g>
		<path class="st0" d="M100.5,122.4c1.9,0,1.9-3,0-3C98.6,119.4,98.6,122.4,100.5,122.4L100.5,122.4z"/>
	</g>
</g>
<g>
	<g>
		<path class="st0" d="M101.3,120.1c-0.1-0.1-0.2-0.2-0.3-0.3c-0.6-0.6-1.5-0.6-2.1,0c-0.6,0.6-0.6,1.5,0,2.1
			c0.1,0.1,0.2,0.2,0.3,0.3c0.6,0.6,1.5,0.6,2.1,0C101.9,121.6,101.9,120.6,101.3,120.1L101.3,120.1z"/>
	</g>
</g>
<g>
	<g>
		<path class="st0" d="M99.8,120.1c1.9,0,1.9-3,0-3C97.8,117.1,97.8,120.1,99.8,120.1L99.8,120.1z"/>
	</g>
</g>
<g>
	<g>
		<path class="st0" d="M99.5,119.1c1.9,0,1.9-3,0-3C97.6,116.1,97.6,119.1,99.5,119.1L99.5,119.1z"/>
	</g>
</g>
<g>
	<g>
		<path class="st0" d="M97.3,117.4c0,0.3,0,0.5,0,0.8c0,0.8,0.7,1.5,1.5,1.5c0.8,0,1.5-0.7,1.5-1.5c0-0.3,0-0.5,0-0.8
			c0-0.8-0.7-1.5-1.5-1.5C98,115.9,97.3,116.5,97.3,117.4L97.3,117.4z"/>
	</g>
</g>
<g>
	<g>
		<path class="st0" d="M98.8,122.4c1.9,0,1.9-3,0-3C96.8,119.4,96.8,122.4,98.8,122.4L98.8,122.4z"/>
	</g>
</g>
<g>
	<g>
		<path class="st0" d="M98,122.6c1.9,0,1.9-3,0-3C96.1,119.6,96.1,122.6,98,122.6L98,122.6z"/>
	</g>
</g>
<g>
	<g>
		<path class="st0" d="M97.5,120.1c1.9,0,1.9-3,0-3C95.6,117.1,95.6,120.1,97.5,120.1L97.5,120.1z"/>
	</g>
</g>
<g>
	<g>
		<path class="st0" d="M97.5,120.1c1.9,0,1.9-3,0-3C95.6,117.1,95.6,120.1,97.5,120.1L97.5,120.1z"/>
	</g>
</g>
<g>
	<g>
		<path class="st0" d="M95.8,122.4c1.9,0,1.9-3,0-3C93.8,119.4,93.8,122.4,95.8,122.4L95.8,122.4z"/>
	</g>
</g>
<g>
	<g>
		<path class="st0" d="M94.5,122.9c1.9,0,1.9-3,0-3C92.6,119.9,92.6,122.9,94.5,122.9L94.5,122.9z"/>
	</g>
</g>
<g>
	<g>
		<path class="st0" d="M93.3,123.4c1.9,0,1.9-3,0-3C91.3,120.4,91.3,123.4,93.3,123.4L93.3,123.4z"/>
	</g>
</g>
<g>
	<g>
		<path class="st0" d="M92.5,123.6c1.9,0,1.9-3,0-3C90.6,120.6,90.6,123.6,92.5,123.6L92.5,123.6z"/>
	</g>
</g>
<g>
	<g>
		<path class="st0" d="M95.3,122.1c1.9,0,1.9-3,0-3C93.3,119.1,93.3,122.1,95.3,122.1L95.3,122.1z"/>
	</g>
</g>
<g>
	<g>
		<path class="st0" d="M96.6,120.4c0.1-0.1,0.2-0.2,0.3-0.3c0.6-0.6,0.6-1.5,0-2.1c-0.6-0.6-1.5-0.6-2.1,0c-0.1,0.1-0.2,0.2-0.3,0.3
			c-0.6,0.6-0.6,1.5,0,2.1C95,121,96,121,96.6,120.4L96.6,120.4z"/>
	</g>
</g>
<g>
	<g>
		<path class="st0" d="M99.3,119.2C99.2,119.3,99.4,119.1,99.3,119.2c0.1-0.1,0.4-0.2,0.3-0.2c-0.1,0,0.2-0.1,0.2-0.1
			c0,0,0.4-0.1,0.2-0.1c0.8-0.1,1.5-0.6,1.5-1.5c0-0.7-0.7-1.6-1.5-1.5c-1.1,0.1-1.9,0.5-2.8,1.2c-0.6,0.5-0.5,1.6,0,2.1
			C97.8,119.8,98.7,119.7,99.3,119.2L99.3,119.2z"/>
	</g>
</g>
<g>
	<g>
		<path class="st0" d="M102.5,118.1c1.9,0,1.9-3,0-3C100.6,115.1,100.6,118.1,102.5,118.1L102.5,118.1z"/>
	</g>
</g>
<g>
	<g>
		<path class="st0" d="M103.8,117.6c1.9,0,1.9-3,0-3C101.8,114.6,101.8,117.6,103.8,117.6L103.8,117.6z"/>
	</g>
</g>
<g>
	<g>
		<path class="st0" d="M103.5,101.9c1.9,0,1.9-3,0-3C101.6,98.9,101.6,101.9,103.5,101.9L103.5,101.9z"/>
	</g>
</g>
<g>
	<g>
		<path class="st0" d="M96.5,116.4c1.9,0,1.9-3,0-3C94.6,113.4,94.6,116.4,96.5,116.4L96.5,116.4z"/>
	</g>
</g>
<g>
	<g>
		<path class="st0" d="M96,118.1c1.9,0,1.9-3,0-3C94.1,115.1,94.1,118.1,96,118.1L96,118.1z"/>
	</g>
</g>
<g>
	<g>
		<path class="st0" d="M61.5,123.4c1.9,0,1.9-3,0-3C59.6,120.4,59.6,123.4,61.5,123.4L61.5,123.4z"/>
	</g>
</g>
<g>
	<g>
		<path class="st0" d="M59.5,121.9c1.9,0,1.9-3,0-3C57.6,118.9,57.6,121.9,59.5,121.9L59.5,121.9z"/>
	</g>
</g>
<g>
	<g>
		<path class="st0" d="M59.3,120.9c1.9,0,1.9-3,0-3C57.3,117.9,57.3,120.9,59.3,120.9L59.3,120.9z"/>
	</g>
</g>
<g>
	<g>
		<path class="st0" d="M58,120.9c1.9,0,1.9-3,0-3C56.1,117.9,56.1,120.9,58,120.9L58,120.9z"/>
	</g>
</g>
<g>
	<g>
		<path class="st0" d="M57,120.1c1.9,0,1.9-3,0-3C55.1,117.1,55.1,120.1,57,120.1L57,120.1z"/>
	</g>
</g>
<g>
	<g>
		<path class="st0" d="M56,119.4c1.9,0,1.9-3,0-3C54.1,116.4,54.1,119.4,56,119.4L56,119.4z"/>
	</g>
</g>
<g>
	<g>
		<path class="st0" d="M55,119.1c1.9,0,1.9-3,0-3C53.1,116.1,53.1,119.1,55,119.1L55,119.1z"/>
	</g>
</g>
<g>
	<g>
		<path class="st0" d="M54.5,118.6c1.9,0,1.9-3,0-3C52.6,115.6,52.6,118.6,54.5,118.6L54.5,118.6z"/>
	</g>
</g>
<g>
	<g>
		<path class="st0" d="M53,117.4c1.9,0,1.9-3,0-3C51.1,114.4,51.1,117.4,53,117.4L53,117.4z"/>
	</g>
</g>
<g>
	<g>
		<path class="st0" d="M53.8,114.6c0-0.1,0-0.2,0-0.3c0-0.8-0.7-1.5-1.5-1.5c-0.8,0-1.5,0.7-1.5,1.5c0,0.1,0,0.2,0,0.3
			c0,0.8,0.7,1.5,1.5,1.5C53.1,116.1,53.8,115.5,53.8,114.6L53.8,114.6z"/>
	</g>
</g>
<g>
	<g>
		<path class="st0" d="M51.3,114.6c1.9,0,1.9-3,0-3C49.3,111.6,49.3,114.6,51.3,114.6L51.3,114.6z"/>
	</g>
</g>
<g>
	<g>
		<path class="st0" d="M50.3,113.6c1.9,0,1.9-3,0-3C48.3,110.6,48.3,113.6,50.3,113.6L50.3,113.6z"/>
	</g>
</g>
<g>
	<g>
		<path class="st0" d="M49.3,112.6c1.9,0,1.9-3,0-3C47.3,109.6,47.3,112.6,49.3,112.6L49.3,112.6z"/>
	</g>
</g>
<g>
	<g>
		<path class="st0" d="M50.3,109.3c-4.7-8.6-4.4-20.6-3.3-30.2c0.2-1.9-2.8-1.9-3,0c-1.2,10.2-1.3,22.4,3.7,31.7
			C48.6,112.5,51.2,111,50.3,109.3L50.3,109.3z"/>
	</g>
</g>
<g>
	<g>
		<path class="st0" d="M44,80.9c1.9,0,1.9-3,0-3C42.1,77.9,42.1,80.9,44,80.9L44,80.9z"/>
	</g>
</g>
<g>
	<g>
		<path class="st0" d="M43.5,80.9c1.9,0,1.9-3,0-3C41.6,77.9,41.6,80.9,43.5,80.9L43.5,80.9z"/>
	</g>
</g>
<g>
	<g>
		<path class="st0" d="M43.5,80.9c1.9,0,1.9-3,0-3C41.6,77.9,41.6,80.9,43.5,80.9L43.5,80.9z"/>
	</g>
</g>
<g>
	<g>
		<path class="st0" d="M43.8,82.1c1.9,0,1.9-3,0-3C41.8,79.1,41.8,82.1,43.8,82.1L43.8,82.1z"/>
	</g>
</g>
<g>
	<g>
		<path class="st0" d="M45,82.9c1.9,0,1.9-3,0-3C43.1,79.9,43.1,82.9,45,82.9L45,82.9z"/>
	</g>
</g>
<g>
	<g>
		<path class="st0" d="M43.3,84.1c1.9,0,1.9-3,0-3C41.3,81.1,41.3,84.1,43.3,84.1L43.3,84.1z"/>
	</g>
</g>
<g>
	<g>
		<path class="st0" d="M41.5,83.4c0,0.1,0,0.2,0,0.3c0,0.8,0.7,1.5,1.5,1.5c0.8,0,1.5-0.7,1.5-1.5c0-0.1,0-0.2,0-0.3
			c0-0.8-0.7-1.5-1.5-1.5C42.2,81.9,41.5,82.5,41.5,83.4L41.5,83.4z"/>
	</g>
</g>
<g>
	<g>
		<path class="st0" d="M42.3,86.1c1.9,0,1.9-3,0-3C40.3,83.1,40.3,86.1,42.3,86.1L42.3,86.1z"/>
	</g>
</g>
<g>
	<g>
		<path class="st0" d="M42.5,88.9c1.9,0,1.9-3,0-3C40.6,85.9,40.6,88.9,42.5,88.9L42.5,88.9z"/>
	</g>
</g>
<g>
	<g>
		<path class="st0" d="M42.8,89.4c1.9,0,1.9-3,0-3C40.8,86.4,40.8,89.4,42.8,89.4L42.8,89.4z"/>
	</g>
</g>
<g>
	<g>
		<path class="st0" d="M41.3,88.9c0,0.1,0,0.2,0,0.3c0,0.8,0.7,1.5,1.5,1.5c0.8,0,1.5-0.7,1.5-1.5c0-0.1,0-0.2,0-0.3
			c0-0.8-0.7-1.5-1.5-1.5C42,87.4,41.3,88,41.3,88.9L41.3,88.9z"/>
	</g>
</g>
<g>
	<g>
		<path class="st0" d="M41.3,91.6c0,0.1,0,0.2,0,0.3c0,0.8,0.7,1.5,1.5,1.5c0.8,0,1.5-0.7,1.5-1.5c0-0.1,0-0.2,0-0.3
			c0-0.8-0.7-1.5-1.5-1.5C42,90.1,41.3,90.8,41.3,91.6L41.3,91.6z"/>
	</g>
</g>
<g>
	<g>
		<path class="st0" d="M40.8,93.6c0,0.1,0,0.2,0,0.3c0,0.8,0.7,1.5,1.5,1.5c0.8,0,1.5-0.7,1.5-1.5c0-0.1,0-0.2,0-0.3
			c0-0.8-0.7-1.5-1.5-1.5C41.5,92.1,40.8,92.8,40.8,93.6L40.8,93.6z"/>
	</g>
</g>
<g>
	<g>
		<path class="st0" d="M40.5,95.4c0,0.1,0,0.2,0,0.3c0,0.8,0.7,1.5,1.5,1.5c0.8,0,1.5-0.7,1.5-1.5c0-0.1,0-0.2,0-0.3
			c0-0.8-0.7-1.5-1.5-1.5C41.2,93.9,40.5,94.5,40.5,95.4L40.5,95.4z"/>
	</g>
</g>
<g>
	<g>
		<path class="st0" d="M42.5,99.4c1.9,0,1.9-3,0-3C40.6,96.4,40.6,99.4,42.5,99.4L42.5,99.4z"/>
	</g>
</g>
<g>
	<g>
		<path class="st0" d="M42.5,100.6c1.9,0,1.9-3,0-3C40.6,97.6,40.6,100.6,42.5,100.6L42.5,100.6z"/>
	</g>
</g>
<g>
	<g>
		<path class="st0" d="M42.5,101.9c1.9,0,1.9-3,0-3C40.6,98.9,40.6,101.9,42.5,101.9L42.5,101.9z"/>
	</g>
</g>
<g>
	<g>
		<path class="st0" d="M41.5,101.6c0,0.1,0,0.2,0,0.3c0,0.8,0.7,1.5,1.5,1.5c0.8,0,1.5-0.7,1.5-1.5c0-0.1,0-0.2,0-0.3
			c0-0.8-0.7-1.5-1.5-1.5C42.2,100.1,41.5,100.8,41.5,101.6L41.5,101.6z"/>
	</g>
</g>
<g>
	<g>
		<path class="st0" d="M43.3,105.1c1.9,0,1.9-3,0-3C41.3,102.1,41.3,105.1,43.3,105.1L43.3,105.1z"/>
	</g>
</g>
<g>
	<g>
		<path class="st0" d="M43.8,106.4c1.9,0,1.9-3,0-3C41.8,103.4,41.8,106.4,43.8,106.4L43.8,106.4z"/>
	</g>
</g>
<g>
	<g>
		<path class="st0" d="M43.5,97.4c1.9,0,1.9-3,0-3C41.6,94.4,41.6,97.4,43.5,97.4L43.5,97.4z"/>
	</g>
</g>
<g>
	<g>
		<path class="st0" d="M42,102.9c0,0.1,0,0.2,0,0.3c0,0.8,0.7,1.5,1.5,1.5c0.8,0,1.5-0.7,1.5-1.5c0-0.1,0-0.2,0-0.3
			c0-0.8-0.7-1.5-1.5-1.5C42.7,101.4,42,102,42,102.9L42,102.9z"/>
	</g>
</g>
<g>
	<g>
		<path class="st0" d="M43.5,108.9c1.9,0,1.9-3,0-3C41.6,105.9,41.6,108.9,43.5,108.9L43.5,108.9z"/>
	</g>
</g>
<g>
	<g>
		<path class="st0" d="M43.5,109.9c1.9,0,1.9-3,0-3C41.6,106.9,41.6,109.9,43.5,109.9L43.5,109.9z"/>
	</g>
</g>
<g>
	<g>
		<path class="st0" d="M44.5,107.1c1.9,0,1.9-3,0-3C42.6,104.1,42.6,107.1,44.5,107.1L44.5,107.1z"/>
	</g>
</g>
<g>
	<g>
		<path class="st0" d="M44.5,109.1c1.9,0,1.9-3,0-3C42.6,106.1,42.6,109.1,44.5,109.1L44.5,109.1z"/>
	</g>
</g>
<g>
	<g>
		<path class="st0" d="M45.3,109.9c1.9,0,1.9-3,0-3C43.3,106.9,43.3,109.9,45.3,109.9L45.3,109.9z"/>
	</g>
</g>
<g>
	<g>
		<path class="st0" d="M45.2,109.9c0.1,0.1,0.2,0.2,0.3,0.3c0.6,0.6,1.5,0.6,2.1,0c0.6-0.6,0.6-1.5,0-2.1c-0.1-0.1-0.2-0.2-0.3-0.3
			c-0.6-0.6-1.5-0.6-2.1,0C44.6,108.4,44.6,109.3,45.2,109.9L45.2,109.9z"/>
	</g>
</g>
<g>
	<g>
		<path class="st0" d="M47.5,112.9c1.9,0,1.9-3,0-3C45.6,109.9,45.6,112.9,47.5,112.9L47.5,112.9z"/>
	</g>
</g>
<g>
	<g>
		<path class="st0" d="M48,114.4c1.9,0,1.9-3,0-3C46.1,111.4,46.1,114.4,48,114.4L48,114.4z"/>
	</g>
</g>
<g>
	<g>
		<path class="st0" d="M46.8,111.6c1.9,0,1.9-3,0-3C44.8,108.6,44.8,111.6,46.8,111.6L46.8,111.6z"/>
	</g>
</g>
<g>
	<g>
		<path class="st0" d="M45.2,109.3c-0.1,0.2-0.2,0.3-0.3,0.5c-0.4,0.7-0.2,1.6,0.5,2.1c0.7,0.4,1.7,0.2,2.1-0.5
			c0.1-0.2,0.2-0.3,0.3-0.5c0.4-0.7,0.2-1.6-0.5-2.1C46.6,108.4,45.6,108.6,45.2,109.3L45.2,109.3z"/>
	</g>
</g>
<g>
	<g>
		<path class="st0" d="M45.8,113.4c1.9,0,1.9-3,0-3C43.8,110.4,43.8,113.4,45.8,113.4L45.8,113.4z"/>
	</g>
</g>
<g>
	<g>
		<path class="st0" d="M45.3,112.1c1.9,0,1.9-3,0-3C43.3,109.1,43.3,112.1,45.3,112.1L45.3,112.1z"/>
	</g>
</g>
<g>
	<g>
		<path class="st0" d="M44.5,111.6c1.9,0,1.9-3,0-3C42.6,108.6,42.6,111.6,44.5,111.6L44.5,111.6z"/>
	</g>
</g>
<g>
	<g>
		<path class="st0" d="M43.8,114.6c1.9,0,1.9-3,0-3C41.8,111.6,41.8,114.6,43.8,114.6L43.8,114.6z"/>
	</g>
</g>
<g>
	<g>
		<path class="st0" d="M43.8,115.1c1.9,0,1.9-3,0-3C41.8,112.1,41.8,115.1,43.8,115.1L43.8,115.1z"/>
	</g>
</g>
<g>
	<g>
		<path class="st0" d="M46.6,114.7c0.1-0.1,0.2-0.2,0.3-0.3c0.6-0.6,0.6-1.5,0-2.1c-0.6-0.6-1.5-0.6-2.1,0c-0.1,0.1-0.2,0.2-0.3,0.3
			c-0.6,0.6-0.6,1.5,0,2.1C45,115.2,46,115.2,46.6,114.7L46.6,114.7z"/>
	</g>
</g>
<g>
	<g>
		<path class="st0" d="M45.7,115.4c0.1,0.1,0.2,0.2,0.3,0.3c0.6,0.6,1.5,0.6,2.1,0c0.6-0.6,0.6-1.5,0-2.1c-0.1-0.1-0.2-0.2-0.3-0.3
			c-0.6-0.6-1.5-0.6-2.1,0C45.1,113.9,45.1,114.8,45.7,115.4L45.7,115.4z"/>
	</g>
</g>
<g>
	<g>
		<path class="st0" d="M48.8,115.9c1.9,0,1.9-3,0-3C46.8,112.9,46.8,115.9,48.8,115.9L48.8,115.9z"/>
	</g>
</g>
<g>
	<g>
		<path class="st0" d="M49.5,115.6c0.1,0,0.2,0,0.3,0c0.8,0,1.5-0.7,1.5-1.5c0-0.8-0.7-1.5-1.5-1.5c-0.1,0-0.2,0-0.3,0
			c-0.8,0-1.5,0.7-1.5,1.5C48.1,114.9,48.7,115.6,49.5,115.6L49.5,115.6z"/>
	</g>
</g>
<g>
	<g>
		<path class="st0" d="M50.8,117.6c1.9,0,1.9-3,0-3C48.8,114.6,48.8,117.6,50.8,117.6L50.8,117.6z"/>
	</g>
</g>
<g>
	<g>
		<path class="st0" d="M51,117.9c0.1,0.1,0.2,0.2,0.3,0.3c0.6,0.6,1.5,0.6,2.1,0c0.6-0.6,0.6-1.5,0-2.1c-0.1-0.1-0.2-0.2-0.3-0.3
			c-0.6-0.6-1.5-0.6-2.1,0C50.4,116.4,50.4,117.3,51,117.9L51,117.9z"/>
	</g>
</g>
<g>
	<g>
		<path class="st0" d="M52.7,119.7c0.1,0.1,0.2,0.2,0.3,0.3c0.6,0.6,1.5,0.6,2.1,0c0.6-0.6,0.6-1.5,0-2.1c-0.1-0.1-0.2-0.2-0.3-0.3
			c-0.6-0.6-1.5-0.6-2.1,0C52.1,118.1,52.1,119.1,52.7,119.7L52.7,119.7z"/>
	</g>
</g>
<g>
	<g>
		<path class="st0" d="M55.5,121.2c0.3,0.2,0.5,0.3,0.8,0.5c0.7,0.4,1.7,0.1,2.1-0.5c0.4-0.7,0.1-1.6-0.5-2.1
			c-0.3-0.2-0.5-0.3-0.8-0.5c-0.7-0.4-1.7-0.1-2.1,0.5C54.5,119.9,54.8,120.7,55.5,121.2L55.5,121.2z"/>
	</g>
</g>
<g>
	<g>
		<path class="st0" d="M58.2,122.2c0.1,0.1,0.2,0.2,0.3,0.3c0.6,0.6,1.5,0.6,2.1,0c0.6-0.6,0.6-1.5,0-2.1c-0.1-0.1-0.2-0.2-0.3-0.3
			c-0.6-0.6-1.5-0.6-2.1,0C57.6,120.6,57.6,121.6,58.2,122.2L58.2,122.2z"/>
	</g>
</g>
<g>
	<g>
		<path class="st0" d="M59.5,122.9c0,0.1,0,0.2,0,0.3c0,0.8,0.7,1.5,1.5,1.5c0.8,0,1.5-0.7,1.5-1.5c0-0.1,0-0.2,0-0.3
			c0-0.8-0.7-1.5-1.5-1.5C60.2,121.4,59.5,122,59.5,122.9L59.5,122.9z"/>
	</g>
</g>
<g>
	<g>
		<path class="st0" d="M58.8,125.4c1.9,0,1.9-3,0-3C56.8,122.4,56.8,125.4,58.8,125.4L58.8,125.4z"/>
	</g>
</g>
<g>
	<g>
		<path class="st0" d="M58.3,125.4c1.9,0,1.9-3,0-3C56.3,122.4,56.3,125.4,58.3,125.4L58.3,125.4z"/>
	</g>
</g>
<g>
	<g>
		<path class="st0" d="M57.8,125.1c1.9,0,1.9-3,0-3C55.8,122.1,55.8,125.1,57.8,125.1L57.8,125.1z"/>
	</g>
</g>
<g>
	<g>
		<path class="st0" d="M56.8,124.9c1.9,0,1.9-3,0-3C54.8,121.9,54.8,124.9,56.8,124.9L56.8,124.9z"/>
	</g>
</g>
<g>
	<g>
		<path class="st0" d="M56.5,124.9c1.9,0,1.9-3,0-3C54.6,121.9,54.6,124.9,56.5,124.9L56.5,124.9z"/>
	</g>
</g>
<g>
	<g>
		<path class="st0" d="M55.8,124.9c1.9,0,1.9-3,0-3C53.8,121.9,53.8,124.9,55.8,124.9L55.8,124.9z"/>
	</g>
</g>
<g>
	<g>
		<path class="st0" d="M55,124.9c1.9,0,1.9-3,0-3C53.1,121.9,53.1,124.9,55,124.9L55,124.9z"/>
	</g>
</g>
<g>
	<g>
		<path class="st0" d="M53.3,124.9c1.9,0,1.9-3,0-3C51.3,121.9,51.3,124.9,53.3,124.9L53.3,124.9z"/>
	</g>
</g>
<g>
	<g>
		<path class="st0" d="M52.3,125.1c1.9,0,1.9-3,0-3C50.3,122.1,50.3,125.1,52.3,125.1L52.3,125.1z"/>
	</g>
</g>
<g>
	<g>
		<path class="st0" d="M51.3,122.1c-0.1,0-0.2,0-0.3,0c-0.8,0-1.5,0.7-1.5,1.5c0,0.8,0.7,1.5,1.5,1.5c0.1,0,0.2,0,0.3,0
			c0.8,0,1.5-0.7,1.5-1.5C52.7,122.8,52.1,122.1,51.3,122.1L51.3,122.1z"/>
	</g>
</g>
<g>
	<g>
		<path class="st0" d="M49.5,125.1c1.9,0,1.9-3,0-3C47.6,122.1,47.6,125.1,49.5,125.1L49.5,125.1z"/>
	</g>
</g>
<g>
	<g>
		<path class="st0" d="M47.8,125.1c1.9,0,1.9-3,0-3C45.8,122.1,45.8,125.1,47.8,125.1L47.8,125.1z"/>
	</g>
</g>
<g>
	<g>
		<path class="st0" d="M46.5,125.1c1.9,0,1.9-3,0-3C44.6,122.1,44.6,125.1,46.5,125.1L46.5,125.1z"/>
	</g>
</g>
<g>
	<g>
		<path class="st0" d="M45.5,124.9c1.9,0,1.9-3,0-3C43.6,121.9,43.6,124.9,45.5,124.9L45.5,124.9z"/>
	</g>
</g>
<g>
	<g>
		<path class="st0" d="M44.8,124.9c1.9,0,1.9-3,0-3C42.8,121.9,42.8,124.9,44.8,124.9L44.8,124.9z"/>
	</g>
</g>
<g>
	<g>
		<path class="st0" d="M43.8,124.6c1.9,0,1.9-3,0-3C41.8,121.6,41.8,124.6,43.8,124.6L43.8,124.6z"/>
	</g>
</g>
<g>
	<g>
		<path class="st0" d="M43.5,124.4c1.9,0,1.9-3,0-3C41.6,121.4,41.6,124.4,43.5,124.4L43.5,124.4z"/>
	</g>
</g>
<g>
	<g>
		<path class="st0" d="M43.5,122.6c1.9,0,1.9-3,0-3C41.6,119.6,41.6,122.6,43.5,122.6L43.5,122.6z"/>
	</g>
</g>
<g>
	<g>
		<path class="st0" d="M43.5,122.6c1.9,0,1.9-3,0-3C41.6,119.6,41.6,122.6,43.5,122.6L43.5,122.6z"/>
	</g>
</g>
<g>
	<g>
		<path class="st0" d="M44.6,121.4c0.1-0.1,0.2-0.2,0.3-0.3c0.6-0.6,0.6-1.5,0-2.1c-0.6-0.6-1.5-0.6-2.1,0c-0.1,0.1-0.2,0.2-0.3,0.3
			c-0.6,0.6-0.6,1.5,0,2.1C43,122,44,122,44.6,121.4L44.6,121.4z"/>
	</g>
</g>
<g>
	<g>
		<path class="st0" d="M44,120.4c1.9,0,1.9-3,0-3C42.1,117.4,42.1,120.4,44,120.4L44,120.4z"/>
	</g>
</g>
<g>
	<g>
		<path class="st0" d="M44,119.1c1.9,0,1.9-3,0-3C42.1,116.1,42.1,119.1,44,119.1L44,119.1z"/>
	</g>
</g>
<g>
	<g>
		<path class="st0" d="M44.3,117.1c1.9,0,1.9-3,0-3C42.3,114.1,42.3,117.1,44.3,117.1L44.3,117.1z"/>
	</g>
</g>
<g>
	<g>
		<path class="st0" d="M44.8,116.1c1.9,0,1.9-3,0-3C42.8,113.1,42.8,116.1,44.8,116.1L44.8,116.1z"/>
	</g>
</g>
<g>
	<g>
		<path class="st0" d="M46.3,117.1c1.9,0,1.9-3,0-3C44.3,114.1,44.3,117.1,46.3,117.1L46.3,117.1z"/>
	</g>
</g>
<g>
	<g>
		<path class="st0" d="M48.3,117.4c1.9,0,1.9-3,0-3C46.3,114.4,46.3,117.4,48.3,117.4L48.3,117.4z"/>
	</g>
</g>
<g>
	<g>
		<path class="st0" d="M48.5,117.9c0.2,0.2,0.3,0.3,0.5,0.5c0.6,0.6,1.5,0.6,2.1,0c0.6-0.6,0.6-1.5,0-2.1c-0.2-0.2-0.3-0.3-0.5-0.5
			c-0.6-0.6-1.5-0.6-2.1,0C47.9,116.4,47.9,117.3,48.5,117.9L48.5,117.9z"/>
	</g>
</g>
<g>
	<g>
		<path class="st0" d="M50.7,119.7c0.2,0.2,0.3,0.3,0.5,0.5c0.6,0.6,1.5,0.6,2.1,0c0.6-0.6,0.6-1.5,0-2.1c-0.2-0.2-0.3-0.3-0.5-0.5
			c-0.6-0.6-1.5-0.6-2.1,0C50.1,118.1,50.1,119.1,50.7,119.7L50.7,119.7z"/>
	</g>
</g>
<g>
	<g>
		<path class="st0" d="M52.5,120.4c0.2,0.3,0.3,0.5,0.5,0.8c0.4,0.7,1.3,1,2.1,0.5c0.7-0.4,1-1.4,0.5-2.1c-0.2-0.3-0.3-0.5-0.5-0.8
			c-0.4-0.7-1.3-1-2.1-0.5C52.3,118.7,52,119.7,52.5,120.4L52.5,120.4z"/>
	</g>
</g>
<g>
	<g>
		<path class="st0" d="M56.8,122.9c0.1,0,0.2,0,0.3,0c0.8,0,1.5-0.7,1.5-1.5c0-0.8-0.7-1.5-1.5-1.5c-0.1,0-0.2,0-0.3,0
			c-0.8,0-1.5,0.7-1.5,1.5C55.3,122.2,55.9,122.9,56.8,122.9L56.8,122.9z"/>
	</g>
</g>
<g>
	<g>
		<path class="st0" d="M58.5,123.1c1.9,0,1.9-3,0-3C56.6,120.1,56.6,123.1,58.5,123.1L58.5,123.1z"/>
	</g>
</g>
<g>
	<g>
		<path class="st0" d="M55.8,121.1c-2.2,0.2-4.3,0-6.4-0.6c-0.8-0.3-2.4-0.6-2.9-1.4c-0.5-0.8-0.2-2-0.1-2.8c-0.6,0.5-1.3,1-1.9,1.4
			c1.5,0.4,2.2,2.3,3.4,3.2c1.1,0.9,2.3,1.1,3.7,0.8c1.9-0.4,1.1-3.3-0.8-2.9c-1.3,0.3-2.5-2-3.2-2.7c-0.7-0.7-1.4-1.1-2.3-1.3
			c-1-0.3-1.8,0.5-1.9,1.4c-0.3,2.7,0.2,4.9,2.7,6.2c3,1.4,6.4,1.9,9.7,1.7C57.7,124,57.7,121,55.8,121.1L55.8,121.1z"/>
	</g>
</g>
<g>
	<g>
		<path class="st0" d="M103.8,63.4c1.9,0,1.9-3,0-3C101.8,60.4,101.8,63.4,103.8,63.4L103.8,63.4z"/>
	</g>
</g>
<g>
	<g>
		<path class="st0" d="M103.5,63.4c1.9,0,1.9-3,0-3C101.6,60.4,101.6,63.4,103.5,63.4L103.5,63.4z"/>
	</g>
</g>
<g>
	<g>
		<path class="st0" d="M102.8,61.9c1.9,0,1.9-3,0-3C100.8,58.9,100.8,61.9,102.8,61.9L102.8,61.9z"/>
	</g>
</g>
<g>
	<g>
		<path class="st0" d="M102.8,60.4c1.9,0,1.9-3,0-3C100.8,57.4,100.8,60.4,102.8,60.4L102.8,60.4z"/>
	</g>
</g>
<g>
	<g>
		<path class="st0" d="M102,59.1c1.9,0,1.9-3,0-3C100.1,56.1,100.1,59.1,102,59.1L102,59.1z"/>
	</g>
</g>
<g>
	<g>
		<path class="st0" d="M101.5,57.6c1.9,0,1.9-3,0-3C99.6,54.6,99.6,57.6,101.5,57.6L101.5,57.6z"/>
	</g>
</g>
<g>
	<g>
		<path class="st0" d="M100.5,56.6c1.9,0,1.9-3,0-3C98.6,53.6,98.6,56.6,100.5,56.6L100.5,56.6z"/>
	</g>
</g>
<g>
	<g>
		<path class="st0" d="M100.3,56.1c1.9,0,1.9-3,0-3C98.3,53.1,98.3,56.1,100.3,56.1L100.3,56.1z"/>
	</g>
</g>
<g>
	<g>
		<path class="st0" d="M99.5,55.4c1.9,0,1.9-3,0-3C97.6,52.4,97.6,55.4,99.5,55.4L99.5,55.4z"/>
	</g>
</g>
<g>
	<g>
		<path class="st0" d="M97,54.6c1.9,0,1.9-3,0-3C95.1,51.6,95.1,54.6,97,54.6L97,54.6z"/>
	</g>
</g>
<g>
	<g>
		<path class="st0" d="M95.3,53.9c1.9,0,1.9-3,0-3C93.3,50.9,93.3,53.9,95.3,53.9L95.3,53.9z"/>
	</g>
</g>
<g>
	<g>
		<path class="st0" d="M94.3,53.1c1.9,0,1.9-3,0-3C92.3,50.1,92.3,53.1,94.3,53.1L94.3,53.1z"/>
	</g>
</g>
<g>
	<g>
		<path class="st0" d="M93,52.9c1.9,0,1.9-3,0-3C91.1,49.9,91.1,52.9,93,52.9L93,52.9z"/>
	</g>
</g>
<g>
	<g>
		<path class="st0" d="M89.8,51.9c1.9,0,1.9-3,0-3C87.8,48.9,87.8,51.9,89.8,51.9L89.8,51.9z"/>
	</g>
</g>
<g>
	<g>
		<path class="st0" d="M88.5,51.4c1.9,0,1.9-3,0-3C86.6,48.4,86.6,51.4,88.5,51.4L88.5,51.4z"/>
	</g>
</g>
<g>
	<g>
		<path class="st0" d="M92,51.6c1.9,0,1.9-3,0-3C90.1,48.6,90.1,51.6,92,51.6L92,51.6z"/>
	</g>
</g>
<g>
	<g>
		<path class="st0" d="M87.5,48.4c-0.1,0-0.2,0-0.3,0c-0.8,0-1.5,0.7-1.5,1.5c0,0.8,0.7,1.5,1.5,1.5c0.1,0,0.2,0,0.3,0
			c0.8,0,1.5-0.7,1.5-1.5C89,49,88.4,48.4,87.5,48.4L87.5,48.4z"/>
	</g>
</g>
<g>
	<g>
		<path class="st0" d="M83,48.4c-0.3,0-0.5,0-0.8,0c-0.8,0-1.5,0.7-1.5,1.5c0,0.8,0.7,1.5,1.5,1.5c0.3,0,0.5,0,0.8,0
			c0.8,0,1.5-0.7,1.5-1.5C84.5,49,83.9,48.4,83,48.4L83,48.4z"/>
	</g>
</g>
<g>
	<g>
		<path class="st0" d="M79.3,51.4c1.9,0,1.9-3,0-3C77.3,48.4,77.3,51.4,79.3,51.4L79.3,51.4z"/>
	</g>
</g>
<g>
	<g>
		<path class="st0" d="M76,51.1c1.9,0,1.9-3,0-3C74.1,48.1,74.1,51.1,76,51.1L76,51.1z"/>
	</g>
</g>
<g>
	<g>
		<path class="st0" d="M74,51.1c1.9,0,1.9-3,0-3C72.1,48.1,72.1,51.1,74,51.1L74,51.1z"/>
	</g>
</g>
<g>
	<g>
		<path class="st0" d="M63.8,51.6c1.9,0,1.9-3,0-3C61.8,48.6,61.8,51.6,63.8,51.6L63.8,51.6z"/>
	</g>
</g>
<g>
	<g>
		<path class="st0" d="M61,52.1c1.9,0,1.9-3,0-3C59.1,49.1,59.1,52.1,61,52.1L61,52.1z"/>
	</g>
</g>
<g>
	<g>
		<path class="st0" d="M68.8,51.6c1.9,0,1.9-3,0-3C66.8,48.6,66.8,51.6,68.8,51.6L68.8,51.6z"/>
	</g>
</g>
<g>
	<g>
		<path class="st0" d="M63.3,51.1c1.9,0,1.9-3,0-3C61.3,48.1,61.3,51.1,63.3,51.1L63.3,51.1z"/>
	</g>
</g>
<g>
	<g>
		<path class="st0" d="M58.5,48.6c-0.1,0.1-0.2,0.2-0.3,0.3c-0.6,0.6-0.6,1.5,0,2.1c0.6,0.6,1.5,0.6,2.1,0c0.1-0.1,0.2-0.2,0.3-0.3
			c0.6-0.6,0.6-1.5,0-2.1C60,48,59,48,58.5,48.6L58.5,48.6z"/>
	</g>
</g>
<g>
	<g>
		<path class="st0" d="M56.8,52.1c1.9,0,1.9-3,0-3C54.8,49.1,54.8,52.1,56.8,52.1L56.8,52.1z"/>
	</g>
</g>
<g>
	<g>
		<path class="st0" d="M51.5,52.4c1.9,0,1.9-3,0-3C49.6,49.4,49.6,52.4,51.5,52.4L51.5,52.4z"/>
	</g>
</g>
<g>
	<g>
		<path class="st0" d="M56.3,51.9c1.9,0,1.9-3,0-3C54.3,48.9,54.3,51.9,56.3,51.9L56.3,51.9z"/>
	</g>
</g>
<g>
	<g>
		<path class="st0" d="M52.5,51.9c1.9,0,1.9-3,0-3C50.6,48.9,50.6,51.9,52.5,51.9L52.5,51.9z"/>
	</g>
</g>
<g>
	<g>
		<path class="st0" d="M51,54.4c1.9,0,1.9-3,0-3C49.1,51.4,49.1,54.4,51,54.4L51,54.4z"/>
	</g>
</g>
<g>
	<g>
		<path class="st0" d="M48.3,57.6c1.9,0,1.9-3,0-3C46.3,54.6,46.3,57.6,48.3,57.6L48.3,57.6z"/>
	</g>
</g>
<g>
	<g>
		<path class="st0" d="M45.8,60.9c1.9,0,1.9-3,0-3C43.8,57.9,43.8,60.9,45.8,60.9L45.8,60.9z"/>
	</g>
</g>
<g>
	<g>
		<path class="st0" d="M45.8,62.6c1.9,0,1.9-3,0-3C43.8,59.6,43.8,62.6,45.8,62.6L45.8,62.6z"/>
	</g>
</g>
<g>
	<g>
		<path class="st0" d="M45.8,64.1c1.9,0,1.9-3,0-3C43.8,61.1,43.8,64.1,45.8,64.1L45.8,64.1z"/>
	</g>
</g>
<g>
	<g>
		<path class="st0" d="M45.3,61.4c1.9,0,1.9-3,0-3C43.3,58.4,43.3,61.4,45.3,61.4L45.3,61.4z"/>
	</g>
</g>
<g>
	<g>
		<path class="st0" d="M45.3,60.1c1.9,0,1.9-3,0-3C43.3,57.1,43.3,60.1,45.3,60.1L45.3,60.1z"/>
	</g>
</g>
<g>
	<g>
		<path class="st0" d="M45.8,57.9c1.9,0,1.9-3,0-3C43.8,54.9,43.8,57.9,45.8,57.9L45.8,57.9z"/>
	</g>
</g>
<g>
	<g>
		<path class="st0" d="M46.5,56.6c1.9,0,1.9-3,0-3C44.6,53.6,44.6,56.6,46.5,56.6L46.5,56.6z"/>
	</g>
</g>
<g>
	<g>
		<path class="st0" d="M47,55.1c1.9,0,1.9-3,0-3C45.1,52.1,45.1,55.1,47,55.1L47,55.1z"/>
	</g>
</g>
<g>
	<g>
		<path class="st0" d="M47.3,54.4c1.9,0,1.9-3,0-3C45.3,51.4,45.3,54.4,47.3,54.4L47.3,54.4z"/>
	</g>
</g>
<g>
	<g>
		<path class="st0" d="M43.8,63.6c1.9,0,1.9-3,0-3C41.8,60.6,41.8,63.6,43.8,63.6L43.8,63.6z"/>
	</g>
</g>
<g>
	<g>
		<path class="st0" d="M43.8,63.4c1.9,0,1.9-3,0-3C41.8,60.4,41.8,63.4,43.8,63.4L43.8,63.4z"/>
	</g>
</g>
<g>
	<g>
		<path class="st0" d="M44.3,60.4c1.9,0,1.9-3,0-3C42.3,57.4,42.3,60.4,44.3,60.4L44.3,60.4z"/>
	</g>
</g>
<g>
	<g>
		<path class="st0" d="M45.8,58.4c1.9,0,1.9-3,0-3C43.8,55.4,43.8,58.4,45.8,58.4L45.8,58.4z"/>
	</g>
</g>
<g>
	<g>
		<path class="st0" d="M47.5,56.6c1.9,0,1.9-3,0-3C45.6,53.6,45.6,56.6,47.5,56.6L47.5,56.6z"/>
	</g>
</g>
<g>
	<g>
		<path class="st0" d="M48.3,55.6c1.9,0,1.9-3,0-3C46.3,52.6,46.3,55.6,48.3,55.6L48.3,55.6z"/>
	</g>
</g>
<g>
	<g>
		<path class="st0" d="M49,54.4c1.9,0,1.9-3,0-3C47.1,51.4,47.1,54.4,49,54.4L49,54.4z"/>
	</g>
</g>
<g>
	<g>
		<path class="st0" d="M49.5,53.6c1.9,0,1.9-3,0-3C47.6,50.6,47.6,53.6,49.5,53.6L49.5,53.6z"/>
	</g>
</g>
<g>
	<g>
		<path class="st0" d="M50,51.9c1.9,0,1.9-3,0-3C48.1,48.9,48.1,51.9,50,51.9L50,51.9z"/>
	</g>
</g>
<g>
	<g>
		<path class="st0" d="M48,51.9c1.9,0,1.9-3,0-3C46.1,48.9,46.1,51.9,48,51.9L48,51.9z"/>
	</g>
</g>
<g>
	<g>
		<path class="st0" d="M48,51.6c1.9,0,1.9-3,0-3C46.1,48.6,46.1,51.6,48,51.6L48,51.6z"/>
	</g>
</g>
<g>
	<g>
		<path class="st0" d="M50.3,49.6c0.3-0.2,0.5-0.3,0.8-0.5c0.7-0.4,1-1.3,0.5-2.1c-0.4-0.7-1.4-1-2.1-0.5c-0.3,0.2-0.5,0.3-0.8,0.5
			c-0.7,0.4-1,1.3-0.5,2.1C48.6,49.8,49.6,50.1,50.3,49.6L50.3,49.6z"/>
	</g>
</g>
<g>
	<g>
		<path class="st0" d="M51.5,48.9c1.9,0,1.9-3,0-3C49.6,45.9,49.6,48.9,51.5,48.9L51.5,48.9z"/>
	</g>
</g>
<g>
	<g>
		<path class="st0" d="M52.3,47.4c1.9,0,1.9-3,0-3C50.3,44.4,50.3,47.4,52.3,47.4L52.3,47.4z"/>
	</g>
</g>
<g>
	<g>
		<path class="st0" d="M54.3,46.4c0.2-0.1,0.3-0.2,0.5-0.3c0.7-0.4,0.9-1.4,0.5-2.1c-0.4-0.7-1.3-0.9-2.1-0.5
			c-0.2,0.1-0.3,0.2-0.5,0.3c-0.7,0.4-0.9,1.4-0.5,2.1C52.7,46.6,53.6,46.8,54.3,46.4L54.3,46.4z"/>
	</g>
</g>
<g>
	<g>
		<path class="st0" d="M55.3,45.4c1.9,0,1.9-3,0-3C53.3,42.4,53.3,45.4,55.3,45.4L55.3,45.4z"/>
	</g>
</g>
<g>
	<g>
		<path class="st0" d="M58.3,43.7c0.1-0.1,0.2-0.2,0.3-0.3c0.6-0.6,0.6-1.5,0-2.1c-0.6-0.6-1.5-0.6-2.1,0c-0.1,0.1-0.2,0.2-0.3,0.3
			c-0.6,0.6-0.6,1.5,0,2.1C56.8,44.2,57.8,44.2,58.3,43.7L58.3,43.7z"/>
	</g>
</g>
<g>
	<g>
		<path class="st0" d="M59.5,43.1c0.3,0,0.7,0,1,0c0.8,0,1.5-0.7,1.5-1.5c0-0.8-0.7-1.5-1.5-1.5c-0.3,0-0.7,0-1,0
			c-0.8,0-1.5,0.7-1.5,1.5C58.1,42.4,58.7,43.1,59.5,43.1L59.5,43.1z"/>
	</g>
</g>
<g>
	<g>
		<path class="st0" d="M62.5,42.9c1.9,0,1.9-3,0-3C60.6,39.9,60.6,42.9,62.5,42.9L62.5,42.9z"/>
	</g>
</g>
<g>
	<g>
		<path class="st0" d="M65,42.7c0.2-0.1,0.3-0.2,0.5-0.3c0.7-0.4,0.9-1.4,0.5-2.1c-0.4-0.7-1.3-0.9-2.1-0.5
			c-0.2,0.1-0.3,0.2-0.5,0.3c-0.7,0.4-0.9,1.4-0.5,2.1C63.4,42.9,64.3,43,65,42.7L65,42.7z"/>
	</g>
</g>
<g>
	<g>
		<path class="st0" d="M67,42.6c0.1,0,0.2,0,0.3,0c0.8,0,1.5-0.7,1.5-1.5c0-0.8-0.7-1.5-1.5-1.5c-0.1,0-0.2,0-0.3,0
			c-0.8,0-1.5,0.7-1.5,1.5C65.6,41.9,66.2,42.6,67,42.6L67,42.6z"/>
	</g>
</g>
<g>
	<g>
		<path class="st0" d="M70.5,42.6c0.3,0,0.7,0,1,0c0.8,0,1.5-0.7,1.5-1.5c0-0.8-0.7-1.5-1.5-1.5c-0.3,0-0.7,0-1,0
			c-0.8,0-1.5,0.7-1.5,1.5C69.1,41.9,69.7,42.6,70.5,42.6L70.5,42.6z"/>
	</g>
</g>
<g>
	<g>
		<path class="st0" d="M73.5,42.4c0.1,0,0.2,0,0.3,0c0.8,0,1.5-0.7,1.5-1.5c0-0.8-0.7-1.5-1.5-1.5c-0.1,0-0.2,0-0.3,0
			c-0.8,0-1.5,0.7-1.5,1.5C72.1,41.7,72.7,42.4,73.5,42.4L73.5,42.4z"/>
	</g>
</g>
<g>
	<g>
		<path class="st0" d="M77,42.1c1.9,0,1.9-3,0-3C75.1,39.1,75.1,42.1,77,42.1L77,42.1z"/>
	</g>
</g>
<g>
	<g>
		<path class="st0" d="M77,42.1c1.9,0,1.9-3,0-3C75.1,39.1,75.1,42.1,77,42.1L77,42.1z"/>
	</g>
</g>
<g>
	<g>
		<path class="st0" d="M69.3,42.1c1.9,0,1.9-3,0-3C67.3,39.1,67.3,42.1,69.3,42.1L69.3,42.1z"/>
	</g>
</g>
<g>
	<g>
		<path class="st0" d="M77.3,42.1c1.9,0,1.9-3,0-3C75.3,39.1,75.3,42.1,77.3,42.1L77.3,42.1z"/>
	</g>
</g>
<g>
	<g>
		<path class="st0" d="M79,42.1c0.1,0,0.2,0,0.3,0c0.8,0,1.5-0.7,1.5-1.5c0-0.8-0.7-1.5-1.5-1.5c-0.1,0-0.2,0-0.3,0
			c-0.8,0-1.5,0.7-1.5,1.5C77.6,41.4,78.2,42.1,79,42.1L79,42.1z"/>
	</g>
</g>
<g>
	<g>
		<path class="st0" d="M80.5,42.1c1.9,0,1.9-3,0-3C78.6,39.1,78.6,42.1,80.5,42.1L80.5,42.1z"/>
	</g>
</g>
<g>
	<g>
		<path class="st0" d="M84.8,42.1c1.9,0,1.9-3,0-3C82.8,39.1,82.8,42.1,84.8,42.1L84.8,42.1z"/>
	</g>
</g>
<g>
	<g>
		<path class="st0" d="M85.8,42.1c0.1,0,0.2,0,0.3,0c0.8,0,1.5-0.7,1.5-1.5c0-0.8-0.7-1.5-1.5-1.5c-0.1,0-0.2,0-0.3,0
			c-0.8,0-1.5,0.7-1.5,1.5C84.3,41.4,84.9,42.1,85.8,42.1L85.8,42.1z"/>
	</g>
</g>
<g>
	<g>
		<path class="st0" d="M87.3,42.6c1.9,0,1.9-3,0-3C85.3,39.6,85.3,42.6,87.3,42.6L87.3,42.6z"/>
	</g>
</g>
<g>
	<g>
		<path class="st0" d="M83.5,42.4c1.9,0,1.9-3,0-3C81.6,39.4,81.6,42.4,83.5,42.4L83.5,42.4z"/>
	</g>
</g>
<g>
	<g>
		<path class="st0" d="M81.5,38.9c-0.1,0-0.2,0-0.3,0c-0.8,0-1.5,0.7-1.5,1.5c0,0.8,0.7,1.5,1.5,1.5c0.1,0,0.2,0,0.3,0
			c0.8,0,1.5-0.7,1.5-1.5C83,39.5,82.4,38.9,81.5,38.9L81.5,38.9z"/>
	</g>
</g>
<g>
	<g>
		<path class="st0" d="M75.8,41.9c1.9,0,1.9-3,0-3C73.8,38.9,73.8,41.9,75.8,41.9L75.8,41.9z"/>
	</g>
</g>
<g>
	<g>
		<path class="st0" d="M73.5,41.9c1.9,0,1.9-3,0-3C71.6,38.9,71.6,41.9,73.5,41.9L73.5,41.9z"/>
	</g>
</g>
<g>
	<g>
		<path class="st0" d="M88.5,42.9c1.9,0,1.9-3,0-3C86.6,39.9,86.6,42.9,88.5,42.9L88.5,42.9z"/>
	</g>
</g>
<g>
	<g>
		<path class="st0" d="M89.3,43.4c0.1,0,0.2,0,0.3,0c0.8,0,1.5-0.7,1.5-1.5c0-0.8-0.7-1.5-1.5-1.5c-0.1,0-0.2,0-0.3,0
			c-0.8,0-1.5,0.7-1.5,1.5C87.8,42.7,88.4,43.4,89.3,43.4L89.3,43.4z"/>
	</g>
</g>
<g>
	<g>
		<path class="st0" d="M90.5,43.4c0.3,0.2,0.7,0.3,1,0.5c0.7,0.4,1.6,0.2,2.1-0.5c0.4-0.7,0.2-1.7-0.5-2.1c-0.3-0.2-0.7-0.3-1-0.5
			c-0.7-0.4-1.6-0.2-2.1,0.5C89.6,42,89.8,43,90.5,43.4L90.5,43.4z"/>
	</g>
</g>
<g>
	<g>
		<path class="st0" d="M93.8,44.6c0.1,0,0.2,0,0.3,0c0.8,0,1.5-0.7,1.5-1.5c0-0.8-0.7-1.5-1.5-1.5c-0.1,0-0.2,0-0.3,0
			c-0.8,0-1.5,0.7-1.5,1.5C92.3,43.9,92.9,44.6,93.8,44.6L93.8,44.6z"/>
	</g>
</g>
<g>
	<g>
		<path class="st0" d="M94.8,45.6c1.9,0,1.9-3,0-3C92.8,42.6,92.8,45.6,94.8,45.6L94.8,45.6z"/>
	</g>
</g>
<g>
	<g>
		<path class="st0" d="M94,45.7c0.2,0.2,0.3,0.3,0.5,0.5c0.6,0.6,1.5,0.6,2.1,0c0.6-0.6,0.6-1.5,0-2.1c-0.2-0.2-0.3-0.3-0.5-0.5
			c-0.6-0.6-1.5-0.6-2.1,0C93.4,44.1,93.4,45.1,94,45.7L94,45.7z"/>
	</g>
</g>
<g>
	<g>
		<path class="st0" d="M95.5,47.1c0.2,0.1,0.3,0.2,0.5,0.3c0.7,0.4,1.6,0.2,2.1-0.5c0.4-0.7,0.2-1.7-0.5-2.1
			c-0.2-0.1-0.3-0.2-0.5-0.3c-0.7-0.4-1.6-0.2-2.1,0.5C94.6,45.7,94.8,46.8,95.5,47.1L95.5,47.1z"/>
	</g>
</g>
<g>
	<g>
		<path class="st0" d="M96.2,47.7c0.1,0.1,0.2,0.2,0.3,0.3c0.6,0.6,1.5,0.6,2.1,0c0.6-0.6,0.6-1.5,0-2.1c-0.1-0.1-0.2-0.2-0.3-0.3
			c-0.6-0.6-1.5-0.6-2.1,0C95.6,46.1,95.6,47.1,96.2,47.7L96.2,47.7z"/>
	</g>
</g>
<g>
	<g>
		<path class="st0" d="M97.2,49.1c0.2,0.3,0.3,0.5,0.5,0.8c0.4,0.7,1.3,1,2.1,0.5c0.7-0.4,1-1.4,0.5-2.1c-0.2-0.3-0.3-0.5-0.5-0.8
			c-0.4-0.7-1.3-1-2.1-0.5C97.1,47.5,96.8,48.4,97.2,49.1L97.2,49.1z"/>
	</g>
</g>
<g>
	<g>
		<path class="st0" d="M100,52.1c1.9,0,1.9-3,0-3C98.1,49.1,98.1,52.1,100,52.1L100,52.1z"/>
	</g>
</g>
<g>
	<g>
		<path class="st0" d="M99.5,52.7c0.1,0.1,0.2,0.2,0.3,0.3c0.6,0.6,1.5,0.6,2.1,0c0.6-0.6,0.6-1.5,0-2.1c-0.1-0.1-0.2-0.2-0.3-0.3
			c-0.6-0.6-1.5-0.6-2.1,0C98.9,51.1,98.9,52.1,99.5,52.7L99.5,52.7z"/>
	</g>
</g>
<g>
	<g>
		<path class="st0" d="M99.8,53.1c0,0.1,0,0.2,0,0.3c0,0.8,0.7,1.5,1.5,1.5c0.8,0,1.5-0.7,1.5-1.5c0-0.1,0-0.2,0-0.3
			c0-0.8-0.7-1.5-1.5-1.5C100.5,51.6,99.8,52.3,99.8,53.1L99.8,53.1z"/>
	</g>
</g>
<g>
	<g>
		<path class="st0" d="M102,56.4c1.9,0,1.9-3,0-3C100.1,53.4,100.1,56.4,102,56.4L102,56.4z"/>
	</g>
</g>
<g>
	<g>
		<path class="st0" d="M101.3,55.6c0,0.1,0,0.2,0,0.3c0,0.8,0.7,1.5,1.5,1.5c0.8,0,1.5-0.7,1.5-1.5c0-0.1,0-0.2,0-0.3
			c0-0.8-0.7-1.5-1.5-1.5C102,54.1,101.3,54.8,101.3,55.6L101.3,55.6z"/>
	</g>
</g>
<g>
	<g>
		<path class="st0" d="M102,58.4c0.1,0.2,0.2,0.3,0.3,0.5c0.4,0.7,1.4,0.9,2.1,0.5c0.7-0.4,0.9-1.3,0.5-2.1
			c-0.1-0.2-0.2-0.3-0.3-0.5c-0.4-0.7-1.4-0.9-2.1-0.5C101.8,56.7,101.6,57.6,102,58.4L102,58.4z"/>
	</g>
</g>
<g>
	<g>
		<path class="st0" d="M103,60.9c0.1,0.1,0.2,0.2,0.3,0.3c0.6,0.6,1.5,0.6,2.1,0c0.6-0.6,0.6-1.5,0-2.1c-0.1-0.1-0.2-0.2-0.3-0.3
			c-0.6-0.6-1.5-0.6-2.1,0C102.4,59.4,102.4,60.3,103,60.9L103,60.9z"/>
	</g>
</g>
<g>
	<g>
		<path class="st0" d="M105,64.9c1.9,0,1.9-3,0-3C103.1,61.9,103.1,64.9,105,64.9L105,64.9z"/>
	</g>
</g>
<g>
	<g>
		<path class="st0" d="M104.5,79.4c1.9,0,1.9-3,0-3C102.6,76.4,102.6,79.4,104.5,79.4L104.5,79.4z"/>
	</g>
</g>
<g>
	<g>
		<path class="st0" d="M103,80.9c0,0.2,0,0.3,0,0.5c0,0.8,0.7,1.5,1.5,1.5c0.8,0,1.5-0.7,1.5-1.5c0-0.2,0-0.3,0-0.5
			c0-0.8-0.7-1.5-1.5-1.5C103.7,79.4,103,80,103,80.9L103,80.9z"/>
	</g>
</g>
<g>
	<g>
		<path class="st0" d="M103,85.6c0,0.2,0,0.3,0,0.5c0,0.8,0.7,1.5,1.5,1.5c0.8,0,1.5-0.7,1.5-1.5c0-0.2,0-0.3,0-0.5
			c0-0.8-0.7-1.5-1.5-1.5C103.7,84.1,103,84.8,103,85.6L103,85.6z"/>
	</g>
</g>
<g>
	<g>
		<path class="st0" d="M103.5,89.4c0.2,0.2,0.3,0.3,0.5,0.5c0.6,0.6,1.5,0.6,2.1,0c0.6-0.6,0.6-1.5,0-2.1c-0.2-0.2-0.3-0.3-0.5-0.5
			c-0.6-0.6-1.5-0.6-2.1,0C102.9,87.9,102.9,88.8,103.5,89.4L103.5,89.4z"/>
	</g>
</g>
<g>
	<g>
		<path class="st0" d="M104,91.4c0,0.1,0,0.2,0,0.3c0,0.8,0.7,1.5,1.5,1.5c0.8,0,1.5-0.7,1.5-1.5c0-0.1,0-0.2,0-0.3
			c0-0.8-0.7-1.5-1.5-1.5C104.7,89.9,104,90.5,104,91.4L104,91.4z"/>
	</g>
</g>
<g>
	<g>
		<path class="st0" d="M104,94.1c0,0.1,0,0.2,0,0.3c0,0.8,0.7,1.5,1.5,1.5c0.8,0,1.5-0.7,1.5-1.5c0-0.1,0-0.2,0-0.3
			c0-0.8-0.7-1.5-1.5-1.5C104.7,92.6,104,93.3,104,94.1L104,94.1z"/>
	</g>
</g>
<g>
	<g>
		<path class="st0" d="M105.5,96.9c1.9,0,1.9-3,0-3C103.6,93.9,103.6,96.9,105.5,96.9L105.5,96.9z"/>
	</g>
</g>
<g>
	<g>
		<path class="st0" d="M105.5,98.1c1.9,0,1.9-3,0-3C103.6,95.1,103.6,98.1,105.5,98.1L105.5,98.1z"/>
	</g>
</g>
<g>
	<g>
		<path class="st0" d="M104,98.6c0,0.1,0,0.2,0,0.3c0,0.8,0.7,1.5,1.5,1.5c0.8,0,1.5-0.7,1.5-1.5c0-0.1,0-0.2,0-0.3
			c0-0.8-0.7-1.5-1.5-1.5C104.7,97.1,104,97.8,104,98.6L104,98.6z"/>
	</g>
</g>
<g>
	<g>
		<path class="st0" d="M103.8,100.6c0,0.4,0,0.8,0,1.3c0,0.8,0.7,1.5,1.5,1.5c0.8,0,1.5-0.7,1.5-1.5c0-0.4,0-0.8,0-1.3
			c0-0.8-0.7-1.5-1.5-1.5C104.5,99.1,103.8,99.8,103.8,100.6L103.8,100.6z"/>
	</g>
</g>
<g>
	<g>
		<path class="st0" d="M105,104.1c1.9,0,1.9-3,0-3C103.1,101.1,103.1,104.1,105,104.1L105,104.1z"/>
	</g>
</g>
<g>
	<g>
		<path class="st0" d="M105,109.6c1.9,0,1.9-3,0-3C103.1,106.6,103.1,109.6,105,109.6L105,109.6z"/>
	</g>
</g>
<g>
	<g>
		<path class="st0" d="M103.8,110.6c0,0.1,0,0.2,0,0.3c0,0.8,0.7,1.5,1.5,1.5c0.8,0,1.5-0.7,1.5-1.5c0-0.1,0-0.2,0-0.3
			c0-0.8-0.7-1.5-1.5-1.5C104.5,109.1,103.8,109.8,103.8,110.6L103.8,110.6z"/>
	</g>
</g>
<g>
	<g>
		<path class="st0" d="M103.8,112.1c0,0.3,0,0.5,0,0.8c0,0.8,0.7,1.5,1.5,1.5c0.8,0,1.5-0.7,1.5-1.5c0-0.3,0-0.5,0-0.8
			c0-0.8-0.7-1.5-1.5-1.5C104.5,110.6,103.8,111.3,103.8,112.1L103.8,112.1z"/>
	</g>
</g>
<g>
	<g>
		<path class="st0" d="M103.8,114.9c0,0.1,0,0.2,0,0.3c0,0.8,0.7,1.5,1.5,1.5c0.8,0,1.5-0.7,1.5-1.5c0-0.1,0-0.2,0-0.3
			c0-0.8-0.7-1.5-1.5-1.5C104.5,113.4,103.8,114,103.8,114.9L103.8,114.9z"/>
	</g>
</g>
<g>
	<g>
		<path class="st0" d="M103.8,117.1c0,0.1,0,0.2,0,0.3c0,0.8,0.7,1.5,1.5,1.5c0.8,0,1.5-0.7,1.5-1.5c0-0.1,0-0.2,0-0.3
			c0-0.8-0.7-1.5-1.5-1.5C104.5,115.6,103.8,116.3,103.8,117.1L103.8,117.1z"/>
	</g>
</g>
<g>
	<g>
		<path class="st0" d="M103.8,119.6c0,0.3,0,0.5,0,0.8c0,0.8,0.7,1.5,1.5,1.5c0.8,0,1.5-0.7,1.5-1.5c0-0.3,0-0.5,0-0.8
			c0-0.8-0.7-1.5-1.5-1.5C104.5,118.1,103.8,118.8,103.8,119.6L103.8,119.6z"/>
	</g>
</g>
<g>
	<g>
		<path class="st0" d="M104.8,124.1c1.9,0,1.9-3,0-3C102.8,121.1,102.8,124.1,104.8,124.1L104.8,124.1z"/>
	</g>
</g>
<g>
	<g>
		<path class="st0" d="M104.8,124.6c1.9,0,1.9-3,0-3C102.8,121.6,102.8,124.6,104.8,124.6L104.8,124.6z"/>
	</g>
</g>
<g>
	<g>
		<path class="st0" d="M102.8,124.1c0,0.1,0,0.2,0,0.3c0,0.8,0.7,1.5,1.5,1.5c0.8,0,1.5-0.7,1.5-1.5c0-0.1,0-0.2,0-0.3
			c0-0.8-0.7-1.5-1.5-1.5C103.5,122.6,102.8,123.3,102.8,124.1L102.8,124.1z"/>
	</g>
</g>
<g>
	<g>
		<path class="st0" d="M104,126.4c1.9,0,1.9-3,0-3C102.1,123.4,102.1,126.4,104,126.4L104,126.4z"/>
	</g>
</g>
<g>
	<g>
		<path class="st0" d="M103,126.6c1.9,0,1.9-3,0-3C101.1,123.6,101.1,126.6,103,126.6L103,126.6z"/>
	</g>
</g>
<g>
	<g>
		<path class="st0" d="M100.8,126.4c1.9,0,1.9-3,0-3C98.8,123.4,98.8,126.4,100.8,126.4L100.8,126.4z"/>
	</g>
</g>
<g>
	<g>
		<path class="st0" d="M99.5,126.4c1.9,0,1.9-3,0-3C97.6,123.4,97.6,126.4,99.5,126.4L99.5,126.4z"/>
	</g>
</g>
<g>
	<g>
		<path class="st0" d="M98.5,126.4c1.9,0,1.9-3,0-3C96.6,123.4,96.6,126.4,98.5,126.4L98.5,126.4z"/>
	</g>
</g>
<g>
	<g>
		<path class="st0" d="M97,126.4c1.9,0,1.9-3,0-3C95.1,123.4,95.1,126.4,97,126.4L97,126.4z"/>
	</g>
</g>
<g>
	<g>
		<path class="st0" d="M95.8,126.4c1.9,0,1.9-3,0-3C93.8,123.4,93.8,126.4,95.8,126.4L95.8,126.4z"/>
	</g>
</g>
<g>
	<g>
		<path class="st0" d="M94,126.4c1.9,0,1.9-3,0-3C92.1,123.4,92.1,126.4,94,126.4L94,126.4z"/>
	</g>
</g>
<g>
	<g>
		<path class="st0" d="M93,123.4c-0.1,0-0.2,0-0.3,0c-0.8,0-1.5,0.7-1.5,1.5c0,0.8,0.7,1.5,1.5,1.5c0.1,0,0.2,0,0.3,0
			c0.8,0,1.5-0.7,1.5-1.5C94.5,124,93.9,123.4,93,123.4L93,123.4z"/>
	</g>
</g>
<g>
	<g>
		<path class="st0" d="M90.8,126.4c1.9,0,1.9-3,0-3C88.8,123.4,88.8,126.4,90.8,126.4L90.8,126.4z"/>
	</g>
</g>
<g>
	<g>
		<path class="st0" d="M89.5,126.4c1.9,0,1.9-3,0-3C87.6,123.4,87.6,126.4,89.5,126.4L89.5,126.4z"/>
	</g>
</g>
<g>
	<g>
		<path class="st0" d="M60.8,127.1c1.9,0,1.9-3,0-3C58.8,124.1,58.8,127.1,60.8,127.1L60.8,127.1z"/>
	</g>
</g>
<g>
	<g>
		<path class="st0" d="M61.8,127.1c1.9,0,1.9-3,0-3C59.8,124.1,59.8,127.1,61.8,127.1L61.8,127.1z"/>
	</g>
</g>
<g>
	<g>
		<path class="st0" d="M63.5,125.4c1.9,0,1.9-3,0-3C61.6,122.4,61.6,125.4,63.5,125.4L63.5,125.4z"/>
	</g>
</g>
<g>
	<g>
		<path class="st0" d="M62,123.4c0,0.1,0,0.2,0,0.3c0,0.8,0.7,1.5,1.5,1.5c0.8,0,1.5-0.7,1.5-1.5c0-0.1,0-0.2,0-0.3
			c0-0.8-0.7-1.5-1.5-1.5C62.7,121.9,62,122.5,62,123.4L62,123.4z"/>
	</g>
</g>
<g>
	<g>
		<path class="st0" d="M62.3,124.1c-0.1,0-0.2,0-0.3,0c-0.8,0-1.5,0.7-1.5,1.5c0,0.8,0.7,1.5,1.5,1.5c0.1,0,0.2,0,0.3,0
			c0.8,0,1.5-0.7,1.5-1.5C63.7,124.8,63.1,124.1,62.3,124.1L62.3,124.1z"/>
	</g>
</g>
<g>
	<g>
		<path class="st0" d="M59.5,124.4c-0.2,0-0.3,0-0.5,0c-0.8,0-1.5,0.7-1.5,1.5c0,0.8,0.7,1.5,1.5,1.5c0.2,0,0.3,0,0.5,0
			c0.8,0,1.5-0.7,1.5-1.5C61,125,60.4,124.4,59.5,124.4L59.5,124.4z"/>
	</g>
</g>
<g>
	<g>
		<path class="st0" d="M57,125.1c-0.1,0-0.2,0-0.3,0c-0.8,0-1.5,0.7-1.5,1.5c0,0.8,0.7,1.5,1.5,1.5c0.1,0,0.2,0,0.3,0
			c0.8,0,1.5-0.7,1.5-1.5C58.5,125.8,57.9,125.1,57,125.1L57,125.1z"/>
	</g>
</g>
<g>
	<g>
		<path class="st0" d="M55.5,128.1c1.9,0,1.9-3,0-3C53.6,125.1,53.6,128.1,55.5,128.1L55.5,128.1z"/>
	</g>
</g>
<g>
	<g>
		<path class="st0" d="M54.3,128.1c1.9,0,1.9-3,0-3C52.3,125.1,52.3,128.1,54.3,128.1L54.3,128.1z"/>
	</g>
</g>
<g>
	<g>
		<path class="st0" d="M52.5,128.1c1.9,0,1.9-3,0-3C50.6,125.1,50.6,128.1,52.5,128.1L52.5,128.1z"/>
	</g>
</g>
<g>
	<g>
		<path class="st0" d="M51.8,125.1c-0.1,0-0.2,0-0.3,0c-0.8,0-1.5,0.7-1.5,1.5c0,0.8,0.7,1.5,1.5,1.5c0.1,0,0.2,0,0.3,0
			c0.8,0,1.5-0.7,1.5-1.5C53.2,125.8,52.6,125.1,51.8,125.1L51.8,125.1z"/>
	</g>
</g>
<g>
	<g>
		<path class="st0" d="M49.8,125.1c-0.1,0-0.2,0-0.3,0c-0.8,0-1.5,0.7-1.5,1.5c0,0.8,0.7,1.5,1.5,1.5c0.1,0,0.2,0,0.3,0
			c0.8,0,1.5-0.7,1.5-1.5C51.2,125.8,50.6,125.1,49.8,125.1L49.8,125.1z"/>
	</g>
</g>
<g>
	<g>
		<path class="st0" d="M47,124.9c-0.2,0-0.3,0-0.5,0c-0.8,0-1.5,0.7-1.5,1.5c0,0.8,0.7,1.5,1.5,1.5c0.2,0,0.3,0,0.5,0
			c0.8,0,1.5-0.7,1.5-1.5C48.5,125.5,47.9,124.9,47,124.9L47,124.9z"/>
	</g>
</g>
<g>
	<g>
		<path class="st0" d="M44.3,127.6c1.9,0,1.9-3,0-3C42.3,124.6,42.3,127.6,44.3,127.6L44.3,127.6z"/>
	</g>
</g>
<g>
	<g>
		<path class="st0" d="M43.5,126.6c1.9,0,1.9-3,0-3C41.6,123.6,41.6,126.6,43.5,126.6L43.5,126.6z"/>
	</g>
</g>
<g>
	<g>
		<path class="st0" d="M44.8,126.4c0.3,0,0.7,0,1,0c0.8,0,1.5-0.7,1.5-1.5c0-0.8-0.7-1.5-1.5-1.5c-0.3,0-0.7,0-1,0
			c-0.8,0-1.5,0.7-1.5,1.5C43.3,125.7,43.9,126.4,44.8,126.4L44.8,126.4z"/>
	</g>
</g>
<g>
	<g>
		<path class="st0" d="M48.3,126.4c1.9,0,1.9-3,0-3C46.3,123.4,46.3,126.4,48.3,126.4L48.3,126.4z"/>
	</g>
</g>
<g>
	<g>
		<path class="st0" d="M49.3,126.4c0.1,0,0.2,0,0.3,0c0.8,0,1.5-0.7,1.5-1.5c0-0.8-0.7-1.5-1.5-1.5c-0.1,0-0.2,0-0.3,0
			c-0.8,0-1.5,0.7-1.5,1.5C47.8,125.7,48.4,126.4,49.3,126.4L49.3,126.4z"/>
	</g>
</g>
<g>
	<g>
		<path class="st0" d="M51.8,126.1c0.3,0,0.5,0,0.8,0c0.8,0,1.5-0.7,1.5-1.5c0-0.8-0.7-1.5-1.5-1.5c-0.3,0-0.5,0-0.8,0
			c-0.8,0-1.5,0.7-1.5,1.5C50.3,125.4,50.9,126.1,51.8,126.1L51.8,126.1z"/>
	</g>
</g>
<g>
	<g>
		<path class="st0" d="M53.4,126c0.3-0.1,0.5-0.2,0.8-0.2c0.8-0.2,1.3-1,1-1.8c-0.2-0.8-1.1-1.3-1.8-1c-0.3,0.1-0.5,0.2-0.8,0.2
			c-0.8,0.2-1.3,1-1,1.8C51.8,125.7,52.6,126.3,53.4,126L53.4,126z"/>
	</g>
</g>
<g>
	<g>
		<path class="st0" d="M55.8,125.9c1.9,0,1.9-3,0-3C53.8,122.9,53.8,125.9,55.8,125.9L55.8,125.9z"/>
	</g>
</g>
<g>
	<g>
		<path class="st0" d="M56.8,125.9c1.9,0,1.9-3,0-3C54.8,122.9,54.8,125.9,56.8,125.9L56.8,125.9z"/>
	</g>
</g>
<g>
	<g>
		<path class="st0" d="M52.5,122.9c1.9,0,1.9-3,0-3C50.6,119.9,50.6,122.9,52.5,122.9L52.5,122.9z"/>
	</g>
</g>
<g>
	<g>
		<path class="st0" d="M87.8,124.9c1.9,0,1.9-3,0-3C85.8,121.9,85.8,124.9,87.8,124.9L87.8,124.9z"/>
	</g>
</g>
<g>
	<g>
		<path class="st0" d="M88.5,124.1c1.9,0,1.9-3,0-3C86.6,121.1,86.6,124.1,88.5,124.1L88.5,124.1z"/>
	</g>
</g>
<g>
	<g>
		<path class="st0" d="M88.8,123.4c1.9,0,1.9-3,0-3C86.8,120.4,86.8,123.4,88.8,123.4L88.8,123.4z"/>
	</g>
</g>
<g>
	<g>
		<path class="st0" d="M88.8,126.6c1.9,0,1.9-3,0-3C86.8,123.6,86.8,126.6,88.8,126.6L88.8,126.6z"/>
	</g>
</g>
<path class="st1" d="M79.3,242.7h26v-41.3c0-3.3-2.7-6-6-6h-14c-3.3,0-6,2.7-6,6V242.7z"/>
<path class="st1" d="M46.9,242.5h26v-41.3c0-3.3-2.7-6-6-6h-14c-3.3,0-6,2.7-6,6V242.5z"/>
<path class="st2" d="M107,194.3c-4.5-0.2-5.2-1.2-32.8-1.2c-26.6,0-19.9,6-32.5,0C25.5,185.5,25,114.4,73.5,114
	C129,113.6,122.6,194.9,107,194.3z"/>
<path class="st3" d="M105.9,202.2H45c-1.8,0-3.2-1.4-3.2-3.2v-9.2c0-1.8,1.4-3.2,3.2-3.2h60.9c1.8,0,3.2,1.4,3.2,3.2v9.2
	C109.1,200.7,107.6,202.2,105.9,202.2z"/>
<path class="st2" d="M101.5,155.3l-4.3-22.2c-1.2-6.1,2.9-12.1,9-13.3l6.5-1.2c6.1-1.2,12.1,2.9,13.3,9l4.3,22.2
	c1.2,6.1-2.9,12.1-9,13.3l-6.5,1.2C108.6,165.4,102.7,161.4,101.5,155.3z"/>
<rect x="104" y="157.5" transform="matrix(0.1888 0.982 -0.982 0.1888 264.5132 14.2178)" class="st4" width="39.3" height="19.5"/>
<circle class="st4" cx="127" cy="184.8" r="10.7"/>
<path class="st2" d="M49.9,156.6l4.3-22.2c1.2-6.1-2.9-12.1-9-13.3l-6.5-1.2c-6.1-1.2-12.1,2.9-13.3,9l-4.3,22.2
	c-1.2,6.1,2.9,12.1,9,13.3l6.5,1.2C42.7,166.8,48.7,162.8,49.9,156.6z"/>
<rect x="7.9" y="159.9" transform="matrix(-0.1888 0.982 -0.982 -0.1888 199.1865 174.4687)" class="st4" width="39.3" height="19.2"/>
<path class="st5" d="M85.6,203H65.1c-2.1,0-3.7-1.7-3.7-3.7v-8.9c0-2.1,1.7-3.7,3.7-3.7h20.4c2.1,0,3.7,1.7,3.7,3.7v8.9
	C89.3,201.3,87.6,203,85.6,203z"/>
<g>
	<path class="st6" d="M121,262.3H78.8V239H103c9.9,0,18,8.1,18,18V262.3z"/>
	<rect x="78.8" y="258.4" class="st7" width="42.2" height="3.9"/>
	<rect x="78.8" y="260.4" class="st8" width="42.2" height="1"/>
	<g>
		<g>
			<path class="st9" d="M110.5,242.6c0.7,3-2.4,4.9-4.6,6.2c-1.1,0.6-0.1,2.4,1,1.7c3.1-1.8,6.4-4.4,5.5-8.5
				C112.1,240.8,110.2,241.3,110.5,242.6L110.5,242.6z"/>
		</g>
	</g>
</g>
<g>
	<path class="st6" d="M31.1,262.3h42.2V239H49.1c-9.9,0-18,8.1-18,18V262.3z"/>
	
		<rect x="31.1" y="258.4" transform="matrix(-1 -4.494994e-11 4.494994e-11 -1 104.3263 520.7581)" class="st7" width="42.2" height="3.9"/>
	
		<rect x="31.1" y="260.4" transform="matrix(-1 -4.494994e-11 4.494994e-11 -1 104.3263 521.7332)" class="st8" width="42.2" height="1"/>
	<g>
		<g>
			<path class="st9" d="M39.7,242.1c-0.9,4,2.4,6.7,5.5,8.5c1.1,0.6,2.1-1.1,1-1.7c-2.2-1.3-5.3-3.2-4.6-6.2
				C41.9,241.3,39.9,240.8,39.7,242.1L39.7,242.1z"/>
		</g>
	</g>
</g>
<path class="st9" d="M102.4,242.7H82.6c-2.9,0-5.2-2.3-5.2-5.2v-2.2c0-2.9,2.3-5.2,5.2-5.2h19.8c2.9,0,5.2,2.3,5.2,5.2v2.2
	C107.6,240.4,105.3,242.7,102.4,242.7z"/>
<circle class="st4" cx="23.4" cy="187.5" r="10.7"/>
<path class="st10" d="M105.4,77.1h-3.1v-14h3.1c1.1,0,2,0.9,2,2v10C107.4,76.2,106.5,77.1,105.4,77.1z"/>
<g>
	<path class="st4" d="M77.3,123.2h-6c-13.8,0-25-11.2-25-25v-40c0-8.3,6.7-15,15-15h26c8.3,0,15,6.7,15,15v40
		C102.3,112,91.1,123.2,77.3,123.2z"/>
</g>
<path class="st11" d="M97.8,88c7.9,4.3,3.1,19.7,2.8,11.4c-0.1-3.9-9.9,0.1-15.5,0.1c-6,0-11.3-3.9-11.3-11.5
	c0-7.6,7.7-6.9,13.5-4.6C93.5,85.9,97.8,88,97.8,88z"/>
<path class="st11" d="M52.3,88c-7.9,4.3-3.1,19.7-2.8,11.4c0.1-3.9,9.9,0.1,15.5,0.1c6,0,11.3-3.9,11.3-11.5c0-7.6-7.7-6.9-13.5-4.6
	C56.5,85.9,52.3,88,52.3,88z"/>
<path class="st12" d="M69,60.4H53.6c-1.1,0-2-0.9-2-2V58c0-1.1,0.9-2,2-2H69c1.1,0,2,0.9,2,2v0.4C71,59.5,70.1,60.4,69,60.4z"/>
<path class="st12" d="M95,60.4H79.6c-1.1,0-2-0.9-2-2V58c0-1.1,0.9-2,2-2H95c1.1,0,2,0.9,2,2v0.4C97,59.5,96.1,60.4,95,60.4z"/>
<circle class="st11" cx="63.1" cy="64.8" r="3"/>
<circle class="st11" cx="86" cy="64.8" r="3"/>
<path class="st10" d="M76.9,84.8H73c-1,0-1.7-1-1.7-2.2l0.4-5.6c0-1.2,0.4-3.1,1.3-3.1h3.9c1,0,1.3,2,1.3,3.2l0.4,5.4
	C78.6,83.8,77.8,84.8,76.9,84.8z"/>
<path class="st10" d="M43.3,77.8h3.1v-14h-3.1c-1.1,0-2,0.9-2,2v10C41.3,76.9,42.2,77.8,43.3,77.8z"/>
<path class="st0" d="M86.9,41.1H61.4c-8.4,0-15.3,9.2-15.3,20.6V65c0-8.2,4.9-14.9,11-14.9h34c6.1,0,11,6.7,11,14.9v-3.2
	C102.2,50.3,95.3,41.1,86.9,41.1z"/>
<g>
	<g>
		<path class="st0" d="M45,59.5c1.9,0,1.9-3,0-3C43,56.5,43,59.5,45,59.5L45,59.5z"/>
	</g>
</g>
<g>
	<g>
		<path class="st0" d="M46,57.2c1.9,0,1.9-3,0-3C44,54.2,44,57.2,46,57.2L46,57.2z"/>
	</g>
</g>
<g>
	<g>
		<path class="st0" d="M46.3,55.2c1.9,0,1.9-3,0-3C44.4,52.2,44.4,55.2,46.3,55.2L46.3,55.2z"/>
	</g>
</g>
<g>
	<g>
		<path class="st0" d="M46.6,54.8c1.9,0,1.9-3,0-3C44.7,51.8,44.7,54.8,46.6,54.8L46.6,54.8z"/>
	</g>
</g>
<g>
	<g>
		<path class="st0" d="M48.3,52.8c1.9,0,1.9-3,0-3C46.4,49.8,46.4,52.8,48.3,52.8L48.3,52.8z"/>
	</g>
</g>
<g>
	<g>
		<path class="st0" d="M48.3,52.5c1.9,0,1.9-3,0-3C46.4,49.5,46.4,52.5,48.3,52.5L48.3,52.5z"/>
	</g>
</g>
<g>
	<g>
		<path class="st0" d="M49,51.5c1.9,0,1.9-3,0-3C47,48.5,47,51.5,49,51.5L49,51.5z"/>
	</g>
</g>
<g>
	<g>
		<path class="st0" d="M50.3,49.5c1.9,0,1.9-3,0-3C48.4,46.5,48.4,49.5,50.3,49.5L50.3,49.5z"/>
	</g>
</g>
<g>
	<g>
		<path class="st0" d="M51.3,48.5c1.9,0,1.9-3,0-3C49.4,45.5,49.4,48.5,51.3,48.5L51.3,48.5z"/>
	</g>
</g>
<g>
	<g>
		<path class="st0" d="M102.6,61.2c1.9,0,1.9-3,0-3C100.7,58.2,100.7,61.2,102.6,61.2L102.6,61.2z"/>
	</g>
</g>
<g>
	<g>
		<path class="st0" d="M102,59.8c1.9,0,1.9-3,0-3C100,56.8,100,59.8,102,59.8L102,59.8z"/>
	</g>
</g>
<g>
	<g>
		<path class="st0" d="M102,57.2c1.9,0,1.9-3,0-3C100,54.2,100,57.2,102,57.2L102,57.2z"/>
	</g>
</g>
<g>
	<g>
		<path class="st0" d="M102,56.5c1.9,0,1.9-3,0-3C100,53.5,100,56.5,102,56.5L102,56.5z"/>
	</g>
</g>
<g>
	<g>
		<path class="st0" d="M101.6,54.5c1.9,0,1.9-3,0-3C99.7,51.5,99.7,54.5,101.6,54.5L101.6,54.5z"/>
	</g>
</g>
<g>
	<g>
		<path class="st0" d="M100.3,53.2c1.9,0,1.9-3,0-3C98.4,50.2,98.4,53.2,100.3,53.2L100.3,53.2z"/>
	</g>
</g>
<g>
	<g>
		<path class="st0" d="M100.3,53.2c1.9,0,1.9-3,0-3C98.4,50.2,98.4,53.2,100.3,53.2L100.3,53.2z"/>
	</g>
</g>
<g>
	<g>
		<path class="st0" d="M100,50.2c1.9,0,1.9-3,0-3C98,47.2,98,50.2,100,50.2L100,50.2z"/>
	</g>
</g>
<g>
	<g>
		<path class="st0" d="M95,50.8c1.9,0,1.9-3,0-3C93,47.8,93,50.8,95,50.8L95,50.8z"/>
	</g>
</g>
<g>
	<g>
		<path class="st0" d="M98.3,50.5c1.9,0,1.9-3,0-3C96.4,47.5,96.4,50.5,98.3,50.5L98.3,50.5z"/>
	</g>
</g>
<g>
	<g>
		<path class="st0" d="M91,50.5c1.9,0,1.9-3,0-3C89,47.5,89,50.5,91,50.5L91,50.5z"/>
	</g>
</g>
<g>
	<g>
		<path class="st0" d="M87.6,51.8c1.9,0,1.9-3,0-3C85.7,48.8,85.7,51.8,87.6,51.8L87.6,51.8z"/>
	</g>
</g>
<g>
	<g>
		<path class="st0" d="M85,51.8c1.9,0,1.9-3,0-3C83,48.8,83,51.8,85,51.8L85,51.8z"/>
	</g>
</g>
<g>
	<g>
		<path class="st0" d="M81.6,51.8c1.9,0,1.9-3,0-3C79.7,48.8,79.7,51.8,81.6,51.8L81.6,51.8z"/>
	</g>
</g>
<g>
	<g>
		<path class="st0" d="M80.3,51.8c1.9,0,1.9-3,0-3C78.4,48.8,78.4,51.8,80.3,51.8L80.3,51.8z"/>
	</g>
</g>
<g>
	<g>
		<path class="st0" d="M77.3,51.5c1.9,0,1.9-3,0-3C75.4,48.5,75.4,51.5,77.3,51.5L77.3,51.5z"/>
	</g>
</g>
<g>
	<g>
		<path class="st0" d="M77,51.5c1.9,0,1.9-3,0-3C75,48.5,75,51.5,77,51.5L77,51.5z"/>
	</g>
</g>
<g>
	<g>
		<path class="st0" d="M76,51.5c1.9,0,1.9-3,0-3C74,48.5,74,51.5,76,51.5L76,51.5z"/>
	</g>
</g>
<g>
	<g>
		<path class="st0" d="M73,51.5c1.9,0,1.9-3,0-3C71,48.5,71,51.5,73,51.5L73,51.5z"/>
	</g>
</g>
<g>
	<g>
		<path class="st0" d="M69.6,50.8c1.9,0,1.9-3,0-3C67.7,47.8,67.7,50.8,69.6,50.8L69.6,50.8z"/>
	</g>
</g>
<g>
	<g>
		<path class="st0" d="M67.3,50.2c1.9,0,1.9-3,0-3C65.4,47.2,65.4,50.2,67.3,50.2L67.3,50.2z"/>
	</g>
</g>
<g>
	<g>
		<path class="st0" d="M66.3,47.2c-0.1,0-0.2,0-0.3,0c-0.8,0-1.5,0.7-1.5,1.5c0,0.8,0.7,1.5,1.5,1.5c0.1,0,0.2,0,0.3,0
			c0.8,0,1.5-0.7,1.5-1.5C67.8,47.8,67.1,47.2,66.3,47.2L66.3,47.2z"/>
	</g>
</g>
<g>
	<g>
		<path class="st0" d="M63,50.2c1.9,0,1.9-3,0-3C61,47.2,61,50.2,63,50.2L63,50.2z"/>
	</g>
</g>
<g>
	<g>
		<path class="st0" d="M61.6,50.2c1.9,0,1.9-3,0-3C59.7,47.2,59.7,50.2,61.6,50.2L61.6,50.2z"/>
	</g>
</g>
<g>
	<g>
		<path class="st0" d="M59,51.2c1.9,0,1.9-3,0-3C57,48.2,57,51.2,59,51.2L59,51.2z"/>
	</g>
</g>
<g>
	<g>
		<path class="st0" d="M57,51.2c1.9,0,1.9-3,0-3C55,48.2,55,51.2,57,51.2L57,51.2z"/>
	</g>
</g>
<g>
	<g>
		<path class="st0" d="M55,51.2c1.9,0,1.9-3,0-3C53,48.2,53,51.2,55,51.2L55,51.2z"/>
	</g>
</g>
<g>
	<g>
		<path class="st0" d="M54.3,51.2c1.9,0,1.9-3,0-3C52.4,48.2,52.4,51.2,54.3,51.2L54.3,51.2z"/>
	</g>
</g>
<g>
	<g>
		<path class="st0" d="M54.3,51.8c1.9,0,1.9-3,0-3C52.4,48.8,52.4,51.8,54.3,51.8L54.3,51.8z"/>
	</g>
</g>
<g>
	<g>
		<path class="st0" d="M52.6,51.8c1.9,0,1.9-3,0-3C50.7,48.8,50.7,51.8,52.6,51.8L52.6,51.8z"/>
	</g>
</g>
<g>
	<g>
		<path class="st0" d="M50,53.8c1.9,0,1.9-3,0-3C48,50.8,48,53.8,50,53.8L50,53.8z"/>
	</g>
</g>
<g>
	<g>
		<path class="st0" d="M48.6,55.2c1.9,0,1.9-3,0-3C46.7,52.2,46.7,55.2,48.6,55.2L48.6,55.2z"/>
	</g>
</g>
<g>
	<g>
		<path class="st0" d="M48.3,56.5c1.9,0,1.9-3,0-3C46.4,53.5,46.4,56.5,48.3,56.5L48.3,56.5z"/>
	</g>
</g>
<g>
	<g>
		<path class="st0" d="M56.6,44.5c1.9,0,1.9-3,0-3C54.7,41.5,54.7,44.5,56.6,44.5L56.6,44.5z"/>
	</g>
</g>
<g>
	<g>
		<path class="st0" d="M53,44.8c1.9,0,1.9-3,0-3C51,41.8,51,44.8,53,44.8L53,44.8z"/>
	</g>
</g>
<g>
	<g>
		<path class="st0" d="M50.3,46.5c1.9,0,1.9-3,0-3C48.4,43.5,48.4,46.5,50.3,46.5L50.3,46.5z"/>
	</g>
</g>
<g>
	<g>
		<path class="st0" d="M48.3,49.5c1.9,0,1.9-3,0-3C46.4,46.5,46.4,49.5,48.3,49.5L48.3,49.5z"/>
	</g>
</g>
<g>
	<g>
		<path class="st0" d="M45.3,52.5c1.9,0,1.9-3,0-3C43.4,49.5,43.4,52.5,45.3,52.5L45.3,52.5z"/>
	</g>
</g>
<g>
	<g>
		<path class="st0" d="M45.3,55.5c1.9,0,1.9-3,0-3C43.4,52.5,43.4,55.5,45.3,55.5L45.3,55.5z"/>
	</g>
</g>
<g>
	<g>
		<path class="st0" d="M45.3,56.2c1.9,0,1.9-3,0-3C43.4,53.2,43.4,56.2,45.3,56.2L45.3,56.2z"/>
	</g>
</g>
<g>
	<g>
		<path class="st0" d="M45.3,53.5c1.9,0,1.9-3,0-3C43.4,50.5,43.4,53.5,45.3,53.5L45.3,53.5z"/>
	</g>
</g>
<g>
	<g>
		<path class="st0" d="M45.6,50.8c1.9,0,1.9-3,0-3C43.7,47.8,43.7,50.8,45.6,50.8L45.6,50.8z"/>
	</g>
</g>
<g>
	<g>
		<path class="st0" d="M46.6,49.8c1.9,0,1.9-3,0-3C44.7,46.8,44.7,49.8,46.6,49.8L46.6,49.8z"/>
	</g>
</g>
<g>
	<g>
		<path class="st0" d="M47.3,49.2c1.9,0,1.9-3,0-3C45.4,46.2,45.4,49.2,47.3,49.2L47.3,49.2z"/>
	</g>
</g>
<g>
	<g>
		<path class="st0" d="M48.3,48.5c1.9,0,1.9-3,0-3C46.4,45.5,46.4,48.5,48.3,48.5L48.3,48.5z"/>
	</g>
</g>
<g>
	<g>
		<path class="st0" d="M50.3,48.5c0.1,0,0.2,0,0.3,0c0.8,0,1.5-0.7,1.5-1.5c0-0.8-0.7-1.5-1.5-1.5c-0.1,0-0.2,0-0.3,0
			c-0.8,0-1.5,0.7-1.5,1.5C48.8,47.8,49.5,48.5,50.3,48.5L50.3,48.5z"/>
	</g>
</g>
<g>
	<g>
		<path class="st0" d="M53,47.5c1.9,0,1.9-3,0-3C51,44.5,51,47.5,53,47.5L53,47.5z"/>
	</g>
</g>
<g>
	<g>
		<path class="st0" d="M54,46.5c1.9,0,1.9-3,0-3C52,43.5,52,46.5,54,46.5L54,46.5z"/>
	</g>
</g>
<g>
	<g>
		<path class="st0" d="M54.3,45.8c1.9,0,1.9-3,0-3C52.4,42.8,52.4,45.8,54.3,45.8L54.3,45.8z"/>
	</g>
</g>
<g>
	<g>
		<path class="st0" d="M55.3,45.2c1.9,0,1.9-3,0-3C53.4,42.2,53.4,45.2,55.3,45.2L55.3,45.2z"/>
	</g>
</g>
<g>
	<g>
		<path class="st0" d="M56,44.2c1.9,0,1.9-3,0-3C54,41.2,54,44.2,56,44.2L56,44.2z"/>
	</g>
</g>
<g>
	<g>
		<path class="st0" d="M56.3,43.8c1.9,0,1.9-3,0-3C54.4,40.8,54.4,43.8,56.3,43.8L56.3,43.8z"/>
	</g>
</g>
<g>
	<g>
		<path class="st0" d="M57,43.2c1.9,0,1.9-3,0-3C55,40.2,55,43.2,57,43.2L57,43.2z"/>
	</g>
</g>
<g>
	<g>
		<path class="st0" d="M58,42.8c1.9,0,1.9-3,0-3C56,39.8,56,42.8,58,42.8L58,42.8z"/>
	</g>
</g>
<g>
	<g>
		<path class="st0" d="M59,42.8c1.9,0,1.9-3,0-3C57,39.8,57,42.8,59,42.8L59,42.8z"/>
	</g>
</g>
<g>
	<g>
		<path class="st0" d="M60.6,42.2c1.9,0,1.9-3,0-3C58.7,39.2,58.7,42.2,60.6,42.2L60.6,42.2z"/>
	</g>
</g>
<g>
	<g>
		<path class="st0" d="M62,41.5c1.9,0,1.9-3,0-3C60,38.5,60,41.5,62,41.5L62,41.5z"/>
	</g>
</g>
<g>
	<g>
		<path class="st0" d="M63.6,41.2c1.9,0,1.9-3,0-3C61.7,38.2,61.7,41.2,63.6,41.2L63.6,41.2z"/>
	</g>
</g>
<g>
	<g>
		<path class="st0" d="M65.3,40.8c1.9,0,1.9-3,0-3C63.4,37.8,63.4,40.8,65.3,40.8L65.3,40.8z"/>
	</g>
</g>
<g>
	<g>
		<path class="st0" d="M67,40.5c1.9,0,1.9-3,0-3C65,37.5,65,40.5,67,40.5L67,40.5z"/>
	</g>
</g>
<g>
	<g>
		<path class="st0" d="M68,40.2c1.9,0,1.9-3,0-3C66,37.2,66,40.2,68,40.2L68,40.2z"/>
	</g>
</g>
<g>
	<g>
		<path class="st0" d="M69,40.2c1.9,0,1.9-3,0-3C67,37.2,67,40.2,69,40.2L69,40.2z"/>
	</g>
</g>
<g>
	<g>
		<path class="st0" d="M70,40.2c1.9,0,1.9-3,0-3C68,37.2,68,40.2,70,40.2L70,40.2z"/>
	</g>
</g>
<g>
	<g>
		<path class="st0" d="M70.6,40.2c1.9,0,1.9-3,0-3C68.7,37.2,68.7,40.2,70.6,40.2L70.6,40.2z"/>
	</g>
</g>
<g>
	<g>
		<path class="st0" d="M72,40.2c1.9,0,1.9-3,0-3C70,37.2,70,40.2,72,40.2L72,40.2z"/>
	</g>
</g>
<g>
	<g>
		<path class="st0" d="M73.6,40.2c1.9,0,1.9-3,0-3C71.7,37.2,71.7,40.2,73.6,40.2L73.6,40.2z"/>
	</g>
</g>
<g>
	<g>
		<path class="st0" d="M75,40.2c1.9,0,1.9-3,0-3C73,37.2,73,40.2,75,40.2L75,40.2z"/>
	</g>
</g>
<g>
	<g>
		<path class="st0" d="M76,40.2c1.9,0,1.9-3,0-3C74,37.2,74,40.2,76,40.2L76,40.2z"/>
	</g>
</g>
<g>
	<g>
		<path class="st0" d="M78,40.2c1.9,0,1.9-3,0-3C76,37.2,76,40.2,78,40.2L78,40.2z"/>
	</g>
</g>
<g>
	<g>
		<path class="st0" d="M78,40.2c1.9,0,1.9-3,0-3C76,37.2,76,40.2,78,40.2L78,40.2z"/>
	</g>
</g>
<g>
	<g>
		<path class="st0" d="M80,39.5c1.9,0,1.9-3,0-3C78,36.5,78,39.5,80,39.5L80,39.5z"/>
	</g>
</g>
<g>
	<g>
		<path class="st0" d="M81,39.2c1.9,0,1.9-3,0-3C79,36.2,79,39.2,81,39.2L81,39.2z"/>
	</g>
</g>
<g>
	<g>
		<path class="st0" d="M82,38.8c1.9,0,1.9-3,0-3C80,35.8,80,38.8,82,38.8L82,38.8z"/>
	</g>
</g>
<g>
	<g>
		<path class="st0" d="M83,38.8c1.9,0,1.9-3,0-3C81,35.8,81,38.8,83,38.8L83,38.8z"/>
	</g>
</g>
<g>
	<g>
		<path class="st0" d="M83,39.2c0.1,0,0.2,0,0.3,0c0.8,0,1.5-0.7,1.5-1.5c0-0.8-0.7-1.5-1.5-1.5c-0.1,0-0.2,0-0.3,0
			c-0.8,0-1.5,0.7-1.5,1.5C81.5,38.5,82.1,39.2,83,39.2L83,39.2z"/>
	</g>
</g>
<g>
	<g>
		<path class="st0" d="M84,39.5c0.1,0,0.2,0,0.3,0c0.8,0,1.5-0.7,1.5-1.5c0-0.8-0.7-1.5-1.5-1.5c-0.1,0-0.2,0-0.3,0
			c-0.8,0-1.5,0.7-1.5,1.5C82.5,38.8,83.1,39.5,84,39.5L84,39.5z"/>
	</g>
</g>
<g>
	<g>
		<path class="st0" d="M85,39.8c1.9,0,1.9-3,0-3C83,36.8,83,39.8,85,39.8L85,39.8z"/>
	</g>
</g>
<g>
	<g>
		<path class="st0" d="M86.6,40.2c1.9,0,1.9-3,0-3C84.7,37.2,84.7,40.2,86.6,40.2L86.6,40.2z"/>
	</g>
</g>
<g>
	<g>
		<path class="st0" d="M82,39.8c1.9,0,1.9-3,0-3C80,36.8,80,39.8,82,39.8L82,39.8z"/>
	</g>
</g>
<g>
	<g>
		<path class="st0" d="M80.6,39.7c0.1,0.1,0.2,0.2,0.3,0.3c0.6,0.6,1.5,0.6,2.1,0c0.6-0.6,0.6-1.5,0-2.1c-0.1-0.1-0.2-0.2-0.3-0.3
			c-0.6-0.6-1.5-0.6-2.1,0C80,38.2,80,39.1,80.6,39.7L80.6,39.7z"/>
	</g>
</g>
<g>
	<g>
		<path class="st0" d="M84.6,38.9c-0.6-1.2-1.9-2-3.3-2c-0.8,0-1.5,0.7-1.5,1.5c0,0.8,0.7,1.5,1.5,1.5c0.2,0,0.2,0,0,0
			c0.1,0,0.2,0,0.3,0.1c-0.2-0.1,0.1,0,0.1,0.1c0.1,0.1,0.2,0.1,0.1,0c-0.1-0.1-0.1,0,0.1,0.1c0.1,0.1,0.1,0.1,0,0
			c0.1,0.1,0.1,0.2,0.1,0.2c0.4,0.7,1.4,0.9,2.1,0.5C84.8,40.5,85,39.6,84.6,38.9L84.6,38.9z"/>
	</g>
</g>
<g>
	<g>
		<path class="st0" d="M79.3,39.2c1.9,0,1.9-3,0-3C77.4,36.2,77.4,39.2,79.3,39.2L79.3,39.2z"/>
	</g>
</g>
<g>
	<g>
		<path class="st0" d="M77.6,39.2c1.9,0,1.9-3,0-3C75.7,36.2,75.7,39.2,77.6,39.2L77.6,39.2z"/>
	</g>
</g>
<g>
	<g>
		<path class="st0" d="M77.6,36.2c-0.3,0-0.7,0-1,0c-0.8,0-1.5,0.7-1.5,1.5c0,0.8,0.7,1.5,1.5,1.5c0.3,0,0.7,0,1,0
			c0.8,0,1.5-0.7,1.5-1.5C79.1,36.8,78.5,36.2,77.6,36.2L77.6,36.2z"/>
	</g>
</g>
<g>
	<g>
		<path class="st0" d="M75.3,39.2c1.9,0,1.9-3,0-3C73.4,36.2,73.4,39.2,75.3,39.2L75.3,39.2z"/>
	</g>
</g>
<g>
	<g>
		<path class="st0" d="M74.3,39.2c1.9,0,1.9-3,0-3C72.4,36.2,72.4,39.2,74.3,39.2L74.3,39.2z"/>
	</g>
</g>
<g>
	<g>
		<path class="st0" d="M71.6,39.2c1.9,0,1.9-3,0-3C69.7,36.2,69.7,39.2,71.6,39.2L71.6,39.2z"/>
	</g>
</g>
<g>
	<g>
		<path class="st0" d="M70.3,39.5c1.9,0,1.9-3,0-3C68.4,36.5,68.4,39.5,70.3,39.5L70.3,39.5z"/>
	</g>
</g>
<g>
	<g>
		<path class="st0" d="M68,39.8c1.9,0,1.9-3,0-3C66,36.8,66,39.8,68,39.8L68,39.8z"/>
	</g>
</g>
<g>
	<g>
		<path class="st0" d="M66.3,40.2c1.9,0,1.9-3,0-3C64.4,37.2,64.4,40.2,66.3,40.2L66.3,40.2z"/>
	</g>
</g>
<g>
	<g>
		<path class="st0" d="M65.3,40.2c1.9,0,1.9-3,0-3C63.4,37.2,63.4,40.2,65.3,40.2L65.3,40.2z"/>
	</g>
</g>
<g>
	<g>
		<path class="st0" d="M63,40.5c1.9,0,1.9-3,0-3C61,37.5,61,40.5,63,40.5L63,40.5z"/>
	</g>
</g>
<g>
	<g>
		<path class="st0" d="M61,38.2c-0.1,0-0.2,0-0.3,0c-0.8,0-1.5,0.7-1.5,1.5c0,0.8,0.7,1.5,1.5,1.5c0.1,0,0.2,0,0.3,0
			c0.8,0,1.5-0.7,1.5-1.5C62.4,38.8,61.8,38.2,61,38.2L61,38.2z"/>
	</g>
</g>
<g>
	<g>
		<path class="st0" d="M58,41.5c1.9,0,1.9-3,0-3C56,38.5,56,41.5,58,41.5L58,41.5z"/>
	</g>
</g>
<g>
	<g>
		<path class="st0" d="M57.3,42.2c1.9,0,1.9-3,0-3C55.4,39.2,55.4,42.2,57.3,42.2L57.3,42.2z"/>
	</g>
</g>
<g>
	<g>
		<path class="st0" d="M54.3,40.2c-0.1,0-0.2,0-0.3,0c-0.8,0-1.5,0.7-1.5,1.5c0,0.8,0.7,1.5,1.5,1.5c0.1,0,0.2,0,0.3,0
			c0.8,0,1.5-0.7,1.5-1.5C55.8,40.8,55.1,40.2,54.3,40.2L54.3,40.2z"/>
	</g>
</g>
<g>
	<g>
		<path class="st0" d="M52.3,44.2c1.9,0,1.9-3,0-3C50.4,41.2,50.4,44.2,52.3,44.2L52.3,44.2z"/>
	</g>
</g>
<g>
	<g>
		<path class="st0" d="M48.3,45.5c1.9,0,1.9-3,0-3C46.4,42.5,46.4,45.5,48.3,45.5L48.3,45.5z"/>
	</g>
</g>
<g>
	<g>
		<path class="st0" d="M51.6,43.8c1.9,0,1.9-3,0-3C49.7,40.8,49.7,43.8,51.6,43.8L51.6,43.8z"/>
	</g>
</g>
<g>
	<g>
		<path class="st0" d="M51,45.2c1.9,0,1.9-3,0-3C49,42.2,49,45.2,51,45.2L51,45.2z"/>
	</g>
</g>
<g>
	<g>
		<path class="st0" d="M50,45.5c1.9,0,1.9-3,0-3C48,42.5,48,45.5,50,45.5L50,45.5z"/>
	</g>
</g>
<g>
	<g>
		<path class="st0" d="M48,46.5c1.9,0,1.9-3,0-3C46,43.5,46,46.5,48,46.5L48,46.5z"/>
	</g>
</g>
<g>
	<g>
		<path class="st0" d="M46,47.8c1.9,0,1.9-3,0-3C44,44.8,44,47.8,46,47.8L46,47.8z"/>
	</g>
</g>
<g>
	<g>
		<path class="st0" d="M45,52.5c1.9,0,1.9-3,0-3C43,49.5,43,52.5,45,52.5L45,52.5z"/>
	</g>
</g>
<g>
	<g>
		<path class="st0" d="M87,41.2c1.9,0,1.9-3,0-3C85,38.2,85,41.2,87,41.2L87,41.2z"/>
	</g>
</g>
<g>
	<g>
		<path class="st0" d="M87.3,41.2c1.9,0,1.9-3,0-3C85.4,38.2,85.4,41.2,87.3,41.2L87.3,41.2z"/>
	</g>
</g>
<g>
	<g>
		<path class="st0" d="M89,41.2c1.9,0,1.9-3,0-3C87,38.2,87,41.2,89,41.2L89,41.2z"/>
	</g>
</g>
<g>
	<g>
		<path class="st0" d="M91,41.2c1.9,0,1.9-3,0-3C89,38.2,89,41.2,91,41.2L91,41.2z"/>
	</g>
</g>
<g>
	<g>
		<path class="st0" d="M91.6,41.2c1.9,0,1.9-3,0-3C89.7,38.2,89.7,41.2,91.6,41.2L91.6,41.2z"/>
	</g>
</g>
<g>
	<g>
		<path class="st0" d="M92.6,41.8c1.9,0,1.9-3,0-3C90.7,38.8,90.7,41.8,92.6,41.8L92.6,41.8z"/>
	</g>
</g>
<g>
	<g>
		<path class="st0" d="M93,41.8c1.9,0,1.9-3,0-3C91,38.8,91,41.8,93,41.8L93,41.8z"/>
	</g>
</g>
<g>
	<g>
		<path class="st0" d="M94,42.5c1.9,0,1.9-3,0-3C92,39.5,92,42.5,94,42.5L94,42.5z"/>
	</g>
</g>
<g>
	<g>
		<path class="st0" d="M95,43.8c1.9,0,1.9-3,0-3C93,40.8,93,43.8,95,43.8L95,43.8z"/>
	</g>
</g>
<g>
	<g>
		<path class="st0" d="M95.3,44.2c1.9,0,1.9-3,0-3C93.4,41.2,93.4,44.2,95.3,44.2L95.3,44.2z"/>
	</g>
</g>
<g>
	<g>
		<path class="st0" d="M97.6,45.8c1.9,0,1.9-3,0-3C95.7,42.8,95.7,45.8,97.6,45.8L97.6,45.8z"/>
	</g>
</g>
<g>
	<g>
		<path class="st0" d="M97.6,46.2c1.9,0,1.9-3,0-3C95.7,43.2,95.7,46.2,97.6,46.2L97.6,46.2z"/>
	</g>
</g>
<g>
	<g>
		<path class="st0" d="M98.6,46.5c1.9,0,1.9-3,0-3C96.7,43.5,96.7,46.5,98.6,46.5L98.6,46.5z"/>
	</g>
</g>
<g>
	<g>
		<path class="st0" d="M99.6,47.2c1.9,0,1.9-3,0-3C97.7,44.2,97.7,47.2,99.6,47.2L99.6,47.2z"/>
	</g>
</g>
<g>
	<g>
		<path class="st0" d="M99.6,47.2c1.9,0,1.9-3,0-3C97.7,44.2,97.7,47.2,99.6,47.2L99.6,47.2z"/>
	</g>
</g>
<g>
	<g>
		<path class="st0" d="M99.6,48.8c1.9,0,1.9-3,0-3C97.7,45.8,97.7,48.8,99.6,48.8L99.6,48.8z"/>
	</g>
</g>
<g>
	<g>
		<path class="st0" d="M100.3,50.5c1.9,0,1.9-3,0-3C98.4,47.5,98.4,50.5,100.3,50.5L100.3,50.5z"/>
	</g>
</g>
<g>
	<g>
		<path class="st0" d="M101,50.8c1.9,0,1.9-3,0-3C99,47.8,99,50.8,101,50.8L101,50.8z"/>
	</g>
</g>
<g>
	<g>
		<path class="st0" d="M102,52.5c1.9,0,1.9-3,0-3C100,49.5,100,52.5,102,52.5L102,52.5z"/>
	</g>
</g>
<g>
	<g>
		<path class="st0" d="M102.6,54.2c1.9,0,1.9-3,0-3C100.7,51.2,100.7,54.2,102.6,54.2L102.6,54.2z"/>
	</g>
</g>
<g>
	<g>
		<path class="st0" d="M103.3,55.8c1.9,0,1.9-3,0-3C101.4,52.8,101.4,55.8,103.3,55.8L103.3,55.8z"/>
	</g>
</g>
<g>
	<g>
		<path class="st0" d="M104,57.5c1.9,0,1.9-3,0-3C102,54.5,102,57.5,104,57.5L104,57.5z"/>
	</g>
</g>
<g>
	<g>
		<path class="st0" d="M104.6,58.5c1.9,0,1.9-3,0-3C102.7,55.5,102.7,58.5,104.6,58.5L104.6,58.5z"/>
	</g>
</g>
<path class="st9" d="M69.8,242.7H50c-2.9,0-5.2-2.3-5.2-5.2v-2.2c0-2.9,2.3-5.2,5.2-5.2h19.8c2.9,0,5.2,2.3,5.2,5.2v2.2
	C75,240.4,72.6,242.7,69.8,242.7z"/>
<path class="st13" d="M294.6,210.5H156.1c-1.7,0-3-1.4-3-3V105.1c0-6.6,5.4-12,12-12h120.5c6.6,0,12,5.4,12,12v102.4
	C297.6,209.1,296.3,210.5,294.6,210.5z"/>
<path class="st14" d="M223.6,169.5h-62.9c-1.7,0-3-1.4-3-3v-58.3c0-6.6,5.4-12,12-12h53.9V169.5z"/>
<path class="st14" d="M228.1,169.7h62c1.7,0,3-1.4,3-3v-58.3c0-6.6-5.4-12-12-12h-53V169.7z"/>
<circle class="st9" cx="190.7" cy="181.2" r="5.4"/>
<rect x="186.2" y="168.7" transform="matrix(0.5 -0.866 0.866 0.5 -48.5514 256.5512)" class="st9" width="23.3" height="3.3"/>
<rect x="188.4" y="189" transform="matrix(0.7071 0.7071 -0.7071 0.7071 193.3976 -85.629)" class="st9" width="23.3" height="3.3"/>
<rect x="173.1" y="191.5" transform="matrix(-0.5 0.866 -0.866 -0.5 444.3597 129.6389)" class="st9" width="23.3" height="3.3"/>
<rect x="169.3" y="169.9" transform="matrix(0.7071 0.7071 -0.7071 0.7071 174.2697 -77.7059)" class="st9" width="23.3" height="3.3"/>
<circle class="st15" cx="190.7" cy="181.2" r="3.1"/>
<path class="st9" d="M231.7,210.5h-3.8v-21.8c0-0.6,0.5-1,1-1h1.8c0.6,0,1,0.4,1,1V210.5z"/>
<path class="st9" d="M233.7,188.6H226c-1.1,0-2-0.9-2-2v-3.1c0-1.1,0.9-2,2-2h7.7c1.1,0,2,0.9,2,2v3.1
	C235.7,187.7,234.8,188.6,233.7,188.6z"/>
<circle class="st16" cx="159.1" cy="176.4" r="2.3"/>
<circle class="st17" cx="159.1" cy="183.9" r="2.3"/>
<circle class="st18" cx="159.1" cy="191.3" r="2.3"/>
<path class="st19" d="M224.4,178.6h-23.3c-0.6,0-1-0.4-1-1v-4.3c0-0.5,0.4-1,1-1h23.3c0.6,0,1,0.5,1,1v4.3
	C225.4,178.1,224.9,178.6,224.4,178.6z"/>
<circle class="st20" cx="190.7" cy="181.2" r="25.3"/>
<path class="st21" d="M291.6,178.6h-62.7c-0.5,0-1-0.4-1-1v-4.3c0-0.5,0.5-1,1-1h62.7c0.5,0,1,0.5,1,1v4.3
	C292.6,178.1,292.2,178.6,291.6,178.6z"/>
<path class="st22" d="M291.3,178.6h-44.3v-0.3c0-1.1,0.9-2,2-2h40.3c1.1,0,2,0.9,2,2V178.6z"/>
</svg>
