<?xml version="1.0" encoding="utf-8"?>
<!-- Generator: Adobe Illustrator 22.0.1, SVG Export Plug-In . SVG Version: 6.00 Build 0)  -->
<svg version="1.1" id="Layer_1" xmlns="http://www.w3.org/2000/svg" xmlns:xlink="http://www.w3.org/1999/xlink" x="0px" y="0px"
	 viewBox="0 0 310 268" style="enable-background:new 0 0 310 268;" xml:space="preserve">
<style type="text/css">
	.st0{fill:#4C5965;}
	.st1{fill:#FFE3B2;}
	.st2{fill:#4C3512;}
	.st3{fill:#BFA981;}
	.st4{fill:#050505;}
	.st5{fill:#8AB7CE;}
	.st6{fill:#A47140;}
	.st7{fill:#231F20;}
	.st8{fill:#484C44;}
	.st9{fill:#4A4D52;}
	.st10{fill:#4F565B;}
	.st11{fill:#C59C1D;stroke:#030202;stroke-width:2;stroke-miterlimit:10;}
	.st12{fill:#4A7082;}
	.st13{fill:#C59C1D;stroke:#030202;stroke-width:0.75;stroke-miterlimit:10;}
	.st14{fill:#8A181B;}
	.st15{fill:#3F3F1D;}
	.st16{fill:#3F3D17;}
	.st17{fill:#3F3E1B;}
	.st18{fill:#9C8048;}
	.st19{fill:#E1C034;}
	.st20{fill:#54C8EE;}
	.st21{fill:none;stroke:#837642;stroke-width:4;stroke-miterlimit:10;}
	.st22{fill:#837642;}
	.st23{fill:#185D2F;}
	.st24{fill:#A02221;}
	.st25{fill:#262469;}
	.st26{fill:#CE2027;}
	.st27{fill:#CE2028;}
	.st28{fill:#43449B;}
	.st29{fill:#006838;}
	.st30{fill:#43469C;}
	.st31{fill:#CE2029;}
</style>
<path class="st0" d="M239.4,111.6h-1.6v-3.9c0-0.5,0.4-0.8,0.8-0.8l0,0c0.5,0,0.8,0.4,0.8,0.8V111.6z"/>
<path class="st0" d="M253.1,111.8h-1.6v-3.9c0-0.5,0.4-0.8,0.8-0.8l0,0c0.5,0,0.8,0.4,0.8,0.8V111.8z"/>
<path class="st1" d="M69.2,98.9H54.6c-2,0-3.6-1.6-3.6-3.6V77.2c0-2,1.6-3.6,3.6-3.6h14.6c2,0,3.6,1.6,3.6,3.6v18.2
	C72.8,97.3,71.2,98.9,69.2,98.9z"/>
<path class="st1" d="M85.6,56.3c-0.1-0.3,0.1-0.5,0.3-0.6V32.7c0-10.5-8.5-19-19-19h-12c-10.5,0-19,8.5-19,19v38
	c0,12.7,10.3,23,23,23h4c12.7,0,23-10.3,23-23V57.2C85.8,56.9,85.7,56.6,85.6,56.3z"/>
<path class="st2" d="M55.6,40.7h-9c-1.1,0-2-0.9-2-2V38c0-1.1,0.9-2,2-2h9c1.1,0,2,0.9,2,2v0.7C57.6,39.8,56.7,40.7,55.6,40.7z"/>
<path class="st2" d="M76.1,40.7h-9c-1.1,0-2-0.9-2-2V38c0-1.1,0.9-2,2-2h9c1.1,0,2,0.9,2,2v0.7C78.1,39.8,77.2,40.7,76.1,40.7z"/>
<path class="st3" d="M35.9,54.6h-3.1c-1.1,0-2-0.9-2-2v-4.6c0-1.1,0.9-2,2-2h3.1V54.6z"/>
<path class="st3" d="M89.1,54.6h-3.1v-8.6h3.1c1.1,0,2,0.9,2,2v4.6C91.1,53.7,90.2,54.6,89.1,54.6z"/>
<circle class="st4" cx="51.1" cy="43.9" r="2.1"/>
<circle class="st4" cx="72.2" cy="43.9" r="2.1"/>
<path class="st3" d="M62.4,58.1h-1.1c-1.1,0-2-0.9-2-2v-4.8c0-1.1,0.9-2,2-2h1.1c1.1,0,2,0.9,2,2v4.8C64.4,57.2,63.5,58.1,62.4,58.1
	z"/>
<path class="st5" d="M83.6,164.5H40.3c-3.5,0-6.4-2.9-6.4-6.4v-55.7c0-3.5,2.9-6.4,6.4-6.4h43.3c3.5,0,6.4,2.9,6.4,6.4v55.7
	C89.9,161.7,87.1,164.5,83.6,164.5z"/>
<g>
	<path class="st6" d="M107.1,260.8H64.9v-23.3h24.2c9.9,0,18,8.1,18,18V260.8z"/>
	<rect x="64.9" y="256.9" class="st6" width="42.2" height="3.9"/>
	<rect x="64.9" y="258.8" class="st6" width="42.2" height="1"/>
	<g>
		<path class="st6" d="M90.5,239.1c0.4,1.5-0.2,3.2-1.2,4.5c-1,1.2-2.5,2.1-3.9,2.9"/>
		<g>
			<path class="st7" d="M89.5,239.4c0.7,3-2.4,4.9-4.6,6.2c-1.1,0.6-0.1,2.4,1,1.7c3.1-1.8,6.4-4.4,5.5-8.5
				C91.2,237.6,89.3,238.2,89.5,239.4L89.5,239.4z"/>
		</g>
	</g>
	<g>
		<path class="st6" d="M96.7,240.8c0.4,1.5-0.2,3.2-1.2,4.5c-1,1.2-2.5,2.1-3.9,2.9"/>
		<g>
			<path class="st7" d="M95.8,241.1c0.7,3-2.4,4.9-4.6,6.2c-1.1,0.6-0.1,2.4,1,1.7c3.1-1.8,6.4-4.4,5.5-8.5
				C97.4,239.3,95.5,239.8,95.8,241.1L95.8,241.1z"/>
		</g>
	</g>
	<g>
		<path class="st6" d="M100.9,244c0.4,1.5-0.2,3.2-1.2,4.5c-1,1.2-2.5,2.1-3.9,2.9"/>
		<g>
			<path class="st7" d="M100,244.2c0.7,3-2.4,4.9-4.6,6.2c-1.1,0.6-0.1,2.4,1,1.7c3.1-1.8,6.4-4.4,5.5-8.5
				C101.6,242.5,99.7,243,100,244.2L100,244.2z"/>
		</g>
	</g>
</g>
<path class="st8" d="M80.7,232.2H64.9v-68.7c0-3.3,2.7-6,6-6h3.8c3.3,0,6,2.7,6,6V232.2z"/>
<rect x="64.9" y="219" class="st9" width="15.8" height="15"/>
<g>
	<path class="st6" d="M15,260.8h42.2v-23.3H33c-9.9,0-18,8.1-18,18V260.8z"/>
	
		<rect x="15" y="256.9" transform="matrix(-1 -4.494994e-11 4.494994e-11 -1 72.2033 517.6592)" class="st6" width="42.2" height="3.9"/>
	
		<rect x="15" y="258.8" transform="matrix(-1 -4.486379e-11 4.486379e-11 -1 72.2033 518.6343)" class="st6" width="42.2" height="1"/>
	<g>
		<path class="st6" d="M31.6,239.1c-0.4,1.5,0.2,3.2,1.2,4.5s2.5,2.1,3.9,2.9"/>
		<g>
			<path class="st7" d="M30.6,238.9c-0.9,4,2.4,6.7,5.5,8.5c1.1,0.6,2.1-1.1,1-1.7c-2.2-1.3-5.3-3.2-4.6-6.2
				C32.8,238.2,30.9,237.6,30.6,238.9L30.6,238.9z"/>
		</g>
	</g>
	<g>
		<path class="st6" d="M25.4,240.8c-0.4,1.5,0.2,3.2,1.2,4.5c1,1.2,2.5,2.1,3.9,2.9"/>
		<g>
			<path class="st7" d="M24.4,240.5c-0.9,4,2.4,6.7,5.5,8.5c1.1,0.6,2.1-1.1,1-1.7c-2.2-1.3-5.3-3.2-4.6-6.2
				C26.6,239.8,24.7,239.3,24.4,240.5L24.4,240.5z"/>
		</g>
	</g>
	<g>
		<path class="st6" d="M21.2,244c-0.4,1.5,0.2,3.2,1.2,4.5c1,1.2,2.5,2.1,3.9,2.9"/>
		<g>
			<path class="st7" d="M20.2,243.7c-0.9,4,2.4,6.7,5.5,8.5c1.1,0.6,2.1-1.1,1-1.7c-2.2-1.3-5.3-3.2-4.6-6.2
				C22.4,243,20.5,242.5,20.2,243.7L20.2,243.7z"/>
		</g>
	</g>
</g>
<path class="st8" d="M41.4,233.3h15.8v-69.9c0-3.3-2.7-6-6-6h-3.8c-3.3,0-6,2.7-6,6V233.3z"/>
<rect x="41.4" y="220" transform="matrix(-1 -3.299106e-11 3.299106e-11 -1 98.6011 454.1102)" class="st10" width="15.8" height="14"/>
<rect x="32.8" y="156.7" class="st7" width="56" height="7.8"/>
<circle class="st1" cx="95.5" cy="163.6" r="9.4"/>
<circle class="st1" cx="28.6" cy="164.4" r="9.4"/>
<rect x="80.4" y="54" class="st1" width="5.6" height="6.1"/>
<polygon class="st1" points="61.6,103.1 51.1,95.8 72.8,95.8 "/>
<path class="st8" d="M47.7,112.6h-6.2V97.4c0-1.1,0.9-2,2-2h2.2c1.1,0,2,0.9,2,2V112.6z"/>
<path class="st8" d="M81.7,112.6h-5.9V97.4c0-1.1,0.9-2,2-2h1.9c1.1,0,2,0.9,2,2V112.6z"/>
<path class="st8" d="M89.9,157.4h-56v-40.8c0-2.2,1.9-1.2,4.1-1.2l3.6-2.8h6.2l2.4,2.8h11h7.9l6.8-2.8h5.9l4.2,2.8c2.2,0,4-1,4,1.2
	V157.4z"/>
<rect x="41.4" y="225.8" class="st6" width="15.8" height="14.9"/>
<rect x="64.9" y="225.8" class="st6" width="15.8" height="14.9"/>
<path class="st1" d="M95.9,167.8h-3.1c-3.5,0-6.4-2.9-6.4-6.4v-49c0-3.5,2.9-6.4,6.4-6.4h3.1c3.5,0,6.4,2.9,6.4,6.4v49
	C102.2,165,99.4,167.8,95.9,167.8z"/>
<path class="st1" d="M30.6,167.8h-3.1c-3.5,0-6.4-2.9-6.4-6.4v-49c0-3.5,2.9-6.4,6.4-6.4h3.1c3.5,0,6.4,2.9,6.4,6.4v49
	C36.9,165,34.1,167.8,30.6,167.8z"/>
<path class="st11" d="M65.3,166.1h-7.4c-2.1,0-3.7-1.7-3.7-3.7v-4c0-2.1,1.7-3.7,3.7-3.7h7.4c2.1,0,3.7,1.7,3.7,3.7v4
	C69.1,164.4,67.4,166.1,65.3,166.1z"/>
<path class="st5" d="M30.6,98.9h-3.1c-3.5,0-6.4,4.2-6.4,9.4v15h15.8v-15C36.9,103.2,34.1,98.9,30.6,98.9z"/>
<path class="st5" d="M95.9,100.8h-3.1c-3.5,0-6.4,3.9-6.4,8.7v13.9h15.8v-13.9C102.2,104.7,99.4,100.8,95.9,100.8z"/>
<path class="st12" d="M42.7,230.7h13.1c1.7,0,3-1.3,3-3v-1.3c0-1.7-1.3-3-3-3H42.7c-1.7,0-3,1.3-3,3v1.3
	C39.7,229.4,41.1,230.7,42.7,230.7z"/>
<path class="st12" d="M79.4,230.7H66.2c-1.7,0-3-1.3-3-3v-1.3c0-1.7,1.3-3,3-3h13.1c1.7,0,3,1.3,3,3v1.3
	C82.4,229.4,81,230.7,79.4,230.7z"/>
<circle class="st13" cx="44.7" cy="117.2" r="2.9"/>
<circle class="st13" cx="78.7" cy="117.2" r="2.9"/>
<ellipse class="st14" cx="61.9" cy="71.6" rx="5.9" ry="3.5"/>
<ellipse class="st15" cx="61.9" cy="66.5" rx="9.4" ry="4.4"/>
<g>
	<g>
		<g>
			<path class="st16" d="M61.9,66c0.1,2.8-1.4,5-3.3,5.2c-1,0.1-4.8-0.8-8.6-1.3c-1.9-0.2-3.8-0.5-5.1-0.5c-1.3-0.1-2.1,0.4-2.1,0.4
				s0.1-0.2,0.3-0.6c0.2-0.4,0.7-0.8,1.3-1.3c1.3-0.9,2.9-1.9,4.6-2.9c3.5-2,7.6-3.7,8.7-3.8C60,61.1,61.8,63.3,61.9,66z"/>
		</g>
	</g>
</g>
<g>
	<path class="st17" d="M81,69.8c-0.9-0.9-2.1-1.3-3.3-1.6c-5.1-1.3-10.4-2-15.7-2.2"/>
	<g>
		<g>
			<path class="st16" d="M61.9,66c0.1-2.8,1.9-4.9,4.1-4.8c1.1,0.1,5.2,1.8,8.7,3.8c1.8,1,3.4,2,4.6,2.9c0.6,0.5,1,0.9,1.3,1.3
				c0.2,0.4,0.3,0.6,0.3,0.6s-0.8-0.5-2.1-0.4c-1.3,0.1-3.2,0.3-5.1,0.5c-3.8,0.5-7.6,1.4-8.6,1.3C63.3,71.1,61.8,68.8,61.9,66z"/>
		</g>
	</g>
</g>
<path class="st18" d="M66.8,13.8h-12c-10.5,0-19,8.5-19,19V46h4v-1c0-10.5,8.5-19,19-19h12c6.1,0,11.5,2.9,15,7.4v-0.6
	C85.8,22.3,77.3,13.8,66.8,13.8z"/>
<path class="st19" d="M217.4,185.3h-52.9c-3.3,0-6-2.7-6-6v-80c0-3.3,2.7-6,6-6h52.9c3.3,0,6,2.7,6,6v80
	C223.4,182.6,220.7,185.3,217.4,185.3z"/>
<path class="st20" d="M215.3,121.3h-48.8c-2.8,0-5-2.3-5-5v-13.9c0-2.8,2.3-5,5-5h48.8c2.8,0,5,2.3,5,5v13.9
	C220.3,119.1,218.1,121.3,215.3,121.3z"/>
<circle class="st21" cx="190.9" cy="154.5" r="18.7"/>
<path class="st22" d="M203.9,171.3l-30.1-30.1c-0.4-0.4-0.4-1,0-1.4l2.1-2.1c0.4-0.4,1-0.4,1.4,0l30.1,30.1c0.4,0.4,0.4,1,0,1.4
	l-2.1,2.1C204.9,171.7,204.3,171.7,203.9,171.3z"/>
<path class="st23" d="M183.1,128.8h-19.6c-1.1,0-2-0.9-2-2V126c0-1.1,0.9-2,2-2h19.6c1.1,0,2,0.9,2,2v0.8
	C185.1,127.9,184.2,128.8,183.1,128.8z"/>
<path class="st24" d="M218.3,128.8h-19.6c-1.1,0-2-0.9-2-2V126c0-1.1,0.9-2,2-2h19.6c1.1,0,2,0.9,2,2v0.8
	C220.3,127.9,219.4,128.8,218.3,128.8z"/>
<circle class="st25" cx="190.6" cy="126.4" r="2.4"/>
<circle class="st26" cx="186.8" cy="179.7" r="3.4"/>
<circle class="st27" cx="215.7" cy="179.7" r="3.4"/>
<circle class="st28" cx="206.2" cy="179.7" r="3.4"/>
<circle class="st27" cx="196.7" cy="179.7" r="3.4"/>
<circle cx="186.8" cy="179.7" r="1.9"/>
<circle cx="196.7" cy="179.7" r="1.9"/>
<circle cx="206.2" cy="179.7" r="1.9"/>
<circle cx="215.7" cy="179.7" r="1.9"/>
<g>
	<g>
		<path class="st29" d="M214.5,179.6c-0.4,5.4,1,12,7.8,11.5c7.2-0.6,10.5-9.2,12.3-15.1c2.6-8.7,2.6-17.6,2.6-26.6
			c0-9.1,5.5-17.9,2.9-26.9c-0.5-1.9-3.4-1.1-2.9,0.8c1.9,6.6-1.4,12.5-2.5,18.9c-0.9,5.4-0.3,11.1-0.5,16.6c-0.2,6.1-0.9,12.2-3,18
			c-1.2,3.3-2.7,7.4-5.5,9.6c-1,1.1-2.4,1.7-4,1.7c-1.3-1.1-2.7-2.3-4-3.4c-0.6-1.3-0.2-3.8-0.1-5.1
			C217.6,177.7,214.6,177.7,214.5,179.6L214.5,179.6z"/>
	</g>
</g>
<g>
	<g>
		<path class="st29" d="M204.6,179.6c0,4.6,0.8,9.2,3,13.3c2,3.8,4.9,4.8,9.1,5.5c7.4,1.2,21,1.7,26.4-4.8c3.1-3.7,3.4-9.3,4.3-13.8
			c1.3-6.5,2.6-13,4-19.6c2.5-12.4,2.2-24.9,2.4-37.6c0-1.9-3-1.9-3,0c-0.2,9.7,0.5,19.9-1,29.6c-1.3,9-3.5,17.9-5.3,26.8
			c-0.7,3.6-1,8.8-3.2,12c-2.7,4-10.2,4.7-14.6,4.9c-4,0.2-9.2,0.4-12.9-1.2c-5.3-2.3-6.1-10.1-6.1-15.1
			C207.6,177.7,204.6,177.7,204.6,179.6L204.6,179.6z"/>
	</g>
</g>
<rect x="248.9" y="111.6" class="st30" width="6.3" height="13.4"/>
<rect x="235.4" y="111.6" class="st31" width="6.3" height="13.4"/>
</svg>
