<?xml version="1.0" encoding="utf-8"?>
<!-- Generator: Adobe Illustrator 22.0.1, SVG Export Plug-In . SVG Version: 6.00 Build 0)  -->
<svg version="1.1" id="Layer_1" xmlns="http://www.w3.org/2000/svg" xmlns:xlink="http://www.w3.org/1999/xlink" x="0px" y="0px"
	 viewBox="0 0 1111.3 1039" style="enable-background:new 0 0 1111.3 1039;" xml:space="preserve">
<style type="text/css">
	.st0{fill:#94DDDB;}
	.st1{fill:#6B9692;}
	.st2{fill:#525F4F;}
	.st3{fill:#7FA37F;}
	.st4{fill:#A6C5A2;}
	.st5{fill:#65815E;}
	.st6{fill:#FFEEEC;}
	.st7{fill:#FFFFFF;}
	.st8{fill:none;stroke:#231F20;stroke-width:16;stroke-miterlimit:10;}
</style>
<polygon class="st0" points="769.4,12.8 1081.4,304.6 1081.4,717.2 769.4,1009 328.1,1009 16,717.2 16,304.6 328.1,12.8 "/>
<polygon class="st1" points="603.4,281.1 931.5,844 229.1,905 "/>
<polygon class="st2" points="825.3,399.9 1041.9,754.9 856.2,928.4 776,1008.2 451.5,1008.2 "/>
<polygon class="st3" points="364.2,127.3 796,984.7 770.9,1008.2 590.3,1008.2 329.4,1008.2 53.5,750.2 "/>
<polygon class="st4" points="364.2,1008.2 625.4,1008.2 776,1008.2 801,984.7 364.2,127.3 364.2,127.3 364.5,970.7 "/>
<polygon class="st5" points="826.1,961.3 1041.9,754.9 826.1,399.9 826.1,399.9 "/>
<polygon class="st6" points="826.1,398.3 936.5,581.3 892.6,560.7 869.5,581.7 825.3,553.7 783.6,581.7 765.5,546.8 715,579 "/>
<polygon class="st7" points="826.1,398.3 825.3,553.7 869.5,581.7 892.6,560.7 936.5,581.3 "/>
<polygon class="st7" points="555,502 364.2,125.4 182,492 211,473 217.3,492 263,445 299.3,494.4 364,457 402,497.5 451,457 
	491,500.1 500,471 "/>
<polygon class="st6" points="364,125.8 180,496 209,476 217,494 262,449 298,496 364,457 "/>
<polygon class="st8" points="769.4,12.8 1081.4,304.6 1081.4,717.2 769.4,1009 328.1,1009 16,717.2 16,304.6 328.1,12.8 "/>
</svg>
